<svg xmlns="http://www.w3.org/2000/svg" width="443" height="80" viewBox="0 0 443 80" fill="none"><path d="M180.349 16.6121C193.125 15.1059 204.732 24.1665 206.372 36.926C208.012 49.6855 199.074 61.3869 186.333 63.1614C177.971 64.3261 169.627 60.9089 164.484 54.2129C159.342 47.5168 158.192 38.5744 161.474 30.7955C164.756 23.0167 171.964 17.6002 180.349 16.6121ZM186.293 56.5375C206.555 49.5997 199.571 20.8372 179.772 23.0368C158.31 30.9688 168.084 60.2471 186.293 56.5375Z" fill="#0F172A"></path><path d="M244 17.2522L251.417 17.2724C251.176 32.186 251.377 47.644 251.388 62.5955L244.021 62.5919C239.241 56.0569 234.825 49.224 230.415 42.4354C227.544 38.0157 224.861 33.2909 221.723 29.0794C221.835 40.2718 221.745 51.4138 221.673 62.6063L214.626 62.5962C214.492 47.6285 214.683 32.3128 214.704 17.316C217.08 17.2756 219.619 17.3415 222.008 17.3624C229.713 28.3279 236.633 39.5125 244.09 50.228C243.888 39.1958 243.942 28.2879 244 17.2522Z" fill="#0F172A"></path><path d="M387.34 16.2342C396.36 15.5047 401.739 19.4302 406.609 26.4749C404.963 27.681 402.542 30.1136 400.982 31.6036C397.214 25.0203 391.303 20.4421 383.749 23.7815C366.54 31.3907 374.058 62.9147 394.509 55.9254C398.327 54.62 400.255 49.6106 401.548 46.0172L390.64 45.9841C390.427 44.8457 390.496 41.1144 390.496 39.7686L407.935 39.8972C408.093 45.8717 407.881 51.1851 404.372 56.2525C397.809 65.7375 384.581 65.7998 375.881 59.5087C364.999 51.6379 363.716 35.0957 371.346 24.5815C375.316 19.1089 380.996 17.1416 387.34 16.2342Z" fill="#0F172A"></path><path d="M134.588 16.2191C143.676 15.0328 149.173 18.7702 155.115 24.865C153.416 26.932 151.887 29.0336 150.301 31.1868C148.271 28.0556 145.991 24.8369 142.252 23.735C134.232 21.3722 126.826 24.9212 124.286 32.989C120.072 46.3746 130.283 62.9835 145.458 54.7759C147.741 53.1026 148.963 51.2424 150.517 48.9589C151.983 50.5039 154.101 53.3818 155.252 55.1704C132.672 79.14 104.854 49.2943 119.912 25.208C123.159 20.0148 128.712 17.3552 134.588 16.2191Z" fill="#0F172A"></path><path d="M270.783 16.5676C279.299 15.9833 282.476 18.2686 286.558 25.4982L280.11 28.2795C278.11 25.8555 275.942 22.7157 272.35 23.0544C270.362 22.7291 267.393 26.9719 268.161 28.6761C271.868 36.9316 285.855 37.6921 286.67 48.4681C287.372 57.8122 282.318 62.5597 273.514 63.6184C267.667 63.2848 262.761 62.0925 260.164 56.086C259.656 54.9116 258.856 52.7578 259.339 51.5542C260.913 50.659 263.708 50.1219 265.549 49.6763C266.446 51.971 267.04 54.1367 269.13 55.7106C271.345 57.3788 276.511 57.2365 277.804 54.4249C283.258 42.276 262.847 41.977 261.165 31.46C259.829 23.1005 262.574 18.5237 270.783 16.5676Z" fill="#0F172A"></path><path d="M338.514 17.5216C344.826 17.2374 353.943 17.5014 360.449 17.509L360.409 24.375C355.409 24.4002 350.478 24.3581 345.478 24.2879L345.488 34.7901L360.316 34.8337L360.287 41.7015L345.416 41.7116L345.481 48.038L345.6 55.876C350.481 55.8648 355.409 55.9585 360.294 56.019L360.449 62.6304L338.507 62.6527L338.514 17.5216Z" fill="#0F172A"></path><path d="M408.146 17.4858C410.38 17.3846 413.348 17.4847 415.639 17.4948C418.669 22.7524 421.482 27.7049 424.89 32.7323C428.229 27.7431 430.874 22.4869 434.526 17.5006C436.962 17.4343 439.707 17.5045 442.171 17.5107C438.23 23.8486 434.645 30.4092 430.827 36.8278C430.099 38.1005 429.335 39.3722 428.59 40.6351C428.647 47.9655 428.532 55.4198 428.489 62.7592L421.331 62.7466C421.277 55.5802 421.446 48.2199 421.457 41.0188C416.565 33.8084 412.077 25.2161 408.146 17.4858Z" fill="#0F172A"></path><path d="M313.132 17.3657L319.249 17.4046L319.343 56.0216L332.307 56.0519C332.34 57.5955 332.686 61.687 331.706 62.6132L312.747 62.5981C312.761 58.7976 312.585 18.2627 313.132 17.3657Z" fill="#0F172A"></path><path d="M295.283 17.3289L302.462 17.3573C302.257 32.3931 302.322 47.5297 302.3 62.5742L295.347 62.5677C295.117 47.6202 295.286 32.312 295.283 17.3289Z" fill="#0F172A"></path><path d="M47.6697 0C49.1685 0.164421 58.7823 5.03583 61.0614 6.07836C49.5162 11.9196 36.7166 17.2656 25.0837 23.1304C20.5216 25.4304 15.7235 27.3839 11.2174 29.8675C11.05 36.5594 11.1136 43.3695 11.1128 50.0715L48.239 67.7922C59.09 63.1533 72.8912 56.7513 83.245 51.3455C76.0448 47.3782 67.9684 43.6844 60.5247 40.13C64.6122 38.2659 68.653 36.2895 72.6971 34.3324C75.43 35.4932 78.3514 36.9906 81.04 38.3008C86.0355 40.761 91.476 43.5727 96.5609 45.7365L96.4967 57.2674C90.997 60.1962 84.6672 62.8343 78.9915 65.4739C68.6862 70.267 58.4194 74.9856 48.2162 80C42.2087 77.3297 36.0447 74.1808 30.0781 71.3192L0.0557228 56.8682C0.188852 45.8356 0.306882 33.8416 0 22.8402C15.6203 15.3738 32.4351 7.98059 47.6697 0Z" fill="url(#paint0_linear_3_250)"></path><path d="M71.4191 11.809C72.7658 11.4791 94.0378 21.7865 96.637 22.9924C96.5214 26.9349 96.5777 30.9675 96.5947 34.9191C96.0474 34.7006 95.5212 34.4448 94.9906 34.1892C87.4665 30.5689 79.9846 26.8537 72.3968 23.3679C61.1287 29.0227 48.9099 34.1137 37.8759 39.9972L48.5761 45.2661C51.2725 46.5405 57.504 49.3055 59.7867 50.7686C56.1161 52.7704 51.6334 54.8423 47.8355 56.7127C41.3924 53.1805 29.752 47.8804 22.8839 44.7632C22.9635 41.4262 22.9306 38.2308 22.8861 34.8949C38.3831 27.4869 56.3522 19.6288 71.4191 11.809Z" fill="url(#paint1_linear_3_250)"></path><defs><linearGradient id="paint0_linear_3_250" x1="21.7262" y1="12.5628" x2="75.8433" y2="67.1201" gradientUnits="userSpaceOnUse"><stop stop-color="#3B82F6"></stop><stop offset="0.75" stop-color="#987AD6"></stop><stop offset="1" stop-color="#F472B6"></stop></linearGradient><linearGradient id="paint1_linear_3_250" x1="39.4784" y1="18.8539" x2="68.4042" y2="58.5288" gradientUnits="userSpaceOnUse"><stop stop-color="#3B82F6"></stop><stop offset="0.7" stop-color="#987AD6"></stop><stop offset="1" stop-color="#F472B6"></stop></linearGradient></defs></svg>