<?xml version="1.0" encoding="UTF-8"?>
<svg xmlns="http://www.w3.org/2000/svg" width="2400" height="799" viewBox="0 0 2400 799" fill="none">
  <path d="M1323.22 493.107L1324.6 492.92C1324.52 503.93 1324.56 514.94 1324.74 525.948C1324.88 532.333 1325.48 540.628 1325.33 546.743L1324.03 546.999C1323.01 528.71 1323.1 511.401 1323.22 493.107Z" fill="#E0E0E0"></path>
  <path d="M1330.88 545.998C1333.2 542.505 1360.95 515.302 1364.98 511.925L1365.66 512.312C1363.04 516.405 1345.43 533.623 1341.25 536.882L1339.88 538.478L1332.47 545.996L1330.88 545.998Z" fill="#E0E0E0"></path>
  <path d="M1263.01 551.752C1267.54 557.256 1283.29 575.624 1284.88 581.244L1284.57 581.873C1277.19 572.156 1268.72 562.74 1262.14 552.486L1263.01 551.752Z" fill="#E0E0E0"></path>
  <path d="M1265.76 547.192C1280.38 549.432 1305.21 552.311 1319.83 552.144L1319.94 553.544L1318.68 553.403C1315.62 553.515 1312.86 553.342 1309.85 552.82C1301.89 553.072 1273.15 550.713 1265.78 548.376L1265.76 547.192Z" fill="#E0E0E0"></path>
  <path d="M1309.85 552.82C1312.99 552.611 1315.6 552.725 1318.68 553.403C1315.62 553.515 1312.86 553.343 1309.85 552.82Z" fill="#E0E0E0"></path>
  <path d="M1284.73 512.314C1294.21 521.706 1304.09 531.847 1313.74 540.962L1314.83 541.92L1320.61 547.8L1319.99 548.116C1316.37 546.939 1287.15 517.304 1284.1 512.843L1284.73 512.314Z" fill="#E0E0E0"></path>
  <path d="M1274.58 511.839L1275.27 512.66C1273.45 518.932 1265.91 534.593 1262.88 541.312L1261.38 540.563C1262.32 539.247 1264.92 533.053 1265.73 531.23L1266.57 528.901C1269.4 523.29 1272.07 517.601 1274.58 511.839Z" fill="#E0E0E0"></path>
  <path d="M1323.03 397.358L1324.39 396.888L1325.86 397.63L1329.06 399.106C1329.94 400.155 1330.44 401.026 1331.58 401.615L1331.69 402.869C1331.6 404.046 1331.39 405.861 1331.42 406.992L1330.95 407.95C1329.41 409.626 1328.17 411.036 1326.42 412.526L1324.53 412.823L1323.2 412.724C1319.77 412.098 1319.26 410.593 1316.28 408.735L1315.97 408.547L1315.68 407.771C1316.52 404.795 1315.77 404.458 1317.5 400.184L1318.04 399.244C1320.17 397.796 1320.47 397.716 1323.03 397.358Z" fill="#E0E0E0"></path>
  <path d="M1472.97 365.687L1473.77 365.6C1475.71 367.353 1478.62 369.615 1479.44 371.957L1479.83 373.683L1477.85 378.473L1477.21 379.271L1472.3 380.869L1470.96 380.569C1469.22 379.87 1468.26 379.643 1466.42 379.192L1465.65 378.514C1466.22 376.327 1465.01 374.412 1464.06 372.319L1464.88 371.347C1465.67 370.189 1467.06 368.551 1467.97 367.404L1469.1 366.684L1472.97 365.687Z" fill="#E0E0E0"></path>
  <path d="M1471.07 424.699L1472.17 424.685C1473.53 425.176 1474.92 425.883 1476.26 425.539L1477.61 425.596C1477.2 427.528 1478.76 430.721 1480 432.156L1480.18 433.145C1476.7 435.124 1478.12 437.162 1473.53 438.699L1472.23 439.075L1468.69 438.834L1467.77 438.06L1464.69 433.715L1464.67 432.773C1464.73 430.581 1466.06 428.241 1467.01 426.161L1467.94 425.13L1469.1 425.647L1471.07 424.699Z" fill="#E0E0E0"></path>
  <path d="M1323.51 307.284L1324.47 307.196C1327.54 308.422 1328.1 309.085 1330.5 311.385L1330.87 312.273C1330.14 314.246 1329.74 315.849 1330.48 317.961L1329.87 318.708L1326.56 320.635L1324.55 321.965L1323.22 321.843C1320.43 321.754 1319.11 320.063 1317.47 318.118L1317.36 317.627L1316.57 312.016L1317.06 311.49L1320.58 307.503L1323.51 307.284Z" fill="#E0E0E0"></path>
  <path d="M1323.27 479.733L1324.53 479.362C1327.42 480.583 1327.75 480.907 1329.99 483.078L1330.42 484.183L1330.37 486.459L1329.74 487.689C1327.72 490.492 1327.39 490.901 1324.6 492.92L1323.22 493.107C1320.24 491.934 1319.52 491.181 1317.06 489.076L1316.52 488.175C1316.93 486.743 1316.74 484.68 1316.69 483.133L1317.42 482.336C1319.82 480.394 1320.23 479.992 1323.27 479.733Z" fill="#E0E0E0"></path>
  <path d="M1254.92 541.163C1257.34 540.147 1258.85 540.238 1261.38 540.563L1262.88 541.311C1264.08 543.261 1265.02 545.012 1265.76 547.192L1265.78 548.376C1264.32 549.378 1263.7 550.125 1263.01 551.752L1262.15 552.486L1258.12 553.005L1257.08 552.615C1255.68 551.83 1254.44 550.59 1253.22 549.556L1252.23 548.621L1252.07 546.773L1252.21 545.616L1254.01 542.684L1254.92 541.163Z" fill="#E0E0E0"></path>
  <path d="M1330.88 545.998L1332.47 545.996C1331.2 547.374 1330.12 548.087 1329.89 550.016L1330.32 550.955L1330.67 552.033L1329.07 556.476L1327.86 557.526C1325.35 557.633 1323.66 557.303 1321.32 556.402L1320.03 555.644L1319.94 553.544L1319.83 552.144C1320.18 550.662 1320.28 549.618 1319.99 548.116L1320.61 547.8C1322.02 547.839 1322.77 547.604 1324.03 546.999L1325.33 546.743C1326.28 547.27 1327.09 547.724 1328.2 547.767C1329.42 547.813 1330.02 546.801 1330.88 545.998Z" fill="#E0E0E0"></path>
  <path d="M1439.49 294.376C1440.84 295.231 1441.63 295.989 1443.18 295.86L1444.99 295.206C1447.41 295.638 1447.95 296.42 1449.65 298.113L1449.6 299.706C1449.92 302.464 1450.24 302.968 1452.73 305.115L1452.52 305.987L1452.22 306.276C1450.82 304.766 1450.38 304.054 1448.45 303.275L1447.44 304.291L1446.79 304.858L1445.67 304.354L1444.04 304.35C1443.08 303.288 1441.91 301.568 1441.04 300.369L1441.62 298.728L1440.93 297.157L1439.49 294.376Z" fill="#E0E0E0"></path>
  <path d="M1210.11 297.367L1212.29 297.769L1212.61 299.282C1213.21 300.499 1213.29 301.107 1214.28 301.879L1213.91 303.289L1213.02 303.838L1210.64 305.756L1209.19 306.114L1206.78 307.753L1205.83 307.365L1205.89 306.391L1205.01 304.335L1204.1 302.244L1204.31 300.813L1204.6 300.343C1206.11 297.892 1206.32 297.755 1208.97 296.68L1210.11 297.367Z" fill="#E0E0E0"></path>
  <path d="M1170.12 510.176C1172.1 508.208 1171.24 508.514 1173.43 508.411C1173.96 508.857 1174.73 509.387 1175.01 509.945C1178.94 515.068 1214.97 551.405 1219.13 552.29C1218.29 552.916 1217.46 553.65 1216.52 554.112C1202.27 540.538 1184.39 522.446 1170.12 510.176Z" fill="#E0E0E0"></path>
  <path d="M1226.63 558.51L1227.81 557.725C1242.48 564.973 1257.67 571.645 1272.8 577.892L1278.06 580.264C1280.15 581.474 1281.87 582.257 1284.25 582.766C1283.49 583.368 1282.6 584.287 1281.67 584.547L1275.6 582.852L1274.62 582.625C1267.56 579.319 1259.73 576.955 1252.46 574.049C1243.11 570.308 1234 566 1224.7 562.132L1225.21 560.658L1226.63 558.51Z" fill="#E0E0E0"></path>
  <path d="M1220.05 551.713L1221.83 551.418C1223.55 552.491 1224.76 553.276 1225.82 555.078L1227.32 557.055L1227.81 557.725L1226.63 558.51L1225.21 560.659L1224.7 562.132C1223.79 562.388 1222.89 562.638 1221.95 562.775C1219.62 563.118 1217.78 561.623 1216.02 560.336L1215.6 557.959C1215.54 556.594 1216.08 555.382 1216.52 554.112C1217.46 553.65 1218.29 552.916 1219.13 552.29L1220.05 551.713Z" fill="#E0E0E0"></path>
  <path d="M1136.25 430.876L1138.08 431.59L1139.62 431.984L1143.28 435.785L1142.92 437.041C1141.78 439.747 1141.65 440.381 1139.18 442.029C1137.81 443.399 1137.77 443.656 1137.48 445.582L1136.8 445.994C1136.48 442.193 1132.75 441.935 1131.35 437.77C1131.29 435.012 1131.95 434.327 1133.42 432.082C1134.54 430.854 1134.21 431.24 1136.25 430.876Z" fill="#E0E0E0"></path>
  <path d="M1175.7 367.681L1179.63 367.857L1180.34 368.424L1183.81 371.999V373.589C1183.09 376.015 1181.61 379.21 1182.36 381.159L1181.82 381.699L1180.38 380.918C1179.22 381.41 1178.38 381.661 1177.43 382.51L1176.27 382.376C1175.56 381.91 1172.7 380.745 1171.76 380.337L1170.83 379.303C1170.02 377.96 1169.16 376.053 1168.45 374.605L1168.25 373.389C1170.58 370.317 1171 369.761 1174.3 367.648L1175.7 367.681Z" fill="#E0E0E0"></path>
  <path d="M1176.78 428.01L1177.43 428.096C1178.69 429.011 1178.94 429.362 1180.5 429.335L1182.55 429.479L1182.24 431.155L1182.64 432.48L1183.77 436.714L1183.2 437.866L1182.19 440.048C1181.75 440.729 1180.75 442.183 1180.43 442.832L1179.41 443.138C1178.31 442.8 1177.73 442.916 1176.56 442.918L1174.82 442.971C1170.73 440.131 1170.28 439.513 1169.37 434.658L1169.77 433.306L1171.31 431.113L1172.29 430.24C1173.82 429.373 1175.19 428.749 1176.78 428.01Z" fill="#E0E0E0"></path>
  <path d="M1235 351.524L1235.96 352.131L1235.91 353.237L1237.31 354.299L1237.25 360.616L1235.13 361.235L1233.73 363.328L1232.38 363.001L1228.89 362.001L1228.03 361.227L1226.73 359.09L1226.68 358.193C1226.7 355.398 1226.7 355.017 1228.14 352.577L1229.94 351.848C1231.6 351.705 1233.34 351.505 1235 351.524Z" fill="#E0E0E0"></path>
  <path d="M1233.71 442.287L1234.8 442.253C1236.2 443.802 1236.4 444.078 1238.38 444.669L1238.83 445.387L1238.64 449.794L1238.23 451.123L1238.16 452.867L1236.95 453.02C1234.54 452.302 1233.76 452.282 1231.87 454.28L1231.1 454C1231.03 452.076 1229.3 449.702 1228.24 447.957L1228.84 446.323L1230.17 444.27L1231.09 443.061C1232.04 442.868 1232.88 442.785 1233.71 442.287Z" fill="#E0E0E0"></path>
  <path d="M1180.43 442.832C1182.26 445.287 1191.31 463.523 1192.88 467.088C1196.61 475.585 1203.29 486.707 1206.85 494.796L1206.03 496.305C1198.13 481.014 1186.18 458.614 1179.41 443.138L1180.43 442.832Z" fill="#E0E0E0"></path>
  <path d="M1173.75 504.061C1182.21 503.061 1195.68 501.607 1203.98 501.414L1203.83 502.739C1197.44 503.155 1188.82 504.356 1182.95 504.431L1181.13 504.74L1173.83 504.998L1173.75 504.061Z" fill="#E0E0E0"></path>
  <path d="M1198.85 495.62L1199.56 495.561L1200.53 496.813C1200.31 496.744 1199.12 495.822 1198.85 495.62Z" fill="#E0E0E0"></path>
  <path d="M1136.88 446.845L1138.87 447.971C1142.83 457.139 1147.09 466.174 1151.65 475.06C1153.44 478.635 1159.61 490.591 1160.53 493.88C1161.4 496.02 1161.49 496.599 1163.42 497.783L1164.91 497.991C1165.93 498.885 1166.41 499.433 1167.7 499.908L1169.99 499.334C1171.28 500.904 1172.55 502.417 1173.75 504.061L1173.83 504.998C1173.38 508.477 1176.35 509.055 1179.28 510.541L1178.18 511.346L1175.01 509.945C1174.73 509.387 1173.96 508.857 1173.43 508.411C1171.24 508.514 1172.11 508.208 1170.12 510.176L1166.18 510.572L1162.99 508.485C1161.98 505.915 1163.14 501.764 1162.69 501.092C1155.97 491.085 1149.95 481.078 1143.85 470.702L1143.58 469.089C1140.25 462.747 1138.09 453.858 1136.88 446.845Z" fill="#E0E0E0"></path>
  <path d="M1136.8 445.994L1137.48 445.581C1137.77 443.656 1137.81 443.399 1139.18 442.029C1147.75 448.762 1163.13 463.985 1171.53 471.897C1172.31 464.594 1173.51 449.667 1174.82 442.971L1176.56 442.918C1175.94 446.945 1172.19 471.564 1173.29 473.841L1176.27 475.56C1184.18 482.319 1192.85 488.276 1200.62 495.16L1199.56 495.561L1198.85 495.62C1190.27 488.367 1181.44 481.421 1172.38 474.795L1169.99 499.334L1167.7 499.908C1169.09 496.456 1170.49 478.194 1170.91 473.457L1157.07 460.529C1156.56 460.25 1155.63 459.093 1155.17 458.588C1152.17 456.017 1149.03 452.969 1146.12 450.254L1145.47 449.556C1143.75 448.059 1141.42 445.908 1139.66 444.583C1145.4 462.487 1157 480.897 1164.91 497.991L1163.42 497.783C1161.49 496.599 1161.39 496.02 1160.53 493.88C1159.61 490.591 1153.44 478.635 1151.65 475.06C1147.09 466.174 1142.83 457.139 1138.87 447.971L1136.88 446.845L1136.8 445.994Z" fill="#E0E0E0"></path>
  <path d="M1155.17 458.588C1156.2 459.402 1156.48 459.424 1157.07 460.529C1156.56 460.25 1155.63 459.093 1155.17 458.588Z" fill="#E0E0E0"></path>
  <path d="M1213.65 504.166C1218.48 508.326 1225.92 514.447 1230.16 518.926L1228.22 518.788L1219.49 511.184L1218.53 510.278L1212.79 505.084L1213.65 504.166Z" fill="#E0E0E0"></path>
  <path d="M1230.28 519.249C1233.31 521.276 1238.52 526.313 1241.03 529.136L1239.75 529.543L1232.95 523.22C1231.89 521.983 1231.13 520.64 1230.28 519.249Z" fill="#E0E0E0"></path>
  <path d="M1241.03 529.136C1244.54 531.884 1246.84 534.173 1250.01 537.274L1248.31 537.65C1245.39 535.021 1242.53 532.318 1239.75 529.543L1241.03 529.136Z" fill="#E0E0E0"></path>
  <path d="M1250.01 537.274C1251.49 538.613 1253.06 540.389 1254.92 541.163L1254.01 542.684C1251.96 541.362 1250.1 539.323 1248.31 537.65L1250.01 537.274Z" fill="#E0E0E0"></path>
  <path d="M1230.16 518.926L1230.28 519.249C1231.13 520.64 1231.89 521.983 1232.96 523.22C1231.66 522.177 1229.48 519.991 1228.22 518.788L1230.16 518.926Z" fill="#E0E0E0"></path>
  <path d="M1252.23 548.621L1253.22 549.556C1248.66 551.182 1229.15 554.461 1227.32 557.055L1225.82 555.078C1234.38 552.416 1243.5 550.69 1252.23 548.621Z" fill="#E0E0E0"></path>
  <path d="M1207.11 506.248L1211.14 505.985C1213.11 513.46 1215.15 521.727 1216.31 529.388C1225.34 533.591 1244.88 541.552 1252.21 545.616L1252.07 546.773C1240.34 541.885 1228.53 537.034 1217.08 531.516C1218.59 538.14 1219.9 544.904 1221.83 551.418L1220.05 551.713L1215.03 530.684C1203.04 524.099 1190.42 518.075 1178.18 511.346L1179.28 510.541L1214.89 528.84C1213.44 522.236 1212.34 514.318 1209.85 507.982C1209.28 506.528 1208.64 506.692 1207.11 506.248Z" fill="#E0E0E0"></path>
  <path d="M1206.85 494.796L1207.42 495.552C1209.63 496.086 1210.15 496.264 1212.4 496.109L1214.17 500.014L1214.23 501.401L1213.65 504.166L1212.79 505.084L1211.14 505.985L1207.11 506.248C1205.18 505.374 1204.89 504.555 1203.83 502.739L1203.98 501.414C1204.04 499.014 1202.25 498.262 1200.53 496.813L1199.56 495.561L1200.62 495.16C1202.44 496.87 1202.94 498.027 1204.91 498.082L1206.04 496.305L1206.85 494.796Z" fill="#E0E0E0"></path>
  <path d="M1238.16 452.868C1245.24 460.054 1253.53 472.432 1259.89 480.605C1262.87 484.42 1271.14 494.683 1273.34 498.38L1272.75 498.809C1269.24 495.855 1241.28 458.866 1236.95 453.021L1238.16 452.868Z" fill="#E0E0E0"></path>
  <path d="M1214.17 500.014C1222.63 500.072 1231.5 501.373 1239.17 501.402L1242.33 501.674C1250.93 503.031 1263.96 502.895 1271.64 504.61L1271.31 505.566C1262.41 504.732 1252.99 504.172 1244.04 503.499L1242.23 503.33C1239.95 502.375 1217.99 501.543 1214.23 501.4L1214.17 500.014Z" fill="#E0E0E0"></path>
  <path d="M1231.1 454L1231.87 454.28C1229.39 461.421 1224.72 470.486 1221.28 477.328C1218.86 482.31 1214.24 491.258 1212.4 496.109C1210.15 496.264 1209.63 496.086 1207.42 495.552L1209.17 495.486C1212.92 493.61 1218.7 479.338 1220.51 475.206L1220.89 474.465C1224.5 468.114 1227.52 460.638 1231.1 454Z" fill="#E0E0E0"></path>
  <path d="M1273.34 498.38C1280.94 497.383 1280.01 496.419 1286.97 500.801L1287.55 501.65L1286.92 504.853C1286.41 507.412 1284.5 510.848 1284.73 512.314L1284.1 512.843C1282.78 512.17 1277.14 512.596 1275.27 512.66L1274.58 511.839C1272.7 509.222 1272.46 508.599 1271.31 505.566L1271.64 504.61C1271.93 502.043 1273.5 501.621 1272.76 498.809L1273.34 498.38Z" fill="#E0E0E0"></path>
  <path d="M1308.03 491.575C1310.94 490.293 1313.54 489.283 1316.52 488.175L1317.06 489.076C1313.87 490.511 1310.68 491.963 1307.5 493.434C1302.96 495.384 1291.79 500.5 1287.55 501.65L1286.97 500.801C1293.03 497.545 1300.85 495.418 1307.06 491.886L1308.03 491.575Z" fill="#E0E0E0"></path>
  <path d="M1238.64 449.794C1266.15 460.428 1290.63 469.986 1317.42 482.336L1316.69 483.133C1314.12 482.565 1311.04 481.053 1308.62 479.935C1285.54 469.271 1261.89 460.413 1238.23 451.123L1238.64 449.794Z" fill="#E0E0E0"></path>
  <path d="M1323.2 412.724L1324.53 412.823L1324.62 416.029L1324.53 479.362L1323.27 479.733C1322.19 460.816 1323.15 432.359 1323.2 412.724Z" fill="#E0E0E0"></path>
  <path d="M1183.81 371.998C1194.73 367.88 1215.39 361.2 1226.68 358.193L1226.73 359.09C1221.64 360.975 1189.5 372.073 1185.34 372.703L1184.38 373.939L1183.81 373.589V371.998Z" fill="#E0E0E0"></path>
  <path d="M1183.77 436.714C1197.24 439.978 1215.14 443.886 1228.84 446.323L1228.24 447.957C1213.63 444.339 1199.14 441.97 1184.51 438.561L1183.2 437.866L1183.77 436.714Z" fill="#E0E0E0"></path>
  <path d="M1228.03 361.227L1228.89 362.001C1225.12 367.545 1200.98 400.577 1201.08 404.304L1201.98 405.768L1202.86 406.494C1212.11 418.902 1222.02 430.791 1231.09 443.061L1230.17 444.271C1226.88 439.995 1221.62 432.502 1218.15 428.997L1217.38 427.477C1211.35 420 1205.45 412.417 1199.69 404.73C1193.6 412.307 1188.47 421.584 1182.55 429.479L1180.5 429.335C1186.67 421.631 1193.11 411.542 1198.71 403.166C1193.96 397.506 1185.32 387.57 1181.82 381.699L1182.36 381.159C1184.35 382.989 1196.98 398.946 1199.49 402.022C1208.74 388.238 1218.25 374.637 1228.03 361.227Z" fill="#E0E0E0"></path>
  <path d="M1232.38 363.001L1233.73 363.328C1235.5 380.165 1234.64 401.53 1235.17 418.632C1235.29 422.552 1235.35 439.154 1234.8 442.254L1233.71 442.287C1233.85 415.852 1233.41 389.417 1232.38 363.001Z" fill="#E0E0E0"></path>
  <path d="M1243.48 299.014C1251.01 297.893 1265.39 296.231 1272.45 296.999L1272.85 297.926C1263 298.382 1252.51 299.9 1243.42 300.25L1241.74 300.498C1232.45 301.33 1223.17 302.261 1213.91 303.289L1214.28 301.879C1220.86 300.508 1233.47 299.901 1240.89 298.992L1243.48 299.014Z" fill="#E0E0E0"></path>
  <path d="M1233.25 277.582C1239.25 271.165 1245.09 264.603 1250.77 257.898L1252.06 258.349C1247.79 263.875 1237.44 275.757 1232.26 280.476L1229.88 282.597L1212.61 299.282L1212.29 297.77C1216.57 293.385 1220.67 289.23 1225.13 285.03L1228.73 281.829C1229.78 280.888 1231.07 279.419 1232.06 278.354L1233.25 277.582Z" fill="#E0E0E0"></path>
  <path d="M1294.85 277.246L1295.67 278.289L1287.13 286.833C1289.65 291.694 1289.81 292.222 1288.32 297.525L1288.37 298.99C1284.03 299.691 1283.78 303.023 1278.09 302.049L1276.34 300.412L1275.07 299.57C1274.64 299.343 1273.32 298.285 1272.85 297.926L1272.45 296.999C1270.89 287.71 1275.69 288.94 1275.73 284.744L1276.39 284.216C1277.06 284.772 1283 284.96 1286.24 285.982C1289.15 283.229 1292.05 280.138 1294.85 277.246Z" fill="#E0E0E0"></path>
  <path d="M1288.32 297.524C1293.59 300.912 1309.7 308.525 1316.2 310.743L1317.06 311.49L1316.57 312.016C1309.32 310.078 1298.16 304.477 1291.11 301.094L1288.86 299.744L1288.37 298.99L1288.32 297.524Z" fill="#E0E0E0"></path>
  <path d="M1317.36 317.627L1317.47 318.117C1313.27 320.215 1302.38 325.869 1298.43 327.057L1297.28 327.975C1289.01 331.528 1280.78 335.188 1272.61 338.955C1266.72 341.651 1241.83 353.388 1237.31 354.3L1235.91 353.238C1240.22 352.777 1265.87 340.505 1270.64 337.893L1271.35 337.788L1296.78 326.523L1300.37 324.737C1305.64 322.301 1311.87 319.187 1317.36 317.627Z" fill="#E0E0E0"></path>
  <path d="M1258.31 321.203C1262.01 317.293 1271.36 304.439 1275.07 299.57L1276.34 300.412L1275.17 301.824C1263.53 316.567 1247.88 338.951 1235.96 352.131L1235 351.524C1236.64 348.766 1255.24 325.221 1257.36 323.114L1258.31 321.203Z" fill="#E0E0E0"></path>
  <path d="M1323.22 321.843L1324.55 321.965L1324.6 339.05L1324.71 340.031C1324.51 358.818 1324.11 378.132 1324.39 396.888L1323.03 397.358C1322.21 391.81 1322.68 376.053 1322.74 369.852C1322.82 353.849 1322.98 337.845 1323.22 321.843Z" fill="#E0E0E0"></path>
  <path d="M1237.25 360.616C1260.65 372.515 1284.31 383.901 1308.2 394.765L1312.29 396.464L1318.04 399.244L1317.5 400.184C1290.86 388.972 1261.02 374.298 1235.13 361.235L1237.25 360.616Z" fill="#E0E0E0"></path>
  <path d="M1315.68 407.771L1315.97 408.547C1307.71 413.691 1285.91 423.334 1276.36 427.791C1265.62 432.805 1249.24 441.307 1238.83 445.387L1238.38 444.669C1241 441.976 1307.47 411.338 1315.68 407.771Z" fill="#E0E0E0"></path>
  <path d="M1179.63 367.857C1188.01 347.542 1196.75 327.375 1205.83 307.365L1206.78 307.753C1203.43 316.295 1183.97 363.782 1180.34 368.424L1179.63 367.857Z" fill="#E0E0E0"></path>
  <path d="M1210.64 305.756C1216.64 318.544 1223.71 340.809 1229.94 351.848L1228.14 352.577C1227.53 350.085 1223.45 340.496 1222.19 337.465C1217.93 327.256 1213.9 316.033 1209.19 306.114L1210.64 305.756Z" fill="#E0E0E0"></path>
  <path d="M1168.98 300.687C1169.81 311.509 1169.22 321.289 1170.66 332.297C1182.01 323.491 1194.01 312.58 1205.01 304.336L1205.89 306.392C1201.62 307.784 1176.03 329.991 1170.79 334.412C1172.19 345.535 1173.83 356.627 1175.7 367.681L1174.3 367.648C1172.44 357.448 1170.47 346.003 1169.6 335.709C1154.9 349.064 1151.4 354.027 1139.12 368.036L1137.87 367.137C1149.16 352.766 1156.16 346.349 1169.41 333.707C1167.79 324.099 1167.78 311.656 1167.62 301.787L1168.98 300.687Z" fill="#E0E0E0"></path>
  <path d="M1176.27 382.376L1177.43 382.51C1177.92 394.933 1178.04 415.686 1177.43 428.095L1176.78 428.01C1175.68 423.645 1176.23 389.056 1176.27 382.376Z" fill="#E0E0E0"></path>
  <path d="M1141.23 373.508C1148.36 372.79 1160.94 373.183 1168.24 373.389L1168.45 374.604L1140.31 375.059L1141.23 373.508Z" fill="#E0E0E0"></path>
  <path d="M1170.83 379.303L1171.76 380.337L1171.49 381.583L1170.64 383.058C1165.92 390.343 1161.33 397.711 1156.88 405.159L1159.65 409.462C1162.39 413.902 1165.18 418.316 1168 422.703L1170.04 426.018L1172.29 430.24L1171.31 431.113C1166.69 423.696 1160.76 413.559 1155.87 406.591C1150.47 414.931 1144.75 423.518 1139.62 431.984L1138.08 431.59C1142.15 424.694 1147.43 416.804 1151.79 409.959L1155.18 405.224C1149.92 397.979 1142.81 388.128 1138.64 380.432L1139.28 379.954C1142.18 383.082 1153.03 399.817 1155.86 404.068C1161.03 396.072 1165.96 387.511 1170.83 379.303Z" fill="#E0E0E0"></path>
  <path d="M1143.28 435.785C1149.66 434.753 1163.43 433.472 1169.77 433.306L1169.37 434.658C1161.37 435.176 1150.17 437.07 1142.92 437.041L1143.28 435.785Z" fill="#E0E0E0"></path>
  <path d="M1131.55 381.481C1132.5 380.063 1132.82 380.264 1134.62 379.373L1134.51 384.554C1134.67 392.922 1134.34 402.418 1134.75 410.584L1134.38 412.037L1134.7 412.824C1134.56 418.88 1135.08 424.933 1136.25 430.876C1134.21 431.24 1134.54 430.854 1133.42 432.082C1132.77 428.147 1130.87 421.655 1129.96 416.803L1129.74 414.033C1128.03 404.139 1128.69 391.113 1131.55 381.481Z" fill="#E0E0E0"></path>
  <path d="M1134.38 412.038C1133.33 406.034 1133.37 390.52 1134.51 384.554C1134.67 392.922 1134.34 402.418 1134.75 410.584L1134.38 412.038Z" fill="#E0E0E0"></path>
  <path d="M1133.65 365.546L1136.71 367.555L1137.87 367.137L1139.12 368.036C1139.55 370.823 1139.76 371.151 1141.23 373.508L1140.31 375.059C1139.06 377.92 1138.91 377.176 1139.28 379.954L1138.64 380.432C1136.85 378.927 1137.68 379.356 1134.62 379.373C1132.82 380.264 1132.5 380.063 1131.55 381.481L1131.7 379.344C1123.83 369.555 1132.27 371.076 1133.65 365.546Z" fill="#E0E0E0"></path>
  <path d="M1134.08 361.802C1134.82 360.436 1137.9 348.932 1138.92 346.214C1144.58 331.252 1153.93 312.047 1164.08 299.74L1166.98 301.822C1156.02 313.81 1142.65 352.477 1136.71 367.555L1133.65 365.546L1134.08 361.802Z" fill="#E0E0E0"></path>
  <path d="M1173.48 297.106C1173.68 295.681 1174.23 294.131 1174.65 292.738L1175.08 294.887C1177.16 296.161 1200.12 300.028 1204.31 300.813L1204.1 302.244C1193.88 300.786 1184.23 298.49 1173.48 297.106Z" fill="#E0E0E0"></path>
  <path d="M1218.03 248.981L1219.3 250.441C1219.36 255.532 1216.98 264.343 1215.74 269.572C1221.9 266.648 1245.39 255.099 1250.32 254.38L1250.85 255.473C1242.58 258.694 1236.55 261.446 1228.6 265.341L1215.47 271.397C1213.78 280.072 1211.99 288.729 1210.11 297.367L1208.97 296.68L1209.74 293.21L1210.94 286.751L1213.29 272.316L1203.19 277.292C1200.18 278.622 1188.77 284.184 1186.07 285.998C1182.99 287.577 1179.94 289.034 1177.11 291.032L1175.13 292.174L1173.61 289.689C1177.08 289.262 1182.77 279.684 1187.15 278.388C1184.05 282.433 1181.14 285 1177.45 288.47C1189.57 282.302 1201.77 276.288 1214.05 270.428C1215.91 263.395 1217.38 256.235 1218.03 248.981Z" fill="#E0E0E0"></path>
  <path d="M1214.44 247.423L1214.75 248.131C1210.74 254.194 1192.77 273.054 1187.15 278.388C1182.77 279.683 1177.08 289.262 1173.61 289.689L1173.38 289.338C1174.11 286.811 1182.13 281.047 1184.17 277.155C1185.34 275.464 1200.63 261.761 1204.19 257.862L1207.15 254.747L1214.44 247.423Z" fill="#E0E0E0"></path>
  <path d="M1184.17 277.155C1182.13 281.048 1174.11 286.811 1173.38 289.338L1173.61 289.689L1175.13 292.174L1174.65 292.738C1174.23 294.131 1173.68 295.681 1173.48 297.106C1171.77 299.052 1171.43 299.563 1168.98 300.687L1167.62 301.787L1166.98 301.822L1164.08 299.74C1163.54 295.241 1163.22 293.733 1165.88 290.044L1169.23 290.007C1171.94 289.888 1180.73 280.031 1184.17 277.155Z" fill="#E0E0E0"></path>
  <path d="M1348.55 215.064C1353.38 214.448 1357.69 206.39 1361.3 214.346L1361.49 214.776C1361.68 215.201 1361.8 215.67 1362.13 216.004C1361.96 218.298 1361.69 217.422 1363.21 219.263L1362.34 219.533L1360.33 220.011L1358.63 220.903L1358.12 220.959C1355.85 221.194 1355.1 221.151 1352.84 220.985C1350.24 223.001 1330.41 242.47 1329.61 244.372C1329.94 246.282 1330.14 246.481 1331.46 247.924L1331.23 248.816L1330.02 250.799L1329.27 251.694L1324.33 253.647L1323.16 253.823L1320.74 252.332L1319.28 251.921C1319.65 250.503 1319.23 250.302 1318.62 248.598L1318.39 247.567L1319.18 245.021L1319.79 244.23C1325 240.991 1327.5 243.244 1329.16 241.922C1333.35 238.585 1349.93 223.26 1351.12 219.178L1350.53 218.158L1348.31 217.939L1346.96 216.21C1347.17 215.97 1348.22 215.29 1348.55 215.064Z" fill="#E0E0E0"></path>
  <path d="M1301.18 213.53C1308.7 213.592 1317.35 213.457 1324.78 213.84C1327.41 213.775 1328.36 213.692 1330.96 214.227C1337.01 214.39 1342.52 214.598 1348.55 215.064C1348.22 215.29 1347.17 215.97 1346.96 216.21C1331.75 214.869 1311.53 215.06 1295.96 214.868L1298.02 213.876L1301.18 213.53Z" fill="#E0E0E0"></path>
  <path d="M1324.78 213.84C1327.41 213.775 1328.36 213.692 1330.96 214.227C1328.68 214.442 1326.59 214.985 1324.78 213.84Z" fill="#E0E0E0"></path>
  <path d="M1307.49 233.818C1310.09 235.162 1310.47 235.768 1312.34 237.98L1311.1 238.207L1308.53 236.123L1307.49 233.818Z" fill="#E0E0E0"></path>
  <path d="M1307.49 233.818L1308.53 236.123L1306.21 234.077L1307.49 233.818Z" fill="#E0E0E0"></path>
  <path d="M1312.34 237.979L1313.32 240.263L1311.11 238.207L1312.34 237.979Z" fill="#E0E0E0"></path>
  <path d="M1346.96 216.21L1348.31 217.939C1335.12 219.582 1321.47 219.363 1308.2 219.12C1303.84 219.04 1295.7 218.242 1291.87 218.515L1293.42 216.675C1305.69 217.806 1335.2 219.222 1346.96 216.21Z" fill="#E0E0E0"></path>
  <path d="M1294.01 221.395C1296.69 223.718 1305.95 231.478 1307.49 233.818L1306.21 234.077L1302.69 230.993L1301.79 229.993L1300.85 229.471L1298.53 227.437C1296.54 225.757 1294.6 223.724 1292.74 221.87L1294.01 221.395Z" fill="#E0E0E0"></path>
  <path d="M1316.91 241.379C1318.14 242.386 1318.97 242.896 1319.79 244.23L1319.18 245.021C1317.78 244.234 1316.12 242.496 1314.91 241.338L1316.91 241.379Z" fill="#E0E0E0"></path>
  <path d="M1312.34 237.979C1314.69 239.27 1314.98 239.504 1316.91 241.379L1314.91 241.338L1313.32 240.263L1312.34 237.979Z" fill="#E0E0E0"></path>
  <path d="M1304.82 248.953C1308.81 248.918 1314.38 248.121 1318.39 247.567L1318.62 248.598C1303.18 252.397 1278.7 250.901 1263 253.155L1262.84 251.853C1268.39 250.77 1296.14 249.623 1302.76 249.495L1304.82 248.953Z" fill="#E0E0E0"></path>
  <path d="M1319.28 251.921L1320.74 252.332L1307.4 266.023L1306.39 267.173L1295.66 278.289L1294.85 277.246C1298.76 273.183 1302.52 269.266 1306.26 265.048L1308.79 262.825C1310.27 260.468 1317.08 254.041 1319.28 251.921Z" fill="#E0E0E0"></path>
  <path d="M1260.31 257.983L1276.39 284.215L1275.73 284.744C1271.91 280.548 1262.33 264.011 1259.32 258.761L1260.31 257.983Z" fill="#E0E0E0"></path>
  <path d="M1281.39 223.074L1282.52 223.662C1275.2 231.436 1267.94 242.198 1261.65 248.61L1260.96 247.578C1263.7 243.256 1277.79 226.008 1281.39 223.074Z" fill="#E0E0E0"></path>
  <path d="M1250.05 250.507C1250.75 249.952 1251.47 249.414 1252.21 248.895C1255.64 246.488 1256.76 246.861 1260.96 247.578L1261.65 248.61L1262.84 251.853L1263 253.155C1262.14 255.147 1261.76 256.31 1260.31 257.983L1259.32 258.76C1256.69 258.76 1254.68 258.591 1252.06 258.348L1250.77 257.898L1250.85 255.472L1250.32 254.38C1250.5 253.278 1250.13 252.304 1249.84 251.203L1250.05 250.507Z" fill="#E0E0E0"></path>
  <path d="M1227.45 243.548C1232.73 244.7 1246.45 247.327 1250.05 250.507L1249.84 251.203C1241.68 248.406 1235.49 246.712 1227.07 245.048L1227.45 243.548Z" fill="#E0E0E0"></path>
  <path d="M1281.64 216.082C1281.9 216.917 1282.07 217.632 1282.03 218.507L1283.04 219.051C1268.76 222.695 1243.88 236.737 1227.88 241.206L1227.35 240.461L1225.57 240.012L1224.86 237.952L1227.74 237.161C1242.08 229.905 1265.98 221.908 1281.64 216.082Z" fill="#E0E0E0"></path>
  <path d="M1214.44 247.423C1212.89 238.655 1215.2 236.027 1223.83 236.638L1224.86 237.952L1225.57 240.012L1227.35 240.461L1227.88 241.206C1227.11 242.77 1227.17 242.001 1227.45 243.548L1227.07 245.048C1225.55 246.007 1219.97 249.25 1219.3 250.441L1218.03 248.981C1216.5 248.121 1216.45 248.067 1214.75 248.131L1214.44 247.423Z" fill="#E0E0E0"></path>
  <path d="M1281.64 216.082C1283.51 209.538 1288.7 210.203 1292.97 214.103L1293.34 215.625L1293.42 216.675L1291.87 218.515C1292.61 219.776 1292.88 220.433 1294.01 221.395L1292.74 221.87C1288.39 218.752 1285.86 219.574 1282.52 223.662L1281.39 223.074L1283.23 220.867L1283.04 219.051L1282.03 218.507C1282.07 217.632 1281.9 216.917 1281.64 216.082Z" fill="#E0E0E0"></path>
  <path d="M1298.02 213.876L1295.96 214.868L1293.34 215.625L1292.97 214.103C1294.36 213.893 1296.55 213.911 1298.02 213.876Z" fill="#E0E0E0"></path>
  <path d="M1698.92 420.015L1700.49 420.113L1692.44 552.466C1691.29 573.755 1689.92 595.59 1689.69 616.899C1689.57 621.293 1689.36 625.708 1689.35 630.103L1687.28 629.557C1686.91 621.34 1687.83 607.604 1688.16 599.074C1689.13 575.914 1690.34 552.766 1691.78 529.632C1693.1 505.57 1694.57 481.516 1696.18 457.472C1696.89 446.552 1697.47 430.409 1698.92 420.015Z" fill="#E0E0E0"></path>
  <path d="M1690.91 416.496L1692.36 416.96C1686.01 431.288 1677.22 447.41 1670.09 461.618L1625.23 550.459L1575.2 647.979C1568.15 661.634 1559.77 679.464 1552.44 692.337L1550.54 691.561L1583.76 626.052L1585.26 622.991C1589.81 616.881 1593.16 608.392 1596.64 601.528L1619.14 557.036L1619.48 556.204C1622.29 552.233 1632.56 530.964 1635.43 525.384L1669.04 458.631C1674.84 446.985 1684.26 427.325 1690.91 416.496Z" fill="#E0E0E0"></path>
  <path d="M1687.28 629.557L1689.35 630.103C1694.53 631.861 1697.21 634.298 1700.94 638.151L1701.13 640.001C1702 643.17 1702.03 645.71 1700.87 648.832L1700.21 650.775C1698.13 653.681 1695.73 655.73 1692.98 657.959C1691.51 658.279 1689.95 658.524 1688.53 659.014L1686.53 658.821C1681.5 658.549 1678.15 656.538 1674.67 653.064L1673.17 651.523L1671.28 643.713C1671.94 641.53 1672.69 639.181 1673.9 637.237C1675.99 633.875 1680.26 631.401 1684.08 630.592C1684.97 630.403 1685.75 630.247 1686.59 629.875C1686.82 629.773 1687.05 629.663 1687.28 629.557Z" fill="#E0E0E0"></path>
  <path d="M1666.21 654.233C1668.48 653.194 1670.83 652.37 1673.17 651.523L1674.67 653.064C1670.53 654.779 1666.41 656.542 1662.31 658.352L1659.29 659.607L1594.37 687.557C1585.12 691.468 1568.58 697.072 1560.59 702.388L1559.73 700.339C1571.23 694.767 1583.2 689.96 1594.93 684.876L1666.21 654.233Z" fill="#E0E0E0"></path>
  <path d="M1666.21 654.233C1667.63 649.138 1670.77 649.163 1671.28 643.713L1673.17 651.523C1670.83 652.37 1668.48 653.193 1666.21 654.233Z" fill="#E0E0E0"></path>
  <path d="M1554.49 724.59L1555.66 722.68C1569.77 736.687 1583.57 750.998 1597.06 765.603L1598.69 767.846C1609.55 777.329 1618.59 788.95 1628.89 799H1625.51C1616.4 788.786 1606.73 778.89 1597.03 769.234C1591.38 760.284 1563.36 733.582 1554.49 724.59Z" fill="#E0E0E0"></path>
  <path d="M1686.53 658.821L1688.53 659.014C1690.61 685.285 1693.32 711.6 1695.94 737.825C1697.02 748.683 1699.76 763.174 1699.19 773.835L1699.79 775.892C1700.21 783.605 1701.13 791.314 1701.89 799H1699.71C1698.53 791.01 1697.96 782.747 1697.36 774.696C1695.26 761.304 1694.62 747.301 1693.35 733.785L1686.53 658.821Z" fill="#E0E0E0"></path>
  <path d="M1812.03 563.868C1817.54 562.928 1821.62 562.278 1826.41 565.645C1828.57 567.169 1830.27 569.611 1832.43 570.928L1832.65 572.784C1833.54 579.805 1832.54 583.706 1828.66 589.6L1826.68 590.433C1824.42 591.401 1822.27 592.226 1819.8 592.481C1814.3 593.051 1809.6 589.657 1805.58 586.321L1805.05 584.668C1802.94 574.935 1805.32 572.812 1810.1 564.917L1810.31 564.564L1812.03 563.868Z" fill="#E0E0E0"></path>
  <path d="M1805.05 584.667L1805.58 586.321C1794.06 593.39 1781.68 599.275 1769.64 605.406C1748.65 616.09 1727.53 626.557 1706.69 637.529L1701.13 640.001L1700.94 638.151C1702.47 636.699 1704.3 636.044 1706.22 635.253L1708.19 633.985C1714.01 631.389 1719.65 628.363 1725.33 625.473C1751.94 611.979 1778.34 597.96 1805.05 584.667Z" fill="#E0E0E0"></path>
  <path d="M1828.66 589.6C1830.88 593.101 1833.03 596.635 1835.14 600.201L1836.42 602.132C1849.57 627.694 1867.09 651.144 1879.97 676.836L1878.38 677.709C1866.03 657.464 1854.05 636.932 1842.09 616.461C1837.3 608.27 1832.7 597.558 1826.68 590.433L1828.66 589.6Z" fill="#E0E0E0"></path>
  <path d="M1706.69 637.53C1708.05 640.381 1707.97 647.125 1706.81 650.123C1706.77 650.24 1706.7 650.349 1706.65 650.462L1700.87 648.832C1702.03 645.71 1702 643.17 1701.13 640.001L1706.69 637.53Z" fill="#E0E0E0"></path>
  <path d="M1819.52 762.442C1836.31 750.175 1852.58 737.221 1869.4 725.026L1871.12 726.655C1854.91 737.668 1839.58 750.268 1823.9 762.033L1821.23 764.073C1805 775.528 1789.16 787.507 1772.96 799H1769.36C1782.84 787.553 1802.27 774.982 1817.04 764.286L1819.52 762.442Z" fill="#E0E0E0"></path>
  <path d="M1700.87 648.832L1706.65 650.462C1742.53 660.385 1778.34 671.567 1813.84 682.753C1830.03 687.852 1846.22 693.771 1862.58 698.224C1862.58 702.056 1862.73 705.963 1862.56 709.787C1861.77 706.693 1861.96 703.452 1861.99 700.282C1809.25 683.587 1756.37 667.355 1703.34 651.588L1700.21 650.775L1700.87 648.832Z" fill="#E0E0E0"></path>
  <path d="M1721.61 415.534L1722.17 414.602C1726.42 419.137 1736.16 435.979 1740.02 442.35C1752.43 462.597 1764.57 483.002 1776.46 503.561C1787.61 522.615 1801.75 544.577 1812.03 563.868L1810.31 564.564C1807.63 561.712 1786.82 525.106 1783.54 519.538L1721.61 415.534Z" fill="#E0E0E0"></path>
  <path d="M1977.02 497.271L1977.58 499.296C1966.44 504.984 1955.25 510.602 1944.04 516.152C1941.78 517.288 1931.7 522.232 1929.99 523.457L1929.14 523.844C1912.24 531.579 1892.76 542.273 1875.79 550.641C1867.39 554.787 1840.08 568.017 1832.65 572.784L1832.43 570.928C1835.92 566.41 1959.8 506.839 1977.02 497.271Z" fill="#E0E0E0"></path>
  <path d="M1733.33 398.696C1733.33 397.739 1733.61 397.122 1733.89 396.185C1735.88 398.085 1839.41 428.587 1853.53 432.86C1892.87 444.759 1937.7 459.246 1977.32 470.961L1976.32 472.628C1940.54 462.846 1904.76 450.447 1869.17 439.624C1823.99 425.881 1778.38 412.794 1733.33 398.696Z" fill="#E0E0E0"></path>
  <path d="M1954.68 254.651C1958.31 254.417 1959.65 254.245 1963.18 254.956C1964.08 265.526 1969.32 283.661 1969.61 292.914L1970.43 295.273L1980.65 352.798C1981.37 356.995 1983.21 371.646 1984.49 374.99L1984.7 376.241C1989.32 402.272 1995.01 428.422 1999.51 454.395L1998.04 455.119C1995.78 449.42 1991.19 421.169 1989.65 413.657C1981.5 373.8 1975.97 333.055 1967.72 293.196C1965.36 281.796 1963.93 266.528 1960.87 256.073C1959.46 254.997 1956.73 254.953 1954.68 254.651Z" fill="#E0E0E0"></path>
  <path d="M1525.81 693.345C1528.04 691.578 1530.47 690.263 1533.2 689.432C1539.42 687.54 1544.92 688.631 1550.54 691.561L1552.44 692.337C1555.21 694.868 1557.5 697.308 1559.73 700.339L1560.59 702.388C1561.53 707.34 1562.09 711.808 1559.6 716.426L1558.39 718.944L1555.66 722.68L1554.49 724.59C1548.84 727.941 1544.2 729.197 1537.64 729.114L1535.14 728.329C1532.36 728.147 1529.39 726.57 1527.12 725.013C1522.84 722.063 1520.45 717.37 1519.63 712.305C1518.49 705.3 1520.55 700.101 1524.6 694.526L1525.81 693.345Z" fill="#E0E0E0"></path>
  <path d="M1681.59 158.616L1683.4 158.626C1685.43 166.442 1687.92 194.63 1688.9 204.069C1692.27 235.641 1694.86 267.292 1696.66 298.992C1697.95 319.018 1698.87 342.39 1701.09 362.083C1703.54 362.132 1707.21 362.064 1709.46 362.684C1705.7 362.847 1702.89 363.089 1699.14 362.478C1696.34 331.919 1695.07 300.404 1692.75 269.735C1689.87 232.616 1686.15 195.567 1681.59 158.616Z" fill="#E0E0E0"></path>
  <path d="M1787.85 106.827C1797.13 103.61 1806.43 100.463 1815.76 97.386L1815.67 99.7853C1811.71 101.105 1794.33 107.359 1791.12 107.987L1788.51 109.194C1758.82 118.052 1723.73 133.332 1694.64 140.824L1694.18 138.975C1697.62 138.067 1699.66 137.367 1702.98 136.061L1704 135.876C1712.27 133.501 1724.1 128.919 1732.46 125.99C1749.36 120.052 1766.3 114.208 1783.27 108.457L1787.85 106.827Z" fill="#E0E0E0"></path>
  <path d="M1828.03 115.134L1830.03 115.306C1828.94 118.027 1827.3 122.595 1825.75 124.898L1824.93 127.522C1818.13 142.415 1808.73 163.122 1802.91 178.165C1801.76 180.949 1801.51 180.309 1802.21 182.676C1823.12 188.243 1845.22 197.22 1864.71 202.353L1866.38 202.947L1911.96 217.946C1918.18 219.99 1930.49 223.678 1936.03 226.11L1935.6 227.808C1914.51 222.218 1888.21 212.167 1866.63 205.456L1865.05 204.871C1843.52 197.638 1821.9 190.656 1800.2 183.928C1779.37 230.804 1759.55 278.021 1737.91 324.552C1731.55 338.241 1726.36 351.622 1719.57 365.442L1717.19 364.577C1720.32 361.045 1733.3 330.006 1736.21 323.526C1757.41 277.038 1777.99 230.27 1797.95 183.234L1694.41 149.37L1694.94 147.151C1698.94 149.11 1715.17 154.13 1720.5 155.974C1746.49 164.925 1772.63 173.431 1798.91 181.488C1806.99 164.933 1815.99 142.394 1823.39 125.22L1824.16 123.459L1828.03 115.134Z" fill="#E0E0E0"></path>
  <path d="M1939.43 244.9L1939.96 246.564C1936.68 250.362 1914.66 262.748 1909.32 266.161C1870.26 291.327 1830.71 315.722 1790.69 339.331L1748.76 364.239C1743.54 367.354 1734.75 372.246 1729.96 375.515L1728.92 373.856C1787.3 339.151 1845.3 303.809 1902.89 267.835C1914.91 260.227 1927.62 252.671 1939.43 244.9Z" fill="#E0E0E0"></path>
  <path d="M1511.7 88.6538C1502.03 87.9555 1493.35 83.2379 1489.49 74.0287C1486.81 67.6555 1486.82 60.4649 1489.53 54.102C1492.94 46.1285 1504.36 35.7069 1513.43 39.6797L1516.14 39.5063C1519.97 40.9204 1521.98 41.8386 1525.6 43.7395L1527.15 44.8706C1529.47 48.0369 1532.3 51.3868 1534.39 54.6213C1534.5 55.6393 1534.5 56.5178 1534.96 57.4172L1535.34 62.3483L1535.45 64.3136C1535.41 69.3738 1534.45 71.8355 1532.2 76.3881L1532.27 78.2395L1530.86 78.479C1528.04 81.6797 1527.07 82.4202 1523.56 84.8827L1521.48 86.0329C1517.88 87.1978 1515.47 88.0062 1511.7 88.6538Z" fill="#E0E0E0"></path>
  <path d="M1425.06 439.985L1425.92 440.85C1427.12 442.953 1427.28 443.224 1429.33 444.495L1429.6 445.368C1427.5 449.136 1429.24 449.413 1425.33 452.496L1424.36 452.723C1422.28 451.745 1421.31 450.983 1419.12 451.459L1418.1 451.162L1417.83 449.69L1417.61 448.641L1417.49 444.038L1417.94 443.125C1420.13 441.813 1420.65 441.395 1423.3 441.103C1423.64 441.01 1424.69 440.239 1425.06 439.985Z" fill="#E0E0E0"></path>
  <path d="M1445.88 493.414L1446.7 494.097L1447.75 495.782C1448.17 495.729 1449.22 495.631 1449.56 495.506L1449.81 496.756C1449.32 497.87 1448.75 498.799 1448.84 499.977L1448.94 501.367C1446.05 504.665 1444.65 504.293 1442.72 506.203L1441.69 505.303L1440.25 504.103L1439.13 503.104L1437.79 499.179L1437.95 498.674C1438.54 497.791 1439.72 495.244 1440.26 494.17L1440.97 493.685C1443.08 494.339 1443.33 494.572 1445.32 493.909L1445.88 493.414Z" fill="#E0E0E0"></path>
  <path d="M1379.67 494.831L1380.79 495.301C1378.49 497.931 1378.05 497.606 1377.5 500.578C1378.07 501.561 1378.7 502.79 1379.41 503.633L1379.18 505.074C1378.35 509.58 1377.99 509.057 1376 512.753L1375.17 513.195C1369.84 513.684 1369.64 512.226 1365.66 512.312L1364.98 511.925C1364.43 508.675 1363.83 507.213 1363.92 503.937L1363.97 500.707L1364.5 500.041C1368.65 498.859 1370.06 497.327 1375.1 498.008C1377.15 498.285 1378.33 496.348 1379.67 494.831Z" fill="#E0E0E0"></path>
  <path d="M1417.61 448.641L1417.83 449.69C1397.33 457.346 1376.05 466.182 1355.69 474.319L1355.07 474.617C1348.05 477.04 1336.41 482.604 1330.42 484.183L1329.99 483.078C1335.53 480.841 1349.74 474.725 1354.97 473.407L1356.35 472.303C1360.59 471.271 1369.83 467.179 1374.36 465.468C1388.56 460.1 1403.24 453.328 1417.61 448.641Z" fill="#E0E0E0"></path>
  <path d="M1330.37 486.459C1336.29 488.77 1360.83 497.721 1364.5 500.041L1363.97 500.707C1353.29 497.13 1340.22 491.975 1329.74 487.689L1330.37 486.459Z" fill="#E0E0E0"></path>
  <path d="M1429.33 444.494C1432.62 442.648 1461.14 433.26 1464.67 432.773L1464.69 433.715C1456.97 436.321 1436.64 443.773 1429.6 445.368L1429.33 444.494Z" fill="#E0E0E0"></path>
  <path d="M1470.96 380.569L1472.3 380.869C1472.48 392.986 1472.92 412.56 1472.17 424.685L1471.07 424.699C1470.37 411.64 1470.94 393.88 1470.96 380.569Z" fill="#E0E0E0"></path>
  <path d="M1429.46 367.253C1436.69 376.534 1444.72 389.153 1451.24 399.069C1454.56 393.939 1461.77 382.742 1465.65 378.514L1466.42 379.192C1461.48 386.256 1456.66 393.402 1451.96 400.628C1456.32 407.247 1464.3 418.589 1467.94 425.131L1467.01 426.161C1462.11 418.991 1455.98 408.245 1451.08 401.881C1444.76 411.567 1432.05 432.99 1425.92 440.85L1425.06 439.985C1432.52 427.29 1442.4 412.915 1450.53 400.42C1443.4 389.513 1436.11 378.713 1428.66 368.025L1429.46 367.253Z" fill="#E0E0E0"></path>
  <path d="M1418.76 364.818L1419.74 365.431C1415.08 368.404 1397.18 375.827 1391.16 378.25C1371.82 386.049 1351.02 395.383 1331.69 402.869L1331.58 401.615C1338.81 397.412 1357.94 390.495 1366.11 387.233C1383.78 380.063 1401.34 372.591 1418.76 364.818Z" fill="#E0E0E0"></path>
  <path d="M1331.42 406.992C1342.19 411.424 1357.67 418.44 1368.32 422.154C1381.27 428.391 1395.31 432.726 1408.39 438.686C1410.28 439.548 1416.46 442.086 1417.93 443.125L1417.49 444.038C1407.51 440.737 1394.8 434.133 1383.67 430.205L1382.63 429.839L1365.85 422.755L1363.85 421.966C1354.85 417.563 1340.96 412.424 1330.95 407.95L1331.42 406.992Z" fill="#E0E0E0"></path>
  <path d="M1423.78 367.723L1424.74 368.317C1424.29 375.164 1423.8 437.044 1425.06 439.985C1424.69 440.239 1423.64 441.01 1423.29 441.103C1423.01 437.485 1422.86 433.127 1423.01 429.499C1423.85 409.69 1421.55 387.341 1423.78 367.723Z" fill="#E0E0E0"></path>
  <path d="M1467.77 438.06L1468.69 438.834C1464.05 449.707 1459.67 460.506 1455.26 471.458C1452.55 478.185 1449.6 487.856 1446.7 494.097L1445.88 493.414C1449.43 480.13 1462.11 450.742 1467.77 438.06Z" fill="#E0E0E0"></path>
  <path d="M1448.84 499.977C1456.17 500.826 1463.78 502.949 1470.58 503.679L1470.33 505.102C1463.19 503.976 1456.1 502.326 1448.94 501.367L1448.84 499.977Z" fill="#E0E0E0"></path>
  <path d="M1472.23 439.076L1473.53 438.699C1474.42 449.757 1475.22 460.821 1475.94 471.892C1480.94 466.601 1500.24 444.932 1503.94 442.04L1505.49 444.349L1505.78 444.113C1506.07 446.016 1506 446.104 1505.38 447.98L1505.8 448.689C1503.04 455.387 1483.58 497.304 1480.26 501.437C1477.77 498.419 1482.87 495.205 1483.13 489.093L1504.75 443.113C1495.14 453.369 1485.59 463.68 1476.09 474.044C1476.2 479.379 1476.32 494.924 1477.01 499.876L1475.64 499.723C1474.67 495.443 1474.67 480.44 1474.6 475.356C1466.77 482.465 1458.2 490.521 1449.81 496.756L1449.56 495.506C1458.15 488.436 1466.45 481.023 1474.44 473.285C1474.23 463.087 1472.86 449.662 1472.23 439.076Z" fill="#E0E0E0"></path>
  <path d="M1379.41 503.633C1387.24 501.871 1429.26 498.581 1437.95 498.674L1437.79 499.179C1420.2 502.336 1397.3 501.813 1379.18 505.074L1379.41 503.633Z" fill="#E0E0E0"></path>
  <path d="M1418.1 451.162L1419.12 451.458C1414.94 457.587 1405.49 467.256 1400.25 473.072C1393.66 480.391 1387.32 488.006 1380.79 495.301L1379.67 494.831C1392.16 479.998 1404.97 465.439 1418.1 451.162Z" fill="#E0E0E0"></path>
  <path d="M1425.33 452.496C1427.68 458.091 1440 489.113 1440.96 493.685L1440.26 494.17C1438.1 490.243 1425.92 457.897 1424.35 452.722L1425.33 452.496Z" fill="#E0E0E0"></path>
  <path d="M1376 512.753C1380.78 520.536 1385.43 529.295 1389.89 537.328L1389.59 538.294L1388.77 539.127C1386 531.874 1379.05 521.01 1375.17 513.195L1376 512.753Z" fill="#E0E0E0"></path>
  <path d="M1352.37 576.845L1354.83 579.148C1356.15 579.738 1356.44 579.688 1357.82 579.543C1359.24 579.32 1360.6 579.033 1362.03 579.251L1362.48 579.579L1364.03 580.782C1365.1 582.288 1364.82 582.732 1364.7 584.526C1363.1 586.012 1361.23 587.845 1358.89 587.847C1357.56 587.848 1357.09 587.418 1356.04 586.711L1353.1 585.317L1354.05 584.044L1354.16 582.487L1354.48 581.551C1354.11 579.562 1353.11 579.026 1351.71 577.7L1352.37 576.845Z" fill="#E0E0E0"></path>
  <path d="M1345.62 549.425L1384.51 545.764L1384.55 546.959C1375.72 548.649 1338.38 552.419 1330.67 552.033L1330.33 550.955C1335.11 550.67 1339.91 549.984 1344.68 549.437L1345.62 549.425Z" fill="#E0E0E0"></path>
  <path d="M1385.82 552.199L1386.46 552.579C1379.55 562.377 1369.13 569.847 1362.48 579.579L1362.03 579.251C1362.05 579.142 1362.05 579.031 1362.08 578.925C1362.88 575.576 1382.25 554.817 1385.82 552.199Z" fill="#E0E0E0"></path>
  <path d="M1397.75 539.922C1410.23 527.681 1425.82 515.061 1439.13 503.104L1440.25 504.103L1412.34 528.471C1409.38 531.068 1401.25 538.706 1398.41 540.644L1397.75 539.922Z" fill="#E0E0E0"></path>
  <path d="M1441.69 505.303L1442.72 506.203C1440.12 513.422 1437.54 520.881 1434.82 528.035C1445.06 523.485 1454.58 518.634 1464.58 513.569L1467.3 514.992C1467.79 518.064 1464.33 519.775 1461.98 521.607C1461.3 522.455 1460.59 523.43 1459.81 524.157C1452.47 531.251 1440.29 541.99 1433.72 548.925L1429.18 553.13L1428.3 553.089L1428.34 552.656L1426.77 552.185C1432.09 546.47 1438.16 541.397 1443.9 536.109C1451.49 529.028 1459.01 521.877 1466.46 514.659C1455.69 519.311 1445.14 524.753 1434.55 529.806C1431.51 536.974 1428.78 544.286 1425.19 551.205L1424.56 550.928C1426.05 544.211 1429.91 537.05 1432.62 530.717C1421.98 535.637 1411.29 540.944 1400.19 544.72L1399.86 543.703C1411.04 538.859 1422.15 533.847 1433.17 528.669C1435.87 520.829 1438.71 513.039 1441.69 505.303Z" fill="#E0E0E0"></path>
  <path d="M1428.34 552.656C1431.47 549.514 1460.24 521.936 1461.98 521.606C1461.3 522.455 1460.59 523.43 1459.81 524.156C1452.47 531.251 1440.29 541.99 1433.73 548.925L1429.18 553.13L1428.3 553.089L1428.34 552.656Z" fill="#E0E0E0"></path>
  <path d="M1320.03 555.644L1321.32 556.402C1311.7 565.103 1301.07 573.708 1292.46 583.43L1291.31 582.211C1300.47 573.055 1310.28 564.166 1320.03 555.644Z" fill="#E0E0E0"></path>
  <path d="M1327.86 557.526L1329.07 556.476C1336.86 563.194 1344.92 569.763 1352.37 576.845L1351.71 577.699L1350.18 576.864L1348.64 575.086L1344.65 571.734L1343.4 570.593C1338.38 566.224 1333.36 561.236 1327.86 557.526Z" fill="#E0E0E0"></path>
  <path d="M1388.76 539.127L1389.59 538.294L1391.86 538.815C1393.61 539.272 1395.95 540.136 1397.75 539.922L1398.41 540.644C1398.6 542.377 1398.64 542.465 1399.86 543.703L1400.19 544.72C1399.64 546.436 1399.18 548.147 1398.76 549.898L1398.18 551.137C1396.84 552.396 1395.51 553.759 1393.53 553.711C1391.28 553.655 1388.54 551.976 1386.46 552.579L1385.82 552.199C1386.21 550.051 1385.56 548.795 1384.55 546.959L1384.51 545.764C1385.69 543.245 1387 541.274 1388.76 539.127Z" fill="#E0E0E0"></path>
  <path d="M1398.76 549.898C1405.32 551.331 1411.7 553.142 1418.13 555.089L1417.84 556.319C1411.31 554.41 1404.81 552.639 1398.18 551.137L1398.76 549.898Z" fill="#E0E0E0"></path>
  <path d="M1292.46 583.43C1299.57 583.421 1307.41 581.369 1314.57 580.558C1327.98 579.039 1340.91 580.437 1354.16 582.487L1354.05 584.044L1353.1 585.317L1356.04 586.711C1344.49 587.039 1302.27 589.441 1294.91 586.89L1294.95 586.753C1293.66 585.83 1293.18 584.82 1292.46 583.43Z" fill="#E0E0E0"></path>
  <path d="M1417.85 559.45L1419.78 560.814C1408.02 569.01 1378.9 580.683 1364.7 584.526C1364.82 582.732 1365.1 582.288 1364.03 580.782C1381.69 573.264 1399.66 565.562 1417.85 559.45Z" fill="#E0E0E0"></path>
  <path d="M1483.13 489.093C1482.87 495.205 1477.77 498.419 1480.26 501.437C1481.25 504.68 1481.62 505.507 1481.02 508.81L1477.89 510.985C1477.14 511.036 1476.23 511.098 1475.14 511.172C1470.54 514.294 1465.05 521.179 1460.91 524.66L1459.81 524.156C1460.59 523.43 1461.3 522.455 1461.98 521.606C1464.33 519.775 1467.79 518.064 1467.3 514.992L1464.58 513.569C1469.17 510.744 1471.45 510.708 1470.33 505.102L1470.58 503.679C1472.06 501.866 1473.68 501.003 1475.64 499.723L1477.01 499.876C1479 497.234 1481.5 492.166 1483.13 489.093Z" fill="#E0E0E0"></path>
  <path d="M1433.72 548.925L1434.28 550.1L1434 550.318C1429.42 553.878 1427.97 562.865 1423.12 562.32C1421.73 562.163 1420.89 561.607 1419.78 560.815L1417.85 559.45C1417.99 558.482 1417.85 557.307 1417.84 556.319L1418.13 555.089C1420.05 553.265 1422.63 552.811 1424.56 550.928L1425.19 551.205L1426.77 552.186L1428.34 552.656L1428.3 553.089L1429.18 553.13L1433.72 548.925Z" fill="#E0E0E0"></path>
  <path d="M1284.88 581.244C1287.45 580.986 1288.98 580.869 1291.31 582.211L1292.46 583.43C1293.18 584.82 1293.66 585.83 1294.95 586.753L1294.91 586.89C1293.21 588.392 1290.85 590.562 1288.39 590.364C1286.76 590.232 1285.08 588.748 1284.15 587.496C1283.37 586.435 1282.58 585.503 1281.67 584.547C1282.6 584.287 1283.49 583.368 1284.25 582.766L1284.57 581.873L1284.88 581.244Z" fill="#E0E0E0"></path>
  <path d="M1459.81 524.156L1460.91 524.66C1452.19 533.304 1443.31 541.785 1434.28 550.1L1433.72 548.925C1440.29 541.99 1452.47 531.251 1459.81 524.156Z" fill="#E0E0E0"></path>
  <path d="M1366.93 287.64C1367.27 287.447 1367.61 287.261 1367.96 287.083C1370.97 285.575 1372.02 285.67 1374.96 286.68L1375.74 286.751C1378.57 289.48 1378.95 290.497 1379.6 294.67L1379.87 295.773C1378.47 297.382 1377.81 297.902 1377.19 299.961L1376.46 300.538C1374.7 300.991 1372.19 301.768 1370.44 301.779L1369.61 301.513L1365.13 298.386L1364.04 297.466C1364.05 293.207 1363.89 292.261 1365.86 288.635L1366.93 287.64Z" fill="#E0E0E0"></path>
  <path d="M1377.19 299.961C1381.06 305.135 1420.81 356.648 1420.71 356.317L1420.06 356.622C1415.9 352.691 1411.07 346.551 1407.48 342.099L1406.86 341.294C1398.79 330.746 1382.77 310.898 1376.46 300.538L1377.19 299.961Z" fill="#E0E0E0"></path>
  <path d="M1330.5 311.385C1334.84 308.599 1358.81 299.161 1364.04 297.466L1365.13 298.386C1359.98 300.422 1334.3 311.392 1330.87 312.273L1330.5 311.385Z" fill="#E0E0E0"></path>
  <path d="M1330.48 317.961C1339.06 321.832 1347.89 326.136 1356.46 329.847L1400.1 349.622C1403.48 351.164 1417.53 357.881 1420.13 358.337L1419.02 359.954C1417.1 359.253 1415.08 358.055 1413.17 357.212C1394.33 348.933 1375.66 339.299 1356.59 331.62L1355.78 331.301C1347.66 327.406 1339.5 323.583 1331.32 319.832L1329.87 318.708L1330.48 317.961Z" fill="#E0E0E0"></path>
  <path d="M1323.16 253.823L1324.33 253.647C1324.44 257.633 1324.61 261.812 1324.63 265.781C1324.59 279.325 1324.81 293.724 1324.47 307.196L1323.51 307.284C1322.94 303.17 1323.14 292.983 1323.13 288.55L1323.16 253.823Z" fill="#E0E0E0"></path>
  <path d="M1331.46 247.924C1340.08 247.198 1375.95 251.822 1386.69 252.653L1386.16 254.009C1369.26 252.975 1348.41 250.401 1331.23 248.816L1331.46 247.924Z" fill="#E0E0E0"></path>
  <path d="M1358.63 220.902L1360.33 220.01L1361.81 221.818C1370.27 229.914 1380.84 241.012 1388.75 249.684L1388.01 250.39C1385.39 248.316 1381.39 243.932 1378.94 241.402L1378.05 240.48L1371.21 233.543L1369.3 231.395C1366.42 228.477 1363.58 225.525 1360.78 222.539L1358.63 220.902Z" fill="#E0E0E0"></path>
  <path d="M1330.02 250.799C1342.59 262.812 1354.89 275.095 1366.93 287.64L1365.86 288.635C1361.13 283.078 1352.17 274.311 1346.92 269.296C1341.08 263.391 1335.19 257.524 1329.27 251.694L1330.02 250.799Z" fill="#E0E0E0"></path>
  <path d="M1374.96 286.68C1375.38 283.733 1386.36 264.558 1388.33 261.022L1388.95 261.649C1386.53 268.204 1379.48 280.191 1375.74 286.751L1374.96 286.68Z" fill="#E0E0E0"></path>
  <path d="M1379.6 294.67C1385.36 295.038 1391.21 295.468 1396.97 295.61C1398.03 295.878 1398.18 296.018 1399.27 295.954C1406.57 296.166 1437.89 299.202 1441.62 298.728L1441.04 300.369C1436.4 300.361 1426.66 299.195 1421.66 298.762L1420.45 298.492L1412.53 298.081L1410.79 297.756L1402.68 297.389C1401.62 297.468 1401.44 297.311 1400.4 297.041C1393.71 296.947 1386.47 296.736 1379.87 295.773L1379.6 294.67Z" fill="#E0E0E0"></path>
  <path d="M1400.4 297.041C1401.19 297.092 1402.07 297.029 1402.68 297.389C1401.62 297.468 1401.44 297.312 1400.4 297.041Z" fill="#E0E0E0"></path>
  <path d="M1429.52 285.721C1431.88 287.062 1437.96 292.215 1439.49 294.376L1440.93 297.157L1430.63 288.394L1429.52 285.721Z" fill="#E0E0E0"></path>
  <path d="M1400.13 258.962L1408.11 266.99L1406.82 267.354L1403.06 263.922L1402.33 263.242L1399.2 260.333L1400.13 258.962Z" fill="#E0E0E0"></path>
  <path d="M1428 285.707L1429.52 285.721L1430.63 288.394L1428 285.707Z" fill="#E0E0E0"></path>
  <path d="M1396.97 295.61C1397.8 295.659 1398.62 295.585 1399.27 295.954C1398.18 296.018 1398.03 295.878 1396.97 295.61Z" fill="#E0E0E0"></path>
  <path d="M1408.11 266.99L1408.42 267.393L1408.84 269.273L1406.82 267.354L1408.11 266.99Z" fill="#E0E0E0"></path>
  <path d="M1362.13 216.004C1364.56 216.868 1370.63 218.891 1372.45 220.271L1378.02 222.53C1390.76 227.412 1403 233.675 1415.63 238.984L1417.76 240.133L1417.72 241.928L1415.27 243.001C1407.92 240.856 1366.8 223.679 1362.34 219.533L1363.21 219.263C1361.68 217.422 1361.96 218.298 1362.13 216.004Z" fill="#E0E0E0"></path>
  <path d="M1372.45 220.271L1378.02 222.53C1390.76 227.412 1403 233.675 1415.63 238.984C1415.12 239.026 1413.54 239.078 1412.87 238.825C1399.53 233.74 1386.45 227.342 1373.3 221.73C1372.95 221.134 1372.67 220.648 1372.45 220.271Z" fill="#E0E0E0"></path>
  <path d="M1388.75 249.685C1394.56 246.226 1395.82 247.41 1400.84 251.405C1400.78 253.626 1400.72 255.215 1400.96 257.456L1400.12 258.962L1399.2 260.333C1396.05 262.44 1395.21 262.902 1391.38 262.134L1388.95 261.649L1388.33 261.022C1387.58 258.694 1386.86 256.356 1386.16 254.01L1386.69 252.653L1388.01 250.391L1388.75 249.685Z" fill="#E0E0E0"></path>
  <path d="M1418.35 244.372L1418.21 245.941C1413.44 248.086 1403.55 250.383 1401.48 253.791L1400.96 257.456C1400.72 255.215 1400.78 253.626 1400.84 251.405C1405.09 249.009 1413.07 247.353 1418.35 244.372Z" fill="#E0E0E0"></path>
  <path d="M1413.79 271.75C1415.84 273.296 1422.37 278.176 1423.24 280.149L1425.59 283.835C1421 279.913 1416.55 275.798 1411.96 271.857L1413.79 271.75Z" fill="#E0E0E0"></path>
  <path d="M1423.24 280.149C1425.92 282.202 1427.32 283.203 1429.52 285.721L1428 285.707L1425.6 283.835L1423.24 280.149Z" fill="#E0E0E0"></path>
  <path d="M1408.42 267.394C1410.48 268.918 1411.93 269.964 1413.79 271.751L1411.96 271.858L1408.84 269.273L1408.42 267.394Z" fill="#E0E0E0"></path>
  <path d="M1424.81 250.359L1426.24 249.678C1430.95 263.817 1438.94 281.371 1444.99 295.206L1443.18 295.86C1442.41 290.339 1427.75 258.119 1424.81 250.359Z" fill="#E0E0E0"></path>
  <path d="M1472.16 294.121L1471.59 295.535C1464.25 296.854 1456.92 298.245 1449.6 299.706L1449.65 298.113C1457.13 296.683 1464.64 295.352 1472.16 294.121Z" fill="#E0E0E0"></path>
  <path d="M1428.17 249.336L1429.09 248.765L1429.55 249.162C1430.83 250.252 1431.25 250.809 1432.89 251.061C1437.68 255.039 1468.81 283.177 1471.25 287.216C1472.21 288.827 1472.82 289.879 1473.59 291.587L1472.84 292.914C1469.25 290.241 1429.17 251.561 1428.17 249.336Z" fill="#E0E0E0"></path>
  <path d="M1417.76 240.133C1420.62 238.509 1425.75 235.271 1427.76 239.407C1430.59 245.256 1427.92 245.594 1432.89 251.062C1431.25 250.81 1430.83 250.252 1429.55 249.162L1429.09 248.765L1428.17 249.336L1426.24 249.678L1424.81 250.359C1425.26 250.784 1418.52 246.169 1418.21 245.942L1418.35 244.372L1415.27 243.001L1417.72 241.928L1417.76 240.133Z" fill="#E0E0E0"></path>
  <path d="M1471.25 287.216C1476.2 292.333 1485.48 288.33 1480.56 299.382L1480.76 302.114C1477.25 300.158 1480.63 301.884 1476.97 302.268C1474.1 299.57 1473.63 298.931 1471.59 295.535L1472.16 294.121L1472.84 292.914L1473.59 291.587C1472.82 289.879 1472.21 288.827 1471.25 287.216Z" fill="#E0E0E0"></path>
  <path d="M1521.48 86.0329L1523.56 84.8828C1524.46 86.2694 1526.58 89.6963 1527.54 90.7832L1527.99 91.6173C1547.2 122.185 1564.45 151.859 1582.87 182.886C1603.95 218.072 1624.78 253.412 1645.34 288.905C1654.71 305.376 1664.2 321.776 1673.82 338.103C1677.37 344.165 1687.08 360.146 1689.7 365.869L1688.65 367.073C1683.78 360.507 1675.38 345.401 1671.05 337.961L1639.32 283.006C1614.85 240.854 1590.07 198.885 1564.98 157.099C1553.98 138.848 1544.8 122.202 1533.14 104.133C1529.65 98.206 1525.28 91.8366 1521.48 86.0329Z" fill="#E0E0E0"></path>
  <path d="M1669.31 136.094C1678.05 130.335 1689.15 126.436 1694.18 138.975L1694.64 140.824C1695.31 143.769 1695.3 144.179 1694.94 147.151L1694.41 149.37C1690.41 157.828 1689.28 154.759 1683.4 158.626L1681.59 158.616C1681.17 158.509 1680.74 158.392 1680.32 158.268C1669.3 155.069 1665.59 149.035 1669.04 137.954L1669.31 136.094Z" fill="#E0E0E0"></path>
  <path d="M1530.86 78.4791L1532.27 78.2395L1532.2 76.3882C1535.9 78.8521 1555.71 87.8814 1560.21 89.232C1586.59 100.775 1613.08 112.067 1639.67 123.108C1643.88 124.906 1666.58 134.295 1669.31 136.094L1669.04 137.954C1630.23 122.036 1591.4 104.418 1552.64 88.6039L1549.29 87.0317C1543.51 84.6167 1536.63 81.1687 1530.86 78.4791Z" fill="#E0E0E0"></path>
  <path d="M1426.44 355.322L1427.28 356.128C1429.49 358.759 1430.73 359.833 1431.25 363.181L1431.18 364.116C1430.84 364.723 1429.66 366.731 1429.46 367.253L1428.66 368.025L1424.74 368.317L1423.78 367.723L1419.74 365.431L1418.76 364.818L1419.02 359.954L1420.13 358.337L1420.06 356.622L1420.71 356.317C1422.76 356.581 1424.41 355.901 1426.44 355.322Z" fill="#E0E0E0"></path>
  <path d="M1444.04 304.35L1445.67 304.354C1440.43 319.889 1433.78 341.086 1427.28 356.128L1426.44 355.322C1427.02 352.597 1431.81 340.362 1433.13 336.807C1437.15 326.121 1440.79 315.295 1444.04 304.35Z" fill="#E0E0E0"></path>
  <path d="M1431.25 363.181C1443.31 364.985 1453.61 368.948 1464.88 371.347L1464.06 372.319C1461.33 372.116 1435.09 365.19 1431.18 364.116L1431.25 363.181Z" fill="#E0E0E0"></path>
  <path d="M1447.44 304.291C1455.45 324.096 1460.96 345.958 1469.1 366.684L1467.97 367.404C1460.94 349.133 1452.06 323.87 1446.79 304.858L1447.44 304.291Z" fill="#E0E0E0"></path>
  <path d="M1475.96 332.344L1477.37 332.055C1476.11 339.907 1475.78 360.205 1473.77 365.6L1472.97 365.687C1474.24 354.645 1474.4 343.557 1475.96 332.344Z" fill="#E0E0E0"></path>
  <path d="M1487.13 339.577C1491.24 344.018 1500.38 355.236 1503.93 358.575L1503.72 360.585C1501.21 358.381 1497.14 353.174 1494.86 350.424L1494.21 349.666L1486.85 341.285L1487.13 339.577Z" fill="#E0E0E0"></path>
  <path d="M1503.51 366.08L1503.57 368.193C1495.71 370.232 1487.79 372.062 1479.83 373.683L1479.44 371.957C1483.35 371.586 1501.97 368.558 1503.51 366.08Z" fill="#E0E0E0"></path>
  <path d="M1476.97 302.268C1480.63 301.884 1477.25 300.158 1480.76 302.114L1481.66 302.465C1484.13 311.427 1494.67 328.047 1496.86 335.794C1496.7 341.759 1502.5 346.627 1501.65 352.648C1493.81 340.229 1484.64 317.227 1478.41 302.968L1477.63 315.077C1477.6 316.121 1477.72 317.259 1477.31 318.116L1477.14 329.004C1480.34 332.382 1484.07 336.134 1487.13 339.577L1486.85 341.285C1483.95 338.186 1480.77 334.507 1477.37 332.055L1475.96 332.344C1475.7 327.495 1458.74 312.672 1453.87 307.892C1453.5 307.73 1452.57 306.647 1452.22 306.276L1452.52 305.987L1452.73 305.115C1459.82 311.157 1468.85 320.652 1475.57 327.421L1475.95 318.88C1475.86 317.751 1476.01 317.542 1476.26 316.434C1476.33 311.291 1476.38 307.377 1476.97 302.268Z" fill="#E0E0E0"></path>
  <path d="M1477.31 318.116C1476.92 316.675 1477.11 316.455 1477.63 315.077C1477.6 316.121 1477.72 317.259 1477.31 318.116Z" fill="#E0E0E0"></path>
  <path d="M1475.95 318.88C1475.86 317.751 1476.01 317.542 1476.26 316.434C1476.25 317.567 1476.43 318.032 1475.95 318.88Z" fill="#E0E0E0"></path>
  <path d="M1452.52 305.987L1453.87 307.892C1453.5 307.73 1452.57 306.647 1452.22 306.276L1452.52 305.987Z" fill="#E0E0E0"></path>
  <path d="M1699.14 362.478C1702.89 363.089 1705.7 362.847 1709.46 362.684C1713.11 363.044 1713.75 363.257 1717.19 364.577L1719.57 365.442C1723.22 368.39 1725.78 370.334 1728.92 373.856L1729.96 375.515C1734.15 382.254 1735.43 388.283 1733.88 396.185C1733.61 397.122 1733.33 397.739 1733.33 398.696C1731.29 405.283 1728.12 410.783 1722.17 414.602L1721.61 415.534C1713.6 419.243 1709.48 420.667 1700.49 420.113L1698.92 420.015C1697.96 419.312 1693.62 417.498 1692.36 416.96L1690.91 416.496C1672.57 402.779 1669.49 381.771 1688.65 367.073L1689.7 365.869C1690.39 365.866 1697.82 362.967 1699.14 362.478Z" fill="#E0E0E0"></path>
  <path d="M1480 432.156C1488.01 433.201 1495.96 434.627 1503.84 436.43L1503.34 437.455C1500.55 437.367 1482.93 434.072 1480.18 433.145L1480 432.156Z" fill="#E0E0E0"></path>
  <path d="M1505.03 372.297L1505.62 373.178C1501.39 382.629 1495.76 393.153 1491 402.486C1493.32 407.272 1505.26 430.638 1505.78 433.192L1505.12 433.669C1503.4 431.408 1491.95 407.834 1490.17 404.254C1487.18 409.575 1480.97 421.383 1477.61 425.596L1476.26 425.539C1480.17 419.626 1485.84 408.992 1489.48 402.587C1485.64 394.817 1481.3 386.939 1477.21 379.271L1477.85 378.473C1481.88 384.392 1486.73 394.06 1490.25 400.589C1495.27 391.921 1499.92 381.345 1505.03 372.297Z" fill="#E0E0E0"></path>
  <path d="M1507.34 371.835L1509.12 372.008C1509.05 390.992 1508.34 414.108 1509 432.818L1507.63 433.24C1507.23 419.512 1507.89 405.053 1507.68 391.264C1507.58 385.037 1508.01 377.967 1507.34 371.835Z" fill="#E0E0E0"></path>
  <path d="M1496.86 335.795C1497.96 338.15 1508 360.881 1508.43 361.086C1514.91 364.175 1515.59 367.604 1509.12 372.008L1507.34 371.835L1505.62 373.178L1505.03 372.297L1503.57 368.193L1503.51 366.08C1503.87 364.742 1504.24 363.407 1504.63 362.076L1503.72 360.586L1503.93 358.575L1501.65 352.649C1502.5 346.627 1496.7 341.759 1496.86 335.795Z" fill="#E0E0E0"></path>
  <path d="M1507.63 433.24L1509 432.818C1511.34 434.081 1511.94 434.296 1513.42 436.649C1514.27 442.988 1508.28 442.397 1505.8 448.689L1505.38 447.98C1506 446.104 1506.07 446.016 1505.78 444.113L1505.49 444.349L1503.94 442.04C1504.22 440.189 1503.81 439.245 1503.34 437.455L1503.84 436.429L1505.12 433.669L1505.78 433.191L1507.63 433.24Z" fill="#E0E0E0"></path>
  <path d="M2260.96 328.203C2266.24 327.577 2269.31 327.432 2274.43 329.006C2281.79 331.992 2285.17 334.439 2290.16 340.794L2291.34 342.734C2294.86 350.2 2295.28 353.328 2294.23 361.526C2293.65 363.137 2293.69 363.233 2293.84 364.973C2290.61 372.084 2289.72 374.353 2284.06 379.992L2282.82 381.291C2277.9 383.618 2273.86 385.674 2268.45 386.769C2266.48 386.249 2265.6 386.294 2263.59 386.272C2260.86 386.494 2257.85 385.621 2255.14 384.997L2253.33 384.847C2245.91 378.873 2245.09 380.819 2238.6 372.1L2237.78 371.599L2237.6 370.425C2235.79 365.872 2235.23 361.575 2234.86 356.759L2235.31 354.902C2235.51 351.427 2235.71 350.766 2236.81 347.443L2237.41 345.655C2244.03 334.609 2247.19 332.775 2259.08 328.189L2260.96 328.203Z" fill="#E0E0E0"></path>
  <path d="M2088.6 279.282C2095.05 273.196 2099.69 272.117 2108.1 274.523L2110.02 275.047C2115.2 279.971 2117.68 282.783 2117.84 290.23C2117.86 291.623 2117.85 293.017 2117.79 294.409L2116.67 295.841C2111.33 306.031 2104.88 306.906 2094.25 305.835L2092.91 304.673C2086.19 297.779 2086 296.264 2084.74 287.255L2085.21 285.458L2087.1 281.853L2088.6 279.282Z" fill="#E0E0E0"></path>
  <path d="M2108.67 784.971L2110.53 784.198L2118.44 799H2115.97L2108.67 784.971Z" fill="#E0E0E0"></path>
  <path d="M2119.71 772.324C2137 776.177 2154 782.404 2170.87 787.772C2182.45 791.463 2194.61 794.435 2205.86 799H2198.62C2189.75 795.387 2179.91 792.945 2170.76 790.05C2153.62 784.627 2136.53 778.945 2119.18 774.24L2119.71 772.324Z" fill="#E0E0E0"></path>
  <path d="M2268.05 690.838L2268.34 692.691C2262.03 696.573 2201.04 723.074 2197.2 723.559L2195.04 724.778C2180.21 730.48 2165.66 737.019 2150.99 743.124C2140.39 747.538 2128.48 751.601 2118.51 757.283L2117.85 755.377C2129.09 749.45 2141.18 744.79 2152.9 739.914L2195.86 721.737L2197.9 720.925C2221.37 711.101 2244.54 700.576 2268.05 690.838Z" fill="#E0E0E0"></path>
  <path d="M2293.84 364.973C2293.7 363.233 2293.65 363.137 2294.23 361.526C2294.51 361.936 2294.85 362.435 2295.26 363.023C2308.26 367.542 2325.57 372.621 2338 377.41L2340.05 378.561C2346.38 380.111 2353.63 382.336 2359.83 384.418C2373.12 388.885 2386.6 392.198 2400 396.085V398.61C2395.91 397.016 2385.61 394.419 2380.95 393.052L2339.99 380.807L2337.92 379.456C2332.8 379.268 2302.29 367.397 2293.84 364.973Z" fill="#E0E0E0"></path>
  <path d="M2284.06 379.992C2295.19 392.188 2311.88 412.966 2321.87 426.564L2324.08 429.012C2335.69 442.856 2353.07 463.728 2363.6 478.044L2365.33 479.837L2400 524.017V527.756C2387.8 512.903 2375.39 495.364 2363.18 481.181L2361.98 478.832C2356.99 475.203 2329.51 439.498 2323.34 431.885L2322.21 430.413C2318.77 426.506 2314.57 420.501 2311.16 416.285C2301.71 404.651 2292.52 392.719 2282.82 381.291L2284.06 379.992Z" fill="#E0E0E0"></path>
  <path d="M2237.6 370.425L2237.78 371.599L2238.6 372.1C2226.39 379.364 2212.29 385.085 2199.44 391.324C2193.87 394.022 2182.62 400.412 2177.4 402.078L2176.06 403.141C2170.25 405.429 2164.33 408.347 2158.68 411.07C2126.38 426.636 2093.46 441.047 2060.74 455.703L2058.03 457.099C2053.03 459.359 2034.69 467.391 2030.99 470.194L2029.48 468.154C2038.15 463.272 2050.96 457.742 2060.2 453.516L2063.24 452.087L2123.15 425.065C2137.12 418.833 2159.56 409.225 2172.51 402.077L2175.47 400.905C2187.76 394.751 2199.9 388.316 2212.41 382.634C2220.91 378.775 2229.37 374.829 2237.6 370.425Z" fill="#E0E0E0"></path>
  <path d="M2253.33 384.847L2255.14 384.997C2246.94 407.853 2235.87 431.44 2228.09 453.438L2227.82 454.387C2222.01 466.312 2217.98 479.559 2212.44 490.962L2211.69 493.378C2206.15 505.225 2200.44 520.42 2195.51 532.665L2236.54 542.757C2240.29 543.671 2252.37 546.254 2255.41 547.377L2259.3 548.195C2264.11 548.996 2271.08 550.832 2275.98 551.963C2275.34 538.582 2274.58 525.208 2273.67 511.842C2272.93 507.405 2273.79 501.415 2272.57 497.551L2272.57 496.401C2272.11 483.406 2268.94 394.752 2265.98 387.292L2263.59 386.272C2265.6 386.294 2266.48 386.249 2268.45 386.769C2271.19 415.481 2271.86 444.267 2274.04 472.982C2274.42 478.016 2274.77 500.066 2275.5 503.718L2275.84 505.185L2276.22 512.668L2276.51 514.839C2276.62 520.051 2276.78 524.807 2277.15 530.007L2277.31 533.322C2277.68 539.659 2277.89 546.048 2278.45 552.367C2287.55 554.574 2297.56 556.188 2306.37 559.23L2308.27 559.217C2320.98 563.596 2334.84 565.998 2347.94 569.111C2365.28 573.232 2382.55 577.885 2400 581.524V583.989C2370.51 577.882 2341.4 569.441 2311.98 562.849L2309.17 561.94C2298.91 559.887 2288.86 556.914 2278.59 554.964C2279.24 591.83 2283.24 628.683 2284.27 665.54L2282.49 665.497C2280.33 656.901 2280.66 639.77 2280.16 630.384C2278.63 605.089 2277.31 579.782 2276.2 554.465C2269.59 552.813 2262.96 551.213 2256.32 549.667L2253.98 548.783C2234.27 545.824 2214.01 539.76 2194.75 534.576C2186.02 558.263 2176.72 581.731 2166.85 604.959L2164.33 610.801C2152.69 640.214 2139.86 669.147 2127.73 698.357L2114.69 729.792C2112.31 735.493 2110.04 742.036 2106.91 747.343L2104.78 746.684C2107.35 742.233 2109.17 736.804 2111.19 732.063C2115.84 721.317 2120.38 710.535 2124.86 699.716L2159.11 618.161L2160.12 616.157C2160.65 612.459 2163.36 607.568 2164.82 604.025C2166.69 598.338 2172.4 586.372 2174.94 580.171C2181.08 564.844 2186.95 549.408 2192.53 533.87C2164.37 526.597 2136.15 519.534 2107.89 512.682C2088.22 507.754 2068.23 502.233 2048.57 497.617C2045.83 496.486 2036.47 494.212 2033.15 493.328L2033.97 491.358C2039.09 492.77 2043.75 494.011 2048.96 495.139L2050.01 495.406C2063.91 499.948 2086.24 504.93 2100.73 508.533L2193.39 531.826C2198.5 519.543 2204.91 504.596 2209.29 492.195L2210.7 490.234C2210.87 486.547 2223.55 458.872 2225.81 452.291L2226.15 451.395C2233.42 436.98 2239.63 417.31 2246.2 402.236C2248.38 397.22 2250.87 389.281 2253.33 384.847Z" fill="#E0E0E0"></path>
  <path d="M2014.16 513.396L2016.05 512.972C2025.91 539.793 2034.02 570.769 2043.59 598.093C2045.64 603.956 2057.01 638.446 2057.38 642.229L2058.8 644.811C2067.06 670.991 2075.69 697.05 2084.7 722.979C2086.61 728.647 2090.51 743.698 2093.51 748.139L2091.45 748.801L2091.03 748.47C2090.53 746.351 2089.67 744.369 2088.86 742.354L2066.85 676.462C2063.35 665.924 2060.55 654.742 2056.24 644.538L2056.06 643.555C2047.28 615.886 2038.33 588.272 2029.22 560.712L2028.93 559.619C2024.75 545.004 2018.73 528.351 2014.16 513.396Z" fill="#E0E0E0"></path>
  <path d="M2194.76 38.6631C2197.71 39.2645 2199.87 39.8017 2202.91 39.8193C2203.46 40.0108 2203.96 40.0523 2204.17 40.3903C2210.21 45.4121 2219.22 52.109 2220.1 60.7592L2220.9 62.576C2222.05 71.2846 2220.95 74.6584 2217.3 82.4679L2216.61 84.6855C2214.5 86.6034 2212.44 88.5673 2210.41 90.5757L2207.6 92.5366C2204.79 93.8334 2200.98 95.82 2198.05 96.3154L2196.5 97.0434L2195.08 97.5077C2190.77 97.3376 2184.46 95.9479 2180.73 96.2975L2179.65 95.9666C2179.38 95.6311 2167.4 86.5885 2166.94 86.3646L2165.88 85.2683C2164.01 75.8612 2157.44 72.7293 2161.65 59.3584L2162.38 57.5234C2167.28 47.7493 2170.81 44.9648 2180.47 39.6805L2182.37 39.243C2187.81 38.8604 2188.81 37.9688 2194.76 38.6631Z" fill="#E0E0E0"></path>
  <path d="M2219.88 0H2222.44C2217.94 10.4104 2213.36 20.7833 2208.68 31.1176L2208.49 32.0842C2207.06 35.0193 2205.77 37.5482 2204.17 40.3902C2203.96 40.0523 2203.46 40.0108 2202.91 39.8192C2203.05 38.0468 2204.71 34.4397 2205.45 32.6314L2205.94 31.3809C2209.96 24.0746 2216.35 8.1253 2219.88 0Z" fill="#E0E0E0"></path>
  <path d="M2216.61 84.6853L2217.3 82.4678C2223.34 84.6432 2255.61 96.4331 2259.64 99.253L2261.61 99.3942C2298.91 116.535 2339.32 130.444 2376.58 148.168C2383.96 151.679 2392.35 155.16 2400 158.171V160.578C2370.22 148.441 2338.41 132.788 2308.77 121.422L2305.91 120.243C2297.3 115.748 2271.58 105.76 2262.21 102.31L2260.37 101.484C2245.95 95.4476 2231.36 89.8453 2216.61 84.6853Z" fill="#E0E0E0"></path>
  <path d="M2285.07 43.5847L2351.52 26.9344C2366.93 23.0896 2384.97 19.0631 2400 14.4128V17.2944L2312.83 38.8239C2300.05 42.0905 2284.52 45.7329 2272.03 49.5685L2270.16 50.0746C2253.72 54.1494 2237.3 58.3166 2220.9 62.5759L2220.1 60.7591C2224.72 59.0407 2236.65 56.193 2241.87 54.9161C2250.85 52.721 2261.58 49.5958 2270.51 47.8308L2273.63 46.7238C2277.28 45.8487 2280.31 44.9544 2283.87 43.8535L2285.07 43.5847Z" fill="#E0E0E0"></path>
  <path d="M2337.05 307.995C2340.83 304.821 2352.27 297.38 2356.83 294.259C2371.12 284.417 2385.51 274.723 2400 265.177V268.292C2377.31 282.54 2358.2 296.881 2336.52 311.072L2335.31 312.031C2325.86 318.27 2316.5 324.655 2307.25 331.187C2303.39 333.867 2294.49 339.866 2291.34 342.734L2290.16 340.794C2303.97 330.585 2322.83 318.858 2334.99 309.121L2337.05 307.995Z" fill="#E0E0E0"></path>
  <path d="M2400 213.192V215.481C2380.76 218.228 2350.7 221.854 2332.39 225.699L2332.1 226.379L2330.39 229.64C2330.24 227.289 2330.62 225.602 2331.02 223.315L2332.88 222.845C2337.45 222.803 2351.14 220.513 2356.13 219.76L2400 213.192Z" fill="#E0E0E0"></path>
  <path d="M2305.79 215.114C2315.55 208.507 2323.66 211.977 2329.76 221.145L2331.02 223.315C2330.62 225.602 2330.24 227.289 2330.39 229.64L2330.7 230.677C2326.79 238.304 2323.65 241.883 2314.66 241.483L2312.88 241.24C2308.17 239.424 2306.44 238.388 2303.06 234.673L2302.68 233.698C2301.18 229.936 2300.9 228.3 2300.75 224.297L2301.86 221.154C2302.31 220.013 2303.35 218.563 2304.06 217.491L2305.79 215.114Z" fill="#E0E0E0"></path>
  <path d="M2196.5 97.0434L2198.05 96.3154C2208.32 127.447 2215.71 160.014 2225.04 191.475C2226.44 196.208 2227.91 201.345 2229.05 206.145L2229.56 207.712C2232.15 218.359 2234.94 228.957 2237.9 239.504C2238.99 243.468 2242.56 255.707 2242.79 259.07L2243.59 261.278C2247.4 276.361 2251.33 291.415 2255.38 306.436C2256.95 312.397 2259.86 322.366 2260.96 328.203L2259.08 328.189C2252.89 306.225 2247.65 284.178 2241.47 262.255L2241.52 260.057C2238.24 254.537 2229.36 215.751 2227 206.983L2226.43 204.174C2216.54 170.921 2207.18 135.012 2197.74 101.36L2196.5 97.0434Z" fill="#E0E0E0"></path>
  <path d="M1979.16 242.811L1979.95 241.115C2015.39 255.046 2050.49 269.831 2085.21 285.458L2084.74 287.255C2078.44 285.536 2053.59 273.817 2045.93 270.48C2024.45 261.126 2000.2 252.468 1979.16 242.811Z" fill="#E0E0E0"></path>
  <path d="M2092.91 304.673L2094.26 305.835C2093.43 308.125 2092.62 310.529 2091.56 312.712C2088.93 317.66 2086.81 321.713 2084.57 326.847C2069.59 356.793 2054.86 386.864 2040.38 417.055C2037.14 423.94 2024 455.242 2021.48 458.474L2020.01 457.84C2038.81 414.299 2057.06 378.428 2077.33 336.168L2078.24 334.393C2079.97 331.314 2082.53 325.458 2084.14 322.081L2085.88 319.125C2087.47 315.093 2090.88 308.732 2092.91 304.673Z" fill="#E0E0E0"></path>
  <path d="M2117.79 294.409C2122.96 296.222 2134.35 300.792 2139.37 303.388L2142.64 304.695C2170.11 315.962 2197.21 328.573 2224.68 339.916C2228.94 341.672 2233.28 343.631 2237.41 345.655L2236.81 347.443C2234.61 345.88 2223.72 341.754 2220.72 340.55C2193.24 329.51 2166.17 315.99 2138.56 305.492L2136.34 304.231C2131.15 302.484 2121.98 298.154 2116.67 295.842L2117.79 294.409Z" fill="#E0E0E0"></path>
  <path d="M1849.06 109.848L1856.05 118.379L1857.84 120.905C1864.57 128.838 1876.32 143.243 1883.56 150.074L1885.28 151.691C1904.52 172.81 1924.66 193.203 1944.06 214.233L1942.52 215.317C1935.15 208.565 1928.89 201.029 1921.98 193.834C1907.36 178.615 1893.08 162.899 1878.26 147.895C1875.93 144.62 1870.8 139.339 1867.88 136.183L1859.6 126.692L1858.14 124.831C1854.77 120.885 1850.9 115.615 1847.64 111.449L1849.06 109.848Z" fill="#E0E0E0"></path>
  <path d="M2012 29.3699L2013.97 29.8526C2009.07 52.6634 2000.27 80.0366 1994.23 103.321L1984.82 140.051C1983.77 144.214 1980.71 157.038 1979.23 160.557L1978.91 162.893C1974.19 177.431 1970.42 196.321 1965.44 209.722L1963.32 209.219C1964.75 207.31 1975.51 166.433 1976.86 161.676C1978.42 152.97 1983.83 135.193 1986.14 125.761C1993.99 93.6095 2003.8 61.3604 2012 29.3699Z" fill="#E0E0E0"></path>
  <path d="M2173.87 74.9062L2182.32 75.2989C2161.34 93.8523 2123.65 116.117 2097.79 135.055L2057.5 164.93C2052.99 168.316 2039.89 178.746 2033.54 181.609L2032.17 183.509C2011.99 195.334 1995.82 210.698 1974.51 221.598L1965.42 221.189C1971.53 219.636 2017.64 186.388 2023.39 182.519C2030.07 175.438 2053.25 160.978 2063.14 153.307C2096.75 127.156 2138.78 100.926 2173.87 74.9062Z" fill="#E0E0E0"></path>
  <path d="M1855.38 84.1143C1887.4 69.6181 1919.59 55.3314 1951.56 40.7857C1967.45 33.5585 1983.49 24.2738 1999.63 16.7908L2000.33 18.6651C1992.23 23.3253 1981.77 28.3108 1973.29 32.5753C1935.57 51.5402 1896.35 67.7853 1857.94 85.5805C1856.16 86.3919 1852.77 87.8214 1851.2 88.7359C1851.01 87.709 1850.54 87.1192 1850 86.1774L1851.79 85.9082L1855.38 84.1143Z" fill="#E0E0E0"></path>
  <path d="M2034.34 16.7444L2111.91 41.1825C2126.26 45.6765 2148.64 52.1279 2162.38 57.5235L2161.65 59.3585C2157.71 57.5051 2136.72 51.3122 2131.44 49.6266L2069.8 30.1648C2058.61 26.617 2044.69 22.5467 2033.96 18.25L2034.34 16.7444Z" fill="#E0E0E0"></path>
  <path d="M2160.37 0H2162.82C2165.03 4.29875 2175.63 24.3385 2176.87 28.0521L2178.31 30.6233C2179.48 32.9861 2181.55 36.8849 2182.37 39.2429L2180.47 39.6805C2178.67 36.2518 2176.83 32.8432 2174.95 29.455L2174.56 28.0983C2169.75 18.9032 2165.05 9.29103 2160.37 0Z" fill="#E0E0E0"></path>
  <path d="M2043.25 0H2047.32C2044.21 1.87288 2038.56 5.43073 2035.25 6.3746L2034.57 4.91068C2037.61 3.42887 2040.36 1.73138 2043.25 0Z" fill="#E0E0E0"></path>
  <path d="M2179.65 95.9666L2180.73 96.2974C2179.83 99.9171 2178.6 102.724 2177.2 106.15L2176.28 108.9C2165.89 135.263 2155.81 162.188 2144.75 188.246L2144.61 189.65C2142.15 193.981 2138.24 204.087 2136.25 208.967C2130.47 223.2 2124.83 237.49 2119.33 251.834C2116.94 257.985 2112.81 269.398 2110.02 275.047L2108.1 274.523C2118.89 246.407 2130.96 217.851 2141.36 189.973L2142.84 188.009C2142.93 185.925 2168.96 120.853 2171.98 112.721L2173.21 110.296C2174.64 106.467 2177.33 99.1048 2179.65 95.9666Z" fill="#E0E0E0"></path>
  <path d="M1556.2 0H1558.67C1548.45 15.1567 1537.94 30.1164 1527.15 44.8707L1525.6 43.7396C1534.14 30.1394 1546.73 13.3676 1556.2 0Z" fill="#E0E0E0"></path>
  <path d="M1631.43 0H1636.22C1625.89 6.22165 1536.09 55.3888 1534.96 57.4173C1534.5 56.5179 1534.5 55.6393 1534.39 54.6214C1564.89 35.7337 1600.29 19.1675 1631.43 0Z" fill="#E0E0E0"></path>
  <path d="M1820.98 3.90137H1835.12C1804.64 9.73527 1539.75 55.8382 1536.43 57.7402C1535.05 56.8969 1535.06 56.0731 1534.74 55.1186C1624.71 37.4081 1729.15 21.8743 1820.98 3.90137Z" fill="#E0E0E0"></path>
  <path d="M1990.72 511.719L1992.19 512.52C1990.14 519.079 1963.47 574.591 1959.59 579.962L1958.83 582.196C1953.06 592.569 1948.07 603.442 1942.88 614.118C1940.26 619.526 1937.34 627.093 1933.54 631.653L1933.04 633.853C1930.15 637.984 1928.06 643.037 1925.8 647.551C1920.65 657.849 1915.73 668.374 1910.27 678.506C1909.6 677.565 1909.55 677.632 1908.41 677.354C1916.01 662.645 1923.81 647.761 1930.51 632.619L1930.87 631.862C1935.26 625.18 1938.7 617.195 1942.33 610.019C1947.4 599.992 1952.88 589.943 1957.34 579.637L1959.02 577.774C1959.64 572.64 1986.53 520.878 1990.72 511.719Z" fill="#E0E0E0"></path>
  <path d="M1906.18 732.639C1912.77 743.887 1924.26 760.527 1929.2 771.715L1930.68 773.708C1935.71 782.107 1941 790.44 1945.74 799H1943.06C1938.66 790.542 1933.44 782.466 1928.5 774.324L1926.64 771.452C1919.03 758.757 1911.54 746.002 1904.13 733.188L1906.18 732.639Z" fill="#E0E0E0"></path>
  <path d="M1887.96 735.14L1889.7 735.02C1885.96 755.853 1885.25 778.897 1880.51 799H1878.34C1879.68 789.254 1881.75 779.034 1882.05 769.214C1884.28 764.288 1885.6 743.377 1887.96 735.14Z" fill="#E0E0E0"></path>
  <path d="M1923.43 711.679C1947.88 719.867 1972.66 727.28 1997.31 734.804C2006.94 737.741 2016.97 740.159 2026.44 743.508L2028.21 743.711C2046.03 749.276 2063.88 754.715 2081.78 760.028L2080.81 762.806C2074.92 758.386 2039.48 749.737 2030 746.75L2028.03 745.815C2020.09 745.17 2005.75 739.676 1997.45 737.15C1972.56 729.593 1947.35 722.336 1922.86 713.569L1923.43 711.679Z" fill="#E0E0E0"></path>
  <path d="M2348.34 651.14C2365.79 643.2 2382.8 634.408 2400 625.95V628.87C2388.01 634.114 2358.64 651.254 2348.56 653.268L2346.75 654.805C2331.91 661.608 2317.02 668.293 2302.07 674.862L2301.01 673.091C2310.52 668.9 2319.98 664.614 2329.41 660.232C2334.91 657.692 2340.65 654.514 2346.42 652.734L2348.34 651.14Z" fill="#E0E0E0"></path>
  <path d="M2300.01 695.918C2301.3 695.19 2301.31 694.902 2301.91 693.599C2303 694.577 2304.1 695.774 2305.29 696.61L2307.45 698.322C2315.39 703.911 2322.89 710.175 2330.64 716.041C2353.66 733.474 2376.5 751.298 2400 768.08V771.268C2389.16 762.071 2376.95 753.856 2365.6 745.255C2345.74 730.197 2326.08 714.806 2306 700.055L2303.37 697.983L2300.01 695.918Z" fill="#E0E0E0"></path>
  <path d="M2283.19 703.475L2285.35 702.962L2285.59 709.534L2285.53 713.19C2287.1 741.653 2289.49 770.521 2289.84 799H2287.55C2285.69 771.078 2284.69 742.982 2283.42 715.02L2283.52 712.632C2283.37 709.581 2283.26 706.529 2283.19 703.475Z" fill="#E0E0E0"></path>
  <path d="M2300.01 695.918L2303.37 697.983C2299.93 700.579 2294.69 701.676 2291.96 704.644L2293.2 701.464C2295.87 699.868 2297.87 698.171 2300.01 695.918Z" fill="#E0E0E0"></path>
  <path d="M1879.97 676.836C1889.56 672.605 1897.32 672.972 1907.03 676.791C1907.49 676.973 1907.95 677.16 1908.41 677.354C1909.55 677.632 1909.6 677.565 1910.27 678.506C1915.67 682.455 1921.68 689.045 1922.89 695.889C1922.95 696.249 1922.99 696.612 1923.03 696.975L1924 699.923C1924.2 703.619 1924.29 706.938 1923.63 710.608C1923.59 710.831 1923.55 711.055 1923.51 711.278C1923.49 711.412 1923.47 711.545 1923.43 711.679L1922.86 713.57C1919.49 722.831 1914.4 727.416 1906.18 732.639L1904.13 733.188C1899.33 734.409 1894.69 735.148 1889.71 735.02L1887.97 735.14C1882.09 732.114 1876.64 730.628 1871.12 726.655L1869.4 725.026C1866.18 720.171 1863.53 715.599 1862.56 709.787C1862.73 705.963 1862.58 702.056 1862.58 698.224C1865.11 688.854 1870.64 683.09 1878.38 677.709L1879.97 676.836Z" fill="#E0E0E0"></path>
  <path d="M1998.04 455.119L1999.51 454.394C2005.72 454.123 2007.8 454.269 2013.94 456.113C2015.97 456.722 2018.5 458.253 2020.01 457.839L2021.48 458.474C2022.69 461.191 2027.27 465.701 2029.48 468.154L2030.99 470.194C2034.09 475.85 2035.53 485.251 2033.97 491.358L2033.15 493.328C2028.72 506.464 2025.65 505.704 2016.05 512.972L2014.16 513.396C2002.1 514.92 2004.37 514.656 1992.19 512.519L1990.72 511.719C1983.56 506.703 1983.24 505.037 1977.58 499.295L1977.02 497.271C1972.82 488.485 1973.52 481.641 1976.32 472.628L1977.32 470.961C1979.98 463.905 1990.52 456.145 1998.04 455.119Z" fill="#E0E0E0"></path>
  <path d="M2093.51 748.139C2097.17 746.614 2100.87 746.411 2104.78 746.684L2106.91 747.344C2111.18 749.525 2114.3 752.232 2117.85 755.377L2118.51 757.283L2120.39 761.733L2120.37 763.572C2120.58 766.706 2120.42 769.263 2119.71 772.324L2119.18 774.24C2116.73 778.121 2114.07 781.264 2110.53 784.198L2108.67 784.971L2115.97 799H2058.94H2055.32L2057.65 796.753L2059.6 795.192C2066.44 787.959 2074.32 781.553 2081.52 774.648C2080.07 770.599 2080.26 767.016 2080.81 762.806L2081.78 760.028C2084.45 755.246 2086.98 751.999 2091.45 748.801L2093.51 748.139Z" fill="#E0E0E0"></path>
  <path d="M2081.52 774.648L2081.84 776.564C2075.26 784.838 2066.08 791.174 2058.94 799H2055.32L2057.65 796.753L2059.6 795.192C2066.44 787.959 2074.32 781.553 2081.52 774.648Z" fill="#E0E0E0"></path>
  <path d="M1944.06 214.233C1949.5 209.095 1956.25 208.345 1963.32 209.219L1965.44 209.722C1973.22 211.709 1973.7 215.293 1977.61 217.287L1978.78 218.66C1981.62 225.994 1983.43 233.527 1979.95 241.115L1979.16 242.811C1975.36 249.496 1971.14 252.801 1963.66 254.828L1963.18 254.956C1959.65 254.245 1958.31 254.417 1954.68 254.651C1947.54 254.23 1945.2 249.908 1939.96 246.564L1939.43 244.9C1934.41 235.909 1937.42 235.395 1935.6 227.808L1936.03 226.11C1936.74 225.312 1940.99 217.604 1942.52 215.317L1944.06 214.233Z" fill="#E0E0E0"></path>
  <path d="M2282.49 665.497L2284.27 665.541C2291.89 666.159 2295.47 667.832 2301.01 673.091L2302.07 674.862C2304.78 680.965 2305.23 685.175 2302.81 691.499C2302.54 692.213 2302.25 692.91 2301.91 693.599C2301.31 694.902 2301.3 695.19 2300.01 695.918C2297.87 698.171 2295.87 699.869 2293.2 701.464C2290.55 702.206 2288.11 702.796 2285.35 702.962L2283.19 703.475C2277.38 699.876 2273.17 697.654 2268.34 692.691L2268.05 690.838C2267.3 688.238 2266.76 685.865 2267.03 683.142C2267.69 676.63 2271.61 672.173 2276.45 668.156L2277.37 667.753L2282.49 665.497Z" fill="#E0E0E0"></path>
  <path d="M1826.1 80.8262C1836.28 76.9518 1842.29 78.931 1850 86.1774C1850.54 87.1192 1851.01 87.709 1851.2 88.7359C1852.43 91.5074 1853.1 92.8503 1853.72 95.8036C1852.72 101.697 1852.22 104.53 1849.06 109.849L1847.64 111.449C1840.5 115.808 1838.45 116.221 1830.03 115.307L1828.03 115.134C1827.19 114.161 1824.97 112.65 1823.79 111.66C1819.21 107.789 1817.96 104.968 1815.67 99.7853L1815.76 97.386C1817.45 90.4962 1818.83 87.3493 1823.98 82.6217L1826.1 80.8262Z" fill="#E0E0E0"></path>
  <path d="M2003.46 0H2029.89C2031.24 1.43577 2033.19 3.61967 2034.57 4.91068L2035.25 6.3746C2035.08 8.79399 2035.08 10.4311 2035.15 12.8499L2035.15 14.0296L2034.34 16.7443L2033.96 18.2499C2030.57 24.5998 2027.73 26.5273 2020.95 28.9298L2019.88 29.199C2017.97 29.246 2015.63 29.0973 2013.97 29.8526L2012 29.3698C2006.24 25.9115 2004.53 24.0053 2000.33 18.6651L1999.63 16.7907L1998.83 6.83235L2000.11 5.18718L2003.46 0Z" fill="#E0E0E0"></path>
  <path d="M2202.93 88.1709L2269.38 169.61C2281.67 184.586 2300.84 206.085 2312.62 224.066L2311.99 230.181C2308.61 224.004 2290.63 203.367 2286.11 197.75L2233.3 132.894C2223.72 121.071 2211.79 107.507 2202.6 93.1883L2202.93 88.1709Z" fill="#E0E0E0"></path>
</svg>
