<?xml version="1.0" encoding="UTF-8"?>
<svg xmlns="http://www.w3.org/2000/svg" width="1820" height="1024" viewBox="0 0 1820 1024" fill="none">
  <path d="M1297.01 47.8242C1302.83 56.8676 1309.3 68.1412 1314.63 77.5942C1319.36 78.7175 1324.83 79.8758 1329.41 81.2858C1335.75 77.7831 1360.32 67.4923 1367.86 64.9173C1362.74 75.8443 1357.53 83.8271 1350.69 93.7703C1354.61 95.5311 1370.29 101.913 1372.65 104.128L1372.93 106.018C1370.01 109.748 1363.37 111.334 1358.7 112.916C1342.37 137.855 1328.94 165.067 1314.25 190.786C1316.75 192.467 1319.01 193.899 1321.3 195.882C1322.45 202.663 1322.04 207.858 1321.8 214.701L1317.09 220.822C1318.39 224.173 1319.76 227.991 1321.16 231.253C1371.89 236.979 1433.39 245.027 1469.05 285.708C1483.05 301.673 1479.77 317.142 1480.48 335.681C1482.15 379.63 1463.98 390.597 1429.77 408.712L1391.58 428.871L1384.21 433.233C1366.25 441.679 1346.69 452.285 1329.28 461.927C1325.79 463.808 1322.1 465.717 1318.67 467.672C1302.7 475.225 1283.67 486.281 1267.9 494.84L1177.18 543.68L1089.01 590.279C1075.14 597.579 1054.43 607.705 1041.38 615.7C1067.79 641.948 1095.54 660.082 1097.02 703.322C1097.77 725.028 1083.66 749.684 1067.5 764.203C982.307 840.78 835.192 859.038 725.131 860.441C680.329 861.012 643.243 856.634 601.398 848.962C587.589 855.601 570.512 865.299 556.818 872.604L473.113 917.626L338.417 989.837C327.235 982.827 305.065 972.124 292.665 965.503L197.794 914.761C179.827 905.261 158.474 895.012 141.23 884.816C141.199 873.342 141.138 862.078 141.528 850.602C153.444 844.63 194.789 823.3 204.068 816.563C203.103 813.532 203.389 810.11 203.332 806.924C202.563 764.055 202.649 721.203 202.772 678.329L204.027 678.76L205.744 675.141L206.532 676.369C226.207 693.368 229.611 688.674 249.945 693.611C252.695 692.846 259.563 692.105 262.671 691.685C266.57 694.825 264.602 704.028 265.062 709.347C264.15 732.315 261.183 755.569 259.254 778.508C258.772 784.236 258.396 790.775 257.627 796.422C261.81 795.676 335.264 754.45 343.343 749.76C343.209 718.893 342.145 682.64 351.108 653.159C354.718 641.288 371.691 639.662 381.129 635.96C335.668 587.276 409.906 581.039 416.945 595.504C416.67 599.602 413.718 602.659 411.2 606.122C414.453 612.417 414.387 620.484 414.741 627.531C411.604 631.811 407.81 637.468 402.99 638.62C402.914 639.255 402.888 640.851 403.051 641.359C403.766 643.586 405.1 652.214 407.085 653.118C422.583 660.172 428.418 676.83 435.286 691.165C437.498 695.782 439.732 698.744 442.65 702.958C454.035 695.707 455.417 689.45 463.141 685.234C464.31 684.743 467.201 683.965 468.551 683.557C472.481 682.636 477.574 681.068 481.028 683.806C481.513 686.999 481.433 685.979 479.574 689.292C484.492 688.527 523.708 666.255 531.271 662.196L711.241 565.05C707.813 562.849 701.22 560.276 697.232 558.346C656.169 538.471 606.844 496.241 622.394 444.377C635.332 401.225 678.55 380.19 715.877 359.993C710.031 346.588 695.444 315.568 694.337 302.489C690.297 254.757 745.457 211.647 788.712 206.321C822.559 202.154 837.209 213.048 862.594 230.227C896.985 253.501 916.649 262.072 922.888 304.862C923.883 308.141 923.517 312.509 923.425 316.027C938.852 324.686 962.668 337.114 976.864 346.603C976.837 361.686 977.013 376.642 977.693 391.717C977.921 396.772 978.977 405.108 975.354 408.874C969.958 410.319 965.401 407.231 960.572 404.285C949.652 397.625 937.628 391.305 926.872 384.56C926.767 393.804 926.991 406.023 926.363 415.027C915.348 409.742 904.719 403.188 894.238 396.881C892.672 400.731 890.763 404.452 889.035 408.231C875.12 438.67 860.277 468.688 846.464 499.173C916.244 462.914 985.676 423.74 1055.39 387.251L1059.24 385.214C1073.18 377.878 1087.31 370.594 1100.9 362.677C1102.13 362.053 1103.69 361.589 1105.02 361.129C1107.33 359.289 1108.61 358.927 1108.75 355.626C1110.13 322.398 1101.61 298.989 1131.15 274.287C1157.85 251.969 1197.52 241.129 1231.35 235.348C1243.22 233.32 1257.25 232.517 1268.58 230.36C1271.17 223.518 1271.39 223.559 1269.39 216.556C1265.74 203.811 1265.59 197.498 1276.37 189.168C1261.05 166.55 1249.57 137.495 1235.26 114.531C1230.87 112.669 1220.85 109.446 1219.21 104.935C1221.7 100.911 1236.34 96.5097 1242.07 94.114C1237.31 84.2865 1231.07 74.1004 1226.69 64.733C1240.48 69.206 1252.89 75.2515 1266.21 80.1472L1282.19 76.7923C1286.75 67.6629 1291.97 56.5178 1297.01 47.8242Z" fill="#0F172A"></path>
  <path d="M1330.71 256.826C1379.75 262.89 1455.21 277.96 1474.24 330.974C1462.48 360.097 1436.76 369.289 1410.72 383.085L1347.68 416.395L1189.07 501.201L595.659 815.869L409.356 915.625C388.738 926.91 356.828 942.498 338.052 954.685C312.698 939.077 282.677 924.771 256.261 910.293C264.872 904.516 277.895 897.986 287.24 893.03L339.206 865.681L338.163 864.278C340.341 862.049 339.66 863.088 340.348 859.438L339.673 857.496C340.389 856.555 343.926 827.574 344.265 824.062C345.633 809.903 357.503 772.405 352.319 760.086L351.984 758.449C354.221 746.847 352.72 738.596 353.952 728.19L354.872 730.317C355.444 729.845 356.178 729.311 356.637 728.771C371.382 744.115 391.73 751.125 411.166 739.456C410.417 733.967 410.624 727.068 410.617 721.427C413.357 724.132 412.479 725.733 413.418 729.285L413.173 731.438C413.097 733.356 412.743 733.583 413.593 734.886C416.648 730.315 421.862 731.856 426.403 728.611C429.812 726.174 430.429 721.273 434.399 719.554C439.265 720.777 441.555 721.61 446.078 718.887C455.405 713.273 466.01 701.761 475.106 696.771C486.583 690.474 498.424 684.136 509.941 677.842L599.916 629.272C663.314 595.036 727.244 559.35 791.418 526.645C796.596 536.47 807.677 560.481 812.423 567.824C823.121 548.894 833.75 524.485 844.047 504.482L1011.39 414.832C1048.58 394.692 1091.28 370.746 1128.98 352.461C1122.62 344.108 1117.34 337.637 1118.78 326.12C1120.34 313.676 1132.1 302.098 1141.83 294.921C1168.7 275.091 1225.3 257.548 1258.18 257.639L1243.23 297.453C1232.94 302.928 1221.64 308.477 1217.71 320.553C1215.29 327.985 1217.08 334.022 1216.33 341.172C1214.15 361.956 1234.88 373.689 1253.22 378.729C1285.14 387.498 1326.53 387.157 1356.67 371.613C1363.38 368.09 1372.15 361.205 1373.89 353.673C1375.76 345.562 1376.37 322.873 1372.16 315.736C1366.7 306.473 1355.18 300.636 1345.41 297.562C1340.84 284.489 1334.73 269.566 1330.71 256.826Z" fill="white"></path>
  <path d="M852.693 586.124C882.944 569.115 915.419 553.383 945.586 536.76L947.354 540.162L948.328 541.572C940.757 546.274 931.396 550.412 923.549 554.816C902.42 566.673 877.412 578.087 856.755 590.179C863.647 602.594 860.776 613.113 847.935 619.811C827.842 630.29 805.175 629.193 783.893 623.382C760.797 635.152 733.044 649.068 710.802 662.191C711.567 672.496 711.564 677.639 714.065 687.731L714.232 688.384C700.162 687.417 684.131 686.235 670.076 686.014C658.092 693.12 644.264 700.769 631.799 706.964C588.563 728.454 545.857 754.354 502.513 775.301C503.631 783.314 504.677 791.013 506.245 798.968C490.275 797.287 469.187 793.737 454.005 800.25C441.118 805.78 419.86 821.616 406.896 824.84L406.521 823.571C406.938 820.837 406.961 820.401 408.703 818.286C407.721 816.46 407.874 817.419 408.362 815.298C412.245 816.388 446.053 796.603 452.304 793.573C451.114 787.322 450.521 775.808 450.169 769.371C462.309 771.766 478.599 771.445 491.201 771.476L499.288 771.297C506 766.868 524.565 757.861 532.623 753.481L617.47 708.034C622.965 705.129 649.06 692.281 651.258 688.352C652.68 687.224 655.499 686.321 657.294 685.637C656.335 681.534 656.769 661.941 656.206 655.592C667.241 657.011 697.375 660.855 706.126 656.428C711.747 651.967 766.66 623.1 775.31 619.509C773.71 616.4 768.719 612.491 767.685 610.119C753.775 578.21 809.37 573.672 828.828 576.903C836.286 578.141 847.661 584.735 852.204 584.225L852.693 586.124Z" fill="#0F172A"></path>
  <path d="M657.294 685.637C660.229 685.461 663.162 684.93 665.724 686.103C664.346 688.146 520.787 765.042 503.449 773.409C501.488 772.639 501.069 772.423 499.288 771.297C506 766.868 524.565 757.861 532.623 753.481L617.47 708.034C622.965 705.129 649.06 692.281 651.258 688.352C652.68 687.224 655.499 686.321 657.294 685.637Z" fill="#0F172A"></path>
  <path d="M706.126 656.428C711.747 651.967 766.659 623.1 775.309 619.509L776.168 620.255C779.223 620.539 778.837 620.016 780.735 621.646C778.221 626.363 724.409 651.407 715.887 657.35C713.546 658.983 709.824 659.931 706.851 659.718L706.304 658.813L706.514 658.363L706.126 656.428Z" fill="#0F172A"></path>
  <path d="M706.126 656.428C711.747 651.967 766.659 623.1 775.309 619.509L776.168 620.255C763.326 629.133 738.226 639.667 723.741 648.343C718.709 651.356 711.063 654.803 706.514 658.363L706.126 656.428Z" fill="#0F172A"></path>
  <path d="M852.693 586.124C882.944 569.115 915.419 553.383 945.586 536.76L947.353 540.162C936.483 545.9 858.872 588.218 854.919 588.62L853.191 587.91L852.693 586.124Z" fill="#0F172A"></path>
  <path d="M408.362 815.298C412.245 816.388 446.053 796.603 452.304 793.573L452.992 795.079L458.206 795.956C453.775 799.387 412.498 821.507 406.521 823.571C406.938 820.837 406.961 820.401 408.703 818.286C407.721 816.46 407.874 817.419 408.362 815.298Z" fill="#0F172A"></path>
  <path d="M408.362 815.298C412.245 816.388 446.053 796.603 452.304 793.573L452.992 795.079C441.948 800.927 419.256 813.849 408.703 818.286C407.721 816.46 407.874 817.419 408.362 815.298Z" fill="#0F172A"></path>
  <path d="M806.505 579.019C819.529 577.427 837.409 579.811 848.172 587.408C852.411 590.4 855.99 594.539 856.758 599.826C857.327 603.746 855.999 607.66 853.585 610.741C846.156 620.221 831.092 623.193 819.692 624.398C805.742 625.498 788.698 623.978 777.152 615.503C773.084 612.517 769.509 608.208 768.843 603.053C768.316 598.978 769.539 595.231 772.093 592.058C779.696 582.609 795.096 580.252 806.505 579.019Z" fill="#0F172A"></path>
  <path d="M659.846 658.923C675.67 661.08 691.816 660.722 707.711 662.352C708.102 669.909 708.851 677.372 709.408 684.907C693.079 683.322 676.576 682.884 660.189 682.101C660.472 674.354 659.693 666.658 659.846 658.923Z" fill="#0F172A"></path>
  <path d="M452.983 773.199C468.244 774.094 483.096 774.886 498.358 773.394C499.818 780.6 500.899 787.895 502.077 795.153C497.417 795.455 492.097 794.597 487.387 794.303C476.647 793.635 465.887 792.931 455.123 793.245L452.983 773.199Z" fill="#0F172A"></path>
  <path d="M410.617 721.427C413.357 724.132 412.479 725.733 413.418 729.285L413.173 731.438C413.097 733.356 412.743 733.583 413.593 734.886C417.175 764.351 412.752 786.443 408.362 815.298C407.874 817.419 407.721 816.46 408.703 818.286C406.961 820.401 406.938 820.837 406.521 823.571L406.896 824.84C404.379 835.241 402.756 864.469 402.308 875.835L402.991 877.879C402.144 889.902 393.751 888.449 384.366 889.031L382.389 890.468C381.862 885.154 381.31 881.367 380.387 876.138L380.104 873.509C371.891 877.238 350.752 887.338 343.456 879.932C343.051 877.573 342.926 876.821 343.018 874.438L340.189 873.619C339.35 870.804 340.724 869.186 339.206 865.681L338.163 864.278C340.341 862.049 339.66 863.088 340.348 859.438L339.673 857.496C340.389 856.555 343.926 827.574 344.265 824.062C345.633 809.903 357.503 772.405 352.319 760.086L351.984 758.449C354.221 746.847 352.72 738.596 353.952 728.19L354.872 730.317C355.444 729.845 356.178 729.311 356.637 728.771C371.382 744.115 391.73 751.125 411.166 739.456C410.417 733.967 410.624 727.068 410.617 721.427Z" fill="#0F172A"></path>
  <path d="M343.018 874.438C359.634 877.686 368.307 856.919 379.391 866.268C380.645 869.592 380.672 869.997 380.104 873.509C371.891 877.238 350.752 887.338 343.456 879.932C343.051 877.573 342.926 876.821 343.018 874.438Z" fill="#0F172A"></path>
  <path d="M376.688 788.97C381.978 801.906 379.623 820.215 379.027 833.887L365.875 840.99C365.305 840.817 364.982 840.414 364.546 840.022C367.354 822.85 373.597 806.217 376.688 788.97Z" fill="white"></path>
  <path d="M363.828 847.655C363.531 841.815 372.608 838.004 377.588 836.944L378.733 837.739L378.687 840.294L379.386 841.838C379.497 845.13 380.404 860.737 379.646 862.787C378.171 863.057 378.033 862.999 376.58 862.447C370.855 860.272 363.776 864.466 360.772 858.909C361.276 856.987 362.9 851.324 364.261 849.996L363.828 847.655Z" fill="white"></path>
  <path d="M363.828 847.655C363.531 841.815 372.608 838.004 377.588 836.944L378.733 837.739L378.687 840.294C374.955 842.367 367.651 846.82 363.828 847.655Z" fill="#0F172A"></path>
  <path d="M378.687 840.294L379.386 841.838C375.624 843.976 367.994 848.595 364.261 849.996L363.828 847.655C367.651 846.82 374.955 842.367 378.687 840.294Z" fill="#0F172A"></path>
  <path d="M942.665 510.099C951.691 510.831 986.14 513.129 993.245 510.63C997.207 512.709 999.781 512.145 1004.25 512.147C1002.51 517.698 1000.72 523.08 998.835 528.585C1001.19 534.401 1002.29 537.212 1005.66 542.611C995.331 541.678 956.632 539.129 948.328 541.572L947.353 540.162L945.586 536.76L946.195 534.838C945.87 524.472 945.882 519.923 942.665 510.099Z" fill="#0F172A"></path>
  <path d="M947.625 513.786C965.193 513.874 981.965 514.833 999.895 514.634C996.116 523.196 993.228 526.784 997.942 535.735C998.393 536.398 998.354 536.888 998.527 537.783C996.862 538.62 955.141 537.525 949.221 537.674C949.477 528.853 949.811 522.395 947.625 513.786Z" fill="#0F172A"></path>
  <path d="M1151.25 399.552C1172 402.928 1193.61 405.379 1213.56 398.257C1211.49 402.313 1207.07 410.462 1205.65 414.383C1207.89 421.175 1209.55 425.338 1212.5 431.853C1203.35 431.035 1168.55 427.289 1161.97 429.1C1157.72 426.58 1156.01 429.194 1151.92 426.694C1154.9 416.293 1153.98 409.754 1151.25 399.552Z" fill="#0F172A"></path>
  <path d="M1155.67 403.492C1170.54 406.076 1191.77 406.823 1206.56 403.947C1204.77 407.53 1203.05 411.285 1201.32 414.908L1206.3 425.49C1206.45 425.835 1206.42 426.922 1206.44 427.365C1204.95 427.828 1161.21 425.573 1155.76 425.676C1157.31 416.171 1157.41 412.673 1155.67 403.492Z" fill="#0F172A"></path>
  <path d="M1151.92 426.694C1156.01 429.194 1157.72 426.58 1161.97 429.1C1152.35 434.81 1008.09 511.655 1004.25 512.147C999.781 512.145 997.207 512.709 993.245 510.63C998.77 507.095 1011.08 501.206 1017.29 497.895L1073.8 468.088C1098.97 454.98 1126.6 438.555 1151.92 426.694Z" fill="#0F172A"></path>
  <path d="M1150.78 428.432C1152.2 428.21 1156.28 428.651 1157.91 428.781L1157.78 429.625C1122.01 447.26 1086.35 467.759 1050.97 486.262C1035.65 494.268 1019.19 503.798 1003.61 510.963C1001.42 511.232 998.118 511.995 996.549 510.678C1004.45 506.626 1012.22 502.263 1020.04 498.036C1063.41 474.561 1107.6 452.24 1150.78 428.432Z" fill="#0F172A"></path>
  <path d="M402.991 877.879C409.121 877.996 413.382 877.63 418.264 881.616C419.445 884.366 419.35 883.153 418.476 886.206C413.381 892.21 400.595 896.139 392.878 897.021C386.496 897.75 384.71 894.853 384.366 889.031C393.751 888.449 402.144 889.902 402.991 877.879Z" fill="#0F172A"></path>
  <path d="M651.258 688.352C649.06 692.281 622.965 705.129 617.47 708.034L532.623 753.481C524.565 757.861 506 766.868 499.288 771.297L491.2 771.476C500.839 770.166 562.356 735.691 574.451 729.177L651.258 688.352Z" fill="#0F172A"></path>
  <path d="M402.308 875.835C409.017 875.364 421.106 876.544 424.021 883.79C423.287 891.701 412.496 894.472 405.803 896.739C396.728 899.813 383.932 903.699 382.389 890.468L384.366 889.031C384.71 894.853 386.496 897.75 392.878 897.021C400.595 896.139 413.381 892.21 418.476 886.206C419.35 883.153 419.445 884.366 418.264 881.616C413.382 877.63 409.121 877.996 402.991 877.879L402.308 875.835Z" fill="#0F172A"></path>
  <path d="M852.204 584.225C857.59 580.884 869.147 575.63 875.502 572.219L946.195 534.838L945.586 536.76C915.419 553.383 882.944 569.115 852.693 586.124L852.204 584.225Z" fill="#0F172A"></path>
  <path d="M340.189 873.619L343.018 874.438C342.926 876.821 343.051 877.573 343.456 879.932C350.752 887.338 371.891 877.238 380.104 873.509L380.387 876.138C372.411 879.994 360.797 884.674 352.05 885.551C342.263 886.532 340.323 881.928 340.189 873.619Z" fill="#0F172A"></path>
  <path d="M1036.39 618.37L1041.38 615.7C1067.79 641.948 1095.54 660.082 1097.02 703.322C1097.77 725.028 1083.66 749.684 1067.5 764.203C982.307 840.78 835.192 859.038 725.131 860.441C680.329 861.012 643.243 856.634 601.398 848.962C603.471 847.618 607.064 845.967 609.399 844.81C629.149 833.22 653.546 821.201 673.89 810.418L789.268 749.218C871.524 705.906 953.798 660.927 1036.39 618.37Z" fill="white"></path>
  <path d="M1036.39 618.37L1041.38 615.7C1067.79 641.948 1095.54 660.082 1097.02 703.322C1097.77 725.028 1083.66 749.684 1067.5 764.203C982.307 840.78 835.192 859.038 725.131 860.441C680.329 861.012 643.243 856.634 601.398 848.962C603.471 847.618 607.064 845.967 609.399 844.81C635.838 852.819 698.919 856.54 728.404 855.729C841.945 852.604 981.002 836.817 1068.16 756.56C1081.92 743.881 1092.42 719.629 1091.68 700.817C1088.93 661.143 1060.97 641.999 1036.39 618.37Z" fill="#0F172A"></path>
  <path d="M715.877 359.993L717.793 364.194C736.9 408.406 755.83 452.519 776.849 495.872C781.251 504.95 785.485 513.936 789.519 523.185C767.639 536.873 734.757 550.259 714.228 563.736L711.241 565.05C707.813 562.849 701.22 560.276 697.232 558.346C656.169 538.471 606.844 496.241 622.394 444.377C635.332 401.225 678.55 380.19 715.877 359.993Z" fill="white"></path>
  <path d="M715.877 359.993L717.793 364.194C682.506 385.099 638.156 404.448 626.621 448.939C614.943 493.979 658.093 532.594 693.704 551.109C698.971 553.843 710.971 559.919 714.228 563.736L711.241 565.05C707.813 562.849 701.22 560.276 697.232 558.346C656.169 538.471 606.844 496.241 622.394 444.377C635.332 401.225 678.55 380.19 715.877 359.993Z" fill="#0F172A"></path>
  <path d="M344.377 753.624C347.525 758.863 347.387 758.614 352.319 760.086C357.503 772.405 345.633 809.903 344.265 824.062C343.926 827.574 340.389 856.555 339.673 857.496C336.056 858.873 332.616 860.948 329.152 862.695C301.794 876.492 275.268 892.163 247.857 905.79C231.737 897.832 216.467 888.955 200.611 880.654C182.604 871.228 165.2 862.257 147.456 852.223C166.334 841.466 184.329 832.394 203.078 822.056C203.714 847.411 212.249 844.666 230.76 834.503L231.663 838.661L232.124 843.834L233.366 844.527C239.478 845.684 248.596 849.146 252.423 840.897C251.828 837.524 251.055 835.641 253.867 833.572C255.252 825.044 254.633 803.703 260.249 799.024C267.989 796.007 284.273 786.459 292.019 782.165L344.377 753.624Z" fill="white"></path>
  <path d="M252.423 840.897C254.113 837.839 253.41 837.78 256.767 836.692C263.001 834.669 274.468 838.034 270.029 846.459C265.713 849.527 258.24 852.38 252.998 853.614C242.482 856.09 233.887 857.966 233.366 844.527C239.478 845.684 248.596 849.146 252.423 840.897Z" fill="#0F172A"></path>
  <path d="M252.423 840.897C251.828 837.524 251.055 835.641 253.867 833.572C260.377 834.002 264.194 834.105 270.522 836.182C272.454 839.142 274.375 841.48 274.683 844.981C274.073 847.103 274.333 847.778 272.095 848.678C262.005 852.737 240.669 864.985 232.552 852.645C230.331 849.267 231.297 842.505 231.663 838.661L232.124 843.834L233.366 844.527C233.887 857.966 242.482 856.09 252.998 853.614C258.24 852.38 265.713 849.527 270.029 846.459C274.468 838.034 263.001 834.669 256.767 836.692C253.41 837.78 254.113 837.839 252.423 840.897Z" fill="#0F172A"></path>
  <path d="M205.744 675.141L206.532 676.369C226.207 693.368 229.611 688.674 249.945 693.611C252.695 692.846 259.563 692.105 262.671 691.685C266.57 694.825 264.602 704.028 265.062 709.347C264.15 732.315 261.183 755.569 259.254 778.508C258.772 784.236 258.396 790.775 257.627 796.422L260.249 799.024C254.633 803.703 255.252 825.044 253.867 833.572C251.055 835.641 251.828 837.524 252.423 840.897C248.596 849.146 239.478 845.684 233.366 844.527L232.124 843.834L231.663 838.661L230.76 834.503L231.138 831.941L225.501 834.12C224.162 832.193 223.077 830.237 221.902 828.209L219.805 829.277C206.637 828.368 207.794 828.867 204.068 816.563C203.103 813.532 203.389 810.11 203.332 806.924C202.563 764.055 202.649 721.203 202.772 678.329L204.027 678.76L205.744 675.141Z" fill="#0F172A"></path>
  <path d="M249.945 693.611C243.565 696.913 220.065 692.099 214.682 687.031C211.215 683.766 207.569 681.432 206.532 676.369C226.207 693.368 229.611 688.674 249.945 693.611Z" fill="#0F172A"></path>
  <path d="M221.902 828.209C223.602 823.741 222.76 823.972 226.044 821.418L228.062 821.17C232.287 824.708 231.325 826.477 231.138 831.941L225.501 834.12C224.162 832.193 223.077 830.237 221.902 828.209Z" fill="#0F172A"></path>
  <path d="M229.452 748.399C229.302 746.057 228.879 743.988 229.842 741.942C231.423 747.594 231.511 757.148 230.916 763.084C230.962 771.479 234.54 807.997 226.142 810.309C223.939 806.885 228.572 756.172 229.452 748.399Z" fill="white"></path>
  <path d="M229.452 748.399C229.302 746.057 228.879 743.988 229.842 741.942C231.423 747.594 231.511 757.148 230.916 763.084C230.53 757.984 230.067 753.465 229.452 748.399Z" fill="#0F172A"></path>
  <path d="M229.271 812.891L230.759 813.536L231.409 815.618C230.489 818.263 230.205 818.461 227.919 820.112C226.607 819.374 225.887 818.749 224.896 817.615C225.519 814.997 227.172 814.441 229.271 812.891Z" fill="white"></path>
  <path d="M922.888 304.862C923.883 308.141 923.517 312.509 923.425 316.027C938.852 324.686 962.668 337.114 976.864 346.603C976.837 361.686 977.013 376.642 977.693 391.717C977.921 396.772 978.977 405.108 975.354 408.874C969.958 410.319 965.401 407.231 960.572 404.285C949.652 397.625 937.628 391.305 926.872 384.56C926.767 393.804 926.991 406.023 926.363 415.027C915.348 409.742 904.719 403.188 894.238 396.881L896.162 392.472L905.116 372.899L907.48 368.098C910.677 361.367 913.889 352.884 916.742 345.871L918.255 339.733C920.039 333.082 921.049 327.802 922.262 321.011C922.443 315.62 922.617 310.251 922.888 304.862Z" fill="#0F172A"></path>
  <path d="M916.742 345.871C936.119 355.859 953.863 366.541 972.794 377.29C972.838 386.422 973.111 396.687 972.656 405.72C961.846 399.292 951.174 393.063 940.286 386.901C932.018 382.223 913.55 373.765 907.48 368.098C910.677 361.367 913.889 352.884 916.742 345.871Z" fill="white"></path>
  <path d="M922.262 321.011C938.481 330.219 956.403 339.943 972.143 349.716C972.263 356.6 972.513 363.925 972.435 370.77C966.05 367.664 920.445 343.102 918.255 339.733C920.039 333.082 921.049 327.802 922.262 321.011Z" fill="white"></path>
  <path d="M905.116 372.899C911.255 377.148 915.62 378.894 921.679 382.49C921.618 390.569 921.609 398.705 921.373 406.777C913.018 402.103 904.345 397.395 896.162 392.472L905.116 372.899Z" fill="white"></path>
  <path d="M358.386 647.562C360.951 646.025 365.505 642.95 368.216 643.15C367.622 648.419 369.378 648.965 374.261 651.11C396.904 661.055 401.121 678.664 412.39 699.597C411.255 705.81 410.472 715.174 410.617 721.427C410.624 727.068 410.417 733.967 411.166 739.456C391.73 751.125 371.382 744.115 356.637 728.771C363.21 699.888 360.043 676.873 358.386 647.562Z" fill="#0F172A"></path>
  <path d="M381.129 635.96C335.668 587.276 409.906 581.039 416.945 595.504C416.67 599.602 413.718 602.659 411.2 606.122L409.763 607.438L408.774 607.178C403.009 610.578 403.563 609.939 401.089 616.927C399.956 615.617 399.274 614.735 397.891 613.645C395.564 616.25 396.143 620.583 397.16 623.782L394.963 624.679C389.623 636.258 391.536 631.714 382.01 637.019L381.129 635.96Z" fill="#0F172A"></path>
  <path d="M349.527 682.633C352.047 684.041 355.287 685.565 357.918 686.894C357.744 704.809 357.65 710.685 353.952 728.19C352.72 738.596 354.221 746.847 351.984 758.449C341.48 752.732 347.083 694.877 349.527 682.633Z" fill="white"></path>
  <path d="M338.163 864.278C333.948 865.734 319.487 873.978 314.512 876.69L273.106 899.049C268.511 901.57 255.764 910.014 251.612 907.705C252.874 904.047 332.738 860.86 340.348 859.438C339.66 863.088 340.341 862.049 338.163 864.278Z" fill="#0F172A"></path>
  <path d="M408.774 607.178C411.936 613.842 411.711 619.811 411.998 627.104C409.444 630.198 408.548 631.539 405.149 633.61L403.811 633.133C403.258 629.865 403.445 625.259 401.961 623.344L401.163 626.845C399.357 625.69 398.732 625.238 397.16 623.782C396.143 620.583 395.564 616.25 397.891 613.645C399.274 614.735 399.956 615.617 401.089 616.927C403.563 609.939 403.009 610.578 408.774 607.178Z" fill="white"></path>
  <path d="M394.963 624.679L401.8 633.654C400.451 637.69 399.34 640.825 398.566 645.054C393.698 643.313 385.208 640.831 382.01 637.019C391.536 631.714 389.623 636.258 394.963 624.679Z" fill="white"></path>
  <path d="M221.902 828.209C223.077 830.237 224.162 832.193 225.501 834.12C220.777 837.184 207.258 842.429 204.848 834.914C206.474 827.2 212.467 832.162 219.028 829.589L219.805 829.277L221.902 828.209Z" fill="#0F172A"></path>
  <path d="M413.418 729.285C416.755 728.036 424.182 724.576 427.149 724.602C423.935 728.753 418.216 730.792 413.173 731.438L413.418 729.285Z" fill="white"></path>
  <path d="M824.112 237.659C878.684 233.475 930.383 267.232 917.788 327.805C911.952 355.868 894.234 388.503 881.877 415.055L817.618 550.229L812.537 561.437C803.197 543.695 794.013 516.538 786.005 497.557C773.85 468.605 762.49 438.984 751.153 409.77C733.766 364.963 713.904 324.283 747.841 281.371C768.209 255.616 791.424 241.949 824.112 237.659Z" fill="#0F172A"></path>
  <path d="M821.512 268.651C835.716 266.77 851.761 270.268 863.265 278.912C901.999 308.016 886.949 365.352 845.613 382.716C838.368 385.76 832.701 386.999 824.948 388.168C774.376 394.053 742.51 338.779 773.344 297.984C786.612 280.431 799.912 272.435 821.512 268.651Z" fill="#0F172A"></path>
  <path d="M826.492 271.454C899.609 268.014 901.692 377.843 822.157 385.039C742.305 386.089 749.233 277.867 826.492 271.454Z" fill="white"></path>
  <path d="M1476.44 335.749C1480.87 356.589 1469.96 382.14 1451.43 392.779C1435.63 401.849 1419.61 410.345 1403.49 418.826L1321.01 462.316L1071.68 595.204L339.868 984.734C339.413 976.026 339.977 966.203 340.285 957.403C360.41 945.496 382.083 934.809 402.695 923.541L587.896 824.103L1134.81 533.891L1332.65 428.195L1408.7 388.016C1434.73 374.225 1462.88 363.615 1476.44 335.749Z" fill="white"></path>
  <path d="M777.375 488.929C776.054 485.718 774.183 482.124 772.659 478.971C754.185 440.735 737.424 401.843 720.795 362.774C714.924 346.241 699.722 320.957 697.815 303.715C692.816 258.508 744.666 217.716 784.313 210.458C823.861 203.218 841.882 220.591 870.938 239.974C841.637 231.438 819.804 230.729 791.003 242.984C754.51 258.511 721.669 298.527 726.025 340.029C728.199 360.733 738.481 385.528 745.858 405.324C756.092 432.789 767.06 461.375 778.947 488.192L777.375 488.929Z" fill="white"></path>
  <path d="M145.537 855.061C166.614 867.349 188.271 878.26 209.742 889.814L335.879 956.922C336.173 965.495 337.393 975.936 335.556 984.285C317.299 973.927 298.41 964.464 279.9 954.545L145.309 882.714C145.231 873.486 145.164 864.285 145.537 855.061Z" fill="white"></path>
  <path d="M1329.88 264.832C1335.37 279.223 1341.93 296.971 1346.57 311.503C1327.91 335.691 1280.05 335.263 1254.8 322.528C1249.05 319.329 1245.94 316.235 1241.53 311.619C1245.72 298.335 1253.53 278.817 1259.18 266.023C1275.88 286.868 1312.61 284.225 1329.88 264.832Z" fill="white"></path>
  <path d="M1293.55 79.4927C1333.2 76.2569 1378.3 109.625 1314.91 123.627C1311.12 124.464 1300.75 112.383 1297.53 109.073L1296.51 108.764C1292.19 110.434 1285.65 120.511 1282.78 124.534C1221.97 113.792 1248.45 82.5139 1293.55 79.4927Z" fill="white"></path>
  <path d="M1113.34 309.044C1123.85 255.433 1221.64 237.619 1266.45 234.613C1264.23 240.558 1261.88 247.31 1259.5 253.119C1214.89 256.747 1129.01 276.995 1114.61 326.003C1113.05 323.203 1113.38 313.047 1113.34 309.044Z" fill="white"></path>
  <path d="M1323.04 235.293C1369.1 236.568 1483.9 260.484 1475.97 322.747L1474.87 322.501C1453 274.6 1376.16 258.419 1329.12 253.068L1323.04 235.293Z" fill="white"></path>
  <path d="M1240.33 315.934C1244.16 317.916 1249.81 324.202 1253.79 325.98C1280.92 338.081 1327.16 338.693 1347.97 315.52C1351.89 323.781 1354.2 326.672 1350.18 335.291C1330.91 357.233 1284.7 356.888 1259.31 347.614C1242.39 341.438 1233.6 333.809 1240.33 315.934Z" fill="#0F172A"></path>
  <path d="M1275.37 221.541C1289.39 228.555 1299.52 227.863 1313.7 222.504C1318.41 232.223 1322.35 244.407 1325.83 254.743C1321.61 259.217 1319.32 260.78 1313.78 263.361C1296.76 268.988 1276.04 268.431 1262.4 255.528C1266.6 244.159 1271 232.852 1275.37 221.541Z" fill="white"></path>
  <path d="M1371.74 340.228C1376.75 389.071 1247.61 394.38 1221.97 353.911C1220.75 351.253 1219.54 343.892 1221.44 341.62C1225.46 346.217 1229.42 350.689 1234.9 353.521C1271.34 372.355 1344.17 373.367 1371.74 340.228Z" fill="#0F172A"></path>
  <path d="M1346.45 301.991C1370.97 310.121 1382.92 332.202 1357.93 348.644C1332.73 365.22 1290.86 365.543 1262.3 359.797C1242.89 355.892 1215.42 344.811 1221.17 319.829C1226.5 310.327 1231.92 307.053 1241.4 302.465C1238.81 309.444 1231.85 325.674 1234.9 331.879C1249.04 360.646 1303.86 360.138 1329.51 351.84C1347.71 345.952 1362.62 334.452 1352.29 316.196C1349.86 311.885 1348 306.716 1346.45 301.991Z" fill="white"></path>
  <path d="M1257.22 122.978C1265.84 124.937 1272.64 126.429 1281.36 127.616C1283.57 138.022 1295.28 194.428 1294.48 201.294C1292.23 201.15 1291.96 201.102 1289.8 200.421C1287.22 196.813 1257.42 124.861 1257.22 122.978Z" fill="white"></path>
  <path d="M1332.1 122.804L1333.66 123.05C1334.03 126.695 1306 190.936 1301.21 200.749L1299.01 199.569C1297.51 192.371 1309.1 138.969 1311.34 128.132C1318.75 126.657 1324.83 124.907 1332.1 122.804Z" fill="white"></path>
  <path d="M1285.24 128.624C1293.67 129.114 1299.61 129.121 1308.06 128.838C1303.91 143.464 1301.18 162.354 1298.71 177.533L1296.73 190.498L1285.24 128.624Z" fill="#0F172A"></path>
  <path d="M459.321 689.657C462.985 687.677 464.735 687.273 468.769 686.145L470.621 686.602C468.207 688.044 466.816 688.674 465.088 690.966L465.642 692.413C468.72 693.507 471.977 692.858 475.279 692.529C463.049 700.081 453.581 710.457 439.644 719.357C432.482 714.639 425.355 706.431 419.368 700.036L431.687 690.684L442.075 707.392C450.705 700.621 453.424 698.949 459.321 689.657Z" fill="white"></path>
  <path d="M410.333 661.056C411.112 661.137 411.873 661.233 412.631 661.442C419.36 663.304 427.862 681.848 431.005 687.897C427.209 690.51 423.604 693.446 419.953 696.258C418.7 696.957 417.944 697.096 416.553 697.222C409.835 692.488 404.67 678.542 401.3 671.11C403.667 666.802 406.448 664.031 410.333 661.056Z" fill="#0F172A"></path>
  <path d="M1326.54 258.58L1327.24 259.289C1327.35 261.464 1326.72 263.204 1325.19 264.833C1309.77 281.309 1280.94 280.586 1264.01 267.272C1262.54 265.26 1261.16 263.013 1261.25 260.597C1264.11 260.264 1274.88 266.438 1279.12 267.585C1295.74 272.084 1313.11 270.527 1326.54 258.58Z" fill="#0F172A"></path>
  <path d="M1276.24 193.326C1281.52 195.593 1281.96 202.087 1288.71 204.008C1300.58 207.382 1306.57 198.882 1314.78 194.908L1316.27 195.626C1317.71 198.654 1317.19 200.643 1316.83 203.986C1306.91 212.596 1274.01 215.157 1271.61 200.081C1272.41 196.634 1273.69 195.792 1276.24 193.326Z" fill="#0F172A"></path>
  <path d="M1317.83 207.221C1327.87 215.963 1295.19 232.041 1272.45 215.819C1270.78 214.074 1269.55 211.235 1270.49 208.883C1273.02 208.644 1284 213.413 1287.63 214.08C1298.54 216.082 1308.72 213.16 1317.83 207.221Z" fill="#0F172A"></path>
  <path d="M377.819 639.056C386.158 642.36 392.342 646.767 401.427 648.701L401.43 648.643C402.685 653.89 405.114 655.307 407.8 659.523C406.027 661.647 403.903 663.356 401.804 665.144L400.605 666.396C396.737 665.082 393.968 659.429 390.572 656.845C385.387 652.899 378.328 651.084 373.439 646.67C371.708 645.108 371.686 644.611 371.615 642.436C373.653 640.138 374.944 639.993 377.819 639.056Z" fill="#0F172A"></path>
  <path d="M1240.2 116.271L1252.22 120.56C1258.1 135.99 1265.05 151.287 1271.43 166.532C1274.8 174.605 1279.03 182.993 1281.62 191.295C1276.31 185.638 1246.68 127.892 1240.2 116.271Z" fill="#0F172A"></path>
  <path d="M1350.88 116.628L1351.24 117.034C1351.16 118.009 1316.1 180.001 1312.45 185.81L1312.23 185.798L1311.93 184.517L1312.16 185.698C1311.71 182.696 1336.34 128.109 1339.31 121.509C1343.07 120.239 1347.22 118.262 1350.88 116.628Z" fill="#0F172A"></path>
  <path d="M1296.9 55.5353C1300.08 58.1098 1307.98 72.7153 1310.48 77.0468L1302.73 76.3474L1286.39 76.4167C1289.84 69.3379 1293.23 62.5033 1296.9 55.5353Z" fill="#0F172A"></path>
  <path d="M1233.88 70.8929C1243.85 74.663 1252.49 78.1831 1262.26 82.4421L1255.15 87.2163C1250.96 88.074 1251.73 90.9836 1247.19 92.5988C1243.6 90.5248 1236.3 75.4603 1233.88 70.8929Z" fill="#0F172A"></path>
  <path d="M1359.36 72.1L1360.01 72.7926C1359.06 75.7904 1349.76 89.3582 1347.23 93.3618L1341.26 87.901L1333.77 82.8194C1342.16 79.0055 1350.82 75.5748 1359.36 72.1Z" fill="#0F172A"></path>
  <path d="M1242.91 96.8188C1243.89 96.8937 1243.48 96.891 1244.51 97.759C1242.27 109.423 1243.06 109.175 1251.29 117.154L1236.37 111.419C1232.03 109.464 1227.52 107.584 1223.14 105.695C1229.61 102.623 1236.35 99.7233 1242.91 96.8188Z" fill="#0F172A"></path>
  <path d="M1348.12 96.2296C1353.56 98.0999 1363.73 103.086 1369.31 105.655L1355.49 111.241C1350.45 113.375 1345.36 115.401 1340.29 117.446C1348.85 110.161 1349.97 107.294 1348.12 96.2296Z" fill="#0F172A"></path>
  <path d="M1295.95 112.519C1299.92 115.776 1305.67 121.489 1309.58 125.139L1299.19 126.085C1294.81 126.03 1289.63 125.507 1285.21 125.175L1295.95 112.519Z" fill="#0F172A"></path>
  <path d="M354.878 652.163C354.929 652.359 354.991 652.552 355.031 652.751C356.021 657.559 358.584 678.678 356.138 682.286L353.781 681.95C351.852 680.739 350.509 679.77 349.244 677.854C347.178 669.736 351.794 659.617 354.878 652.163Z" fill="#0F172A"></path>
  <path d="M415.207 700.784C419.503 703.599 424.193 707.944 425.796 712.925C425.26 715.578 424.017 715.903 421.951 717.396C420.294 718.197 417.948 719.655 416.066 719.397C414.778 719.221 414.569 718.489 413.81 717.531C412.617 712.518 414.455 705.864 415.207 700.784Z" fill="white"></path>
  <path d="M1113.12 356.191C1112.2 351.217 1112.42 313.954 1113.34 309.044C1113.38 313.047 1113.05 323.203 1114.61 326.003L1114.76 332.641C1116.14 340.784 1117.76 344.713 1123.32 351.018L1113.12 356.191Z" fill="white"></path>
  <path d="M1113.12 356.191C1112.2 351.217 1112.42 313.954 1113.34 309.044C1113.38 313.047 1113.05 323.203 1114.61 326.003L1114.76 332.641C1112.63 337.521 1114.11 349.816 1113.12 356.191Z" fill="#0F172A"></path>
  <path d="M429.4 715.649L430.517 716.845C428.899 721.167 418.811 724.807 414.663 726.809C413.815 726.27 413.778 725.326 413.486 724.386C415.039 721.723 425.934 717.719 429.4 715.649Z" fill="white"></path>
  <path d="M778.947 488.192C779.96 490.529 782.474 495.981 783.077 498.155L781.604 497.476L783.268 499.733C781.718 499.116 778.335 491.155 777.594 489.437L777.375 488.929L778.947 488.192Z" fill="#0F172A"></path>
  <path d="M468.769 686.145C471.521 685.006 473.011 684.028 475.891 684.553L476.276 685.188C473.917 686.613 473.487 686.464 470.621 686.602L468.769 686.145Z" fill="#0F172A"></path>
  <path d="M520.792 61.5447C582.73 57.1869 632.3 135.375 641.343 189.009C646.64 220.429 643.05 257.594 609.431 271.549C604.685 273.519 592.47 275.907 589.834 279.574C591.618 287.705 621.992 291.831 623.41 301.65C621.304 306.539 599.952 316.346 593.524 319.896C576.879 312.577 553.413 299.765 537.092 291.252L444.041 242.529C422.17 231.01 399.917 215.994 375.848 210.076C353.217 204.512 325.03 205.239 304.59 217.672C309.902 226.6 313.252 232.052 314.969 242.498C328.924 234.367 341.388 227.784 355.94 220.897C367.368 227.405 378.903 232.72 390.564 238.721L441.26 265.329C473.243 282.04 504.484 299.701 536.711 316.24L586.998 342.375C597.496 347.728 608.363 353.058 618.683 358.796C620.824 359.987 621.149 361 621.631 362.994C619.891 365.97 547.877 403.708 538.664 408.758L356.828 507.703C342.318 499.47 326.316 491.44 311.463 483.475L204.728 426.302C167.513 407.494 131.033 386.922 93.9093 367.906C91.9612 366.908 90.4596 365.637 89.4062 363.71C90.8426 360.196 131.81 339.398 138.818 335.625C132.445 324.926 129.89 315.092 127.389 303.075C120.865 305.567 110.605 310.794 103.868 313.903C103.023 298.147 103.648 276.968 103.448 260.605C103.263 245.419 102.598 221.819 103.723 207.303C131.274 224.601 160.391 239.911 188.363 256.555C192.572 259.06 196.881 261.272 201.329 263.323C204.731 224.431 221.009 185.111 267.48 188.699L267.553 134.154C283.678 143.925 299.954 154.2 315.875 164.308C308.055 168.025 276.771 182.041 272.573 186.866C272.477 188.303 272.418 189.476 273.882 190.404C285.164 197.554 292.852 202.312 301.105 213.195C325.763 201.515 353.358 197.871 379.928 205.522C407.264 213.394 434.992 232.006 460.506 244.988C504.975 267.616 548.807 291.954 593.281 314.553C601.586 310.032 609.763 305.533 617.991 300.859C609.537 297.426 597.135 291.061 588.591 287.069C588.92 291.952 588.724 296.608 588.594 301.486C581.474 297.774 539.176 276.075 534.424 272.318C534.09 271.241 533.191 268.206 532.364 267.695C518.529 259.16 503.37 251.313 488.935 243.834C483.696 241.12 477.493 239.741 473.81 236.384L473.771 234.866C481.715 230.214 492.166 238.59 499.345 242.639L534.191 262.331C529.299 247.841 515.838 232.005 506.848 219.519C476.996 178.062 450.376 78.5445 520.792 61.5447Z" fill="#0F172A"></path>
  <path d="M353.528 227.42C362.477 226.92 503.64 305.981 523.236 315.368C543.339 324.999 592.854 350.647 614.009 362.247C545.057 400.476 474.663 436.818 405.689 475.067C389.84 483.856 374.146 493.924 357.527 501.134C355.154 501.415 122.309 376.958 97.6211 363.75C103.38 359.848 116.615 353.4 123.254 349.684C148.184 335.73 174.056 322.987 199.375 309.686C250.953 282.589 301.994 254.665 353.528 227.42Z" fill="white"></path>
  <path d="M352.985 369.586C360.62 369.094 455.455 422.267 469.962 429.828C433.26 448.877 397.147 469.642 360.356 488.831C358.922 489.955 358.12 489.882 356.32 490.114C347.347 487.463 248.109 432.866 246.373 430.192C245.951 429.543 246.408 428.621 246.562 427.891C251.646 422.299 341.644 375.481 352.985 369.586Z" fill="#0F172A"></path>
  <path d="M354.48 374.991C364.651 378.618 383.243 389.453 393.214 394.681C415.181 406.197 437.36 417.955 459.095 429.895C425.656 446.703 390.998 466.789 357.504 484.475C354.247 484.806 264.164 435.341 253.345 429.016C265.524 421.463 282.265 413.127 295.12 406.231C314.547 395.81 334.766 384.728 354.48 374.991Z" fill="white"></path>
  <path d="M478.066 302.892C485.506 303.03 551.555 342.494 564.699 347.578C568.906 349.205 588.127 359.39 589.532 363.309C587.442 366.732 493.687 416.461 479.985 424.147C474.086 422.222 447.099 407.408 439.617 403.39L365.548 363.982C377.851 355.634 396.018 346.202 409.336 339.085L478.066 302.892Z" fill="#0F172A"></path>
  <path d="M478.291 308.655C484.803 311.097 506.504 323.149 513.37 326.777L581.689 362.789C548.478 379.44 512.406 400.672 479.398 418.638C477.837 418.38 384.276 367.967 376.429 363.705C406.255 345.834 446.829 324.508 478.291 308.655Z" fill="white"></path>
  <path d="M230.668 302.301C235.652 304.077 259.544 317.285 266.017 320.868C290.854 334.618 320.457 348.006 344.038 362.915C334.586 369.213 316.312 378.462 305.687 384.22L232.38 423.83C228.265 422.839 205.891 410.199 200.999 407.607C173.925 393.265 147.141 377.706 119.776 363.911C126.873 357.449 151.773 344.726 161.614 339.436L230.668 302.301Z" fill="#0F172A"></path>
  <path d="M231.225 308.303C233.261 308.748 249.402 318.174 252.264 319.688L334.229 363.013C322.689 368.15 312.074 374.987 300.932 380.831C278.02 392.848 255.395 405.754 232.352 417.468C229.743 417.467 138.736 368.072 129.731 363.138C133.291 360.855 137.464 358.599 141.231 356.597C171.085 340.722 200.992 323.347 231.225 308.303Z" fill="white"></path>
  <path d="M353.79 237.129C359.191 237.418 454.914 289.816 468.273 296.542C458.896 302.844 433.933 315.038 422.926 321.002C401.799 332.447 378.027 346.761 356.6 356.742C354.071 357.107 353.107 357.084 350.734 355.805C317.402 337.838 284.102 319.788 250.728 301.893C248.283 300.582 246.377 299.61 245.733 296.999C249.362 291.839 340.975 243.855 353.79 237.129Z" fill="#0F172A"></path>
  <path d="M354.424 242.535C388.952 260.119 423.037 279.931 457.553 297.069C424.07 312.486 388.598 336.454 355.797 351.151C349.124 350.531 265.318 303.542 253.393 297.289C285.098 278.421 321.543 260.444 354.424 242.535Z" fill="white"></path>
  <path d="M526.059 66.0912C553.13 65.571 578.777 85.6249 595.293 105.409C621.067 136.283 640.531 177.809 637.861 218.829C636.495 239.803 626.974 260.599 605.55 266.89C599.875 268.622 591.304 270.584 586.893 274.304C582.457 278.046 583.229 286.426 583.073 292.321C576.69 288.894 569.81 285.525 563.327 282.214C563.385 271.446 562.945 257.042 563.567 246.496C564.094 237.559 585.678 240.084 594.556 233.123C603.798 225.877 607.494 219.955 609.886 207.832C614.386 185.022 605.838 159.781 593.148 140.891C593.828 130.388 591.524 126.598 586.216 118.046C584.662 116.042 577.116 107.042 575.419 106.658C565.947 104.513 555.201 103.505 545.902 100.035C539.752 98.3468 527.052 100.798 522.294 104.544C490.618 129.485 512.399 187.318 533.718 212.422C542.574 222.851 550.902 229.466 558.102 240.238C558.087 253.394 558.001 266.282 557.673 279.433L540.032 269.48C536.148 244.683 522.158 231.989 508.052 212.352C481.87 175.903 457.673 73.7338 526.059 66.0912Z" fill="white"></path>
  <path d="M535.537 105.037C540.137 104.722 549.525 104.94 553.315 107.935C555.171 109.402 551.352 115.139 551.93 121.009C552.799 130.475 557.219 142.188 564.905 148.319C574.923 156.31 583.338 157.737 592.04 147.771C603.54 169.114 612.908 198.194 598.994 221.308C592.228 232.548 575.511 234.14 563.44 236.425L563.449 209.83C563.461 203.602 564.906 179.658 562.092 176.033L560.014 175.839C557.678 178.315 558.141 184.646 558.203 188.215C558.45 202.571 558.346 216.843 558.035 231.193C536.976 210.199 522.65 193.286 514.705 163.724C508.712 141.423 508.416 112.231 535.537 105.037Z" fill="white"></path>
  <path d="M252.019 193.12C269.626 191.895 286.779 201.375 296.965 215.438C282.091 225.78 273.766 241.681 269.288 258.77C262.641 255.989 256.963 254.602 249.925 253.469C233.349 252.518 222.027 255.287 206.162 259.64C209.079 230.117 220.559 201.602 252.019 193.12Z" fill="white"></path>
  <path d="M108.154 215.923C112.036 218.628 130.121 228.564 135.01 231.347C154.528 242.462 173.563 252.995 192.795 264.736C183.871 269.466 174.866 273.77 165.778 278.162C146.814 287.085 127.346 297.246 108.407 306.541L108.154 215.923Z" fill="white"></path>
  <path d="M200.707 266.646C201.439 268 201.975 275.112 202.164 277.07C202.935 285.033 204.472 291.554 207.014 299.135C201.064 302.756 145.957 333.201 142.236 332.948C136.628 320.815 133.944 312.996 133.041 299.695C155.129 289.17 179.2 278.02 200.707 266.646Z" fill="white"></path>
  <path d="M230.671 258.96C238.43 257.709 264.668 258.045 267.881 266.082C266.186 269.901 240.096 282.461 235.18 284.965C227.602 289.102 219.007 293.223 211.244 297.147C207.163 285.363 206.396 277.127 206.068 264.877C214.645 262.252 221.788 260.188 230.671 258.96Z" fill="white"></path>
  <path d="M563.05 109.317C580.063 109.421 596.894 136.8 582.87 149.535C563.613 149.39 547.434 120.052 563.05 109.317Z" fill="white"></path>
  <path d="M300.312 220.345C306.325 225.548 309.36 236.96 311.512 244.344C303.177 249.35 289.757 255.873 280.826 260.538L272.826 264.73L272.928 264.248C276.831 245.998 284.182 230.783 300.312 220.345Z" fill="white"></path>
  <path d="M272.125 143.316C276.935 145.03 300.975 160.42 306.312 163.771L293.683 169.776C286.17 173.34 279.519 176.741 272.191 180.675C271.961 168.078 271.984 155.915 272.125 143.316Z" fill="white"></path>
  <path d="M1384.21 433.233L1391.58 428.871C1412.64 431.896 1433.44 432.291 1455.41 435.602C1555.65 450.666 1667.32 477.22 1734.63 559.338C1748.81 576.634 1760.94 608.989 1756.1 631.238C1740.52 702.847 1667.52 751.851 1606.6 780.427C1613.5 797.555 1617.91 816.963 1617.46 835.494C1609.47 839.103 1602.98 842.099 1595.34 846.331C1601.74 849.54 1629.34 860.068 1621.55 868.828C1607.45 884.678 1591.79 903.201 1576.19 917.525C1583.51 920.828 1620.33 938.317 1622.69 943.509C1618.95 948.641 1588.58 962.768 1581.48 965.516L1491.14 918.186C1472.44 908.566 1448.66 896.991 1430.99 886.319C1442.4 879.675 1454.16 874.448 1465.61 868.113C1469.09 869.666 1473.56 871.165 1475.64 874.185L1475.97 876.346C1472.18 878.524 1468.96 875.901 1465.42 873.969L1441.94 886.413C1488.29 910.83 1535.9 936.155 1582.55 959.9C1592.76 954.902 1605.11 949.226 1614.83 943.587C1606.75 937.958 1582.21 925.721 1572.63 920.954C1569.22 923.486 1565.1 926.734 1561.51 928.832C1568.27 932.143 1584.83 939.349 1588.97 944.581L1589.05 945.893C1585.36 947.891 1581.24 945.686 1577.96 943.93C1544.17 925.865 1509.97 909.099 1476.93 889.592C1483.2 886.947 1489.93 884.288 1495.89 881.08C1489.48 863.384 1482.71 845.787 1475.85 828.264C1473.77 822.964 1469.77 814.275 1472.3 808.814C1474.31 807.012 1474.84 806.496 1477.22 805.257L1477.65 803.722C1441 808.162 1404.13 810.969 1367.43 814.767C1320.44 819.628 1270.01 830.89 1231.55 859.898L1226.88 857.477C1297.09 802.676 1395.7 811.713 1477.99 798.503C1480.04 796.43 1482.78 794.468 1485.12 792.664C1476.14 780.595 1474.74 773.536 1474.74 759.175C1407.87 771.217 1335.84 770.362 1268.24 778.567C1183.32 788.875 1109.98 819.254 1034.19 857.245C1000.89 873.937 971.254 888.44 938.481 906.557C944.81 909.397 975.746 924.067 978.556 927.904C973.234 932.99 812.787 956.636 797.236 961.282C795.386 961.835 792.078 961.721 790.266 960.515C790.383 955.706 835.965 873.09 842.137 860.186C849.549 862.397 863.506 869.601 871.052 873.215C891.661 883.086 912.146 893.604 932.599 903.832C960.572 887.266 996.659 870.528 1025.87 855.696C1113.73 811.079 1192.9 779.534 1292.3 771.404L1394.14 763.381C1416.84 761.622 1453.35 759.357 1475.19 753.753L1476.17 753.496C1486.73 736.981 1492.42 736.812 1507.58 728.023C1539.82 709.339 1551.57 711.497 1579.54 736.964C1610.03 723.052 1628.42 712.648 1652.19 689.293C1690.17 651.973 1704.34 600.356 1659.93 561.11C1580.9 491.271 1418.33 466.298 1318.67 467.672C1322.1 465.717 1325.79 463.808 1329.28 461.927C1346.69 452.285 1366.25 441.679 1384.21 433.233Z" fill="#0F172A"></path>
  <path d="M1329.28 461.927C1346.69 452.285 1366.25 441.679 1384.21 433.233C1499.24 442.699 1642.72 465.45 1724.67 555.438C1739.9 572.152 1754.62 604.049 1751.07 626.909C1740.62 694.071 1661.92 751.849 1604.25 775.487C1598.38 763.725 1591.31 751.131 1583.12 740.793C1626.6 721.417 1669.69 692.03 1687.95 645.804C1716.42 573.699 1629.54 525.494 1574.41 505.283C1504.31 479.383 1428.25 469.277 1354.1 463.355C1347.71 462.844 1334.89 463.19 1329.28 461.927Z" fill="white"></path>
  <path d="M1477.65 803.722C1480.72 801.939 1485.34 798.807 1488.79 799.188C1488.2 799.157 1487.67 799.323 1487.09 799.451L1487.8 800.36C1484.4 802.378 1481 804.051 1477.22 805.257L1477.65 803.722Z" fill="white"></path>
  <path d="M845.102 867.015C856.366 870.115 873.781 880.313 885.153 885.907C912.521 899.371 940.108 912.454 967.151 926.558C945.976 931.503 923.543 934.135 902.071 938.104C867.246 944.075 832.335 951.211 797.372 956.114C812.132 925.913 829.26 896.672 845.102 867.015Z" fill="white"></path>
  <path d="M1503.82 742.503C1517.87 743.448 1529.81 749.334 1540.04 758.864C1565.15 782.253 1576.69 815.57 1577.95 849.168C1557.68 857.045 1550.44 870.131 1536.31 885.08C1534.72 886.879 1533.32 888.709 1531.16 889.832C1527.49 882.533 1533.24 784.171 1529.46 779.17C1523.72 778.203 1502.12 791.057 1495.68 794.377C1488.66 787.62 1482.95 780.836 1481.08 770.955C1479.9 764.727 1480.52 757.964 1484.25 752.672C1488.82 746.208 1496.36 743.784 1503.82 742.503Z" fill="white"></path>
  <path d="M1532.41 721.043L1533.89 720.927C1547.25 720.012 1558.73 726.068 1568.53 734.704C1596.52 759.357 1609.53 795.504 1611.73 831.945C1603.1 837.392 1593.03 841.805 1583.94 846.523C1582.44 838.886 1582.18 830.837 1580.77 823.114C1577.15 803.144 1567.3 781.63 1554.26 766.043C1540.76 749.898 1525.06 738.27 1503.59 736.354C1512.43 730.553 1522.76 725.36 1532.41 721.043Z" fill="white"></path>
  <path d="M1523.16 786.454L1524.42 786.752C1526.26 791.051 1525.15 896.315 1524.94 909.709L1509.15 900.952C1502.24 883.74 1497.07 865.827 1489.98 848.66C1487.5 842.652 1485.2 836.567 1482.86 830.502C1490.02 835.094 1497.52 838.719 1505.45 841.771C1506.18 832.362 1505.75 822.622 1505.92 813.165C1510.34 811.03 1515.67 809.064 1519.22 805.637C1519.43 804.297 1519.72 803.757 1519.05 802.517C1517.72 800.045 1515.2 798.232 1512.54 797.469C1511.65 797.214 1511.05 797.848 1510.27 798.266L1509.94 800.402C1510.92 801.291 1511.94 802.005 1512.29 803.339C1507.79 806.14 1503.03 808.783 1499.12 812.39C1495.51 810.144 1491.71 808.149 1488.01 806.065C1499.82 799.764 1511.91 793.735 1523.16 786.454Z" fill="white"></path>
  <path d="M1565.7 860.138C1576.47 864.449 1587.2 871.575 1597.36 877.233C1586.63 891.93 1570.51 906.453 1556.53 918.001L1548.78 923.24C1542.77 919.513 1536.65 916.011 1530.49 912.536L1530.61 899.335C1542.63 886.602 1554.07 873.233 1565.7 860.138Z" fill="white"></path>
  <path d="M1589.1 849.728C1599.24 852.713 1609.66 859.333 1618.28 865.344C1612.89 868.097 1607.62 871.16 1602.32 874.087L1596.65 870.665L1581.5 862.27C1584.17 860.79 1588.66 858.737 1589.89 855.894C1584.29 853.873 1579.64 859.321 1574.46 857.996L1575.44 856.769C1580.52 855.283 1584.68 852.524 1589.1 849.728Z" fill="white"></path>
  <path d="M1480.35 809.122C1486.77 810.29 1494.46 815.265 1500.42 818.16C1500.57 822.778 1501.36 829.071 1499.79 833.408C1493.55 830.341 1480.54 825.695 1478.34 818.633C1477.35 815.426 1478.91 811.925 1480.35 809.122Z" fill="white"></path>
  <path d="M1495.94 886.149L1497.02 886.606C1498.87 889.44 1501.4 893.031 1500.96 896.493L1498.83 895.825C1495.19 893.879 1491.63 891.728 1488.05 889.677L1495.94 886.149Z" fill="white"></path>
  <path d="M1606.37 877.257L1607.03 877.824C1606.96 878.095 1606.89 878.368 1606.81 878.636C1605.35 883.491 1593.02 893.536 1588.44 895.676L1588.11 896.025L1587.61 895.806C1593.4 889.273 1599.47 882.626 1606.37 877.257Z" fill="white"></path>
  <path d="M1317.88 561.268C1364.62 558.601 1393.78 571.675 1432.41 594.694C1445.9 602.73 1460.49 609.829 1473.75 618.712C1515 594.641 1551.04 578.369 1599.08 594.968C1608.87 598.35 1665.68 626.339 1669.25 634.011C1664.87 642.427 1563.56 688.622 1548.22 698.274C1544.21 700.8 1525.28 709.297 1521.4 708.358C1508.07 705.12 1478.33 687.427 1466.85 681.293C1457.54 676.131 1448.81 671.166 1439.09 666.78C1419.4 675.903 1395.47 690.076 1376.22 700.813C1399.04 713.864 1423.14 725.149 1445.19 738.747C1436.17 744.064 1426.1 749.354 1416.69 753.833C1400.04 744.565 1382.57 735.83 1365.71 726.823L1288.93 685.536C1268.53 674.751 1242.03 662.958 1223.98 649.153C1217.38 643.993 1209.17 631.278 1209.59 622.578C1211.83 576.328 1285.98 563.208 1317.88 561.268Z" fill="#0F172A"></path>
  <path d="M1312.39 566.588C1338.46 564.116 1368.12 567.735 1392.06 578.755C1402.3 583.469 1412.04 589.669 1421.92 595.107L1474.95 623.944C1488.85 615.087 1505.99 605.57 1521.45 600.045C1556.29 587.592 1591 594.372 1622.91 611.327C1636.48 618.539 1649.33 627.194 1663.25 633.735C1654.82 639.027 1645.04 643.215 1636.14 647.733L1588.19 672.269C1570.76 681.118 1545.42 696.894 1527.85 702.037C1525.58 702.701 1522.27 703.653 1519.93 703.03C1509.56 700.271 1479.19 682.073 1467.54 675.821C1457.99 670.652 1448.45 665.461 1439.01 660.096C1414.86 674.32 1389.81 688.254 1364.98 701.222C1387.8 714.029 1411.31 725.568 1434.12 738.408C1428.61 741.874 1422.78 744.751 1416.99 747.715C1405.27 742.331 1393.93 735.813 1382.51 729.814L1299.7 685.265C1290.77 680.459 1282.11 676.037 1272.78 671.031C1249.81 658.711 1193.52 637.058 1222 602.409C1241.79 578.34 1282.45 569.47 1312.39 566.588Z" fill="white"></path>
  <path d="M1315.85 582.582C1351.97 576.776 1384.07 593.927 1414.55 610.311L1456.41 632.68C1447.77 638.904 1437.2 643.76 1427.83 648.882L1374.86 678.025L1347.04 693.236C1329.61 684.52 1312.47 675.029 1295.26 665.867C1283.09 659.386 1269.05 653.386 1258.34 644.745C1252.47 640.015 1247.84 634.623 1247.09 626.863C1246.39 619.757 1249 612.919 1253.46 607.467C1267.41 590.413 1295.04 584.708 1315.85 582.582Z" fill="#0F172A"></path>
  <path d="M1324.85 587.032C1369.23 585.211 1408.4 612.817 1445.96 633.271C1418.13 647.33 1390.97 663.362 1363.63 678.397C1358.05 681.446 1352.42 684.405 1346.78 687.36C1328.57 677.7 1274.76 651.981 1261.77 640.006C1256.5 635.155 1254.06 630.7 1251.76 623.982C1253.29 618.475 1254.52 614.258 1258.3 609.854C1273.05 592.651 1303.69 588.668 1324.85 587.032Z" fill="white"></path>
  <path d="M1550.5 610.999C1554.25 610.323 1558.63 610.348 1562.45 610.355C1582.52 610.392 1598.1 616.366 1615.47 625.805C1620.48 628.523 1626.72 631.526 1630.68 635.681C1631.34 636.371 1631.06 636.902 1631.03 637.811C1625.34 645.141 1573.91 669.989 1561.66 675.624C1554.11 679.1 1546.28 681.279 1539.01 685.418C1536.38 686.946 1533.4 688.143 1530.65 689.458C1506.36 678.572 1484.17 663.268 1460.09 651.96C1476.94 641.074 1509.14 622.578 1527.35 616.126C1534.94 613.439 1542.53 612 1550.5 610.999Z" fill="#0F172A"></path>
  <path d="M1553.9 615.442C1581.01 612.964 1603.26 623.295 1625.19 638.035C1605.36 646.659 1564.92 671.947 1547.2 675.827C1532.33 667.731 1518.33 658.269 1503.06 650.792C1500.38 649.48 1497.4 647.638 1494.51 648.631L1493.13 651.796C1509.85 660.075 1525.85 669.626 1542.46 678.097C1538.75 680.399 1534.82 682.178 1530.86 684.007C1511.07 673.092 1490.83 662.901 1471.16 651.83C1478.28 646.218 1486.98 642.089 1494.96 637.826C1514.61 627.319 1531.41 618.038 1553.9 615.442Z" fill="white"></path>
  <path d="M861.089 56.5685C888.719 52.959 923.115 53.1338 951.464 50.8106C970.823 49.7534 990.268 48.7046 1009.63 47.917C1015.31 47.6861 1040.45 44.2801 1044.17 46.493L1044.39 48.0172C1041.24 53.5796 1023.58 65.8298 1017.61 70.2787C1078.01 78.8989 1176.31 135.691 1111.62 201.627C1088.91 224.777 1063.16 248.584 1062.01 282.937C1061 313.197 1084.94 340.55 1105.02 361.129C1103.69 361.589 1102.13 362.053 1100.9 362.677C1087.31 370.594 1073.18 377.878 1059.24 385.214L1055.39 387.251C1042.4 375.193 1022.22 351.268 1012.53 337.116C979.275 288.531 994.437 245.67 1030.67 204.237C1039.89 193.297 1065.8 174.426 1067.31 159.546C1070.62 127.046 1005 110.199 983.985 107.143C970.291 118.598 946.02 142.024 933.215 150.93C930.971 148.582 928.478 145.435 926.517 142.831C904.786 113.978 883.454 84.9416 861.089 56.5685Z" fill="white"></path>
  <path d="M861.089 56.5685C888.719 52.959 923.115 53.1338 951.464 50.8106C970.823 49.7534 990.268 48.7046 1009.63 47.917C1015.31 47.6861 1040.45 44.2801 1044.17 46.493L1044.39 48.0172C1041.24 53.5796 1023.58 65.8298 1017.61 70.2787C1078.01 78.8989 1176.31 135.691 1111.62 201.627C1088.91 224.777 1063.16 248.584 1062.01 282.937C1061 313.197 1084.94 340.55 1105.02 361.129C1103.69 361.589 1102.13 362.053 1100.9 362.677C1052.56 315.811 1036.84 271.842 1088.55 218.339C1116.68 189.235 1149.67 155.204 1108.43 118.222C1079.89 92.6193 1043.28 79.9439 1006.08 72.8337C1015.14 65.2407 1024.89 59.1827 1033.98 51.4137C1015.68 51.5191 883.903 58.2748 878.119 61.2251C890.163 68.9895 950.931 91.7779 955.475 97.7082L955.598 99.6601L953.989 101.161C951.873 101.019 881.947 68.8613 874.65 65.2995C893.839 90.4348 915.836 118.574 933.599 144.423C945.506 134.127 971.566 108.963 982.658 101.238C1006.76 105.306 1077.53 123.632 1072.42 160.775C1070.12 177.498 1045.86 194.839 1035.25 206.973C1000.66 244.461 985.51 286.856 1015.67 332.288C1023.04 343.4 1049.64 376.372 1059.24 385.214L1055.39 387.251C1042.4 375.193 1022.22 351.268 1012.53 337.116C979.275 288.531 994.437 245.67 1030.67 204.237C1039.89 193.297 1065.8 174.426 1067.31 159.546C1070.62 127.046 1005 110.199 983.985 107.143C970.291 118.598 946.02 142.024 933.215 150.93C930.971 148.582 928.478 145.435 926.517 142.831C904.786 113.978 883.454 84.9416 861.089 56.5685Z" fill="#0F172A"></path>
  <path d="M224.099 582.886C221.45 571.411 207.913 559.642 214.716 543.461C218.613 534.193 231.062 533.006 238.413 527.62C243.871 523.62 260.612 536.924 261.853 540.702C260.613 542.798 260.122 543.328 258.496 545.17C258.723 553.559 260.346 571.239 254.503 576.789C246.454 584.435 245.461 577.729 244.58 591.141C284.394 614.202 267.039 614.552 286.187 646.237C294.341 642.114 323.667 623.856 330.632 625.804C332.979 626.46 335.776 628.724 336.863 630.869C337.204 631.545 336.812 632.061 336.597 632.753C330.235 636.587 325.083 639.317 317.304 643.769C308.709 648.687 289.154 666.924 279.59 666.722C275.41 666.633 268.153 656.373 265.496 652.826C265.641 667.409 266.484 695.34 265.062 709.347C264.602 704.028 266.57 694.825 262.671 691.685C259.563 692.105 252.695 692.846 249.945 693.611C229.611 688.674 226.207 693.368 206.532 676.369L205.744 675.141L204.027 678.76L202.772 678.329C202.581 665.683 202.716 653.506 202.934 640.86C194.3 638.518 185.433 636.624 188.024 624.833C191.15 610.607 194.897 592.587 206.552 582.802C211.498 578.65 218.533 581.972 224.099 582.886Z" fill="#0F172A"></path>
  <path d="M214.21 594.339C225.547 602.039 237.033 607.414 248.457 614.438C247.877 621.265 249.747 634.135 251.8 640.694C258.166 643.763 259.281 644.114 263.133 650.016C263.137 661.268 263.695 680.946 262.671 691.685C259.563 692.105 252.695 692.846 249.945 693.611C229.611 688.674 226.207 693.368 206.532 676.369L205.744 675.141C205.014 654.902 206.109 634.285 206.115 614.007C206.117 605.76 208.898 600.23 214.21 594.339Z" fill="#0F172A"></path>
  <path d="M224.099 582.886C221.45 571.411 207.913 559.642 214.716 543.461C218.613 534.193 231.062 533.006 238.413 527.62C243.871 523.62 260.612 536.924 261.853 540.702C260.613 542.798 260.122 543.328 258.496 545.17C257.745 546.69 256.138 549.468 256.118 551C255.159 552.431 252.62 555.959 252.179 557.389C251.792 556.269 251.707 556.548 250.584 555.547C247.577 555.327 247.029 555.204 244.336 556.484L244.3 557.461C241.979 562.964 243.187 562.659 244.209 567.917C245.254 573.296 231.583 579.828 227.148 580.3L226.623 582.222L224.099 582.886Z" fill="#0F172A"></path>
  <path d="M256.118 551C256.857 556.836 257.236 566.504 254.64 571.921C252.077 577.271 248.5 577.554 243.116 578.256L242.201 590.284C239.442 588.985 227.866 583.856 226.623 582.222L227.148 580.3C231.583 579.828 245.254 573.296 244.209 567.917C243.187 562.659 241.979 562.964 244.3 557.461L244.336 556.484C247.029 555.204 247.577 555.327 250.584 555.547C251.707 556.548 251.792 556.269 252.179 557.389C252.62 555.959 255.159 552.431 256.118 551Z" fill="white"></path>
  <path d="M244.3 557.461L244.336 556.484C247.029 555.204 247.577 555.327 250.584 555.547C251.707 556.548 251.792 556.269 252.179 557.389C252.398 560.176 252.338 560.717 251.83 563.472C249.593 563.55 248.928 559.207 244.3 557.461Z" fill="#0F172A"></path>
  <path d="M328.452 627.851L329.158 628.711C327.422 629.418 325.709 630.082 324.093 631.039C328.007 632.678 335.654 630.559 339.956 630.085C333.024 633.962 324.822 635.184 318.09 639.175C307.719 645.325 293.233 663.978 280.922 663.419C276.708 663.228 274.521 660.11 272.068 657.131L261.541 644.025C268.062 643.387 272.066 640.904 277.383 637.341C280.386 641.379 282.789 645.671 285.239 650.051C296.55 644.611 318.411 629.564 328.452 627.851Z" fill="white"></path>
  <path d="M256.906 608.016C258.781 607.939 261.455 607.604 263.224 608.265C270.044 610.81 274.228 626.319 276.661 632.716C274.082 635.164 271.196 637.276 268.385 639.448C267.199 639.958 266.085 640.332 264.816 640.571C261.969 641.107 258.908 641.515 256.459 639.583C251.135 635.381 251.628 623.047 251.144 616.953C252.602 613.447 253.809 610.379 256.906 608.016Z" fill="#0F172A"></path>
  <path d="M223.521 585.486C230.191 586.419 254.383 599.01 259.137 603.89C258.641 604.13 258.116 604.424 257.593 604.601C253.899 605.856 252.92 606.912 250.629 610.027L250.363 610.627L249.182 611.044C238.224 604.596 226.908 598.762 215.917 592.361L223.521 585.486Z" fill="#0F172A"></path>
  <path d="M212.709 583.156C214.971 583.244 216.454 583.333 218.343 584.652C217.895 588.719 209.383 593.694 206.933 597.624C203.425 603.252 205.592 612.031 201.86 616.843C199.671 616.055 197.434 614.928 196.245 612.813C194.539 609.778 195.662 605.069 196.78 601.969C199.727 593.796 204.857 586.888 212.709 583.156Z" fill="#0F172A"></path>
  <path d="M193.536 616.035C196.815 618.296 199.643 619.2 203.52 620.054C203.332 624.191 203.876 634.52 201.476 637.577C199.627 637.222 197.709 636.881 195.92 636.29C193.689 635.552 191.878 633.758 190.973 631.606C188.997 626.905 191.925 620.528 193.536 616.035Z" fill="white"></path>
  <path d="M463.995 636.434C457.845 638.381 430.899 651.618 427.354 649.416C426.853 648.433 425.766 645.733 425.748 644.78C425.493 631.444 423.206 539.299 426.887 533.975C429.158 533.501 430.916 533.346 433.07 534.657C470.43 557.407 509.904 576.859 547.07 599.912C542.088 603.084 532.473 606.793 526.674 609.514C508.029 618.266 488.875 626.057 469.805 633.847C469.585 650.407 468.428 666.886 468.551 683.557C467.201 683.965 464.31 684.743 463.141 685.234C464.713 681.464 463.998 642.741 463.995 636.434Z" fill="#0F172A"></path>
  <path d="M430.817 539.706C434.671 541.228 456.975 554.56 462.349 557.601L536.619 599.314C530.511 602.556 514.74 608.878 507.662 612.11C499.149 606.535 489.839 601.117 481.092 595.836C472.751 590.234 464.236 584.767 455.812 579.282C456.097 591.658 462.503 616.214 464.312 630.619C454.477 635.128 441.151 640.008 430.855 644.059C430.678 640.886 430.69 637.727 430.745 634.551C431.298 602.938 430.532 571.32 430.817 539.706Z" fill="white"></path>
  <path d="M463.268 590.776C476.431 597.558 488.97 606.914 501.88 614.417L492.996 618.234C485.054 621.289 477.315 625.032 469.553 628.522C467.67 615.908 465.427 603.346 463.268 590.776Z" fill="white"></path>
  <path d="M95.3347 639.949C107.767 644.901 171.32 678.986 178.813 686.674C180.495 688.4 180.926 689.707 181.237 692.054C182.302 700.111 181.458 709.032 181.429 717.2L181.16 769.799C177.236 772.262 171.071 777.106 166.374 776.651C163.245 767.221 165.407 718.983 165.294 705.607L88.2073 664.956L87.7131 732.748L93.8654 737.268L101.289 728.065C101.644 718.677 101.447 709.22 101.475 699.823C104.852 704.191 107.838 707.418 112.733 710.119C126.73 717.601 140.856 724.919 154.616 732.828C154.079 747.373 154.455 762.036 154.484 776.595L142.748 788.21C135.052 784.308 127.588 779.877 120.077 775.629C122.097 763.494 122.829 750.694 126.061 738.818C126.592 736.865 126.703 735.569 128.523 734.55C128.774 734.753 129.055 734.923 129.275 735.16C132.591 738.737 127.566 765.788 126.819 772.294C131.415 775.934 136.327 778.297 141.689 780.53L148.927 773.571C149.468 761.133 149.211 748.572 149.274 736.117C135.767 728.149 121.36 720.371 107.169 713.723L107.556 728.839C103.58 734.369 99.8822 740.013 96.264 745.783C91.8481 742.427 87.1949 739.56 82.4765 736.659C82.2203 718.347 82.3245 700.029 82.38 681.715C82.4086 672.275 81.5505 661.683 83.1382 652.371C84.1131 646.653 90.9449 643.078 95.3347 639.949Z" fill="#0F172A"></path>
  <path d="M96.1161 647.114C103.959 650.385 111.711 655.618 119.222 659.672C137.234 669.392 155.731 678.482 172.838 689.748C169.971 692.415 167.296 695.332 164.564 698.139C150.049 691.392 99.7764 666.308 89.8498 657.481C88.8259 655.032 88.6855 654.681 89.1951 652.096C91.0989 649.515 93.306 648.49 96.1161 647.114Z" fill="white"></path>
  <path d="M1178.99 834.484C1186.54 836.946 1217.13 852.791 1226.88 857.477L1231.55 859.898C1236.78 862.725 1263.55 877.531 1267.96 878.345C1270.61 880.344 1270.71 879.705 1271.28 882.44C1269.5 884.903 1267.52 885.603 1264.8 887.013C1246.91 897.503 1221.09 914.489 1203.77 926.213C1195.99 922.117 1187.23 918.213 1179.13 914.013C1178.09 890.514 1179.07 858.792 1178.99 834.484Z" fill="#0F172A"></path>
  <path d="M1182.6 839.659C1193.36 844.634 1257.9 875.682 1263.19 880.66C1243.28 883.583 1222.59 888.04 1202.81 890.265C1202.4 900.816 1202.45 911.12 1202.48 921.668C1196.04 918.74 1188.02 915.337 1182.07 911.815C1182.09 901.297 1182 890.539 1182.25 880.044C1182.33 866.814 1182.2 852.825 1182.6 839.659Z" fill="white"></path>
  <path d="M1267.96 878.345C1270.61 880.344 1270.71 879.705 1271.28 882.44C1269.5 884.903 1267.52 885.603 1264.8 887.013C1263.89 885.517 1263.53 882.5 1263.19 880.66C1264.65 880.236 1266.56 879.09 1267.96 878.345Z" fill="#0F172A"></path>
  <path d="M1258.89 884.753L1260.37 884.799C1257.86 889.092 1215.84 914.282 1208.22 919.247L1207.03 919.747C1204.2 916.429 1205.96 898.597 1206.02 893.53L1258.89 884.753Z" fill="white"></path>
</svg>
