<?xml version="1.0" encoding="UTF-8"?>
<svg xmlns="http://www.w3.org/2000/svg" width="694" height="164" viewBox="0 0 694 164" fill="none">
  <rect x="298" y="33" width="98" height="98" stroke="white" stroke-width="2"></rect>
  <path d="M297 32.9043V131.095L199 140.895V23.1045L297 32.9043Z" stroke="white" stroke-width="2"></path>
  <path d="M198 22.8955V141.085L100 149.905V12.1152L198 22.8955Z" stroke="white" stroke-width="2"></path>
  <path d="M99 11.8955V150.085L1 158.905V1.11523L99 11.8955Z" stroke="white" stroke-width="2"></path>
  <path d="M396.784 130.811L396.572 32.6212L494.55 22.6091L494.805 140.399L396.784 130.811Z" stroke="white" stroke-width="2"></path>
  <path d="M495.806 140.606L495.55 22.4166L593.53 13.384L593.829 151.174L495.806 140.606Z" stroke="white" stroke-width="2"></path>
  <path d="M594.829 151.391L594.53 13.2021L692.51 4.16953L692.852 161.959L594.829 151.391Z" stroke="white" stroke-width="2"></path>
</svg>
