<?xml version="1.0" encoding="UTF-8"?>
<svg xmlns="http://www.w3.org/2000/svg" width="1820" height="1024" viewBox="0 0 1820 1024" fill="none">
  <path d="M1178.36 176.504C1176.94 174.811 1175.93 174.054 1175.78 171.996L1177.09 171.192C1183.05 172.748 1183.67 174.719 1188.62 176.95C1249.16 176.897 1309.41 211.422 1357.24 245.541C1344.88 246.434 1336.18 248.003 1324.12 251.144C1318.95 252.966 1304.84 257.149 1302.29 260.919C1312.08 269.169 1401.88 267.871 1419.73 268.658C1413.87 270.192 1398.41 269.595 1391.77 269.495C1398.89 278.227 1406.29 286.148 1413.67 294.482C1447.64 332.821 1478.12 375.418 1502.2 420.681C1504.37 424.76 1506.38 429.016 1509.56 432.422C1468.88 495.624 1450.06 553.934 1440.4 628.562C1440.18 630.295 1438.77 635.581 1437.67 636.701C1436.05 641.469 1434.01 650.964 1433.77 656.025C1434.17 665.415 1432.75 675.735 1433.45 684.403C1435.04 704.05 1438.2 723.869 1440.29 743.501C1444.66 784.428 1447.24 822.731 1447.21 863.919C1443.97 863.974 1436.18 863.904 1433.32 864.299L1430.62 863.179L1427.2 864.107L1427.08 881.216C1426.94 888.505 1425.37 891.874 1424.47 898.413C1420.62 926.369 1412.41 947.25 1383.78 957.886C1388.05 959.514 1670.72 959.421 1698.96 958.115L1700.13 958.108C1716.39 958.6 1733.54 957.372 1749.82 958.617C1753.32 958.885 1755.5 959.84 1757.22 962.88L1756.43 965.083C1752.13 968.531 1721.5 966.985 1714.25 967.009L1621.57 967.104L1316.36 967.098L313.305 966.521L150.805 966.556L99.673 966.571C90.7829 966.625 62.4177 968.299 56.638 963.894C55.9581 961.538 55.964 962.527 57.2721 959.861C62.0523 956.771 100.474 958.174 108.339 958.198C89.7118 909.007 95.2834 819.188 121.525 772.826C133.28 752.056 153.465 743.021 175.554 737.635C176.435 700.721 185.504 676.043 206.31 645.752L209.475 641.015C227.054 617.286 248.359 606.193 275.401 596.501C274.755 593.086 269.896 586.624 268.152 576.867C263.329 576.93 261.268 576.823 256.505 576.107L255.661 575.593C254.475 572.277 263.621 500.084 264.793 489.823C269.205 451.217 274.765 403.418 307.107 377.787L308.158 380.958C312.2 384.921 325.725 390.899 331.018 388.934L334.441 389.355C335.08 392.691 336.26 395.191 337.898 398.159C346.331 413.446 356.261 428.779 358.032 446.585C358.916 455.485 355.717 463.551 353.819 472.062C353.398 474.013 353.595 481.424 353.643 483.985C375.53 488.267 399.245 493.415 421.129 498.164C426.501 499.33 443.801 496.897 450.492 496.877C460.016 503.527 468.709 506.602 467.107 519.255L470.566 518.561C476.014 509.677 487.894 483.75 494.453 478.488C496.421 476.91 499.066 476.216 501.47 475.625C510.955 473.293 575.024 470.297 580.927 473.924C581.257 474.127 581.593 474.499 581.852 474.756C579.765 481.336 542.609 545.31 537.636 551.912C530.405 552.768 524.81 552.834 517.511 552.936L488.447 554.201C500.75 557.391 533.415 563.081 539.76 573.546C551.951 593.652 572.362 709.912 576.493 739.257C647.154 711.673 688.968 669.048 733.068 609.228C731.273 605.546 726.619 602.665 725.07 598.136C726.249 595.845 725.485 596.538 727.78 595.553C730.788 596.786 733.31 600.79 735.422 603.544C756.738 581.961 791.628 498.862 807.551 469.172C811.706 461.425 816.761 448.964 821.563 441.425C884.143 325.196 982.276 218.176 1115.05 185.417C1135.47 180.378 1157.14 175.413 1178.36 176.504Z" fill="#E0EDEE"></path>
  <path d="M256.505 576.107L255.661 575.593C254.475 572.277 263.621 500.084 264.793 489.823C269.205 451.217 274.765 403.418 307.107 377.787L308.158 380.958C312.2 384.921 325.725 390.899 331.018 388.934L334.441 389.355C335.08 392.691 336.26 395.191 337.898 398.159C346.331 413.446 356.261 428.779 358.032 446.585C358.916 455.485 355.717 463.551 353.819 472.062C353.398 474.013 353.595 481.424 353.643 483.985C375.53 488.267 399.245 493.415 421.129 498.164C426.501 499.33 443.801 496.897 450.492 496.877C460.016 503.527 468.709 506.602 467.107 519.255L470.566 518.561C476.014 509.677 487.894 483.75 494.453 478.488C496.421 476.91 499.066 476.216 501.47 475.625C510.955 473.293 575.024 470.297 580.927 473.924C581.257 474.127 581.593 474.499 581.852 474.756C579.765 481.336 542.609 545.31 537.636 551.912C530.405 552.768 524.81 552.834 517.511 552.936L488.447 554.201C500.75 557.391 533.415 563.081 539.76 573.546C551.951 593.652 572.362 709.912 576.493 739.257C577.696 748.176 578.371 752.562 581.017 761.273C589.984 763.171 611.413 766.685 618.169 771.436L619.083 773.199C615.91 778.622 573.302 785.405 564.247 787.051C572.168 790.327 568.2 792.053 572.326 794.311C599.631 809.255 606.139 846.258 615.067 874.688C622.415 873.413 631.384 873.022 638.239 871.224C645.337 865.76 649.592 866.262 658.337 867.555C665.095 866.189 686.363 865.193 689.228 862.398L686.79 844.77C672.209 842.596 653.55 836.153 644.722 823.547C638.583 814.781 645.464 803.373 656.08 807.187C668.788 811.752 679.749 827.555 686.007 839.021C683.722 825.252 683.938 808.383 684.427 794.429C674.863 787.375 668.875 781.245 660.734 772.202C656.577 767.585 646.861 749.635 657.901 747.005C673.095 743.385 682.161 773.169 685.542 784.818C687.459 759.118 696.6 716.595 716.704 697.574C724.542 690.158 740.504 686.701 737.915 702.417C734.874 720.872 715.073 737.124 700.883 748.125C700.175 751.598 699.081 755.258 698.126 758.694C696.402 767.951 694.08 777.853 692.545 786.982C700.664 778.275 726.797 750.912 740.122 761.988C746.722 777.806 702.096 791.124 691.572 794.522C691.472 811.475 691.81 824.572 693.594 841.554C699.864 824.72 709.279 811.243 725.683 802.398C736.894 796.353 752.858 801.387 745.286 814.831C736.772 829.949 710.099 841.323 694.144 846.319C694.946 851.46 695.915 858.907 697.026 863.8C704.757 862.369 713.047 860.634 720.845 860.159C722.63 857.904 724.485 855.485 726.514 853.44C735.327 844.558 753.207 837.86 750.753 857.974C763.439 856.579 780.322 857.447 791.076 855.841C794.921 857.662 817.709 856.659 823.198 856.794C863.097 857.951 909.721 848.942 945.175 829.577C1005.98 796.367 1049.47 787.388 1118.82 792.984C1123.56 800.106 1129.68 809.852 1135.08 816.171C1143.47 817.053 1152.89 817.605 1161 818.601C1175.31 818.72 1190.5 821.648 1204.78 822.193C1223.02 822.89 1241.62 822.002 1259.89 822.544C1269.2 822.93 1283.44 824.634 1291.31 820.234C1300.35 824.019 1322.72 831.255 1332.05 832.105L1332.85 831.526C1336.36 832.06 1336.85 832.044 1340.35 831.449C1353 832.844 1354.41 828.847 1361.03 819.526L1363.41 821.266C1354.19 835.203 1351.77 836.938 1335.26 833.7C1336.96 843.408 1338.61 853.719 1340.6 863.322C1366.83 877.902 1392.7 889.472 1423.45 889.763L1423.74 870.598L1423.93 871.471C1424.79 875.518 1424.44 880.878 1425.77 882.916L1427.08 881.216C1426.94 888.505 1425.37 891.874 1424.47 898.413C1420.62 926.369 1412.41 947.25 1383.78 957.886C1388.05 959.514 1670.72 959.421 1698.96 958.115L1700.13 958.108C1716.39 958.6 1733.54 957.372 1749.82 958.617C1753.32 958.885 1755.5 959.84 1757.22 962.88L1756.43 965.083C1752.13 968.531 1721.5 966.985 1714.25 967.009L1621.57 967.104L1316.36 967.098L313.305 966.521L150.805 966.556L99.673 966.571C90.7829 966.625 62.4177 968.299 56.638 963.894C55.9581 961.538 55.964 962.527 57.2721 959.861C62.0523 956.771 100.474 958.174 108.339 958.198C89.7118 909.007 95.2834 819.188 121.525 772.826C133.28 752.056 153.465 743.021 175.554 737.635C176.435 700.721 185.504 676.043 206.31 645.752L209.475 641.015C227.054 617.286 248.359 606.193 275.401 596.501C274.755 593.086 269.896 586.624 268.152 576.867C263.329 576.93 261.268 576.823 256.505 576.107Z" fill="#1E40AF"></path>
  <path d="M256.505 576.107L255.661 575.593C254.475 572.277 263.621 500.084 264.793 489.823C269.205 451.217 274.765 403.418 307.107 377.787L308.158 380.958C312.2 384.921 325.725 390.899 331.018 388.934L334.441 389.355C335.08 392.691 336.26 395.191 337.898 398.159C346.331 413.446 356.261 428.779 358.032 446.585C358.916 455.485 355.717 463.551 353.819 472.062C353.398 474.013 353.595 481.424 353.643 483.985C375.53 488.267 399.245 493.415 421.129 498.164C426.501 499.33 443.801 496.897 450.492 496.877C460.016 503.527 468.709 506.602 467.107 519.255L470.566 518.561C476.014 509.677 487.894 483.75 494.453 478.488C496.421 476.91 499.066 476.216 501.47 475.625C510.955 473.293 575.024 470.297 580.927 473.924C581.257 474.127 581.593 474.499 581.852 474.756C579.765 481.336 542.609 545.31 537.636 551.912C530.405 552.768 524.81 552.834 517.511 552.936L488.447 554.201C500.75 557.391 533.415 563.081 539.76 573.546C551.951 593.652 572.362 709.912 576.493 739.257C577.696 748.176 578.371 752.562 581.017 761.273C589.984 763.171 611.413 766.685 618.169 771.436L619.083 773.199C615.91 778.622 573.302 785.405 564.247 787.051C557.614 784.995 540.026 779.316 534.319 776.541L530.968 776.022C525.626 775.936 520.715 775.446 515.463 774.417C515.502 769.747 515.359 768.681 513.598 764.434L512.769 764.535L510.121 764.034C507.478 761.833 507.823 760.897 506.457 757.152C502.417 746.548 498.518 733.376 494.596 722.33C482.547 688.385 470.252 652.284 461.572 617.313L412.011 617.082C403.404 617.052 391.111 616.634 382.779 617.407C378.607 616.372 376.706 615.411 373.033 618.088C362.534 615.147 328.407 616.737 314.264 613.625C311.989 612.997 311.013 613.137 308.622 613.165C299.71 612.106 282.95 609.002 278.955 599.554C278.068 597.949 276.96 597.483 275.401 596.501C274.755 593.086 269.896 586.624 268.152 576.867C263.329 576.93 261.268 576.823 256.505 576.107Z" fill="#1E40AF"></path>
  <path d="M256.505 576.107L255.661 575.593C254.475 572.277 263.621 500.084 264.793 489.823C269.205 451.217 274.765 403.418 307.107 377.787L308.158 380.958C312.2 384.921 325.725 390.899 331.018 388.934L334.441 389.355C335.08 392.691 336.26 395.191 337.898 398.159C346.331 413.446 356.261 428.779 358.032 446.585C358.916 455.485 355.717 463.551 353.819 472.062C353.398 474.013 353.595 481.424 353.643 483.985C375.53 488.267 399.245 493.415 421.129 498.164C426.501 499.33 443.801 496.897 450.492 496.877C460.016 503.527 468.709 506.602 467.107 519.255L470.566 518.561C476.014 509.677 487.894 483.75 494.453 478.488C496.421 476.91 499.066 476.216 501.47 475.625C510.955 473.293 575.024 470.297 580.927 473.924C581.257 474.127 581.593 474.499 581.852 474.756C579.765 481.336 542.609 545.31 537.636 551.912C530.405 552.768 524.81 552.834 517.511 552.936L517.885 549.463C504.68 549.662 490.434 550.534 477.45 550.371C465.999 551.45 392.958 550.836 388.4 553.416C379.32 551.871 371.462 550.599 362.252 549.654L357.262 549.3L356.435 550.254L358.851 552.269C338.833 566.57 296.971 572.898 272.516 575.588C267.096 576.185 261.635 575.785 256.505 576.107Z" fill="#F472B6"></path>
  <path d="M256.505 576.107L255.661 575.593C254.475 572.277 263.621 500.084 264.793 489.823C269.205 451.217 274.765 403.418 307.107 377.787L308.158 380.958C312.2 384.921 325.725 390.899 331.018 388.934L334.441 389.355C335.08 392.691 336.26 395.191 337.898 398.159C346.331 413.446 356.261 428.779 358.032 446.585C358.916 455.485 355.717 463.551 353.819 472.062C353.398 474.013 353.595 481.424 353.643 483.985C375.53 488.267 399.245 493.415 421.129 498.164C426.501 499.33 443.801 496.897 450.492 496.877C460.016 503.527 468.709 506.602 467.107 519.255L470.566 518.561C476.014 509.677 487.894 483.75 494.453 478.488C496.421 476.91 499.066 476.216 501.47 475.625C510.955 473.293 575.024 470.297 580.927 473.924C581.257 474.127 581.593 474.499 581.852 474.756C579.765 481.336 542.609 545.31 537.636 551.912C530.405 552.768 524.81 552.834 517.511 552.936L517.885 549.463C504.68 549.662 490.434 550.534 477.45 550.371C465.999 551.45 392.958 550.836 388.4 553.416C379.32 551.871 371.462 550.599 362.252 549.654L357.262 549.3L359.752 547.372C361.153 543.001 358.674 532.055 357.764 527.154C345.472 527.356 333.622 526.794 321.512 524.629C314.546 512.078 288.339 456.741 290.604 444.89L291.786 445.091C294.577 450.767 297.981 463.442 300.396 470.009C305.84 484.815 314.591 507.214 323.077 520.606L323.598 521.418C345.691 524.957 363.142 523.835 385.033 520.872C386.617 513.054 389.614 502.769 391.702 494.859C378.104 492.475 362.367 488.41 348.903 486.79C345.897 494.617 341.188 501.762 336.542 508.753L334.884 509.065C334.046 505.207 342.721 493.333 345.338 487.5C340.442 466.068 332.742 442.147 323.713 422.083C321.507 417.182 318.397 413.403 315.143 409.224C312.794 406.208 308.051 403.832 307.514 400.5L308.911 399.661C325.595 405.55 337.425 448.732 342.702 464.348C344.472 469.585 345.086 478.624 348.683 483.53L349.718 483.088C351.193 477.44 350.277 475.674 350.642 470.173C350.811 467.639 352.892 462.023 353.625 459.269C359.335 437.826 342.464 412.411 332.571 394.685C329.655 392.06 324.513 392.815 320.208 391.031C315.379 389.029 309.703 385.078 305.052 383.494L302.296 385.382C275.429 417.174 273.519 450.765 268.171 490.396C264.475 517.781 262.045 545.669 258.274 572.97C286.408 573.84 331.932 564.411 356.435 550.254L358.851 552.269C338.833 566.57 296.971 572.898 272.516 575.588C267.096 576.185 261.635 575.785 256.505 576.107Z" fill="#1E40AF"></path>
  <path d="M496.899 480.593C509.195 476.263 562.107 476.432 577.252 476.37C570.666 488.413 541.894 541.196 534.826 549.088L537.636 551.912C530.405 552.768 524.81 552.834 517.511 552.936L517.885 549.463C504.68 549.662 490.434 550.534 477.45 550.371C472.626 549.819 459.611 551.628 457.291 548.232L458.929 546.736C469.037 527.465 480.554 509.007 491.199 490.039C492.999 486.833 494.682 483.535 496.899 480.593Z" fill="#0F766E"></path>
  <path d="M517.885 549.463C523.067 549.342 529.762 548.992 534.826 549.088L537.636 551.912C530.405 552.768 524.81 552.834 517.511 552.936L517.885 549.463Z" fill="#1E40AF"></path>
  <path d="M516.5 512.227C520.751 511.781 528.96 510.127 529.933 515.685C528.85 518.32 527.191 519.11 524.86 520.687C520.368 521.307 514.475 522.145 512.572 517.083C513.376 514.411 514.313 513.931 516.5 512.227Z" fill="#3B82F6"></path>
  <path d="M400.428 519.582C411.911 517.367 434.645 511.544 442.929 521.296C454.53 534.953 455.751 525.515 463.801 526.929L464.875 527.975C462.665 532.876 459.259 538.387 456.519 543.107C431.104 543.383 387.816 541.745 364.01 546.062C363.421 540.389 361.833 532.469 360.837 526.683C368.728 526.042 378.88 524.246 386.522 524.53C390.641 527.081 390.909 527.607 394.947 526.833C397.706 525.16 398.84 522.433 400.428 519.582Z" fill="#FFFAF9"></path>
  <path d="M362.252 549.654C376.649 544.94 440.524 546.394 458.929 546.736L457.291 548.232C459.611 551.628 472.626 549.819 477.45 550.371C465.999 551.45 392.958 550.836 388.4 553.416C379.32 551.871 371.462 550.599 362.252 549.654Z" fill="#147195"></path>
  <path d="M467.107 519.255L470.566 518.561L464.875 527.975L463.801 526.929C465.179 524.697 466.154 521.748 467.107 519.255Z" fill="#E0EDEE"></path>
  <path d="M405.927 500.101C423.076 501.919 432.204 501.189 449.485 500.291C454.266 503.425 461.429 507.477 463.98 512.433C464.131 514.881 464.59 516.924 463.444 518.967C459.613 511.924 455.219 506.669 446.113 506.947L446.073 507.959L449.979 509.954C455.005 513.066 460.068 515.796 459.297 522.643L458.308 522.556C456.124 523.348 456.414 522.873 455.253 524.444L453.728 525.619C450.517 525.288 444.028 516.929 440.385 515.288C427.714 509.579 413.493 513.431 401.356 515.996C402.672 510.668 404.343 505.361 405.927 500.101Z" fill="#FAAFB3"></path>
  <path d="M449.979 509.954C455.005 513.066 460.068 515.796 459.297 522.643L458.308 522.556C456.124 523.348 456.414 522.873 455.253 524.444C454.474 520.806 450.61 516.563 448.502 511.895L449.979 509.954Z" fill="#F9CDC4"></path>
  <path d="M448.502 511.895C453.682 514.45 455.091 517.618 458.308 522.556C456.124 523.348 456.414 522.873 455.253 524.444C454.474 520.806 450.61 516.563 448.502 511.895Z" fill="#12072D"></path>
  <path d="M395.515 495.285L403.866 497.537C400.249 505.147 398.38 514.766 395.446 523.156C392.401 523.724 391.781 523.563 389.532 521.95C387.741 517.156 393.755 501.191 395.515 495.285Z" fill="#F472B6"></path>
  <path d="M302.296 385.382L305.052 383.494C309.703 385.078 315.379 389.029 320.208 391.031C324.513 392.815 329.655 392.06 332.571 394.685C325.465 400.174 308.485 390.258 302.296 385.382Z" fill="#E0EDEE"></path>
  <path d="M477.45 550.371C490.434 550.534 504.68 549.662 517.885 549.463L517.511 552.936L488.447 554.201C500.75 557.391 533.415 563.081 539.76 573.546C551.951 593.652 572.362 709.912 576.493 739.257C577.696 748.176 578.371 752.562 581.017 761.273C589.984 763.171 611.413 766.685 618.169 771.436L619.083 773.199C615.91 778.622 573.302 785.405 564.247 787.051C557.614 784.995 540.026 779.316 534.319 776.541C533.784 773.417 531.321 761.691 532.441 759.534C534.791 759.046 535.662 759.08 537.28 757.265L538.184 757.983C545.088 759.181 547.92 757.472 551.014 751.285C547.577 748.055 545.593 740.201 543.719 735.804C539.49 725.881 534.232 715.571 531.876 705.017C525.245 675.318 523.526 608.543 506.946 585.938C502.653 580.083 497.198 576.668 490.62 573.792C467.185 563.545 415.787 557.758 388.4 553.416C392.958 550.836 465.999 551.45 477.45 550.371Z" fill="#1E40AF"></path>
  <path d="M551.014 751.285C556.837 756.096 560.433 778.337 564.247 787.051C557.614 784.995 540.026 779.316 534.319 776.541C533.784 773.417 531.321 761.691 532.441 759.534C534.791 759.046 535.662 759.08 537.28 757.265L538.184 757.983C545.088 759.181 547.92 757.472 551.014 751.285Z" fill="#E0EDEE"></path>
  <path d="M572.912 743.143C574.062 746.33 576.356 757.238 577.239 761.005C571.735 762.596 566.296 763.983 560.75 765.4C558.978 759.466 558.165 756.608 555.365 750.991C562.018 748.349 566.613 746.483 572.912 743.143Z" fill="#FAAFB3"></path>
  <path d="M438.42 556.026C445.091 555.295 458.573 555.185 465.03 556.109C460.268 557.531 442.657 558.368 438.42 556.026Z" fill="#1E40AF"></path>
  <path d="M357.262 549.3L362.252 549.654C371.462 550.599 379.32 551.871 388.4 553.416C415.787 557.758 467.185 563.545 490.62 573.792C497.198 576.668 502.653 580.083 506.946 585.938C523.526 608.543 525.245 675.318 531.876 705.017C534.232 715.571 539.49 725.881 543.719 735.804C545.593 740.201 547.577 748.055 551.014 751.285C547.92 757.472 545.088 759.181 538.184 757.983L537.28 757.265C531.142 726.025 518.369 606.228 504.458 586.856C500.397 581.202 491.86 577.521 485.507 575.316C468.005 569.241 448.345 566.547 430.102 563.568L358.851 552.269L356.435 550.254L357.262 549.3Z" fill="#E0EDEE"></path>
  <path d="M513.598 764.434C516.226 761.672 524.465 760.804 528.415 760.19C529.09 765.186 529.724 771.221 530.968 776.022C525.626 775.936 520.715 775.446 515.463 774.417C515.502 769.747 515.359 768.681 513.598 764.434Z" fill="#FAAFB3"></path>
  <path d="M791.076 855.841C794.921 857.662 817.709 856.659 823.198 856.794C863.097 857.951 909.721 848.942 945.175 829.577C1005.98 796.367 1049.47 787.388 1118.82 792.984C1123.56 800.106 1129.68 809.852 1135.08 816.171C1143.47 817.053 1152.89 817.605 1161 818.601L1162.33 820.433C1146.51 833.311 1119.82 858.185 1104.68 873.303C1091.11 886.276 1077.3 899.303 1064.19 912.779C1054.74 922.489 1049.37 932.185 1038.33 940.836C1028.49 948.55 1001.57 943.476 1001.88 956.642C1001.93 957.027 1001.98 957.411 1002.03 957.796L1002.6 958.895C950.53 959.443 895.474 958.422 843.146 958.234L735.63 958.115C731.868 953.837 727.079 946.856 723.602 942.053C740.406 933.464 764.562 920.28 773.878 903.2C781.393 889.421 767.594 881.277 754.857 888.794C735.867 900.002 728.245 918.749 721.771 938.559C716.378 925.536 711.215 912.87 706.209 899.697C723.923 890.025 740.986 875.881 750.753 857.974C763.439 856.579 780.322 857.447 791.076 855.841Z" fill="#3B82F6"></path>
  <path d="M843.146 958.234C915.231 909.129 996.062 852.844 1088.66 869.257C1094.17 870.233 1099.35 871.64 1104.68 873.303C1091.11 886.276 1077.3 899.303 1064.19 912.779C1054.74 922.489 1049.37 932.185 1038.33 940.836C1028.49 948.55 1001.57 943.476 1001.88 956.642C1001.93 957.027 1001.98 957.411 1002.03 957.796L1002.6 958.895C950.53 959.443 895.474 958.422 843.146 958.234Z" fill="#0F766E"></path>
  <path d="M1161 818.601C1175.31 818.72 1190.5 821.648 1204.78 822.193C1223.02 822.89 1241.62 822.002 1259.89 822.544C1269.2 822.93 1283.44 824.634 1291.31 820.234C1300.35 824.019 1322.72 831.255 1332.05 832.105L1332.85 831.526C1336.36 832.06 1336.85 832.044 1340.35 831.449C1353 832.844 1354.41 828.847 1361.03 819.526L1363.41 821.266C1354.19 835.203 1351.77 836.938 1335.26 833.7C1336.96 843.408 1338.61 853.719 1340.6 863.322C1366.83 877.902 1392.7 889.472 1423.45 889.763L1423.74 870.598L1423.93 871.471C1424.79 875.518 1424.44 880.878 1425.77 882.916L1427.08 881.216C1426.94 888.505 1425.37 891.874 1424.47 898.413C1420.62 926.369 1412.41 947.25 1383.78 957.886C1374.62 959.223 1366.09 959.024 1356.92 957.822C1351.38 960.049 1142.3 958.535 1123.51 958.915L1124.74 957.453C1111.38 956.305 1084.77 957.27 1070.93 957.405C1065.78 957.654 1058.76 957.445 1053.47 957.437C1043.32 957.336 1010.94 956.448 1002.03 957.796C1001.98 957.411 1001.93 957.027 1001.88 956.642C1001.57 943.476 1028.49 948.55 1038.33 940.836C1049.37 932.185 1054.74 922.489 1064.19 912.779C1077.3 899.303 1091.11 886.276 1104.68 873.303C1119.82 858.185 1146.51 833.311 1162.33 820.433L1161 818.601Z" fill="#1E40AF"></path>
  <path d="M1221.08 858.972C1255.97 895.421 1306.04 947.837 1356.92 957.822C1351.38 960.049 1142.3 958.535 1123.51 958.915L1124.74 957.453C1125.79 953.247 1126.18 951.75 1128.02 947.864C1129.07 946.338 1133.69 939.565 1134.79 938.852C1168.63 916.986 1194.33 889.091 1221.08 858.972Z" fill="#0F766E"></path>
  <path d="M1162.33 820.433C1172.07 820.783 1182.35 822.48 1191.59 822.647C1161.53 850.926 1148.44 877.763 1127 912.362C1125.38 915.318 1122.8 919.394 1122.39 922.547L1120.08 924.204C1120.25 926.787 1120.25 926.014 1122.52 928.43L1123.35 929.084C1127.02 929.723 1130.53 931.732 1133.89 933.414C1131.25 937.385 1128.27 941.653 1125.83 945.709L1128.02 947.864C1126.18 951.75 1125.79 953.247 1124.74 957.453C1111.38 956.305 1084.77 957.27 1070.93 957.405C1065.78 957.654 1058.76 957.445 1053.47 957.437C1043.32 957.336 1010.94 956.448 1002.03 957.796C1001.98 957.411 1001.93 957.027 1001.88 956.642C1001.57 943.476 1028.49 948.55 1038.33 940.836C1049.37 932.185 1054.74 922.489 1064.19 912.779C1077.3 899.303 1091.11 886.276 1104.68 873.303C1119.82 858.185 1146.51 833.311 1162.33 820.433Z" fill="#1E40AF"></path>
  <path d="M1064.96 938.382C1092.42 930.73 1102.19 924.433 1127 912.362C1125.38 915.318 1122.8 919.394 1122.39 922.547L1120.08 924.204C1120.25 926.787 1120.25 926.014 1122.52 928.43L1123.35 929.084C1127.02 929.723 1130.53 931.732 1133.89 933.414C1131.25 937.385 1128.27 941.653 1125.83 945.709L1128.02 947.864C1126.18 951.75 1125.79 953.247 1124.74 957.453C1111.38 956.305 1084.77 957.27 1070.93 957.405C1065.78 957.654 1058.76 957.445 1053.47 957.437C1056.51 949.072 1059.47 945.027 1064.96 938.382Z" fill="#0F766E"></path>
  <path d="M1122.52 928.43L1123.35 929.084C1127.02 929.723 1130.53 931.732 1133.89 933.414C1131.25 937.385 1128.27 941.653 1125.83 945.709L1128.02 947.864C1126.18 951.75 1125.79 953.247 1124.74 957.453C1111.38 956.305 1084.77 957.27 1070.93 957.405C1073.2 941.806 1092.65 949.954 1103.27 945.447C1113.55 941.086 1115.67 933.685 1122.52 928.43Z" fill="#1E40AF"></path>
  <path d="M1123.35 929.084C1127.02 929.723 1130.53 931.732 1133.89 933.414C1131.25 937.385 1128.27 941.653 1125.83 945.709C1122.16 949.173 1117.44 949.89 1113.15 947.015C1112.15 941.223 1119.61 938.398 1123.04 929.876L1123.35 929.084Z" fill="#F9CDC4"></path>
  <path d="M1055.6 929.61C1057.88 931.622 1060.22 933.393 1062.62 935.25C1058.98 940.736 1057.19 943.338 1052.78 948.252C1049.48 949.15 1045.2 949.598 1041.73 950.063C1039.02 949.842 1037.93 949.039 1036.47 947.337C1037.44 942.856 1051.13 933.248 1055.6 929.61Z" fill="#F9CDC4"></path>
  <path d="M1291.31 820.234C1300.35 824.019 1322.72 831.255 1332.05 832.105C1333.29 836.641 1335.52 856.524 1336.03 861.273C1327.81 856.627 1257.65 825.738 1257.48 825.47C1259.65 824.276 1258.96 825.037 1259.89 822.544C1269.2 822.93 1283.44 824.634 1291.31 820.234Z" fill="#3B82F6"></path>
  <path d="M1161 818.601C1175.31 818.72 1190.5 821.648 1204.78 822.193C1223.02 822.89 1241.62 822.002 1259.89 822.544C1258.96 825.037 1259.65 824.276 1257.48 825.47C1240.22 822.923 1211.79 824.816 1193.24 823.779C1184.7 832.166 1175.94 840.493 1168.97 850.283C1152.78 872.997 1138.39 896.904 1124.48 921.051C1124 921.876 1123.22 922.2 1122.39 922.547C1122.8 919.394 1125.38 915.318 1127 912.362C1148.44 877.763 1161.53 850.926 1191.59 822.647C1182.35 822.48 1172.07 820.783 1162.33 820.433L1161 818.601Z" fill="#E0EDEE"></path>
  <path d="M314.264 613.625C328.407 616.737 362.534 615.147 373.033 618.088C387.717 624.129 403.118 634.927 412.396 647.957C394.387 660.626 374.338 672.777 355.765 684.866L258.384 748.687C260.398 743.209 262.659 737.901 264.901 732.516C281.381 692.918 297.06 652.917 314.264 613.625Z" fill="#0F766E"></path>
  <path d="M382.779 617.407C391.111 616.634 403.404 617.052 412.011 617.082L461.572 617.313C470.252 652.284 482.547 688.385 494.596 722.33C498.518 733.376 502.417 746.548 506.457 757.152C500.848 759.17 485.881 761.988 479.412 763.445C467.464 766.136 458.859 768.706 447.308 772.455C447.343 768.299 448.006 753.93 446.445 751.342C445.007 696.365 433.864 645.785 382.779 617.407Z" fill="#FFFAF9"></path>
  <path d="M278.955 599.554C282.95 609.002 299.71 612.106 308.622 613.165C301.956 626.601 295.975 642.812 290.164 656.916L258.125 735.143C257.505 731.502 257.152 727.818 256.747 724.147C252.736 687.812 248.056 651.541 244.429 615.165C255.068 609.47 267.744 604.942 278.955 599.554Z" fill="#0F766E"></path>
  <path d="M615.067 874.688C622.415 873.413 631.384 873.022 638.239 871.224C637.51 874.979 636.698 879.43 639.502 882.468C651.024 894.951 682.793 898.488 698.434 899.04L701.794 909.249C706.115 921.362 710.256 930.903 716.207 942.236C702.502 930.967 686.749 922.147 668.915 919.951C657.787 917.537 643.934 929.774 655.848 938.609C668.241 947.799 703.872 946.499 717.653 945.08L725.872 958.25L652.528 958.2C633.231 928.432 627.196 907.741 615.067 874.688Z" fill="#3B82F6"></path>
  <path d="M685.542 784.818C687.459 759.118 696.6 716.595 716.704 697.574C724.542 690.158 740.504 686.701 737.915 702.417C734.874 720.872 715.073 737.124 700.883 748.125C700.175 751.598 699.081 755.258 698.126 758.694C697.222 756.522 697.665 749.884 698.93 748.687C712.738 735.615 724.856 726.927 734.152 709.737C739.349 700.127 735.735 687.586 726.352 692.753C698.549 708.066 694.366 748.289 687.591 775.982C686.792 779.226 688.098 787.932 685.436 789.56C681.476 782.569 673.987 742.188 658.349 749.613C656.555 750.465 655.23 752.372 654.251 754.09C654.983 774.905 686.411 788.265 685.777 796.957C683.773 824.438 688.837 850.111 694.286 877.105C694.974 880.478 697.554 890.055 697.269 893.026C691.565 893.364 661.287 857.022 640.144 872.306C629.743 892.497 688.7 895.657 698.813 898.224C702.024 899.039 701.904 906.729 701.794 909.249L698.434 899.04C682.793 898.488 651.024 894.951 639.502 882.468C636.698 879.43 637.51 874.979 638.239 871.224C645.337 865.76 649.592 866.262 658.337 867.555C665.095 866.189 686.363 865.193 689.228 862.398L686.79 844.77C672.209 842.596 653.55 836.153 644.722 823.547C638.583 814.781 645.464 803.373 656.08 807.187C668.788 811.752 679.749 827.555 686.007 839.021C683.722 825.252 683.938 808.383 684.427 794.429C674.863 787.375 668.875 781.245 660.734 772.202C656.577 767.585 646.861 749.635 657.901 747.005C673.095 743.385 682.161 773.169 685.542 784.818Z" fill="#1E40AF"></path>
  <path d="M689.228 862.398C691.203 871.276 693.795 883.555 696.505 892.022C686.271 882.503 671.948 871.536 658.337 867.555C665.095 866.189 686.363 865.193 689.228 862.398Z" fill="#3B82F6"></path>
  <path d="M446.445 751.342C448.006 753.93 447.343 768.299 447.308 772.455C458.859 768.706 467.464 766.136 479.412 763.445C485.881 761.988 500.848 759.17 506.457 757.152C507.823 760.897 507.478 761.833 510.121 764.034L512.769 764.535L513.598 764.434C515.359 768.681 515.502 769.747 515.463 774.417C513.743 778.486 515.998 782.721 513.985 786.938C512.373 787.348 492.299 787.403 488.986 787.324C479.305 787.092 462.045 791.691 454.027 790.444C452.17 790.634 447.717 791.818 445.745 792.294C446.431 778.793 446.349 764.888 446.445 751.342Z" fill="#E0EDEE"></path>
  <path d="M512.769 764.535L513.598 764.434C515.359 768.681 515.502 769.747 515.463 774.417C513.743 778.486 515.998 782.721 513.985 786.938C512.373 787.348 492.299 787.403 488.986 787.324C479.305 787.092 462.045 791.691 454.027 790.444C472.946 784.961 493.945 785.346 513.52 785.791C513.539 778.757 512.849 771.664 512.769 764.535Z" fill="#1E40AF"></path>
  <path d="M697.026 863.8C704.757 862.369 713.047 860.634 720.845 860.159C712.764 872.642 709.924 882.847 705.641 897.153C702.462 887.742 698.476 873.703 697.026 863.8Z" fill="#3B82F6"></path>
  <path d="M1070.93 957.405C1084.77 957.27 1111.38 956.305 1124.74 957.453L1123.51 958.915C1104.51 959.654 1085.38 958.943 1066.41 958.812L1002.6 958.895L1002.03 957.796C1010.94 956.448 1043.32 957.336 1053.47 957.437C1058.76 957.445 1065.78 957.654 1070.93 957.405Z" fill="#B1B9B3"></path>
  <path d="M415.865 652.454C443.24 684.913 443.819 759.143 439.57 799.669C459.84 793.132 491.107 787.562 512.137 791.327C515.433 795.139 511.222 799.023 521.604 798.93C534.908 798.812 556.261 799.965 568.806 798.296C589.007 808.605 594.804 826.196 601.447 846.953C610 873.683 617.294 899.871 629.014 925.595C634.513 937.665 640.254 946.704 646.372 958.14L561.346 958.041C559.063 958.595 558.742 958.848 556.685 958.011C548.686 962.317 446.85 956.67 427.378 959.616C425.782 959.907 424.888 959.746 423.267 959.671C416.831 958.379 402.91 960.188 398.187 958.42L397.669 956.712L396.396 958.628C394.911 958.631 394.934 958.774 393.586 958.321C370.722 957.749 347.336 958.056 324.429 958.119C332.665 933.955 338.144 908.59 345.637 884.234C369.247 807.494 390.065 728.386 415.865 652.454Z" fill="#0F766E"></path>
  <path d="M437.817 852.438C438.27 847.665 439.401 838.238 444.328 835.501C456.668 828.647 474.262 831.67 488.022 831.009C505.025 830.193 513.973 835.69 515.038 853.253C527.033 852.992 541.002 852.597 550.508 862.38C568.073 880.457 561.584 914.765 564.58 938C565.377 944.182 563.689 952.766 561.346 958.041C559.063 958.595 558.742 958.848 556.685 958.011C548.686 962.317 446.85 956.67 427.378 959.616C425.782 959.907 424.888 959.746 423.267 959.671C416.831 958.379 402.91 960.188 398.187 958.42L397.669 956.712L397.494 880.762C397.51 868.552 396.187 865.58 404.45 857.339L402.428 856.559L401.625 854.699C409.072 849.574 428.362 852.389 437.817 852.438Z" fill="#1E40AF"></path>
  <path d="M427.354 904.303L452.004 904.501C451.889 911.322 450.947 923.408 454.824 928.963L456.131 928.913C459.891 923.441 459.01 911.514 458.931 904.587L558.808 904.5C559.233 920.346 563.068 945.102 556.685 958.011C548.686 962.317 446.85 956.67 427.378 959.616L427.354 904.303Z" fill="#F472B6"></path>
  <path d="M404.45 857.339C415.627 855.2 422.271 857.361 422.731 869.822C423.826 899.485 422.6 930.028 423.267 959.671C416.831 958.379 402.91 960.188 398.187 958.42L397.669 956.712L397.494 880.762C397.51 868.552 396.187 865.58 404.45 857.339Z" fill="#F472B6"></path>
  <path d="M422.916 856.962L492.735 856.9C532.727 856.936 554.913 851.199 558.628 899.191C554.995 900.108 525.739 899.69 519.891 899.675L427.384 899.504C427.499 886.098 429.33 868.294 422.916 856.962Z" fill="#F472B6"></path>
  <path d="M453.276 835.555C469.144 835.396 484.727 835.267 500.591 835.532C506.01 838.781 511.75 843.171 509.683 850.283C506.581 854.629 503.915 854.69 499.884 851.803C499.37 848.691 498.96 845.67 498.548 842.544C493.667 840.981 462.866 841.009 457.538 842.984C455.398 845.116 454.596 848.832 453.665 851.806C451.017 852.9 444.867 852.451 441.694 852.404C443.23 842.733 444.487 839.992 453.276 835.555Z" fill="#FAAFB3"></path>
  <path d="M458.693 846.396C468.343 846.281 484.407 845.627 493.538 846.554C495.279 848.677 494.754 849.384 494.927 852.578C486.088 852.547 467.184 853.183 459.252 852.159C457.989 849.938 458.516 849.279 458.693 846.396Z" fill="#0F766E"></path>
  <path d="M401.625 854.699L402.428 856.559L404.45 857.339C396.187 865.58 397.51 868.552 397.494 880.762L397.669 956.712L396.396 958.628C394.911 958.631 394.934 958.774 393.586 958.321C393.161 929.296 393.306 898.87 394.034 869.76C394.186 863.69 396.788 858.454 401.625 854.699Z" fill="#1E40AF"></path>
  <path d="M407.549 657.688C408.13 659.827 407.379 661.737 406.729 663.836C384.76 734.781 362.711 805.778 342.584 877.271C332.966 861.176 321.484 844.071 311.165 828.369C295.634 804.055 277.895 777.218 261.248 753.709C274.189 744.124 292.216 732.963 306.042 723.874L407.549 657.688Z" fill="#0F766E"></path>
  <path d="M255.6 774.113C272.183 794.63 269.348 846.75 265.236 871.201C243.693 885.158 208.8 905.939 186.279 918.598C182.876 920.53 179.112 922.967 175.733 925.038C182.145 902.765 196.21 852.696 201.835 831.128C203.272 825.619 248.113 781.65 255.6 774.113Z" fill="#0F766E"></path>
  <path d="M238.812 618.811C241.335 624.427 254.433 752.867 254.238 763.165C242.002 750.41 234.236 745.646 217.943 739.148C206.118 735.046 192.535 735.327 180.335 737.133C179.957 692.492 203.782 646.033 238.812 618.811Z" fill="#0F766E"></path>
  <path d="M257.149 757.857C261.155 760.45 334.295 873.615 340.576 884.779C336.213 897.487 331.75 914.629 328.069 927.786L325.04 938.591C318.426 929.889 308.362 913.272 301.782 903.525C293.174 890.774 278.787 871.202 271.823 858.275C275.624 838.268 273.81 807.93 267.432 788.29C263.352 775.728 255.837 771.237 257.149 757.857Z" fill="#0F766E"></path>
  <path d="M135.222 776.744C140.623 780.833 184.716 846.784 190.685 856.162C182.58 882.749 175.426 907.641 168.309 934.465C167.156 938.435 162.48 956.638 159.906 957.875C158.22 956.276 157.366 953.908 157.078 951.616C149.748 893.385 140.685 835.205 135.222 776.744Z" fill="#0F766E"></path>
  <path d="M129.308 768.629C131.535 784.816 132.476 801.637 134.535 817.901C140.066 861.577 145.062 905.972 152.042 949.436C148.262 944.058 143.471 938.225 139.355 932.995C126.65 917.086 114.921 900.586 102.286 884.748C102.223 846.153 106.805 801.177 129.308 768.629Z" fill="#0F766E"></path>
  <path d="M193.029 740.804C196.054 740.548 201.265 740.617 204.468 740.551C203.478 745.477 203.093 750.531 202.466 755.511C198.598 786.22 196.207 817.096 192.329 847.802C186.533 840.421 178.501 828.136 172.981 820.181C161.725 803.145 145.445 780.39 133.067 764.194C150.73 746.574 169.125 743.278 193.029 740.804Z" fill="#0F766E"></path>
  <path d="M263.182 878.193L264.062 879.505C262.38 902.527 248.039 936.628 238.493 958.261L168.069 958.242L167.223 957.251C167.968 952.227 172.991 937.292 174.726 931.731C202.651 915.46 236.619 895.76 263.182 878.193Z" fill="#0F766E"></path>
  <path d="M270.565 868.064C274.712 871.265 318.393 938.695 323.123 946.204L319.492 958.07L298.385 958.128L243.943 958.119C258.099 929.688 266.544 899.463 270.565 868.064Z" fill="#0F766E"></path>
  <path d="M209.267 741.783C228.086 745.687 240.46 755.487 253.255 769.095L221.455 801.218C214.232 808.782 206.697 816.439 199.999 824.445C203.536 797.624 206.205 768.871 209.267 741.783Z" fill="#0F766E"></path>
  <path d="M102.285 894.683C106.107 897.144 145.977 950.141 152.525 958.184L112.381 958.196C106.014 941.691 102.632 912.254 102.285 894.683Z" fill="#0F766E"></path>
  <path d="M1226.49 374.282L1241.47 374.18L1241.37 668.773C1266.67 667.646 1285.76 669.291 1309.64 669.22C1312.48 672.314 1316 676.389 1319.04 679.14C1323.7 681.504 1325.43 681.886 1330.57 683.153C1336.98 680.93 1336.79 680.779 1342.15 677.27C1342.47 679.391 1343.59 686.697 1343.32 688.397C1340.19 707.629 1319.77 731.126 1318.16 750.052C1316.86 765.254 1327.42 784.601 1329.18 802.206C1327.02 803.085 1325.27 803.932 1322.96 804.317C1325.78 804.604 1330.41 805.459 1332.76 804.359L1333.63 802.932C1337.9 803.833 1359.34 816.09 1361.03 819.526C1354.41 828.847 1353 832.844 1340.35 831.449C1336.85 832.044 1336.36 832.06 1332.85 831.526L1332.05 832.105C1322.72 831.255 1300.35 824.019 1291.31 820.234C1283.44 824.634 1269.2 822.93 1259.89 822.544C1241.62 822.002 1223.02 822.89 1204.78 822.193C1190.5 821.648 1175.31 818.72 1161 818.601C1152.89 817.605 1143.47 817.053 1135.08 816.171C1129.68 809.852 1123.56 800.106 1118.82 792.984C1049.47 787.388 1005.98 796.367 945.175 829.577C909.721 848.942 863.097 857.951 823.198 856.794C817.709 856.659 794.921 857.662 791.076 855.841C813.74 829.974 842.289 807.332 875.018 795.93C888.321 791.295 909.266 785.189 920.842 777.7C950.63 758.428 969.168 736.624 1003.17 722.381C1003.19 711.937 1003.18 702.144 1002.72 691.686C1015.6 691.266 1034.91 688.666 1048.22 687.232C1048.12 692.948 1047.39 707.634 1049.28 712.576L1050.16 712.535L1048.86 711.804L1050.52 712.137C1054.44 706.437 1051.16 671.115 1052.6 660.025L1054.97 658.252C1053.72 657.321 1053.34 656.753 1052.39 655.577C1052.08 649.175 1051.51 637.107 1052.66 631.174C1053.98 630.357 1054.18 630.44 1054.79 629.074L1052.62 627.453C1051.92 623.39 1052.24 608.264 1052.25 603.341L1061.41 606.478C1060.93 639.424 1061.52 673.089 1061.56 706.13C1066.3 704.282 1072.52 702.809 1077.87 700.819L1077.94 638.644C1105.29 633.704 1133.39 629.114 1160.6 623.753C1160.52 641.217 1160.15 660.723 1160.74 678.272C1160.77 679.052 1161.32 679.09 1162.36 679.814L1164.67 679.153C1167.11 675.694 1165.17 515.319 1165.12 496.559C1168.69 495.407 1174.54 494.35 1178.37 493.538L1178.26 622.593C1178.25 630.861 1177.46 670.583 1178.94 675.423C1181.64 675.85 1182.14 675.667 1184.83 675.036C1186.68 671.523 1185.33 480.83 1184.87 462.92C1196.53 462.513 1209.07 462.628 1220.81 462.552L1220.7 592.523C1220.7 606.26 1219.16 662.079 1222.61 670.627L1224.94 670.769L1223.66 671.728C1228.35 667.789 1226.51 646.876 1226.52 639.715L1226.65 578.575L1226.49 374.282Z" fill="#0F766E"></path>
  <path d="M1118.82 792.984C1110.83 780.52 1102.35 768.41 1094.17 756.08C1091.54 752.122 1088.68 749.336 1091.73 745.3C1097.14 743.37 1165.82 751.048 1174.04 752.324C1179.61 759.012 1184.57 769.146 1189.13 777.006C1191.12 780.679 1193.74 785.216 1195.49 788.91C1226.84 780.821 1239.25 788.659 1269.41 794.875C1288.5 798.81 1310.13 798.617 1329.18 802.206C1327.02 803.085 1325.27 803.932 1322.96 804.317C1325.78 804.604 1330.41 805.459 1332.76 804.359L1333.63 802.932C1337.9 803.833 1359.34 816.09 1361.03 819.526C1354.41 828.847 1353 832.844 1340.35 831.449C1336.85 832.044 1336.36 832.06 1332.85 831.526L1332.05 832.105C1322.72 831.255 1300.35 824.019 1291.31 820.234C1283.44 824.634 1269.2 822.93 1259.89 822.544C1241.62 822.002 1223.02 822.89 1204.78 822.193C1190.5 821.648 1175.31 818.72 1161 818.601C1152.89 817.605 1143.47 817.053 1135.08 816.171C1129.68 809.852 1123.56 800.106 1118.82 792.984Z" fill="#1E40AF"></path>
  <path d="M1201.21 793.394L1199.76 792.382C1203.66 788.672 1216.39 788.182 1221.95 788.198C1236.96 788.238 1248.42 794.539 1263.41 797.076C1282.89 800.373 1303.28 802.811 1322.96 804.317C1325.78 804.604 1330.41 805.459 1332.76 804.359L1333.63 802.932C1337.9 803.833 1359.34 816.09 1361.03 819.526C1354.41 828.847 1353 832.844 1340.35 831.449C1336.85 832.044 1336.36 832.06 1332.85 831.526L1332.05 832.105C1322.72 831.255 1300.35 824.019 1291.31 820.234L1290.89 817.125C1289.08 808.241 1269.8 809.634 1262.09 808.977L1259.29 811.766C1250.65 807.709 1239.83 804.555 1230.88 800.813C1221.45 796.874 1210.76 797.212 1200.66 796.36L1200.01 794.599L1201.21 793.394Z" fill="url(#paint0_linear_74_1099)"></path>
  <path d="M1201.21 793.394C1236.13 793.653 1232.9 801.551 1262.09 808.977L1259.29 811.766C1250.65 807.709 1239.83 804.555 1230.88 800.813C1221.45 796.874 1210.76 797.212 1200.66 796.36L1200.01 794.599L1201.21 793.394Z" fill="#1E40AF"></path>
  <path d="M1290.89 817.125C1309.03 823.545 1321.42 827.321 1340.35 831.449C1336.85 832.044 1336.36 832.06 1332.85 831.526L1332.05 832.105C1322.72 831.255 1300.35 824.019 1291.31 820.234L1290.89 817.125Z" fill="#1E40AF"></path>
  <path d="M1200.66 796.36C1210.76 797.212 1221.45 796.874 1230.88 800.813C1239.83 804.555 1250.65 807.709 1259.29 811.766C1252.41 813.13 1218.32 811.943 1209.22 811.709C1206.68 807.727 1201.69 800.609 1200.66 796.36Z" fill="#3B82F6"></path>
  <path d="M1137.59 783.002C1143.09 782.839 1150.21 783.945 1155.8 784.626C1159.47 789.631 1162.53 794.015 1165.91 799.225C1158.52 798.734 1150.56 797.582 1142.79 797.037C1141.52 792.655 1139.28 787.334 1137.59 783.002Z" fill="#F472B6"></path>
  <path d="M1330.57 683.153C1336.98 680.93 1336.79 680.779 1342.15 677.27C1342.47 679.391 1343.59 686.697 1343.32 688.397C1340.19 707.629 1319.77 731.126 1318.16 750.052C1316.86 765.254 1327.42 784.601 1329.18 802.206C1310.13 798.617 1288.5 798.81 1269.41 794.875C1239.25 788.659 1226.84 780.821 1195.49 788.91C1193.74 785.216 1191.12 780.679 1189.13 777.006C1191.07 775.923 1198.39 775.132 1200.47 775.064C1241.23 773.733 1261.49 763.631 1279.25 725.795C1285.72 712.009 1304.6 687.439 1319.04 679.14C1323.7 681.504 1325.43 681.886 1330.57 683.153Z" fill="#3B82F6"></path>
  <path d="M1178.36 176.504C1176.94 174.811 1175.93 174.054 1175.78 171.996L1177.09 171.192C1183.05 172.748 1183.67 174.719 1188.62 176.95C1249.16 176.897 1309.41 211.422 1357.24 245.541C1344.88 246.434 1336.18 248.003 1324.12 251.144C1312.61 246.284 1271.74 257.026 1259.87 260.473L1256.25 263.764C1221.28 284.141 1190.03 311.659 1152.97 327.656C1145.67 330.809 1133.11 330.02 1126.56 326.145C1105.86 313.894 1083.27 328.533 1064.67 338.509C1051.65 345.491 1037.06 356.033 1025.28 365.134C1014 373.482 982.256 403.116 971.394 405.134C941.518 410.682 922.706 388.893 887.223 401.551C871.62 407.117 830.111 440.062 821.563 441.425C884.143 325.196 982.276 218.176 1115.05 185.417C1135.47 180.378 1157.14 175.413 1178.36 176.504Z" fill="#85B3FF"></path>
  <path d="M1256.25 263.764C1253.17 259.697 1244.48 248.034 1244.45 243.202C1248.34 243.896 1257.18 256.852 1259.87 260.473L1256.25 263.764Z" fill="#F472B6"></path>
  <path d="M1178.36 176.504C1176.94 174.811 1175.93 174.054 1175.78 171.996L1177.09 171.192C1183.05 172.748 1183.67 174.719 1188.62 176.95C1190.58 179.986 1190.46 178.921 1190.5 181.872L1188.73 182.349C1184.65 181.331 1181.77 178.934 1178.36 176.504Z" fill="#F472B6"></path>
  <path d="M1222.95 215.966C1229.32 215.66 1238.28 226.988 1237.33 233.1C1233.66 231.663 1224.04 219.898 1222.95 215.966Z" fill="#F472B6"></path>
  <path d="M1122.54 306.043C1127.11 305.92 1137.86 305.591 1140.52 309.637L1139.59 312.1C1134.87 311.53 1123.95 311.057 1121.14 307.797L1122.54 306.043Z" fill="#F472B6"></path>
  <path d="M1060.95 298.911C1066.2 298.542 1079.51 297.413 1080.4 303.641C1076.13 303.642 1065.92 304.109 1062.02 302.175C1061.01 301.673 1061.17 300.369 1060.95 298.911Z" fill="#F472B6"></path>
  <path d="M1091.14 301.493C1096.75 301.051 1107.72 301.025 1110.61 306.655C1106 306.682 1096.3 307.217 1092.23 304.87C1091.17 304.26 1091.37 303.079 1091.14 301.493Z" fill="#F472B6"></path>
  <path d="M999.83 296.342C1004.39 296.031 1014.75 294.797 1018.93 296.805C1020.07 297.352 1019.94 298.671 1020.26 300.301C1015.08 300.291 1005.67 300.632 1000.95 298.847C1000.32 298.61 1000.12 297.239 999.83 296.342Z" fill="#F472B6"></path>
  <path d="M942.138 298.046C946.537 297.773 955.808 296.909 959.297 298.793L958.883 300.159L956.255 301.325C951.699 301.606 942.459 302.457 938.729 300.636L938.922 299.234L942.138 298.046Z" fill="#F472B6"></path>
  <path d="M979.973 296.384C983.65 296.155 987.578 295.142 989.672 298.566C987.101 300.533 986.923 299.922 983.093 300.217C978.586 300.299 974.71 301.065 970.77 299.146L970.538 298.047C973.341 296.211 976.559 296.495 979.973 296.384Z" fill="#F472B6"></path>
  <path d="M1152.28 311.186C1158.64 311.062 1164.78 312.582 1170.61 315.076L1171.35 317.034C1165.86 318.095 1154.37 317.46 1152.28 311.186Z" fill="#F472B6"></path>
  <path d="M1201.51 192.596C1205.57 192.666 1215.81 201.525 1216.13 205.754C1210.62 205.243 1201.55 198.37 1201.51 192.596Z" fill="#F472B6"></path>
  <path d="M1031.02 297.202C1035.31 296.753 1046.28 296.291 1049.64 298.704L1049.87 300.469C1044.81 300.616 1034.2 301.575 1030.36 299.02L1031.02 297.202Z" fill="#F472B6"></path>
  <path d="M1302.02 643.967C1295.09 639.998 1291.86 629.059 1292.83 621.535C1293.64 615.233 1295.61 610.056 1300.53 605.91C1304.95 602.186 1308.2 603.306 1313.31 601.724C1327.8 595.894 1328.16 593.027 1344.2 594.995C1345.64 595.604 1347.58 596.519 1349.05 596.786L1353.21 598.651C1356.15 602.486 1358.11 605.956 1360.54 610.098C1369.15 609.594 1372.52 607.637 1376.54 616.82C1380.36 625.514 1390.6 621.941 1395.74 634.201L1397.15 637.258C1402.32 654.938 1392.32 672.209 1372.95 670.995C1374.92 673.27 1380.71 679.438 1380.89 682.078C1391.31 688.111 1394.32 690.039 1399.32 701.333C1401.14 706.342 1410.87 738.321 1409.64 741.081C1415.74 746.949 1421.36 752.013 1427.76 757.562C1428.01 760.183 1428.35 765.113 1428.87 767.482C1431.8 801.209 1431.94 829.201 1430.62 863.179L1427.2 864.107L1427.08 881.216L1425.77 882.916C1424.44 880.878 1424.79 875.518 1423.93 871.471L1423.74 870.598L1423.45 889.763C1392.7 889.472 1366.83 877.902 1340.6 863.322C1338.61 853.719 1336.96 843.408 1335.26 833.7C1351.77 836.938 1354.19 835.203 1363.41 821.266L1361.03 819.526C1359.34 816.09 1337.9 803.833 1333.63 802.932L1332.76 804.359C1330.41 805.459 1325.78 804.604 1322.96 804.317C1325.27 803.932 1327.02 803.085 1329.18 802.206C1327.42 784.601 1316.86 765.254 1318.16 750.052C1319.77 731.126 1340.19 707.629 1343.32 688.397C1343.59 686.697 1342.47 679.391 1342.15 677.27C1336.79 680.779 1336.98 680.93 1330.57 683.153C1325.43 681.886 1323.7 681.504 1319.04 679.14C1316 676.389 1312.48 672.314 1309.64 669.22C1304.4 659.567 1303.97 654.657 1302.02 643.967Z" fill="#F472B6"></path>
  <path d="M1302.02 643.967C1295.09 639.998 1291.86 629.059 1292.83 621.535C1293.64 615.233 1295.61 610.056 1300.53 605.91C1304.95 602.186 1308.2 603.306 1313.31 601.724C1327.8 595.894 1328.16 593.027 1344.2 594.995C1345.64 595.604 1347.58 596.519 1349.05 596.786L1353.21 598.651C1356.15 602.486 1358.11 605.956 1360.54 610.098C1369.15 609.594 1372.52 607.637 1376.54 616.82C1380.36 625.514 1390.6 621.941 1395.74 634.201L1397.15 637.258C1402.32 654.938 1392.32 672.209 1372.95 670.995C1374.92 673.27 1380.71 679.438 1380.89 682.078C1391.31 688.111 1394.32 690.039 1399.32 701.333L1397.61 705.106C1392.96 691.41 1385.28 686.848 1372.44 682.528C1372.37 685.913 1372.82 689.79 1371.05 692.391L1369.8 692.295C1369.17 692.8 1363.11 697.813 1362.96 697.894C1359.67 700.435 1347.27 714.626 1345.11 718.197L1341.42 712.408L1340.51 712.859L1339.44 710.209C1336.32 711.838 1329.58 728.561 1327.12 732.765C1315.3 753.013 1325.76 772.447 1330.82 792.749C1336.07 768.724 1340.05 743.897 1352.3 722.097C1355.88 715.732 1366.61 706.358 1374.34 710.118L1374.46 711.725C1370.38 714.276 1366.3 712.619 1362.2 715.519C1357.5 718.834 1355.26 722.76 1352.83 727.824C1342.45 749.501 1336.77 774.266 1333.07 797.878C1344.93 805.189 1355.38 811.245 1367.32 818.17C1366.57 820.338 1366.03 819.986 1363.41 821.266L1361.03 819.526C1359.34 816.09 1337.9 803.833 1333.63 802.932L1332.76 804.359C1330.41 805.459 1325.78 804.604 1322.96 804.317C1325.27 803.932 1327.02 803.085 1329.18 802.206C1327.42 784.601 1316.86 765.254 1318.16 750.052C1319.77 731.126 1340.19 707.629 1343.32 688.397C1343.59 686.697 1342.47 679.391 1342.15 677.27C1336.79 680.779 1336.98 680.93 1330.57 683.153C1325.43 681.886 1323.7 681.504 1319.04 679.14C1316 676.389 1312.48 672.314 1309.64 669.22C1304.4 659.567 1303.97 654.657 1302.02 643.967Z" fill="#1E40AF"></path>
  <path d="M1344.8 675.978C1347.2 672.478 1349.74 669.145 1351.2 665.165C1349.96 665.613 1345.96 669.051 1344.84 670.201C1319.34 696.576 1302.58 656.347 1307.22 634.153C1308.85 626.315 1309.86 623.448 1316 616.843C1323.23 627.738 1333.51 631.13 1342.8 639.868C1348.04 644.798 1346.81 635.496 1354.4 634.551C1356.57 635.645 1357.01 635.832 1358.05 638.212C1361.63 646.421 1359.07 648.628 1352.27 652.113C1360.32 662.95 1368.42 678.743 1369.8 692.295C1369.17 692.8 1363.11 697.813 1362.96 697.894C1359.67 700.435 1347.27 714.626 1345.11 718.197L1341.42 712.408C1341.3 711.762 1341.21 711.229 1341.13 710.571L1341.04 709.776C1340.37 704.529 1345.83 694.446 1346.25 688.331C1346.46 685.232 1345.34 679.185 1344.8 675.978Z" fill="#FAAFB3"></path>
  <path d="M1327.02 647.572L1331.63 648.178C1334.48 650.308 1334.74 649.839 1335.96 652.729C1334.62 655.131 1335.37 654.548 1333.16 655.695C1332.22 653.715 1332.07 653.391 1330.7 651.69L1329.4 652.686C1329.82 655.504 1330.68 658.898 1329.38 661.224C1325.98 658.074 1326.77 651.787 1327.02 647.572Z" fill="#F472B6"></path>
  <path d="M1327.72 637.085C1327.97 637.156 1328.47 637.901 1328.69 638.173L1327.78 640.903C1324.81 642.442 1324.15 641.777 1320.27 641.573L1320.19 639.591C1325.57 639.283 1324.42 640.173 1327.72 637.085Z" fill="#12072D"></path>
  <path d="M1380.89 682.078C1375.72 680.741 1367.77 678.858 1367.48 672.338C1369.7 670.556 1369.69 671.105 1372.95 670.995C1374.92 673.27 1380.71 679.438 1380.89 682.078Z" fill="#E0EDEE"></path>
  <path d="M1409.64 741.081C1415.74 746.949 1421.36 752.013 1427.76 757.562C1428.01 760.183 1428.35 765.113 1428.87 767.482C1431.8 801.209 1431.94 829.201 1430.62 863.179L1427.2 864.107C1425.08 830.289 1420.43 796.201 1413.57 763.005C1412.1 755.862 1410.37 748.303 1409.64 741.081Z" fill="#FFFAF9"></path>
  <path d="M1399.32 701.333C1401.14 706.342 1410.87 738.321 1409.64 741.081C1410.37 748.303 1412.1 755.862 1413.57 763.005C1420.43 796.201 1425.08 830.289 1427.2 864.107L1427.08 881.216L1425.77 882.916C1424.44 880.878 1424.79 875.518 1423.93 871.471L1423.74 870.598C1422.67 826.896 1410.05 746.879 1397.61 705.106L1399.32 701.333Z" fill="#1E40AF"></path>
  <path d="M1362.96 697.894C1361.06 703.888 1352.35 715.896 1347.18 719.412L1345.71 719.169L1345.11 718.197C1347.27 714.626 1359.67 700.435 1362.96 697.894Z" fill="#12072D"></path>
  <path d="M1260.06 450.328C1317.25 456.569 1359.37 472.822 1395.8 519.139C1418.66 548.207 1444.78 598.636 1437.67 636.701C1436.05 641.469 1434.01 650.964 1433.77 656.025C1434.17 665.415 1432.75 675.735 1433.45 684.403C1435.04 704.05 1438.2 723.869 1440.29 743.501C1444.66 784.428 1447.24 822.731 1447.21 863.919C1443.97 863.974 1436.18 863.904 1433.32 864.299L1430.62 863.179C1431.94 829.201 1431.8 801.209 1428.87 767.482C1428.35 765.113 1428.01 760.183 1427.76 757.562C1421.36 752.013 1415.74 746.949 1409.64 741.081C1410.87 738.321 1401.14 706.342 1399.32 701.333C1394.32 690.039 1391.31 688.111 1380.89 682.078C1380.71 679.438 1374.92 673.27 1372.95 670.995C1392.32 672.209 1402.32 654.938 1397.15 637.258L1395.74 634.201C1390.6 621.941 1380.36 625.514 1376.54 616.82C1372.52 607.637 1369.15 609.594 1360.54 610.098C1358.11 605.956 1356.15 602.486 1353.21 598.651L1349.05 596.786C1347.58 596.519 1345.64 595.604 1344.2 594.995C1333.33 582.824 1325.5 574.022 1317.42 559.647L1315.5 556.761L1307.7 545.359C1319.84 539.387 1332.63 533.345 1344.63 527.187C1326.18 525.502 1311.14 523.94 1293.57 517.538C1284.18 506.695 1265.69 464.9 1260.06 450.328Z" fill="#1E40AF"></path>
  <path d="M1396.13 583.923C1379.78 553.011 1354.04 516.349 1325.3 495.629C1320.45 492.133 1301.89 482.853 1301.63 480.281C1321.66 482.167 1351.2 513.296 1363.54 527.87C1405.39 577.273 1416.27 618.188 1430.23 678.558C1431.17 670.699 1432.35 663.822 1433.77 656.025C1434.17 665.415 1432.75 675.735 1433.45 684.403C1435.04 704.05 1438.2 723.869 1440.29 743.501C1444.66 784.428 1447.24 822.731 1447.21 863.919C1443.97 863.974 1436.18 863.904 1433.32 864.299L1430.62 863.179C1431.94 829.201 1431.8 801.209 1428.87 767.482C1428.35 765.113 1428.01 760.183 1427.76 757.562C1421.36 752.013 1415.74 746.949 1409.64 741.081C1410.87 738.321 1401.14 706.342 1399.32 701.333C1394.32 690.039 1391.31 688.111 1380.89 682.078C1380.71 679.438 1374.92 673.27 1372.95 670.995C1392.32 672.209 1402.32 654.938 1397.15 637.258L1395.74 634.201C1390.6 621.941 1380.36 625.514 1376.54 616.82C1372.52 607.637 1369.15 609.594 1360.54 610.098C1358.11 605.956 1356.15 602.486 1353.21 598.651L1349.05 596.786C1352.83 594.864 1366.17 593.284 1371.29 592.118C1381.05 589.896 1386.98 588.007 1396.13 583.923Z" fill="#E0EDEE"></path>
  <path d="M1397.15 637.258C1402.62 636.107 1409.43 634.849 1414.74 633.456C1416.81 640.526 1422.25 668.136 1424.12 671.782L1425.02 678.454C1423.13 680.406 1399.42 681.36 1393.1 683.065L1393.44 683.796C1401.35 684.84 1408.05 684.57 1415.96 683.768C1418.98 683.461 1424.1 682.089 1426.5 683.254C1427.74 694.044 1437.59 758.282 1435.6 763.909C1434.1 762.943 1432.11 761.541 1430.51 760.882L1429.42 760.858C1429.25 763.069 1429.09 765.277 1428.87 767.482C1428.35 765.113 1428.01 760.183 1427.76 757.562C1421.36 752.013 1415.74 746.949 1409.64 741.081C1410.87 738.321 1401.14 706.342 1399.32 701.333C1394.32 690.039 1391.31 688.111 1380.89 682.078C1380.71 679.438 1374.92 673.27 1372.95 670.995C1392.32 672.209 1402.32 654.938 1397.15 637.258Z" fill="#1E40AF"></path>
  <path d="M1353.21 598.651C1371.61 596.64 1380.47 594.007 1397.78 587.38C1405.14 603.369 1408.84 613.751 1414.06 630.25L1395.74 634.201C1390.6 621.941 1380.36 625.514 1376.54 616.82C1372.52 607.637 1369.15 609.594 1360.54 610.098C1358.11 605.956 1356.15 602.486 1353.21 598.651Z" fill="#1E40AF"></path>
  <path d="M1428.87 767.482C1429.09 765.277 1429.25 763.069 1429.42 760.858L1430.51 760.882C1435.28 784.574 1434.85 839.374 1433.32 864.299L1430.62 863.179C1431.94 829.201 1431.8 801.209 1428.87 767.482Z" fill="#1E40AF"></path>
  <path d="M1315.5 556.761C1322.79 554.792 1351.26 545.262 1354.55 544.769L1355.24 545.705C1352.56 550.838 1324.39 558.008 1317.42 559.647L1315.5 556.761Z" fill="#E0EDEE"></path>
  <path d="M733.068 609.228C731.273 605.546 726.619 602.665 725.07 598.136C726.249 595.845 725.485 596.538 727.78 595.553C730.788 596.786 733.31 600.79 735.422 603.544C738.577 606.816 738.713 605.952 739.379 609.752L738.54 611.236C735.859 611.425 735.761 611.395 733.068 609.228Z" fill="#F472B6"></path>
  <path d="M971.342 440.228C999.449 439.225 1025.19 452.596 1027.74 484.432C1030.57 519.758 1002.37 521.244 983.462 542.689C982.609 543.932 981.742 544.919 980.775 546.063L979.511 545.831C977.006 542.117 971.066 534.211 967.464 532.211C937.884 515.781 919.072 497.647 937.394 462.053C943.633 449.932 957.619 443.503 971.342 440.228Z" fill="#0F766E"></path>
  <path d="M976.887 465.205C988.422 463.95 998.846 472.144 1000.35 483.652C1001.86 495.159 993.897 505.762 982.428 507.52C974.782 508.692 967.102 505.634 962.353 499.527C957.604 493.421 956.531 485.222 959.548 478.099C962.564 470.975 969.198 466.042 976.887 465.205Z" fill="#E0EDEE"></path>
  <path d="M1324.74 352.001C1329.5 343.034 1334.44 336.851 1343.07 331.592C1370 315.169 1405.13 329.83 1412.89 360.288C1416.08 372.806 1414.38 383.431 1408.43 394.938C1403.91 402.945 1392.08 410.773 1385.47 417.076C1379.69 422.58 1374.2 428.882 1368.86 434.892C1362.71 428.275 1357.09 421.289 1351.08 414.63C1348.23 411.483 1340.86 408.974 1337.42 406.174C1322.07 394.294 1317.18 371.596 1323.95 353.808L1324.74 352.001Z" fill="#0F766E"></path>
  <path d="M1365.26 350.923C1376.54 349.498 1386.86 357.442 1388.37 368.715C1389.88 379.987 1382.01 390.367 1370.75 391.961C1359.38 393.572 1348.86 385.603 1347.34 374.21C1345.81 362.817 1353.86 352.363 1365.26 350.923Z" fill="#E0EDEE"></path>
  <path d="M833.917 520.127C861.005 518.134 886.059 532.605 888.322 562.805C890.913 597.384 863.915 599.053 846.134 619.271C844.156 621.92 844.287 622.668 841.53 623.654C836.787 621.667 833.493 613.579 829.929 610.948C824.921 607.505 819.358 604.045 814.023 601.083C792.973 589.398 786.807 562.014 800.107 542.032C808.88 528.851 818.683 523.473 833.917 520.127Z" fill="#F472B6"></path>
  <path d="M835.63 545.089C846.799 542.239 858.152 549.027 860.932 560.215C863.713 571.403 856.858 582.718 845.656 585.43C834.55 588.12 823.356 581.335 820.6 570.243C817.843 559.151 824.558 547.914 835.63 545.089Z" fill="#E0EDEE"></path>
  <path d="M1137.53 411.754L1139.63 411.794C1142.29 416.064 1137.97 464.35 1141.24 471.487L1142.35 471.077C1143.7 467.483 1143.14 448.955 1143.12 443.937C1147.18 443.482 1152.57 442.322 1156.69 441.559C1156.5 447.382 1155.4 461.4 1157.75 466.322C1161.34 467.935 1160.8 465.393 1164.03 468.079C1165.72 472.117 1164.96 488.318 1164.87 493.764C1157.74 494.938 1150.17 496.499 1143.03 497.832C1127.68 500.471 1109.07 504.439 1094.04 508.231C1094.25 499.142 1094.07 489.506 1094.06 480.374C1099.29 479.844 1106.75 478.372 1112.1 477.462C1112.25 468.661 1111.88 459.345 1111.66 450.506C1115.55 449.688 1119.58 448.658 1123.46 447.733C1123.21 436.969 1123.17 426.112 1123.05 415.339C1127.34 414.013 1133.07 412.82 1137.53 411.754Z" fill="#0F766E"></path>
  <path d="M1157.95 579.876L1159.66 579.779C1161.43 582.406 1160.58 614.472 1160.53 620.055C1135.66 625.476 1106.25 629.907 1080.83 634.368L1078.67 634.069C1077.48 629.987 1078.05 601.23 1078.08 595.088C1103.41 591.045 1132.54 584.737 1157.95 579.876Z" fill="#0F766E"></path>
  <path d="M1159.18 536.264L1159.47 536.309C1161.44 538.434 1160.63 570.053 1160.61 575.506C1134.85 581.203 1106.08 586.129 1079.95 591.196L1079.08 590.838C1077.3 588.415 1078.47 557.386 1078.55 552.517C1105.48 547.138 1132.34 542.085 1159.18 536.264Z" fill="#0F766E"></path>
  <path d="M1159.74 498.115C1161.32 500.521 1160.59 527.853 1160.57 532.594C1134.28 537.341 1106.08 543.239 1079.93 548.839C1077.85 545.85 1078.75 519.518 1078.78 514.044C1104.91 508.402 1133.32 503.422 1159.74 498.115Z" fill="#0F766E"></path>
  <path d="M1184.73 415.158C1196.61 415.28 1208.92 415.042 1220.84 414.955L1220.73 458.242C1208.71 458.201 1196.92 458.332 1184.89 458.556C1185.19 444.45 1184.83 429.339 1184.73 415.158Z" fill="#0F766E"></path>
  <path d="M1184.86 374.108C1196.79 374.389 1208.96 374.221 1220.91 374.183C1220.7 386.341 1220.79 398.485 1220.85 410.645C1212.24 411.381 1194.12 410.94 1184.64 411.041C1184.91 398.56 1184.97 386.591 1184.86 374.108Z" fill="#0F766E"></path>
  <path d="M1036.11 660C1039.21 659.539 1044.85 659.566 1048.16 659.483V683.422C1038.18 684.806 1026.01 685.771 1015.84 686.81L1003.05 688.35C1003.14 679.725 1002.99 670.988 1002.92 662.353C1014.09 661.688 1024.95 661.018 1036.11 660Z" fill="#0F766E"></path>
  <path d="M1038.2 631.465L1048.23 630.659L1048.17 654.894C1037.67 656.423 1024.31 657.076 1013.54 657.885L1002.97 658.86C1003.07 650.614 1002.78 642.305 1002.55 634.058C1013.9 633.889 1026.79 632.464 1038.2 631.465Z" fill="#0F766E"></path>
  <path d="M1042.02 603.919C1044.3 603.471 1044.47 603.514 1046.8 603.8C1049.86 607.234 1048.43 620.918 1048.39 626.479L1009.74 629.875C1007.25 630.217 1006.79 630.302 1004.33 629.849C1001.11 626.327 1002.48 613.129 1002.45 607.361L1042.02 603.919Z" fill="#0F766E"></path>
  <path d="M1034.42 581.066C1037.49 582.693 1055.12 597.857 1058.76 600.919C1049.83 598.056 1045.43 599.231 1036.02 600.089L1009.4 603C1017.63 595.62 1025.88 588.068 1034.42 581.066Z" fill="#0F766E"></path>
  <path d="M1203.83 362.072L1204.76 362.011C1213.95 364.806 1223.96 359.262 1231.6 365.386L1231.75 366.882C1227.79 369.962 1196.17 369.643 1193.27 366.944L1194.34 364.747C1196.99 362.382 1200.23 362.466 1203.83 362.072Z" fill="#0F766E"></path>
  <path d="M1203.83 362.072C1202.59 357.201 1201.76 311.477 1203.33 308.089C1206.29 309.916 1205.37 355.807 1204.76 362.011L1203.83 362.072Z" fill="#215998"></path>
  <path d="M1432.79 358.075C1435.15 359.21 1434.43 358.515 1435.92 360.604C1433.96 364.788 1425.47 367.168 1420.74 369.049C1418.2 368.114 1419.04 368.784 1417.57 366.526C1419.68 362.232 1427.93 359.976 1432.79 358.075Z" fill="#F472B6"></path>
  <path d="M1263.62 338.494C1267.96 338.814 1280.13 341.015 1283.29 344.004C1283.83 344.517 1283.61 346.167 1283.62 347.193C1280.38 347.361 1268.01 344.988 1265.11 342.896C1263.39 341.658 1263.82 340.734 1263.62 338.494Z" fill="#F472B6"></path>
  <path d="M1234.95 331.364C1239.09 331.183 1250.19 333.476 1253.67 335.933C1254.95 336.836 1254.61 337.717 1254.85 339.713C1250.44 339.747 1239.03 337.768 1235.65 334.858C1235.02 334.317 1235.08 332.484 1234.95 331.364Z" fill="#F472B6"></path>
  <path d="M843.359 690.289C847.632 690.671 856.316 694.79 859.527 697.787C861.192 699.34 860.671 699.766 860.572 702.205C856.612 702.181 848.659 698.329 845.549 695.729C842.959 693.563 843.571 693.614 843.359 690.289Z" fill="#F472B6"></path>
  <path d="M747.176 618.17C750.203 619.451 758.755 627.733 760.234 630.921C761.006 632.584 760.219 633.193 759.387 634.883C755.92 633.687 748.473 626.557 746.746 623.172C745.59 620.906 746.207 620.907 747.176 618.17Z" fill="#F472B6"></path>
  <path d="M817.578 675.011C821.683 675.598 829.3 680.355 832.74 683.004C834.638 684.466 834.188 684.957 834.346 687.399C829.559 687.5 821.563 683.227 818.287 679.711C816.907 678.23 817.454 676.914 817.578 675.011Z" fill="#F472B6"></path>
  <path d="M1312.43 350.311C1312.27 351.284 1311.96 351.64 1311.49 352.571C1306.88 354.612 1295.99 351.824 1293.61 346.927C1296.63 345.32 1306.9 347.845 1310.5 348.732L1312.43 350.311Z" fill="#F472B6"></path>
  <path d="M1201.03 370.223C1206.61 369.474 1233.89 370.588 1238.71 371.918C1236.14 372.573 1232.44 372.468 1229.7 372.525C1224.46 372.473 1195.81 373.347 1193.64 370.845C1196.24 370.493 1198.43 370.368 1201.03 370.223Z" fill="#FFFAF9"></path>
  <path d="M792.35 657.268C796.011 658.271 805.136 664.16 807.116 667.467C807.715 668.467 806.465 670.073 805.925 671.134C803.133 670.01 792.787 664.044 791.66 661.065C791.114 659.622 791.739 659.001 792.35 657.268Z" fill="#F472B6"></path>
  <path d="M871.978 703.658C875.971 705.025 885.707 707.774 888.2 711.155C888.965 712.193 888.418 713.362 888.158 714.911C883.883 713.543 874.402 711.105 871.7 707.533C870.84 706.396 871.519 705.445 871.978 703.658Z" fill="#F472B6"></path>
  <path d="M769.111 639.46C773.578 640.129 779.618 645.76 782.127 649.481C783.213 651.093 782.325 652.132 781.709 653.788C778.774 652.617 769.99 646.385 768.638 643.321C767.96 641.785 768.514 641.41 769.111 639.46Z" fill="#F472B6"></path>
  <path d="M898.351 715.354C902.095 715.506 912.894 718.344 915.708 721.09C916.763 722.12 916.407 722.874 916.473 724.684C912.641 724.533 902.599 721.491 899.5 718.969C898.202 717.913 898.574 717.393 898.351 715.354Z" fill="#F472B6"></path>
  <path d="M1262.34 269.666C1267.72 271.228 1273.66 280.374 1272.04 285.898C1266.99 283.981 1260.89 275.336 1262.34 269.666Z" fill="#F472B6"></path>
  <path d="M1180.5 316.479C1184.42 316.941 1194.43 318.991 1197.26 321.523C1197.8 322.014 1197.62 323.488 1197.65 324.492C1193.35 324.608 1183.19 322.742 1180.32 319.534L1180.5 316.479Z" fill="#F472B6"></path>
  <path d="M1208.73 323.504C1213.22 324.479 1219.26 325.562 1223.36 327.482C1225.63 328.545 1225.24 329.132 1225.93 331.71C1222.06 331.633 1212.46 330.418 1209.54 327.762C1208.42 326.738 1208.81 325.478 1208.73 323.504Z" fill="#F472B6"></path>
  <path d="M1291.59 317.742C1295.97 319.26 1301.44 329.124 1301.05 334.031C1295.34 332.499 1289.28 323.587 1291.59 317.742Z" fill="#F472B6"></path>
  <path d="M928.003 724.62C933.75 725.77 943.709 726.095 943.386 732.939C938.907 732.019 929.19 731.122 927.053 727.15L928.003 724.62Z" fill="#F472B6"></path>
  <path d="M1277.42 293.762C1281.73 295.429 1287.08 305.3 1285.86 310.297C1280.53 308.074 1275.61 299.276 1277.42 293.762Z" fill="#F472B6"></path>
  <path d="M1310.5 348.732C1309.73 347.105 1309.45 346.559 1308.43 345.079L1309.03 343.084C1311.69 342.644 1320.67 350.155 1324.74 352.001L1323.95 353.808C1321.04 352.976 1314.38 349.777 1312.43 350.311L1310.5 348.732Z" fill="#F472B6"></path>
  <path d="M1509.56 432.422C1536.67 397.838 1566.04 366.378 1604.09 343.458C1631.01 327.243 1660.85 312.423 1692.83 311.04C1683.65 349.829 1668.09 392.347 1650.77 428.259C1626.54 430.904 1601.44 432.801 1577.4 435.987C1582.84 438.909 1588.93 440.898 1594.49 443.546C1607.74 449.857 1622.33 455.901 1635.27 462.647L1628.7 477.008C1617.39 473.756 1558.58 464.003 1548.42 465.288C1553.71 468.705 1613.26 481.641 1625.11 485.216C1616.49 504.997 1606.86 528.137 1596.94 546.976C1568.28 539.907 1539.32 532.816 1510.08 528.747C1530.26 538.665 1569.65 547.731 1591.72 557.145L1596.02 549.264C1606.65 545.884 1616.29 540.811 1626.53 537.327C1656.11 527.257 1691.73 523.865 1722.34 530.886C1705.24 557.413 1692.21 574.926 1670.92 598.744C1657.23 593.419 1638.05 586.886 1623.88 582.945C1636.38 590.828 1651.2 597.449 1664.39 605.522C1646.21 625.031 1633.98 638.755 1614.32 657.019C1601.38 651.294 1570.59 637.7 1557.43 634.846C1565.4 639.731 1604.49 662.248 1607.51 667.485C1609.48 672.648 1627.69 678.164 1633.29 679.148L1643.42 674.678L1644.17 674.128C1649.21 673.324 1663.53 668.374 1670.5 666.79L1666.9 669.213C1609.63 681.317 1550.95 738.146 1519.5 785.928C1508.53 802.595 1500.29 819.233 1492.39 837.44C1490.2 842.494 1483.62 860.278 1481.64 863.586C1495.92 861.761 1525.32 867.03 1539.59 870.77C1536.73 862.825 1528.81 847.142 1524.84 838.585C1517.58 843.919 1512.25 845.394 1503.82 848.414C1510.44 843.15 1516.83 838.168 1523.63 833.133C1522.91 830.662 1521.61 828.491 1520.4 826.205L1523.68 825.245C1530.1 835.717 1540.94 844.083 1548.74 853.727C1555.58 862.181 1558.76 870.845 1564.23 879.964C1565.13 881.457 1569.1 883.085 1570.99 883.11C1590.31 841.849 1604.49 823.855 1646.93 805.423C1622.48 832.02 1615.06 842.409 1602.31 876.161C1618.34 864.774 1640.55 854.71 1660.66 858.126C1661.66 858.296 1661.81 858.46 1662.58 859.063C1659.65 862.036 1647.99 867.033 1643.66 870.065C1630.3 879.41 1616.73 892.108 1606.35 904.576C1608.06 905.96 1611.13 908.603 1612.81 909.776C1625.28 900.804 1642.13 893.199 1657.38 890.695C1644.14 901.747 1637.98 909.595 1629.81 925.011C1648.31 916.693 1659.42 916.237 1679.36 918.869C1667.81 922.798 1658.97 926.471 1648.62 933.142L1646.94 934.456C1647.27 935.387 1647.06 935.632 1647.98 935.921C1666.73 941.79 1681.85 948.352 1698.96 958.115C1670.72 959.421 1388.05 959.514 1383.78 957.886C1412.41 947.25 1420.62 926.369 1424.47 898.413C1425.37 891.874 1426.94 888.505 1427.08 881.216L1427.2 864.107L1430.62 863.179L1433.32 864.299C1436.18 863.904 1443.97 863.974 1447.21 863.919C1447.24 822.731 1444.66 784.428 1440.29 743.501C1438.2 723.869 1435.04 704.05 1433.45 684.403C1432.75 675.735 1434.17 665.415 1433.77 656.025C1434.01 650.964 1436.05 641.469 1437.67 636.701C1438.77 635.581 1440.18 630.295 1440.4 628.562C1450.06 553.934 1468.88 495.624 1509.56 432.422Z" fill="#0F766E"></path>
  <path d="M1596.02 549.264C1606.65 545.884 1616.29 540.811 1626.53 537.327C1656.11 527.257 1691.73 523.865 1722.34 530.886C1705.24 557.413 1692.21 574.926 1670.92 598.744C1657.23 593.419 1638.05 586.886 1623.88 582.945C1636.38 590.828 1651.2 597.449 1664.39 605.522C1646.21 625.031 1633.98 638.755 1614.32 657.019C1601.38 651.294 1570.59 637.7 1557.43 634.846C1565.4 639.731 1604.49 662.248 1607.51 667.485C1609.48 672.648 1627.69 678.164 1633.29 679.148L1643.42 674.678L1644.17 674.128C1649.21 673.324 1663.53 668.374 1670.5 666.79L1666.9 669.213C1609.63 681.317 1550.95 738.146 1519.5 785.928C1508.53 802.595 1500.29 819.233 1492.39 837.44C1490.2 842.494 1483.62 860.278 1481.64 863.586L1479.37 863.381L1468.21 863C1469.45 842.139 1470.08 820.862 1471.78 800.061C1472.53 790.918 1476.81 778.736 1477.32 769.286C1477.49 766.529 1478.9 763.48 1479.91 760.823C1493.71 728.129 1505.58 698.883 1525.47 669.029C1532.93 657.848 1542.36 646.138 1548.99 634.892L1549.43 634.144C1559.76 636.392 1566.5 609.355 1572.44 600.956C1573.19 598.845 1574.92 595.643 1575.97 593.543C1576.57 588.943 1588.73 563.681 1591.72 557.145L1596.02 549.264Z" fill="#1E40AF"></path>
  <path d="M1670.5 666.79L1666.9 669.213C1609.63 681.317 1550.95 738.146 1519.5 785.928C1508.53 802.595 1500.29 819.233 1492.39 837.44C1490.2 842.494 1483.62 860.278 1481.64 863.586L1479.37 863.381L1468.21 863C1469.45 842.139 1470.08 820.862 1471.78 800.061C1472.53 790.918 1476.81 778.736 1477.32 769.286C1477.49 766.529 1478.9 763.48 1479.91 760.823C1482.35 761.776 1485.69 760.4 1488.2 760.053C1505.8 757.625 1516.7 745.559 1530.9 737.275L1531.56 736.896C1532.74 729.47 1533.89 728.343 1538.89 722.472C1536.41 720.17 1535.26 721.093 1533.86 720.09C1529.51 716.976 1512.32 696.588 1515.32 692.232C1523.13 691.196 1548.58 708.729 1555.28 713.372C1558.42 713.224 1558.41 712.469 1561.34 710.316C1561.52 705.046 1565.09 687.727 1571.92 688.517C1574.27 691.634 1573.56 691.479 1573.98 695.987C1582.27 688.093 1597.96 675.93 1607.51 667.485C1609.48 672.648 1627.69 678.164 1633.29 679.148L1643.42 674.678L1644.17 674.128C1649.21 673.324 1663.53 668.374 1670.5 666.79Z" fill="#E0EDEE"></path>
  <path d="M1670.5 666.79L1666.9 669.213C1609.63 681.317 1550.95 738.146 1519.5 785.928C1508.53 802.595 1500.29 819.233 1492.39 837.44C1490.2 842.494 1483.62 860.278 1481.64 863.586L1479.37 863.381C1483.4 852.763 1487.59 842.338 1492.19 831.951C1519.95 769.318 1571.47 709.752 1633.29 679.148L1643.42 674.678L1644.17 674.128C1649.21 673.324 1663.53 668.374 1670.5 666.79Z" fill="#1E40AF"></path>
  <path d="M1561.34 710.316C1561.52 705.046 1565.09 687.727 1571.92 688.517C1574.27 691.634 1573.56 691.479 1573.98 695.987C1571.04 706.567 1565.13 715.899 1558.12 724.224C1558.97 720.83 1561.03 713.481 1561.34 710.316Z" fill="#0F766E"></path>
  <path d="M1538.89 722.472C1553.03 725.715 1540.07 744.752 1536.92 753.074C1537.95 738.16 1533.64 744.39 1531.56 736.896C1532.74 729.47 1533.89 728.343 1538.89 722.472Z" fill="#0F766E"></path>
  <path d="M1492.97 791.411C1491.01 784.312 1490.29 764.55 1502.13 768.349C1507.29 774.435 1498.38 787.732 1494.15 792.397L1492.97 791.411Z" fill="#0F766E"></path>
  <path d="M1479.71 820.442L1478.35 820.674C1475.28 816.6 1476.21 803.302 1482.94 802.418L1485.47 804.698L1486.79 806.841C1486.19 808.707 1483.98 816.076 1483.33 817.454C1482 818.396 1480.63 819.17 1479.71 820.442Z" fill="#0F766E"></path>
  <path d="M1522.74 753.689C1522.82 754.94 1506.58 786.861 1504.15 792.304C1501.65 786.424 1518.27 758.8 1522.74 753.689Z" fill="#5D9CB5"></path>
  <path d="M1492.97 791.411L1494.15 792.397C1490.91 797.934 1489.32 800.926 1486.79 806.841L1485.47 804.698C1487.86 799.992 1489.87 795.717 1492.97 791.411Z" fill="#5D9CB5"></path>
  <path d="M1479.71 820.442C1480.63 819.17 1482 818.396 1483.33 817.454L1482.04 831.13C1479.4 827.921 1481.87 822.414 1479.71 820.442Z" fill="#5D9CB5"></path>
  <path d="M1575.97 593.543C1607.02 570.45 1631.13 557.988 1669.63 549.204L1669.78 551.173C1639.27 559.033 1597.47 581.666 1572.44 600.956C1573.19 598.845 1574.92 595.643 1575.97 593.543Z" fill="#E0EDEE"></path>
  <path d="M1669.63 549.204C1676.07 547.682 1681.68 546.34 1688.34 546.004C1682.26 547.749 1675.9 549.678 1669.78 551.173L1669.63 549.204Z" fill="#B1B9B3"></path>
  <path d="M1638.83 357.746L1639.88 359.262C1509.92 454.098 1469.25 626.293 1468.43 779.146C1476 755.185 1486.21 727.893 1498.52 705.934C1498.05 695.862 1511.56 664.29 1516.22 654.076C1510.61 647.157 1499.05 629.773 1497.38 621.568L1494.81 619.047L1495 618.057C1499.5 618.077 1529.78 628.337 1536.04 630.175C1537.31 630.546 1541.06 635.162 1542.4 635.403C1547.04 636.234 1542.87 633.59 1549.43 634.144L1548.99 634.892C1542.36 646.138 1532.93 657.848 1525.47 669.029C1505.58 698.883 1493.71 728.129 1479.91 760.823C1478.9 763.48 1477.49 766.529 1477.32 769.286C1476.81 778.736 1472.53 790.918 1471.78 800.061C1470.08 820.862 1469.45 842.139 1468.21 863L1464.36 863.366C1463.29 863.298 1462.21 863.007 1461.15 862.778C1456.65 855.379 1463.21 808.074 1463.05 796.967C1460.99 654.046 1487.74 491.193 1597.23 389.192C1610.11 377.202 1624.28 367.504 1638.83 357.746Z" fill="#FFFAF9"></path>
  <path d="M1497.38 621.568C1508.22 627.428 1527.3 637.543 1538.63 641.763C1521.71 665.872 1512.29 680.162 1498.52 705.934C1498.05 695.862 1511.56 664.29 1516.22 654.076C1510.61 647.157 1499.05 629.773 1497.38 621.568Z" fill="#1E40AF"></path>
  <path d="M1477.32 769.286C1476.81 778.736 1472.53 790.918 1471.78 800.061C1470.08 820.862 1469.45 842.139 1468.21 863L1464.36 863.366C1464.97 831.909 1467.61 799.286 1477.32 769.286Z" fill="#1E40AF"></path>
  <path d="M1612.81 909.776C1611.86 912.885 1608.13 917.362 1604.83 918.275L1603.29 916.747C1602.26 912.422 1604.36 908.348 1606.35 904.576C1608.06 905.96 1611.13 908.603 1612.81 909.776Z" fill="#0F766E"></path>
  <path d="M1638.83 357.746C1641.19 355.924 1642.64 354.595 1645.5 353.591L1646.32 354.171C1644.41 356.653 1642.49 357.633 1639.88 359.262L1638.83 357.746Z" fill="#3B82F6"></path>
  <path d="M1459.43 210.283C1485.68 183.209 1530.36 153.878 1567.46 186.217C1575.42 193.153 1579.46 203.357 1582.76 213.231C1605.99 210.109 1612.91 225.26 1614.85 245.608C1620.16 247.388 1637.26 252.69 1640.79 255.37C1637.72 258.784 1598.6 265.169 1591.52 266.274C1549.91 272.768 1509.19 272.928 1467.57 267.197C1458.18 265.904 1430.46 268.076 1419.73 268.658C1401.88 267.871 1312.08 269.169 1302.29 260.919C1304.84 257.149 1318.95 252.966 1324.12 251.144C1336.18 248.003 1344.88 246.434 1357.24 245.541C1362.06 245.785 1367.02 245.908 1371.76 246.722C1394.03 228.663 1429.15 204.034 1459.43 210.283Z" fill="#1E40AF"></path>
  <path d="M1523.47 175.387C1554.07 170.787 1574.05 188.498 1580.7 217.323C1602.04 209.164 1610.69 226.263 1611.61 244.897C1604.73 242.767 1597.96 240.678 1591.28 238.05C1581.67 234.268 1568.26 226.981 1558.05 226.12C1530.72 223.817 1497.1 255.593 1472.01 263.256C1463.81 265.761 1424.48 265.797 1414.32 265.83C1372.18 265.955 1348.38 265.43 1307.27 260.615C1322.02 251.045 1354.69 245.793 1372.16 249.678C1391.87 233.895 1432.6 203.278 1459.4 213.81C1477.55 193.812 1496.49 179.657 1523.47 175.387Z" fill="#FFFAF9"></path>
  <path d="M1549 228.668C1566.81 227.561 1575.12 235.184 1591.05 240.657C1605.45 245.605 1620.06 250.293 1634.5 255.237C1609.71 261.287 1585.17 264.874 1559.83 267.453C1529.27 269.614 1505.59 269.5 1475.31 265.212C1484.61 260.369 1493.63 255.507 1502.85 250.566C1517.59 242.677 1532.51 231.624 1549 228.668Z" fill="#FFFAF9"></path>
  <path d="M648.693 166.492C676.13 165.659 701.572 177.443 704.378 208.912C707.327 241.983 676.432 248.669 657.678 270.559L655.283 273.116C652.869 273.1 649.197 267.948 647.226 265.697C632.951 249.392 608.611 243.411 605.626 218.848C602.148 190.216 621.525 170.495 648.693 166.492Z" fill="#F472B6"></path>
  <path d="M649.242 193.9C659.978 190.789 671.211 196.932 674.387 207.651C677.563 218.371 671.489 229.644 660.792 232.885C655.583 234.464 649.958 233.887 645.178 231.283C640.398 228.68 636.861 224.267 635.36 219.034C632.271 208.261 638.48 197.019 649.242 193.9Z" fill="#FFFAF9"></path>
  <path d="M341.158 296.558C347.305 290.295 357.448 286.549 365.644 291.929C367.68 293.054 371.317 300.545 372.675 301.309C385.321 308.433 390.105 317.858 378.167 329.009C375.532 331.47 369.533 334.674 365.782 337.554C365.143 339.994 365.025 341.283 364.759 343.757C363.405 354.177 368.049 353.063 368.033 357.278C366.856 357.889 365.396 358.647 363.654 359.551C355.857 370.638 358.6 383.424 339.069 377.141L338.426 376.928C336.93 381.036 335.327 385.073 334.441 389.355L331.018 388.934C325.725 390.899 312.2 384.921 308.158 380.958L307.107 377.787C308.93 375.376 311.565 372 312.45 369.154C314.78 363.883 297.173 357.455 296.86 354.775C295.997 347.379 289.586 341.805 288.044 336.36C284.017 322.141 298.275 317.96 308.956 315.657C311.015 298.847 327.881 297.55 341.158 296.558Z" fill="#1E40AF"></path>
  <path d="M324.345 330.456C335.899 334.877 349.542 335.851 361.757 337.381C362.553 337.48 363.124 341.5 363.191 342.139L364.759 343.757C363.405 354.177 368.049 353.063 368.033 357.278L364.44 356.827C362.562 357.062 361.33 357.403 359.492 357.876C357.262 366.188 353.98 381.967 340.493 374.466C331.122 369.255 325.918 359.229 323.124 349.077C329.614 347.242 331.701 346.69 334.711 340.378C334.701 336.97 335.129 338.23 333.212 335.574C330.457 334.567 329.17 333.924 326.202 333.742L324.345 330.456Z" fill="#FAAFB3"></path>
  <path d="M364.44 356.827C362.036 354.272 360.98 353.615 358.122 351.646C351.682 353.852 341.563 350.08 343.443 342.882C351.626 335.593 356.224 343.088 363.191 342.139L364.759 343.757C363.405 354.177 368.049 353.063 368.033 357.278L364.44 356.827Z" fill="#1E40AF"></path>
  <path d="M348.952 342.096C352.038 342.303 354.509 342.11 356.998 343.785C357.705 346.708 357.017 346.744 355.586 349.962C352.384 349.917 349.747 349.483 347.645 346.911C347.333 343.791 347.078 345.063 348.952 342.096Z" fill="#FAAFB3"></path>
  <path d="M323.761 361.152C327.712 368.044 329.768 370.654 336.043 375.534C334.476 379.444 332.051 384.998 331.018 388.934C325.725 390.899 312.2 384.921 308.158 380.958C315.118 374.229 316.387 367.826 323.761 361.152Z" fill="#FAAFB3"></path>
  <path d="M326.202 333.742C322.73 335.905 321.347 337.592 317.334 336.4L316.662 334.73L317.942 332.4C320.449 330.554 321.341 330.654 324.345 330.456L326.202 333.742Z" fill="#F9CDC4"></path>
  <path d="M945.434 44.8085C949.969 44.0126 962.471 45.1645 967.498 45.5366C951.75 58.8609 929.418 69.0255 910.865 79.1443C897.153 100.346 884.799 129.188 871.225 151.133C869.543 153.852 868.018 156.281 864.972 156.988L864.091 155.577C863.205 150.984 882.094 97.8946 885.168 89.6206C870.573 95.5009 855.425 102.154 840.957 108.099C831.042 112.174 811.669 137.279 806.777 136.804C805.757 133.93 805.875 135.18 806.849 131.772L815.068 114.047C808.549 109.007 789.231 96.4616 785.416 91.9958L785.892 90.6323C792.295 89.152 823.053 98.0183 831.18 100.128C843.531 91.0461 860.641 80.0941 874.084 72.8402C860.024 70.1155 820.08 57.5486 805.91 52.6752C822.584 48.1692 834.257 52.0751 851.112 54.5496C865.924 56.7243 880.767 59.0246 895.528 61.5251C912.893 52.4727 926.066 46.722 945.434 44.8085Z" fill="#3B82F6"></path>
  <path d="M160.163 539.583C147.426 535.448 116.933 526.189 112.198 512.339C112.849 506.201 118.085 505.728 123.36 506.418C148.224 509.672 161.639 537.198 175.692 555.013C173.684 546.566 169.113 527.584 177.535 521.816C188.84 520.71 189.073 539.158 188.04 546.585C186.994 554.103 184.931 559.139 181.93 565.881C186.146 571.297 188.807 577.982 191.485 584.261C194.945 575.08 207.062 547.375 220.081 555.885C227.108 567.954 203.015 586.344 194.754 592.652C198.43 600.851 201.358 610.73 203.611 619.418C207.69 610.462 219.818 587.911 232.989 591.125C237.695 592.274 237.973 599.348 235.957 603.349C229.833 615.502 217.847 622.256 205.677 627.13L209.475 641.015L206.31 645.752C205.282 642.825 203.978 637.341 203.11 634.165C192.735 633.694 158.162 628.803 154.452 617.268C156.55 598.325 194.197 621.05 201.683 626.723C199.643 618.045 195.918 606.705 192.979 598.424C181.495 597.454 147.579 595.781 145.464 581.417C149.087 569.846 166.351 576.372 173.738 579.931C180.756 583.312 185.271 587.621 190.793 592.85C187.43 583.436 180.189 569.746 175.513 560.564C166.275 560.858 130.649 568.044 129.276 556.715C135.811 544.049 160.682 551.456 170.821 554.86C167.852 550.115 163.472 544.255 160.163 539.583Z" fill="#0F766E"></path>
  <path d="M256.07 241.989C273.237 241.008 276.081 242.053 288.333 254.085C295.842 254.025 328.419 255.902 325.774 267.169C317.191 276.689 283.468 278.233 270.499 278.987C259.466 279.099 204.004 279.047 200.641 266.449C202.881 259.485 247.441 243.555 256.07 241.989Z" fill="#E0EDEE"></path>
  <path d="M388.487 158.508C399.987 157.384 406.075 160.818 414.889 166.962C422.731 167.196 448.457 169.89 452.115 176.955L451.503 178.799C442.73 188.099 412.002 189.135 399.683 189.587C386.403 190.921 344.01 189.301 334.697 180.294C332.332 171.03 360.674 171.433 365.981 168.59C375.544 163.464 377.292 160.382 388.487 158.508Z" fill="#E0EDEE"></path>
  <path d="M399.306 216.237C411.313 215.594 416.938 216.637 425.647 225.191C434.461 225.8 460.645 227.07 465.079 235.114L464.106 237.123C455.946 243.103 429.278 245.121 418.938 245.455C406.928 246.226 359.153 247.198 353.144 236.95L353.934 235.23C363.012 227.403 378.038 231.37 387.124 223.169C390.553 220.073 394.978 217.802 399.306 216.237Z" fill="#E0EDEE"></path>
  <path d="M1377.67 161.831C1390.67 161.189 1394.49 166.375 1400.24 176.829C1406.92 176.905 1422.53 177.141 1425.65 183.669C1423.23 193.446 1396.06 196.306 1387.45 197.149C1376.04 198.105 1351.75 200.127 1343.24 191.774C1340.02 182.982 1353.82 179.096 1360.13 176.45C1365.53 168.705 1368.93 165.202 1377.67 161.831Z" fill="#1E40AF"></path>
  <path d="M1376.94 164.488C1389.08 163.657 1393.88 168.685 1398.8 179.181C1405 179.356 1417.41 178.87 1421.37 184.16L1420.62 186.059C1413.16 191.951 1399.99 193.082 1390.61 194.352C1382.93 195.262 1346.38 198.554 1345.68 188.123C1348.69 182.909 1356.28 180.883 1362.02 178.584C1366.36 171.25 1369.64 168.527 1376.94 164.488Z" fill="#FFFAF9"></path>
  <path d="M1656.33 684.058C1661.06 682.405 1671.05 677.404 1675.86 678L1675.77 679.263L1672.01 682.15C1675.45 689.756 1682.59 695.515 1687.6 702.106C1693 709.222 1697.68 717.047 1701.9 724.924C1732.06 783.351 1734.89 862.679 1712.48 924.229C1708.66 934.725 1704.46 945.068 1699.56 955.264C1699.48 955.419 1699.88 957.563 1700.13 958.108L1698.96 958.115C1681.85 948.352 1666.73 941.79 1647.98 935.921C1647.06 935.632 1647.27 935.387 1646.94 934.456L1648.62 933.142C1651.05 936.457 1664.82 940.044 1669.17 941.086C1675.4 942.578 1693.64 955.116 1698.31 954.011C1711.43 933.479 1722.19 889.244 1724.58 864.079C1729.78 808.797 1719.81 747.848 1686.17 702.469C1680.12 694.306 1671.29 709.425 1661.86 707.482C1655.14 706.096 1633.84 697.743 1634.76 689.644C1637.71 687.813 1637.59 690.17 1642.63 689.663C1646.14 686.603 1650.38 684.731 1654.74 683.233L1656.33 684.058Z" fill="#E0EDEE"></path>
  <path d="M1652.72 689.264C1660.06 689.458 1674.05 691.278 1676.15 700.038C1671.71 710.635 1644.76 702.984 1637.83 691.853C1643.18 691.441 1643.97 690.97 1648.49 687.963L1652.72 689.264Z" fill="#0F766E"></path>
  <path d="M1656.33 684.058C1661.06 682.405 1671.05 677.404 1675.86 678L1675.77 679.263L1672.01 682.15C1667.38 683.725 1656.24 687.081 1652.72 689.264L1648.49 687.963C1651.36 686.668 1653.56 685.563 1656.33 684.058Z" fill="#0F766E"></path>
  <path d="M1670.5 666.79C1679.26 654.913 1699.55 643.909 1713.82 650.781C1721.77 663.293 1667.47 681.855 1666.9 669.213L1670.5 666.79Z" fill="#0F766E"></path>
  <path d="M1588.91 736.11C1594.54 735.672 1607.44 735.237 1606.62 743.546C1603.7 748.253 1598.8 749.069 1593.63 750.557C1588.75 750.468 1573.54 745.837 1573.37 740.752L1588.91 736.11Z" fill="#0F766E"></path>
  <path d="M1616.71 705.595C1623.4 706.629 1650.14 712.996 1643.83 723.721C1628.28 732.851 1624 714.403 1617.22 706.194L1616.71 705.595Z" fill="#0F766E"></path>
  <path d="M1520.4 826.205C1519.72 826.538 1518.94 826.578 1518.14 826.713L1518.22 825.745C1533.34 809.484 1539.28 805.621 1559.34 797.142C1549.51 808.747 1537.82 819.256 1523.68 825.245L1520.4 826.205Z" fill="#0F766E"></path>
  <path d="M1643.42 674.678C1644.69 666.91 1641.65 645.869 1653.31 644.867C1660.16 649.721 1657.39 659.796 1652.83 665.507C1650.01 669.045 1646.75 669.747 1644.17 674.128L1643.42 674.678Z" fill="#0F766E"></path>
  <path d="M1568.24 760.923C1572.39 760.725 1574.84 759.753 1576.68 763.799C1575.2 771.502 1565.54 775.221 1558.44 775.394C1555.09 774.15 1550.18 773.27 1550.23 769.327C1553.23 766.049 1563.63 762.63 1568.24 760.923Z" fill="#0F766E"></path>
  <path d="M1551.14 781.399C1555.34 781.202 1556.98 780.929 1560.07 783.385C1559.89 790.86 1546.21 794.551 1540.29 795.664C1537.19 795.406 1533.24 795.793 1530.51 795.043C1537.82 790.072 1543.18 784.044 1551.14 781.399Z" fill="#0F766E"></path>
  <path d="M1605.86 724.62C1610.04 724.157 1615.71 722.944 1618.03 726.952L1616.97 728.759C1614.01 731.042 1610.58 731.374 1606.89 732.117C1603.84 731.833 1600.05 730.821 1596.99 730.105L1596.09 728.234L1595.39 728.842C1595.63 728.199 1604.59 725.128 1605.86 724.62Z" fill="#0F766E"></path>
  <path d="M784.969 237.006C788.123 239.41 793.46 242.392 797 244.511C794.714 247.2 792.411 250.117 790.168 252.864C788.304 253.41 789.221 253.461 787.351 252.495C786.615 246.978 781.985 243.933 782.043 239.665L784.969 237.006Z" fill="#F472B6"></path>
  <path d="M638.893 423.416C643.262 423.958 653.002 431.171 655.881 434.545C656.969 435.821 656.52 436.185 656.289 438.135C650.223 438.805 645.248 433.736 640.951 429.876C638.309 427.502 638.821 426.552 638.893 423.416Z" fill="#F472B6"></path>
  <path d="M933.058 214.905C935.298 215.895 934.518 215.304 935.909 217.454C934.105 222.329 925.253 225.401 920.069 227.905C917.448 227.183 918.259 227.821 916.983 225.707C918.819 221.541 928.613 217.268 933.058 214.905Z" fill="#F472B6"></path>
  <path d="M813.175 331.374C814.927 331.617 815.194 332.055 816.502 333.221L816.442 335.008C814.011 337.797 804.584 341.837 800.58 343.783C799.136 343.231 798.705 342.428 797.737 341.218L798.036 339.653C800.846 336.877 809.092 333.385 813.175 331.374Z" fill="#F472B6"></path>
  <path d="M664.88 441.216C668.926 441.999 678.734 447.972 681.677 450.972C683.18 452.505 682.669 453.293 682.549 455.504C678.546 454.768 669.375 450.458 666.513 447.404C664.124 444.857 664.743 444.442 664.88 441.216Z" fill="#F472B6"></path>
  <path d="M871.356 310.241C873.677 310.155 873.749 310.219 875.861 311.311C876.077 315.864 864.175 318.27 860.421 319.315L857.558 319.776C855.803 318.337 856.368 319.243 855.951 316.886C858.1 313.643 867.285 311.476 871.356 310.241Z" fill="#F472B6"></path>
  <path d="M841.265 319.979C842.022 319.933 843.897 320.189 844.748 320.278L845.782 321.64C843.767 325.506 835.354 328.061 830.977 329.803C828.525 330.589 829.728 330.558 827.242 329.906L826.178 327.94L827.018 326.173C830.57 323.359 836.831 321.55 841.265 319.979Z" fill="#F472B6"></path>
  <path d="M709.095 568.383L711.638 569.505C714.534 573.693 717.905 578.673 719.917 583.405C720.838 585.57 720.209 585.658 718.976 587.994C714.449 586.576 709.38 576.703 707.846 572.485C707.17 570.629 708.132 569.929 709.095 568.383Z" fill="#F472B6"></path>
  <path d="M696.41 539.834C702.237 541.031 703.284 550.439 705.027 555.299C705.764 557.353 704.771 558.249 703.677 559.829C698.292 558.782 694.72 545.029 696.41 539.834Z" fill="#F472B6"></path>
  <path d="M728.567 469.124C732.827 469.249 743.528 470.442 747.011 473.028C748.495 474.129 748.165 475.563 748.341 477.554C743.694 477.34 733.552 476.289 729.866 473.522C728.615 472.583 728.821 471.024 728.567 469.124Z" fill="#F472B6"></path>
  <path d="M959.406 198.02C961.418 198.322 961.33 198.412 962.721 199.784C961.758 204.177 952.444 209.062 948.21 211.819C945.382 211.314 945.936 211.874 944.694 210.116C946.241 205.533 955.051 200.828 959.406 198.02Z" fill="#F472B6"></path>
  <path d="M717.646 403.849C719.636 404.537 719.521 404.587 720.863 406.297C720.711 410.743 714.575 418.616 711.837 422.587C710.547 422.398 709.801 421.913 708.649 421.328C707.874 416.242 714.445 408.518 717.646 403.849Z" fill="#F472B6"></path>
  <path d="M705.807 105.402C709.88 104.851 711.55 104.202 714.691 106.566L714.21 108.254C711.689 110.856 708.349 110.588 704.621 110.87C700.87 111.307 698.387 112.164 695.349 109.621L695.962 107.941C698.678 105.426 702.028 105.674 705.807 105.402Z" fill="#F472B6"></path>
  <path d="M1146.98 155.226C1151.99 154.969 1160.76 159.31 1164.57 162.508C1166.44 164.082 1165.91 165.283 1165.99 167.635C1162.13 166.998 1152.5 162.329 1149.24 160.02C1146.88 158.35 1147.3 157.797 1146.98 155.226Z" fill="#F472B6"></path>
  <path d="M899.989 304.19L903.801 303.961L905.236 305.253L905.27 307.067C902.738 309.57 894.826 310.77 890.949 311.641C887.773 312.093 887.338 311.942 885.292 310.483C885.292 309.768 885.756 309.439 886.322 308.615C891.622 305.424 894.06 305.206 899.989 304.19Z" fill="#F472B6"></path>
  <path d="M904.235 230.099L906.331 231.085L906.783 232.614C904.811 236.668 894.34 239.555 889.767 241.205C888.69 240.561 888.331 239.992 887.471 239.053L887.749 237.403C890.536 234.832 900.011 231.73 904.235 230.099Z" fill="#F472B6"></path>
  <path d="M785.971 345.647C786.718 345.664 787.919 346.151 788.693 346.408L789.133 348.113C787.705 351.146 778.803 356.352 775.401 358.542C772.75 357.889 773.592 358.436 771.648 356.665L771.976 354.74C774.957 351.52 781.922 347.963 785.971 345.647Z" fill="#F472B6"></path>
  <path d="M680.321 108.598C681.575 108.584 681.637 108.789 682.9 109.312L683.673 111.301C681.265 114.944 671.522 116.16 666.834 117.18L664.379 116.208L663.856 114.769C667.044 110.716 675.094 109.712 680.321 108.598Z" fill="#F472B6"></path>
  <path d="M548.046 218.341C550.882 219.264 551.017 218.798 552.64 220.908C552.971 225.065 550.794 232.336 549.894 237.189L546.569 236.375C543.29 232.07 546.214 222.987 548.046 218.341Z" fill="#F472B6"></path>
  <path d="M874.612 241.041C876.162 240.749 875.568 240.82 877.229 241.287L878.194 243.223L877.397 244.697C873.443 247.201 866.789 248.436 862.069 249.596C861.486 249.605 859.544 249.228 858.852 249.112L858.479 247.72L859.597 245.868C864.69 243.136 869.027 242.375 874.612 241.041Z" fill="#F472B6"></path>
  <path d="M1012.05 160.702C1013.62 161.944 1013.53 161.885 1014.08 163.843C1012.02 167.605 1003.17 172.767 999.171 175.392C997.84 174.468 997.727 174.064 996.846 172.718C997.917 167.996 1007.88 163.192 1012.05 160.702Z" fill="#F472B6"></path>
  <path d="M984.115 179.331C986.721 179.806 985.742 179.389 987.74 181.063L987.486 182.915C984.439 186.655 978.52 190.413 974.433 193.296L972.182 193.436L971.246 192.288C972.179 187.828 980.125 182.565 984.115 179.331Z" fill="#F472B6"></path>
  <path d="M702.71 460.731C706.901 461.609 717.086 463.574 720.027 466.776C720.946 467.777 720.443 468.989 720.282 470.697C715.205 469.698 703.396 467.7 701.483 462.783L702.71 460.731Z" fill="#F472B6"></path>
  <path d="M736.84 380.853C738.535 381.047 738.649 381.403 739.922 382.554C739.7 387.466 733.051 392.969 729.293 396.872L727.419 396.427C723.702 392.164 733.587 384.235 736.84 380.853Z" fill="#F472B6"></path>
  <path d="M1116.95 145.648C1121.92 145.681 1130.99 147.937 1135.44 150.612C1136.99 153.031 1136.67 151.876 1136.27 155.194C1131.54 154.057 1119.49 151.825 1116.68 148.413L1116.95 145.648Z" fill="#F472B6"></path>
  <path d="M760.537 361.42C761.924 362.209 762.004 362.52 763.089 363.713L762.99 365.541C760.937 368.479 753.911 373.561 750.622 376.332C749.88 375.618 748.93 374.456 748.223 373.651L748.561 371.383C751.043 367.441 756.568 364.177 760.537 361.42Z" fill="#F472B6"></path>
  <path d="M594.993 379.923C597.583 380.185 599.314 381.627 600.954 383.549C604.856 388.125 608.979 390.802 608.495 397.014C603.954 396.402 599.385 390.258 596.616 386.801C594.223 383.812 594.597 383.554 594.993 379.923Z" fill="#F472B6"></path>
  <path d="M775.732 173.16C777.572 173.213 777.99 173.495 779.644 174.184L780.029 175.833C778.26 178.368 770.163 183.002 767.061 185.064L765.622 185.521C763.438 184.213 764.138 185.128 763.432 182.704C764.99 178.538 771.798 175.346 775.732 173.16Z" fill="#F472B6"></path>
  <path d="M1040.67 148.488C1042.69 148.772 1041.8 148.366 1043.34 149.91L1042.83 151.522C1039.86 153.861 1030.51 157.335 1026.19 159.265L1024.16 158.103L1023.68 156.29C1025.96 152.486 1036.21 149.918 1040.67 148.488Z" fill="#F472B6"></path>
  <path d="M798.039 246.322C802.922 247.073 811.433 247.709 815.848 249.906C817.25 250.603 817.227 252.594 817.532 254.245C813.051 254.496 802.064 253.358 798.733 250.073C797.616 248.97 798.038 248.273 798.039 246.322Z" fill="#F472B6"></path>
  <path d="M579.323 355.005C583.068 357.115 588.326 365.201 589.683 369.299C590.269 371.068 588.94 372.166 587.966 373.555C584.978 371.61 577.971 362.092 577.511 358.321C577.394 357.364 578.607 356.07 579.323 355.005Z" fill="#F472B6"></path>
  <path d="M758.798 474.787C764.012 475.01 773.173 474.481 776.411 478.615L775.929 481.94C770.275 481.455 761.519 481.732 758.067 477.783L758.798 474.787Z" fill="#F472B6"></path>
  <path d="M1085.18 141.659C1089.52 141.331 1100.59 140.846 1104.22 143.24C1105.9 144.348 1105.57 145.601 1105.84 147.7C1100.81 147.012 1090.08 147.207 1085.89 144.942C1085.05 144.49 1085.25 142.919 1085.18 141.659Z" fill="#F472B6"></path>
  <path d="M697.387 301.724L698.293 301.514L699.779 302.618L700.396 301.742L699.177 301.425L700.019 302.71C700.202 307.535 687.896 308.453 684.165 308.898C682.941 308.375 682.121 307.582 681.047 306.745L680.934 305.095C683.216 302.759 693.562 302.13 697.387 301.724Z" fill="#F472B6"></path>
  <path d="M836.869 249.245C840.404 248.598 845.732 247.637 847.606 251.249C845.319 253.748 845.44 253.055 841.471 253.935C836.129 254.73 833.601 255.604 828.807 253.015L828.525 251.563C831.978 249.073 832.043 249.794 836.869 249.245Z" fill="#F472B6"></path>
  <path d="M691.274 480.507L693.35 481.45C696.049 484.358 695.664 497.737 693.138 500.853L690.707 500.045C688.215 496.593 688.825 484.092 691.274 480.507Z" fill="#F472B6"></path>
  <path d="M575.125 163.964C577.564 166.16 577.166 165.172 577.741 167.94C575.87 172.461 570.988 178.397 567.922 182.7C566.308 181.631 566.308 181.48 565.169 179.999C565.669 174.621 571.632 168.261 575.125 163.964Z" fill="#F472B6"></path>
  <path d="M752.36 278.034C754.097 278.84 754.031 278.992 755.057 280.548C753.411 285.028 745.144 288.335 740.527 290.772C738.958 290.405 739.133 290.287 737.85 289.151L738.077 287.386C741.128 284.245 748.332 280.401 752.36 278.034Z" fill="#F472B6"></path>
  <path d="M554.479 302.819C555.924 303.355 555.988 303.557 557.22 304.473C559.05 308.35 562.977 317.23 561.488 321.405C555.219 320.501 551.17 308.36 554.479 302.819Z" fill="#F472B6"></path>
  <path d="M616.201 403.053C620.315 404.103 628.289 411.146 630.447 414.876C631.255 416.274 630.116 417.576 629.453 418.833C626.735 417.847 617.51 410.26 615.978 407.581C614.856 405.62 615.506 405.199 616.201 403.053Z" fill="#F472B6"></path>
  <path d="M726.141 292.316L728.247 293.597C729.85 298.647 717.054 301.342 712.959 302.734C712.12 302.234 711.292 301.368 710.549 300.683L710.748 298.902C713.391 296.728 722.185 293.946 726.141 292.316Z" fill="#F472B6"></path>
  <path d="M648.752 116.359C652.154 116.433 651.69 115.863 653.676 117.588L652.835 119.584C648.595 122.779 645.026 123.664 640.048 125.312C638.575 125.525 637.63 125.356 636.144 125.253L635.384 124.277L636.077 122.546C640.138 119.427 644.023 118.194 648.752 116.359Z" fill="#F472B6"></path>
  <path d="M690.347 510.463L693.23 511.007C696.554 513.922 696.682 525.801 697.048 530.468C693.447 529.932 694.591 530.569 692.273 528.393C690.234 522.58 690.53 516.671 690.347 510.463Z" fill="#F472B6"></path>
  <path d="M1067.94 142.564C1070.81 141.919 1071.63 142.309 1073.69 143.778L1073.79 145.223C1070.96 147.187 1062.68 148.176 1058.94 148.846C1056.43 149.321 1056.11 149.344 1053.66 148.65L1053.4 147.117C1057.09 143.343 1062.95 143.042 1067.94 142.564Z" fill="#F472B6"></path>
  <path d="M725.19 105.136C730.62 104.701 739.224 103.602 744.351 105.34C745.874 105.856 745.887 107.099 746.67 109.013C741.284 109.441 732.416 110.637 727.369 108.863C725.892 108.344 725.904 107.053 725.19 105.136Z" fill="#F472B6"></path>
  <path d="M776.096 260.924C778.633 261.371 777.688 260.997 779.702 262.697L779.594 264.173C777.128 267.675 771.061 271.961 767.483 274.748C764.513 274.204 765.35 274.816 763.919 272.769C765.091 269.524 772.908 263.607 776.096 260.924Z" fill="#F472B6"></path>
  <path d="M565.223 329.432C568.675 331.473 572.312 340.213 573.442 344.194C574.026 346.252 573.068 346.814 571.937 348.415C567.95 346.197 563.857 337.321 563.299 332.726C563.11 331.17 564.179 330.612 565.223 329.432Z" fill="#F472B6"></path>
  <path d="M623.091 126.882C625.542 128.592 624.977 127.66 625.487 130.218C623.64 133.582 615.143 137.693 611.358 139.791C609.935 139.363 609.985 139.149 608.833 138.08L609.133 136.271C612.081 133.091 619.127 129.263 623.091 126.882Z" fill="#F472B6"></path>
  <path d="M790.037 172.993C795.184 173.338 802.465 176.402 805.104 181.176C805.896 182.609 805.084 183.59 804.548 185.208C801.012 183.428 792.542 179.582 789.941 176.825C789.106 175.94 789.742 174.535 790.037 172.993Z" fill="#F472B6"></path>
  <path d="M808.066 216.634C810.738 218.664 810.146 217.645 810.829 220.396C809.721 225.725 806.345 229.826 803.11 234.173L800.764 233.192L800.333 231.394C801.355 226.553 804.76 220.298 808.066 216.634Z" fill="#F472B6"></path>
  <path d="M545.634 247.322C548.069 248.211 547.043 247.526 548.788 249.513C549.564 253.648 550.418 263.092 548.096 266.746C541.595 264.268 542.746 251.708 545.634 247.322Z" fill="#F472B6"></path>
  <path d="M557.989 190.609L560.685 192.248C562.361 197.185 558.025 204.038 555.646 209.088C553.021 207.687 553.618 208.465 552.335 206.138C552.591 200.45 555.46 195.789 557.989 190.609Z" fill="#F472B6"></path>
  <path d="M702.122 430.716L704.736 432.504C706.637 437.639 702.835 443.592 700.448 448.96C697.292 447.171 698.06 448.174 696.969 445.346C697.248 440.61 700.132 435.174 702.122 430.716Z" fill="#F472B6"></path>
  <path d="M596.722 143.611C598.005 144.533 598.062 144.905 598.836 146.271C598.035 150.444 589.68 155.98 586.106 158.66C585.693 158.26 584.824 156.945 584.442 156.404C585.367 151.379 592.433 146.986 596.722 143.611Z" fill="#F472B6"></path>
  <path d="M549 276.069C552.11 278.99 552.556 282.494 553.225 286.855C553.89 291.195 553.7 291.539 551.507 294.399C546.989 291.202 544.12 280.377 549 276.069Z" fill="#F472B6"></path>
  <path d="M761.823 216.311C767.043 217.943 774.683 227.288 773.192 232.851C767.738 231.291 760.749 222.026 761.823 216.311Z" fill="#F472B6"></path>
  <path d="M809.942 190.7L812.402 191.379C816.034 195.309 816.053 203.704 813.693 208.187C809.346 204.686 807.703 195.253 809.942 190.7Z" fill="#F472B6"></path>
  <path d="M756.953 105.658C762.138 106.12 773.676 105.675 773.452 111.995C768.371 111.91 760.144 112.189 756.616 108.461L756.953 105.658Z" fill="#F472B6"></path>
  <path d="M693.12 457.471C695.45 457.566 696.763 457.33 698.44 458.786C699.332 462.457 697.92 465.144 696.84 469.155C693.124 469.109 694.252 469.61 691.753 467.812C690.686 464.761 692.234 460.749 693.12 457.471Z" fill="#F472B6"></path>
  <path d="M758.338 192.284C759.78 192.934 759.865 193.174 761.066 194.195C762.367 199.263 761.668 203.545 760.319 208.543C757.656 207.822 758.593 208.382 756.697 206.484C755.267 201.216 756.024 197.177 758.338 192.284Z" fill="#F472B6"></path>
  <defs>
    <linearGradient id="paint0_linear_74_1099" x1="1327.65" y1="852.358" x2="1231.7" y2="759.096" gradientUnits="userSpaceOnUse">
      <stop stop-color="#FFBABF"></stop>
      <stop offset="1" stop-color="#FED5CE"></stop>
    </linearGradient>
  </defs>
</svg>
