<?xml version="1.0" encoding="utf-8"?>
<!-- Generator: Adobe Illustrator 21.0.0, SVG Export Plug-In . SVG Version: 6.00 Build 0)  -->
<svg version="1.1" id="レイヤー_1" xmlns="http://www.w3.org/2000/svg" xmlns:xlink="http://www.w3.org/1999/xlink" x="0px"
	 y="0px" viewBox="0 0 595 239" style="enable-background:new 0 0 595 239;" xml:space="preserve">
<style type="text/css">
	.st0{fill-rule:evenodd;clip-rule:evenodd;fill:#00743D;}
	.st1{fill-rule:evenodd;clip-rule:evenodd;fill:#A82026;}
	.st2{fill-rule:evenodd;clip-rule:evenodd;fill:#EF8200;}
	.st3{fill-rule:evenodd;clip-rule:evenodd;fill:#8CB72A;}
	.st4{fill-rule:evenodd;clip-rule:evenodd;fill:#E50012;}
	.st5{fill-rule:evenodd;clip-rule:evenodd;fill:#FFE700;}
	.st6{fill-rule:evenodd;clip-rule:evenodd;fill:#009FE8;}
	.st7{fill-rule:evenodd;clip-rule:evenodd;fill:#888888;}
	.st8{fill:#221714;}
	.st9{fill-rule:evenodd;clip-rule:evenodd;fill:#221714;}
</style>
<g>
	<g>
		<path class="st0" d="M118.8,31.5l7.9-14.8c0,0,10.7,55.6-10,107.1c-20.8,51.5-20.8,51.5-20.8,51.5l-36.2,4.3
			c0,0,43.3-51.6,52.4-90.7c9.1-39.2-2.6-82.3-2.6-82.3L118.8,31.5L118.8,31.5z"/>
		<path class="st1" d="M88.3,0.9c0,0,9,58.8-9.8,100.1c-18.9,41.3-40.3,65.3-40.3,65.3l5.3-25.7l-13.2-6.9c0,0,35.7-38,43.2-79.5
			C80.9,12.6,74.8,0,74.8,0l6.9,13.3L88.3,0.9L88.3,0.9z"/>
		<path class="st2" d="M40.4,15.4C49.1,9.7,53.9,6.7,62.6,1C47.2,57.6,29.2,85.8,11.2,101c0.4-8.3,0.9-16.6,1.3-24.9
			c-4.1-3.3-8.3-6.6-12.4-9.9C24.2,54.9,38.9,35.7,40.4,15.4L40.4,15.4z"/>
		<path class="st3" d="M107,5.7c7.3,2.8,13.9,6.5,19.7,11c1.2,7.2,1.9,14.6,1.9,22.1c0,58.7-38.5,108.8-92.6,128.3v-3.4
			c0-13.3-2.8-23.7-6.8-32.6c47-15.6,80.5-55.7,80.5-102.8C109.6,20.5,108.7,13,107,5.7L107,5.7z"/>
		<path class="st4" d="M75.9,0c4.2,0,8.4,0.3,12.4,0.9c1.5,5.7,2.3,11.7,2.3,17.8c0,39.7-33.8,73.1-79.5,82.3
			C5.1,90.9,0.1,78.7,0.1,66.2h0c42-4.7,74-29.8,74-60c0-2.1-0.2-4.1-0.4-6.1C74.4,0,75.2,0,75.9,0L75.9,0z"/>
		<path class="st5" d="M3.8,44.8C12.4,22.3,34.9,5.2,62.6,1C55.5,21.7,33,38.3,3.8,44.8L3.8,44.8z"/>
		<path class="st6" d="M139,29.2c7.8,10.2,12.3,22.4,12.3,35.5c0,40.3-35.8,50.7-35.8,98.1v16.9H59.7l0,0
			c47.6-27.3,79.7-78.8,79.7-137.7c0-4.2-0.2-8.5-0.5-12.6L139,29.2L139,29.2z"/>
		<path class="st7" d="M48.1,186.1h0.6h0h55.5h0.6h0.6v0c5.2,0.3,9.3,4.1,9.3,8.7v0.6c0,4.3-3.6,7.9-8.3,8.6
			c2.5,1.5,4.2,4.3,4.2,7.4v0.6c0,4.6-3.7,8.4-8.3,8.7v0h-0.3c0.8,1.4,1.2,3.1,1.2,4.9v0.6c0,4.6-2.9,8.4-6.5,8.7v0h-7.3
			c-3,2.7-7.7,4.4-13,4.4c-5.3,0-10-1.7-13-4.4H57v0h-0.4c-3.8,0-7-3.9-7-8.7v-0.6c0-1.8,0.5-3.5,1.2-4.9c-4.8-0.1-8.6-4-8.6-8.7
			v-0.6c0-3.1,1.7-5.8,4.2-7.4c-4.7-0.7-8.3-4.3-8.3-8.6v-0.6C38.1,190,42.6,186.1,48.1,186.1L48.1,186.1z"/>
	</g>
	<g>
		<path class="st8" d="M166.9,87.8h11c2.8,0,5.3,1,7.3,3.1c2,2,3,4.5,3,7.3v70.9h-21.4V87.8L166.9,87.8z"/>
		<path class="st8" d="M271.7,169.1H261c-3.1,0-5.6-1-7.5-2.9c-1.9-2-2.9-4.4-2.9-7.5l0,0v-41.6c0-4.9-1.5-8.4-4.4-10.7
			c-2.9-2.2-6.3-3.4-9.9-3.4c-3.7,0-6.9,1.1-9.8,3.4c-2.8,2.2-4.3,5.8-4.3,10.7v51.9h-21.4v-47.7c0-13.8,3.6-23.1,10.8-27.8
			c7.2-4.7,15.2-7.2,24-7.6c9,0,17.2,2.3,24.7,7c7.5,4.7,11.3,14.2,11.3,28.4V169.1L271.7,169.1z"/>
		<path class="st8" d="M356.1,169.1h-10.7c-3.1,0-5.6-1-7.5-2.9c-1.9-2-2.9-4.4-2.9-7.5l0,0v-41.6c0-4.9-1.5-8.4-4.4-10.7
			c-2.9-2.2-6.3-3.4-9.9-3.4c-3.7,0-6.9,1.1-9.8,3.4c-2.8,2.2-4.3,5.8-4.3,10.7v51.9h-21.4v-47.7c0-13.8,3.6-23.1,10.8-27.8
			c7.2-4.7,15.2-7.2,24-7.6c9,0,17.2,2.3,24.7,7c7.5,4.7,11.3,14.2,11.3,28.4V169.1L356.1,169.1z"/>
		<path class="st8" d="M378.4,161.8c-4.3-3.7-7.3-8.6-9.2-14.8c-1.8-6.2-2.7-12.7-2.7-19.4c0-5.5,0.8-11,2.3-16.5
			c1.5-5.5,3.9-10.1,7.2-13.7c5.3-6.1,12.1-9.7,20.5-10.8c8.4-1.1,15.9-0.5,22.6,2c7.7,3.1,13.4,8.4,17.1,15.9
			c3.5,6.7,5.2,14.5,5.2,23.5c0,6.5-0.7,12.1-2.1,16.8c-1.4,4.7-3.3,8.7-5.5,11.9c-4.9,6.7-11.1,10.9-18.6,12.5
			c-6.7,1.8-13.5,2-20.3,0.5C388,168,382.5,165.4,378.4,161.8L378.4,161.8z M393.1,108c-4.3,4.7-6.2,11.7-5.8,20.9
			c0.4,9.3,2.1,15.7,5.2,19.4c1.2,1.6,3.4,3,6.4,4.1c3,1.1,6.2,1.2,9.3,0.3c3.2-0.9,6-3.2,8.4-6.9c2.4-3.6,3.8-9.6,4-17.7
			c0-7.4-1.2-12.9-3.5-16.5c-2.3-3.7-5-6-8.1-7c-3.1-1-6.1-1.1-9.2-0.2C396.8,105.4,394.5,106.6,393.1,108L393.1,108z"/>
		<path class="st8" d="M493.5,169.1h-21.7l-28.4-81.3H466l16.2,57.1l14.4-49.8c1.6-4.9,4.9-7.3,9.8-7.3l0,0h15.9L493.5,169.1
			L493.5,169.1z"/>
		<path class="st9" d="M573.6,128.8c-2.7,1.2-6.2,2.2-10.4,3.3c-4.7,1-7,1.5-7,1.5c-3.7,1-6.3,2.3-8,4c-1.4,2.2-2.1,4.5-2.1,6.7
			c0,3,0.9,5.5,2.7,7.3c1.9,1.6,4.5,2.5,8,2.5c5.7,0,10.2-1.6,13.5-4.9c1.5-1.5,2.6-3.2,3.4-5.1V128.8L573.6,128.8z M594.8,169.1
			h-10.9c-2.4,0-4.5-0.7-6.3-2.2c-3.6,1.6-7.3,2.6-11.2,3c-4.8,0.5-9,0.8-12.7,0.8c-7.3,0-13.7-2-19.2-6c-5.5-4-8.2-10.5-8.2-19.7
			c0-8.5,2.5-14.6,7.5-18.3c5-3.7,11.4-6.1,19.1-7.3c1,0,2.2-0.2,3.7-0.5c1.4-0.3,3.1-0.5,4.9-0.8c9-1.2,13.5-3.9,13.5-8
			c0-3-1.6-5-4.7-5.9c-3.2-0.9-6-1.4-8.7-1.4c-2.8,0-5.4,0.4-7.6,1.2c-2.2,0.8-3.9,2.3-4.9,4.6h-20.5c0.8-6.3,3.6-11.5,8.5-15.6
			c5.5-4.7,13.3-7,23.5-7c11.4,0,20,1.9,25.7,5.8c5.9,4.1,8.9,9.8,8.9,17.1v27.8c0,1.1,0,2.1-0.1,3.1V169.1L594.8,169.1z"/>
	</g>
</g>
</svg>
