<?xml version="1.0" encoding="UTF-8"?>
<svg xmlns="http://www.w3.org/2000/svg" width="1820" height="1024" viewBox="0 0 1820 1024" fill="none">
  <path d="M889.334 94.3088C903.584 93.2144 909.845 99.1927 921.924 105.465C935.887 112.716 939.365 115.298 939.486 131.229C940.025 202.376 939.463 273.531 939.551 344.69L939.627 461.403C939.605 493.994 947.021 537.629 916.31 555.583C897.84 566.381 876.223 576.891 857.061 586.689L724.438 654.301L724.522 714.602L734.987 719.973C749.295 713.197 765.645 704.307 779.856 697.004L870.248 650.494L979.178 594.258C988.784 589.274 1049.19 558.967 1051.9 554.17C1048.2 546.232 978.861 517.07 969.819 507.259C968.404 501.841 970.604 499.08 975.306 496.538C1021.67 471.473 1068.91 447.963 1115.21 422.768V313.779C1095 324.662 1065.29 340.796 1044.86 349.815C1038.7 346.177 1033.22 342.788 1027.26 338.851C1026.33 286.014 1027.16 230.423 1027.14 177.397C1069.26 153.466 1118.14 129.927 1161.29 107.131L1178.64 116.413L1178.68 280.198C1170.74 286.031 1133.17 304.6 1122.19 310.525C1122.11 346.815 1121.56 383.02 1121.98 419.302C1170.88 395.493 1225.98 366.057 1274.04 340.251C1269.58 335.335 1265.11 330.032 1260.75 324.991C1264.63 320.811 1275.9 312.275 1281.23 307.59C1276.52 298.128 1273.47 290.344 1269.64 280.546C1260.94 277.433 1252.39 274.385 1243.78 270.981C1242.49 259.752 1241.65 245.366 1241.37 234.114L1255.93 223.887C1261.63 219.866 1260.74 219.689 1266.86 220.751C1268.87 216.882 1270.36 213.006 1271.99 208.97C1264.27 199.938 1256.4 190.891 1249.03 181.577C1264.95 167.818 1274.95 161.491 1292.17 149.918C1299.52 155.189 1307.36 162.159 1314.33 168.086C1314.21 161.784 1314.03 155.594 1313.79 149.296C1318.15 145.712 1335.13 135.54 1340.06 132.627C1367.26 144.402 1373.73 137.115 1372.82 168.972C1380.21 172.821 1388.19 178.332 1394.87 183.293C1401.84 178.969 1407.88 175.304 1415.11 171.467C1421.66 176.253 1445.77 198.227 1450.89 203.946C1445.88 208.121 1437 213.091 1431.15 216.593C1436.55 227.296 1445.68 243.688 1447.78 255.059C1457.41 259.726 1467.23 263.419 1476.82 268.403C1477.32 278.858 1476.95 291.67 1477.25 302.605C1470.75 308.013 1460.07 314.498 1452.71 318.766L1450.85 327.329C1456.36 335.666 1463.85 346.612 1468.02 355.415C1462.23 360.401 1427.75 383.581 1421.08 387.436C1416.28 382.552 1408.96 373.417 1404.14 367.914L1391.91 372.276L1391.79 390.738C1385.73 395.412 1377.62 399.647 1370.83 403.438C1360.51 398.184 1349.03 393.257 1338.46 388.236C1337.42 381.416 1337.41 370.968 1337.22 363.793C1331.25 360.384 1323.9 355.299 1318.03 351.465C1310.43 355.147 1302.67 359.47 1294.96 363.289C1289.74 358.49 1283.33 351.109 1278.41 345.736C1265.79 351.648 1250.88 359.984 1238.34 366.521L1162.49 406.001C1100.35 438.342 1036.76 470.575 975.382 504.214C987.434 511.138 1051.58 541.89 1056.49 549.404C1057.63 551.152 1057.84 554.71 1057.34 556.723C1056.59 559.726 1054.42 561.619 1051.91 563.208C1042.3 569.286 1031.57 574.247 1021.49 579.572L957.648 612.78C886.425 649.602 813.059 686.065 742.666 723.93C769.728 740.449 811.514 756.496 836.799 772.923C836.929 776.218 836.956 780.236 837.143 783.437C837.546 790.349 836.439 788.847 833.761 793.913C839.284 799.45 853.598 804.984 860.925 808.722C874.258 815.523 960.97 857.875 964.181 863.102C965.603 865.416 965.701 868.189 964.891 870.739C964.052 873.38 962.448 875.235 960.263 876.849C952.638 882.482 942.571 886.573 934.142 890.947L881.478 918.432L935.157 946.496C977.926 968.551 968.601 965.553 1011.58 943.152L1087.24 903.611C1072.7 886.087 1098.81 878.706 1111.88 879.683C1115.82 879.978 1118.8 880.749 1122.6 881.794C1132.48 876.144 1143.71 870.703 1153.92 865.507L1029.9 801.306C1010.82 791.418 991.467 781.626 972.541 771.444C970.376 770.073 966.406 768.01 965.231 765.72C960.479 756.458 968.288 752.035 975.203 748.179C990.631 739.569 1007.74 731.082 1023.46 722.728L1164.71 648.54C1182.7 639.071 1206.93 627.355 1223.92 617.52C1225.16 614.195 1219.85 612.342 1220.8 607.14C1223.02 594.788 1242.09 592.235 1252.21 593.388C1267 595.071 1274.34 599.395 1272.53 614.83C1274.61 617.884 1301.05 630.458 1306.28 633.263C1356.42 608.132 1411.7 578.353 1462.08 554.974C1474.67 559.986 1495.92 571.875 1508.52 578.507L1587.3 619.903L1701.91 679.931C1722.51 690.529 1743.47 700.514 1763.91 711.432C1766.26 712.686 1768.57 714.249 1769.68 716.804C1771.94 722.001 1770.44 727.955 1765.55 730.928C1756.7 736.323 1747.28 740.886 1738.08 745.627L1689.1 770.897L1433.03 903.216L1367.8 937.224C1355.98 943.415 1333.99 958.598 1321.47 952.636C1267.43 926.903 1214.64 894.869 1160.56 869.347C1153.25 873.633 1136.95 880.232 1131.53 884.628C1130.04 891.011 1136.87 891.401 1134.58 897.6C1129.12 912.384 1105.46 911.458 1093.18 907.721C1055.75 927.98 1016.63 947.924 978.567 967.089C966.349 973.241 946.083 959.254 934.493 953.488C914.336 943.46 894.416 931.978 873.761 922.505C844.609 936.651 815.71 953.415 786.205 966.81C778.207 970.44 766.839 965.359 759.43 961.436C724.527 942.955 689.421 924.643 654.253 906.655C632.62 895.645 611.058 884.007 589.096 873.682C581.349 878.452 568.02 884.51 559.58 888.835L499.134 919.791C479.553 929.723 458.311 941.337 438.124 950.065C434.099 951.691 425.79 949.735 422.145 947.934C359.509 916.984 298.117 882.86 235.622 851.624C219.522 855.958 187.674 855.666 197.227 830.483C193.151 826.147 174.254 817.9 168.915 814.921C154.004 806.598 64.9168 763.93 58.084 755.929C55.9455 749.481 56.4791 745.205 62.6621 741.649C71.5095 736.561 80.5961 732.028 89.6674 727.354L141.879 700.671L304.393 616.958L222.186 575.364C221.331 557.327 221.885 532.197 221.785 513.681C208.343 520.366 163.889 546.329 151.486 544.648C142.627 543.447 129.394 536.352 123.977 529.213C121.23 525.593 120.804 519.798 120.44 515.404C118.684 494.196 120.176 471.7 120.151 450.372C120.135 436.306 118.463 416.68 120.45 403.295C122.221 391.367 129.586 379.687 139.425 372.746C145.473 368.479 152.84 365.253 159.417 361.806L198.085 341.628C221.353 329.499 244.625 316.691 268.084 304.975C270.819 303.836 275.006 301.693 278.052 302.529C287.52 305.128 297.772 310.811 305.011 317.424C307.222 319.444 308.813 326.649 308.769 329.791C308.224 369.071 308.978 408.355 308.994 447.63C309.004 472.667 286.396 480.703 267.932 490.109L228.298 510.345L228.257 571.496L311.307 612.757L360.752 587.957C361.493 523.889 359.565 457.434 361.889 393.317C362.325 381.262 375.926 360.098 386.681 354.755C397.566 349.348 409.274 343.374 420.412 337.679L496.65 298.688L703.646 190.813L826.744 126.344C837.832 120.457 879.396 97.2142 889.334 94.3088Z" fill="#0F172A"></path>
  <path d="M914.972 114.783C927.377 113.066 933.112 119.726 933.018 131.891C932.88 149.587 932.845 167.221 932.871 184.918L932.853 308.65L932.798 440.128C932.822 464.253 932.937 488.329 932.724 512.494C932.586 528.062 927.171 541.464 913.195 549.69C902.778 555.821 891.634 561.222 880.87 566.792L819.974 597.961L664.318 677.382L488.714 767.95C467.887 778.525 435.582 796.91 414.769 805.252C401.509 806.942 395.976 798.998 396.239 786.385C396.591 769.526 396.695 752.9 396.632 736.047L396.553 582.435L396.44 472.466C396.412 453.4 396.312 434.597 396.546 415.281C396.736 399.578 403.613 382.221 417.256 373.269C423.895 368.913 432.964 364.827 440.109 361.163L482.677 339.297L637.08 258.812L807.068 169.863L871.164 136.016C885.53 128.535 899.893 120.625 914.972 114.783Z" fill="white"></path>
  <path d="M916.978 124.457C919.654 125.175 920.259 125.225 922.18 127.171C923.989 131.045 923.286 181.985 923.289 189.76L923.3 302.921V427.89C923.299 451.285 923.715 475.848 923.051 499.098C917.344 503.692 885.157 519.495 876.94 523.67L779.55 573.252L411 762.649L408.341 762.846C403.01 759.239 405.217 747.49 405.223 741.467C405.255 710.064 405.225 678.651 405.228 647.244L405.214 494.292C405.184 467.66 404.991 440.752 405.259 414.118C405.316 408.466 406.978 398.208 409.586 393.496C411.887 389.339 416.064 384.098 420.333 381.823C434.573 374.234 449.129 366.813 463.437 359.371L544.321 317.306L733.957 218.354L859.768 152.834C873.763 145.598 903.989 128.419 916.978 124.457Z" fill="#0F172A"></path>
  <path d="M411.629 437.173C411.462 425.486 410.347 412.003 413.858 400.802C416.948 390.947 424.171 387.533 432.721 383.072C447.461 375.382 462.374 367.858 477.106 360.092L612.426 289.867L806.389 188.414C841.631 169.986 880.974 148.235 916.502 131.562C917.426 176.971 916.983 224.618 916.979 270.161L917.024 495.064L411.605 754.439L411.65 444.491C459.412 420.504 507.359 394.282 554.608 369.213L694.428 296.621L821.775 231.66C842.052 221.28 873.125 206.248 892.009 194.571C892.294 183.183 892.099 170.912 892.11 159.458C864.881 171.575 834.543 188.281 807.653 202.116L677.675 268.902L584.397 317.723C569.618 325.467 554.388 333.371 539.664 341.297C536.59 342.951 536.571 343.253 535.991 345.845C535.652 352.938 533.521 365.539 538.859 370.65C499.745 392.885 451.927 416.378 411.629 437.173Z" fill="white"></path>
  <path d="M650.603 346.513L653.116 346.806C655.874 349.954 654.461 365.588 654.488 370.702L654.516 431.341C654.52 470.817 655.453 513.804 654.468 553.019C644.478 559.315 622.339 569.432 610.919 575.727C566.138 600.413 515.925 622.78 471.933 648.152C470.473 648.598 470.539 648.421 468.912 648.266C465.979 644.959 467.345 630.285 467.313 625.253L467.305 573.167C467.347 530.17 466.851 485.816 467.626 442.917C484.257 432.853 512.315 419.558 530.476 410.097L650.603 346.513Z" fill="#0F172A"></path>
  <path d="M648.609 354.575C650.293 362.061 648.886 400.01 648.864 409.529L649.095 549.382C640.333 554.266 629.515 559.514 620.491 564.16C619.852 520.78 632.464 510.361 584.752 502.438C596.53 487.091 594.849 475.985 598.036 458.283C598.649 454.878 602.63 449.393 602.694 444.918C602.798 437.645 600.227 429.321 595.12 423.994C581.339 410.121 563.238 413.569 547.139 420.204C525.981 428.923 519.428 440.021 519.228 462.49C517.747 463.958 516.599 465.36 515.758 467.258C509.592 481.174 516.5 482.919 526.795 487.642C528.087 491.085 535.485 508.425 535.437 510.5C530.653 527.436 523.079 530.142 511.815 540.712C492.874 558.486 498.512 602.771 498.561 627.857C489.841 632.094 481.018 636.863 472.409 641.375L472.747 446.622L648.609 354.575Z" fill="white"></path>
  <path d="M586.218 508.135C609.415 513.981 616.379 507.888 615.594 538.308C615.37 546.978 615.532 557.443 615.474 566.276L607.325 571.092C607.361 556.108 607.426 540.958 607.353 525.965C607.339 523.19 607.292 523.402 605.728 522.012L603.695 522.394C600.934 526.758 602.26 565.861 602.27 573.4C582.966 585.28 552.524 599.368 531.447 610.51L531.472 589.778C531.523 583.813 532.856 567.974 529.618 564.535L527.649 564.659C524.995 568.632 526.027 605.813 526.052 613.29L503.973 624.828C504.003 605.928 500.407 563.345 510.94 549.961C515.335 544.378 528.287 533.459 534.473 526.172C545.009 529.819 555.069 539.487 567.088 536.713C581.725 533.334 589.099 522.648 586.218 508.135Z" fill="#0F172A"></path>
  <path d="M554.057 446.931C563.6 450.46 572.476 452.727 582.659 452.465C585.681 452.387 587.5 451.911 590.08 453.459C593.956 459.732 591.567 469.47 590.346 476.411C586.664 497.335 570.328 514.634 547.935 510.018L540.703 506.414C534.896 497.915 534.867 491.391 531.142 482.375C530.074 479.791 526.661 481.901 521.626 480.159C517.689 475.718 518.803 465.503 525.739 465.735C527.158 470.403 528.117 476.971 533.643 477.031C539.637 473.574 543.56 460.483 545.708 454.018C549.743 451.425 550.7 450.428 554.057 446.931Z" fill="white"></path>
  <path d="M579.586 479.246C580.633 480.312 580.779 480.969 581.328 482.335C580.728 486.109 577.87 489.81 575.716 493.092C568.132 497.488 564.109 497.967 557.491 491.895C557.604 489.037 557.883 488.435 558.867 485.727C561.918 484.249 561.867 490.01 567.973 491.289C573.318 490.759 574.863 484.573 579.046 479.849L579.586 479.246Z" fill="#0F172A"></path>
  <path d="M555.122 466.729C559.762 466.538 559.248 465.884 562.843 467.798L563.318 469.528C562.335 472.047 560.751 472.597 558.372 474.033C557.014 474.217 555.448 474.259 554.062 474.34C551.16 472.874 551.795 473.736 550.832 471.244C552.006 468.23 552.052 468.903 555.122 466.729Z" fill="#0F172A"></path>
  <path d="M583.39 457.687C584.018 457.766 585.419 458.268 586.094 458.484C588.625 463.111 581.395 466.407 577.951 468.175C575.612 467.33 576.434 467.784 574.72 465.797L575.069 463.597C577.52 460.481 579.889 459.542 583.39 457.687Z" fill="#0F172A"></path>
  <path d="M566.411 419.726C578.35 418.899 591.816 422.296 595.838 435.066C597.263 439.59 598.841 445.796 596.595 450.287C596.491 450.197 593.745 447.813 593.745 447.813C583.147 446.093 571.067 447.649 560.831 443.637C556.595 441.977 554.482 441.014 551.357 439.621C548.39 445.022 548.211 446.006 542.916 449.139C540.218 451.239 536.219 465.76 532.582 472.536C531.852 464.183 532.178 464.465 525.366 459.787C520.076 435.31 547.063 423.773 566.411 419.726Z" fill="#0F172A"></path>
  <path d="M579.87 507.527C585.569 517.398 580.25 526.96 569.811 529.877C559.145 532.858 552.818 529.122 543.756 524.363C541.438 523.299 540.76 522.873 538.686 521.381C537.775 518.089 538.811 517.205 540.062 513.309C556.656 518.46 564.919 517.244 579.87 507.527Z" fill="white"></path>
  <path d="M651.867 573.168L653.42 573.777C655.762 577.313 654.648 601.782 654.566 607.608C635.441 618.632 614.562 628.058 595.092 638.594C554.481 660.569 511.757 680.082 471.434 702.434L469.718 701.985C466.029 697.534 467.51 675.465 467.597 667.929C480.823 659.969 504.786 648.976 519.2 641.314C562.846 618.113 608.378 596.538 651.867 573.168Z" fill="#0F172A"></path>
  <path d="M648.492 581.365C650.195 583.206 649.533 600.609 649.517 604.356C592.979 634.861 531.076 665.657 473.653 695.019C472.131 692.883 472.817 675.223 472.858 671.353C529.085 640.821 591.267 610.613 648.492 581.365Z" fill="#0F172A"></path>
  <path d="M896.623 352.812L897.774 353.642L897.964 355.076C894.247 359.113 850.626 379.76 841.394 384.554C809.099 401.321 773.476 419.111 741.061 436.192C734.062 439.881 713.709 449.35 709.554 453.827C709.056 456.669 708.806 457.111 709.58 459.783C719.032 458.764 779.978 423.183 794.129 416.968C816.249 407.254 847.093 388.326 870.136 378.217C877.994 374.769 888.708 366.946 896.866 365.175L897.393 366.11C895.742 368.675 892.132 370.794 889.407 372.144C828.935 402.101 769.47 434.688 709.078 464.686L708.937 562.636C712.678 561.263 717.332 558.642 720.943 556.807C768.531 532.647 815.541 507.272 863.181 483.224C871.564 478.992 887.69 469.12 896.216 468.077L896.685 469.029C894.131 472.005 889.426 473.848 885.788 475.602C873.637 482.268 859.563 489.013 847.047 495.538L739.865 551.415C733.278 554.887 713.11 563.499 709.275 567.775C708.816 570.532 708.57 570.991 709.313 573.586C713.2 574.007 758.157 549.583 764.707 546.152L859.016 497.192C864.901 494.161 892.685 479.378 897.2 478.515L898.113 479.563C897.284 481.649 895.763 482.505 893.564 483.617C872.281 494.382 850.978 505.417 829.808 516.373L704.716 581.375L704.699 450.93C710.153 447.994 715.872 445.204 721.404 442.394C779.832 412.711 837.763 381.623 896.623 352.812Z" fill="#0F172A"></path>
  <path d="M743.857 296.729C745.663 297.131 744.801 296.752 746.316 298.273C748.143 305.267 747.268 328.076 746.492 336.064C746.127 339.822 738.354 343.603 734.93 345.367C721.732 352.169 708.464 358.885 695.375 365.959C694.448 365.888 694.029 365.449 693.124 364.902C691.452 360.286 692.223 331.399 692.279 324.896C702.67 317.75 731.748 303.251 743.857 296.729Z" fill="#0F172A"></path>
  <path d="M740.209 304.769L741.485 305.492C742.336 313.057 741.86 327.129 741.819 335.181C731.322 341.749 710.587 351.826 699.196 357.809C696.832 355.03 697.903 332.628 697.96 327.388C711.228 319.775 726.524 312.189 740.209 304.769Z" fill="#0F172A"></path>
  <path d="M888.078 285.095C890.708 285.522 889.899 285.003 891.445 286.785L890.97 288.734C886.192 294.423 716.792 381.568 694.364 392.782C692.648 392.968 693.536 393.003 691.631 392.011L691.887 389.95C695.602 385.256 708.124 379.619 713.833 376.613L753.647 355.862C798.227 332.601 844.094 309.236 888.078 285.095Z" fill="#0F172A"></path>
  <path d="M849.926 333.959C851.196 334.142 851.741 334.887 852.7 335.785L852.46 337.846C848.737 342.523 711.54 412.552 694.38 421.038C692.259 420.824 693.17 421.247 691.644 419.565L692.143 417.355C694.259 414.3 736.773 393.269 742.526 390.292L849.926 333.959Z" fill="#0F172A"></path>
  <path d="M888.347 226.601C890.687 226.217 891.344 226.946 892.328 228.792C892.065 229.394 891.802 229.995 891.538 230.597C865.544 245.193 794.794 281.983 772.559 293.84C771.297 294.078 771.607 293.871 770.047 293.298L769.657 291.154C771.39 286.835 806.704 269.545 813.188 266.144L888.347 226.601Z" fill="#0F172A"></path>
  <path d="M890.125 254.951C891.615 256.176 891.502 256.341 892.048 258.15C889.683 262.319 863.541 275.117 856.955 278.578L771.477 323.653C769.706 321.869 770.224 322.727 769.787 320.023C772.641 314.877 876.491 262.087 890.125 254.951Z" fill="#0F172A"></path>
  <path d="M860.602 422.255C851.126 409.054 875.483 389.555 876.291 411.425C881.36 413.068 885.581 414.074 890.729 415.284C889.366 416.281 887.952 417.577 886.347 417.737C876.806 416.133 879.264 416.585 871.026 421.834C860.164 428.756 848.664 449.84 842.261 461.921C836.946 464.492 837.259 460.655 829.448 465.478C826.664 463.703 820.483 458.609 817.63 456.417L817.768 454.29C818.318 453.128 818.839 452.751 819.725 451.79C832.414 462.179 835.741 465.696 846.493 448.333C851.434 440.355 857.019 430.882 860.602 422.255Z" fill="#0F172A"></path>
  <path d="M860.602 422.255C851.126 409.054 875.483 389.555 876.291 411.425C869.506 416.649 872.713 423.049 860.602 422.255Z" fill="#0F172A"></path>
  <path d="M866.315 408.159C869.865 409.249 869.418 409.264 870.903 411.928C871.047 415.273 870.332 416.223 868.831 419.11C863.688 416.989 864.91 412.145 866.315 408.159Z" fill="#0F172A"></path>
  <path d="M440.981 387.451C459.708 386.485 453.899 407.276 440.398 414.846C422.255 416.394 428.537 395.307 440.981 387.451Z" fill="#0F172A"></path>
  <path d="M441.877 392.498C443.129 392.587 444.306 392.885 445.542 393.137C450.635 398.747 445.117 405.358 440.587 409.351C439.497 409.165 438.058 408.762 436.951 408.491C431.623 402.296 436.932 396.782 441.877 392.498Z" fill="#0F172A"></path>
  <path d="M471.926 371.455C491.611 371.211 483.519 391.799 471.282 398.995C452.501 398.597 459.838 378.468 471.926 371.455Z" fill="#0F172A"></path>
  <path d="M474.152 375.578C475.717 376.092 476.334 376.877 477.528 378.001C480.463 384.87 475.387 391.09 469.467 394.052C468.363 393.434 467.26 392.58 466.218 391.835C462.161 384.541 468.34 379.041 474.152 375.578Z" fill="#0F172A"></path>
  <path d="M502.352 355.464C520.438 354.877 514.125 375.872 500.939 382.436C482.679 381.545 490.092 362.573 502.352 355.464Z" fill="#0F172A"></path>
  <path d="M503.334 359.661C513.553 363.237 506.151 372.897 500.99 377.273C499.374 377.286 498.616 376.953 497.099 376.488C492.553 370.207 498.434 363.656 503.334 359.661Z" fill="#0F172A"></path>
  <path d="M739.555 511.682C741.94 518.767 735.166 530.047 726.483 529.08C717.409 523.103 724.482 499.983 739.181 506.912C738.745 510.121 738.525 508.994 739.555 511.682Z" fill="#0F172A"></path>
  <path d="M755.857 485.49C750.359 476.797 757.211 463.106 768.303 466.049C772.898 470.095 772.146 474.039 770.045 479.404L766.902 481.921C763.281 486.769 761.786 486.397 755.857 485.49Z" fill="#0F172A"></path>
  <path d="M842.261 461.921C854.517 485.45 813.229 488.302 829.448 465.478C837.259 460.655 836.946 464.492 842.261 461.921Z" fill="#0F172A"></path>
  <path d="M890.729 415.284C904.687 423.723 891.634 440.785 881.553 436.227C876.736 429.841 881.602 422.373 886.347 417.737C887.952 417.577 889.366 416.281 890.729 415.284Z" fill="#0F172A"></path>
  <path d="M790.947 482.147C797.835 490.072 790.08 500.897 780.813 500.52C774.821 497.578 775.73 491.701 777.826 486.177L782.961 482.142C785.841 482.72 788.474 483.652 790.947 482.147Z" fill="#0F172A"></path>
  <path d="M807.155 454.539C801.92 446.179 812.341 431.745 820.572 438.63C822.875 443.377 821.308 446.988 819.725 451.79C818.839 452.751 818.318 453.128 817.768 454.29C812.708 455.744 811.259 454.096 807.155 454.539Z" fill="#0F172A"></path>
  <path d="M817.768 454.29L817.63 456.417C814.766 457.675 813.379 457.853 810.372 458.134C806.058 461.339 793.477 477.278 790.947 482.147C788.474 483.652 785.841 482.72 782.961 482.142L782.206 480.938C791.477 478.076 801.592 462.719 807.155 454.539C811.259 454.096 812.708 455.744 817.768 454.29Z" fill="#0F172A"></path>
  <path d="M766.902 481.921L768.323 484.499C763.498 489.422 761.155 487.348 758.425 490.03C751.934 496.403 745.666 504.821 739.555 511.682C738.525 508.994 738.745 510.121 739.181 506.912C743.091 503.429 753.128 489.99 755.857 485.49C761.786 486.397 763.281 486.769 766.902 481.921Z" fill="#0F172A"></path>
  <path d="M770.045 479.404C773.42 480.19 778.966 481.769 782.206 480.938L782.961 482.142L777.826 486.177C774.694 485.483 771.491 485.012 768.323 484.499L766.902 481.921L770.045 479.404Z" fill="#0F172A"></path>
  <path d="M535.991 345.845C539.108 346.092 539.218 345.565 542.027 344.115C657.413 284.528 772.162 222.915 888.575 165.36L888.538 191.132C877.597 197.629 862 204.907 850.288 210.762L785.387 243.557L538.859 370.65C533.521 365.539 535.652 352.938 535.991 345.845Z" fill="#0F172A"></path>
  <path d="M1462.04 562.773C1486.09 574.632 1701.77 687.626 1705.81 692.252C1705.46 693.458 1705.13 694.14 1704.27 695.083C1697.92 702.098 1634.69 732.333 1621.79 738.985L1426.94 839.246C1399.26 853.548 1371.76 868.533 1344.05 882.764C1338.26 885.74 1334.56 886.033 1328.16 886.135C1319.09 884.523 1290.74 868.271 1280.79 862.997L1216.16 828.739L1130.4 783.772C1114.31 775.325 1096.74 766.523 1081.14 757.398C1128.21 731.575 1180.42 705.954 1228.34 681.382C1305.71 641.705 1384.11 601.214 1462.04 562.773Z" fill="white"></path>
  <path d="M1459.32 572.381C1463.86 572.044 1467.85 574.336 1471.85 576.35C1512.4 596.81 1552.31 618.649 1592.59 639.623L1653.39 671.47C1661.18 675.59 1681.95 685.888 1687.82 691.155C1688.22 694.516 1688.48 693.33 1687.25 696.063C1677.01 703.182 1651.09 715.645 1639.48 721.58L1559.87 762.707L1413.06 838.529C1389.63 850.727 1366.32 863.188 1342.92 875.442C1338.86 877.57 1336.01 878.315 1331.49 878.809C1322.13 878.225 1311.08 870.995 1302.61 866.512L1261.11 844.702C1210.62 818.253 1160.21 791.325 1109.74 764.792C1107.7 763.715 1102.69 760.901 1101.61 758.89C1101.09 757.907 1101.75 756.869 1102.19 755.514C1110.11 746.599 1425.55 588.991 1459.32 572.381Z" fill="#0F172A"></path>
  <path d="M1461.71 579.49C1533.45 616.715 1607.01 657.367 1679.03 693.14C1651.01 706.325 1619.83 723.195 1592.02 737.467L1415.68 828.617C1400.51 836.477 1385.26 844.559 1370.21 852.57C1361.19 857.372 1338.99 870.925 1329.86 871.859C1323.81 870.504 1286.48 849.536 1278.43 845.269C1223.34 816.072 1167.06 787.386 1112.37 757.592C1229.04 698.878 1344.29 637.457 1461.71 579.49Z" fill="white"></path>
  <path d="M1304.18 732.339C1344.07 758.515 1313.6 783.871 1280.25 790.307C1256.81 794.832 1227.38 793.591 1206.71 780.011C1167.51 751.967 1214.13 724.05 1242.8 720.661C1255.51 719.159 1281.08 718.564 1290.9 725.609C1293.8 730.354 1289.89 733.41 1285.97 735.879C1281.35 738.792 1265.03 749.411 1260.44 749.457L1258.96 748.494C1257.9 742.951 1258.47 729.759 1258.43 723.452C1233.9 724.893 1206.82 731.523 1195.72 755.852C1204.72 755.474 1250.78 752.354 1256.05 754.554L1257.73 756.389L1258.51 757.031C1262.3 757.631 1262.88 757.742 1266.63 756.856L1267.26 755.389C1274.72 749.129 1294.96 738.694 1304.18 732.339Z" fill="#0F172A"></path>
  <path d="M1304.18 732.339C1344.07 758.515 1313.6 783.871 1280.25 790.307C1256.81 794.832 1227.38 793.591 1206.71 780.011C1167.51 751.967 1214.13 724.05 1242.8 720.661C1255.51 719.159 1281.08 718.564 1290.9 725.609C1293.8 730.354 1289.89 733.41 1285.97 735.879C1281.35 738.792 1265.03 749.411 1260.44 749.457L1258.96 748.494C1257.9 742.951 1258.47 729.759 1258.43 723.452C1233.9 724.893 1206.82 731.523 1195.72 755.852C1204.72 755.474 1250.78 752.354 1256.05 754.554L1257.73 756.389C1251.37 758.81 1207.42 759.789 1196.4 760.482L1196.57 760.846C1222.21 814.356 1361.45 779.707 1304.95 738.017C1294.84 743.569 1282.6 752.088 1271.86 756.653C1270.01 757.441 1269 756.387 1267.26 755.389C1274.72 749.129 1294.96 738.694 1304.18 732.339Z" fill="#0F172A"></path>
  <path d="M1263.78 730.412L1279.94 732.89L1272.3 737.829L1263.71 743.401L1263.78 730.412Z" fill="#0F172A"></path>
  <path d="M1262.84 724.826C1268.82 723.649 1281.49 725.87 1286.91 728.693C1283.12 729.195 1266.7 726.09 1262.84 724.826Z" fill="#0F172A"></path>
  <path d="M1365.06 654.563C1375.32 653.797 1408.54 655 1413.71 664.178C1410.51 668.296 1365.69 691.004 1358.57 692.139C1348.03 693.82 1327.59 694.292 1315.68 695.734C1323.04 706.575 1328.73 710.86 1341.44 715.446C1368.43 725.178 1421.82 723.702 1432.78 691.497L1418.11 691.202C1410.96 691.305 1392.17 692.892 1387.4 689.359L1387.35 688.085C1391.32 685.314 1428.62 686.102 1435.05 686.687C1435.88 687.601 1436.36 687.691 1436.47 688.843C1438.55 711.361 1406.02 722.389 1388.66 724.264C1365.48 726.768 1340.13 723.816 1321.06 710.084C1308.31 700.902 1308.27 686.056 1317.71 674.557C1329.1 661.226 1348.52 656.534 1365.06 654.563Z" fill="#0F172A"></path>
  <path d="M1365.99 658.997C1368.37 658.602 1375.41 658.654 1378.14 658.61C1377.59 666.93 1377.15 672.4 1375.68 680.564C1357.36 690.033 1349.12 688.856 1328.96 689.99C1324.86 690.425 1319.77 690.568 1315.58 690.801C1321.52 667.648 1345.05 661.622 1365.99 658.997Z" fill="white"></path>
  <path d="M1383.54 659.323C1390.45 659.695 1399.43 662.237 1406 664.191L1398.51 667.852C1393.55 670.134 1387.49 673.457 1382.53 676.007L1383.54 659.323Z" fill="#0F172A"></path>
  <path d="M1505.9 685.239C1510.04 685.151 1575.95 718.494 1577.68 722.63C1575.94 726.054 1546.58 740.288 1540.89 743.306C1539.2 743.149 1536.2 742.225 1534.78 741.411C1526.13 736.449 1471.62 711.239 1469.62 705.706C1470.98 702.527 1500.74 688.039 1505.9 685.239Z" fill="#0F172A"></path>
  <path d="M1505.43 690.519C1510.3 690.222 1562.81 718.063 1570.89 722.479C1560.87 727.531 1551.19 732.48 1541.3 737.82C1541.06 737.921 1540.84 738.064 1540.58 738.123C1537.26 738.904 1483.46 709.829 1475.99 706.059L1505.43 690.519Z" fill="#0F172A"></path>
  <path d="M1451.89 717.129C1452.83 717.289 1453.44 717.359 1454.44 717.901C1475.54 729.33 1497.87 739.408 1518.53 751.48C1518.8 752.273 1519.02 752.934 1519.2 753.463C1516.72 757.122 1486.01 772.004 1480.29 774.431C1480.12 774.381 1479.95 774.331 1479.79 774.281C1457.71 763.534 1434.73 752.378 1413.37 740.288C1413.07 739.7 1412.76 739.112 1412.46 738.524C1414.31 734.696 1445.97 720.091 1451.89 717.129Z" fill="#0F172A"></path>
  <path d="M1451.12 722.574C1454.15 722.274 1505.14 749.41 1511.96 752.944C1502.86 758.414 1490.71 764.139 1481.06 768.998C1476.9 769.034 1427.4 742.566 1420.12 738.799C1429.81 733.224 1441.1 727.723 1451.12 722.574Z" fill="#0F172A"></path>
  <path d="M1585.92 665.728C1591.38 665.408 1631.93 688.768 1639.07 692.96C1628.2 699.421 1611.99 707.104 1600.39 713.01C1595.89 712.513 1559.45 693.054 1553.39 689.128C1551.38 687.823 1551.14 687.478 1550.87 685.445C1553.68 681.061 1579.44 669.214 1585.92 665.728Z" fill="#0F172A"></path>
  <path d="M1586.85 670.147C1590.91 671.342 1623.78 689.323 1629.71 692.52L1599.27 708.242C1585.01 701.093 1570.84 693.297 1556.78 685.71C1567.25 680.589 1576.63 675.74 1586.85 670.147Z" fill="#0F172A"></path>
  <path d="M1359.71 790.879C1363.76 791.407 1401.85 810.977 1403.25 814.203C1399.78 818.687 1370.78 832.756 1363.79 836.435C1359.33 835.376 1323.67 816.098 1318.59 812.878C1330.07 806.02 1347.46 797.496 1359.71 790.879Z" fill="#0F172A"></path>
  <path d="M1359.51 796.362C1364.5 796.904 1390.18 810.95 1395.96 814.014C1385.52 819.745 1374.95 825.267 1364.4 830.822C1360.55 831.701 1333.33 815.553 1328.41 812.804C1338.59 807.229 1349.21 801.781 1359.51 796.362Z" fill="#0F172A"></path>
  <path d="M1423.56 765.151C1426.48 765.025 1458.48 780.859 1460.15 784.041C1456.99 788.431 1432.36 800.548 1425.81 803.99C1422.02 803.43 1390.34 787.713 1389.06 784.933C1392.27 780.81 1416.73 768.738 1423.56 765.151Z" fill="#0F172A"></path>
  <path d="M1423.57 770.574C1427.75 770.376 1448.37 781.828 1453.41 784.447C1443.51 788.987 1435.26 793.505 1425.75 798.733C1421.72 797.882 1401.67 787.592 1396.58 785.05C1405.21 780.075 1414.72 775.253 1423.57 770.574Z" fill="#0F172A"></path>
  <path d="M1534.92 638.045L1536.91 639.186L1537.33 640.963C1534.82 644.275 1474.66 674.764 1465.8 679.365C1463.56 678.655 1464.54 679.24 1462.86 677.357C1465.21 672.751 1525.33 642.994 1534.92 638.045Z" fill="#0F172A"></path>
  <path d="M1511.91 626.388L1514.08 627.644L1514.32 629.379C1511 633.43 1457.15 660.084 1447.6 664.987C1445.47 663.537 1445.84 664.235 1445.06 662.165C1447.2 658.513 1503.37 630.816 1511.91 626.388Z" fill="#0F172A"></path>
  <path d="M1490.1 614.137C1491.52 614.079 1491.59 614.232 1493.02 614.594L1493.42 616.222C1490.74 620.218 1434.03 648.566 1425.75 652.826C1423.75 652.894 1424.65 653.154 1422.98 651.968L1423.26 650.122C1427.57 645.297 1480.11 619.354 1490.1 614.137Z" fill="#0F172A"></path>
  <path d="M1422.21 668.335C1426.86 668.394 1431.39 674.6 1433.05 678.535C1432.64 684.83 1425.87 682.798 1421.14 682.812C1416.89 682.824 1412.53 682.621 1408.26 682.546C1404.67 682.537 1399.08 683.242 1396.89 680.161C1399.64 675.984 1416.58 670.474 1422.21 668.335Z" fill="#0F172A"></path>
  <path d="M1422.1 673.708C1422.48 673.819 1425.26 675.29 1425.8 675.565L1426.02 677.078C1422.8 678.764 1419.97 678.321 1416.32 678.193C1415.01 678.277 1414.05 677.986 1412.78 677.715C1414.51 675.912 1419.48 674.591 1422.1 673.708Z" fill="#0F172A"></path>
  <path d="M1264.05 620.543C1266.97 620.201 1293.32 634.278 1297.92 636.639C1280.95 646.738 1256.71 658.385 1238.89 667.546L1135.69 720.559C1120.29 728.444 1086.47 744.918 1073.59 753.843C1073.03 761.256 1073.28 771.132 1073.65 778.538C1079.87 783.611 1104.72 795.533 1113.01 799.737L1176.84 832.656L1267.37 880.182C1283.61 888.812 1299.75 897.792 1316.22 905.954C1324.47 910.049 1337.52 909.808 1345.7 905.641C1362.9 896.884 1379.93 887.752 1397.02 878.779L1489.59 830.58C1560.06 794.05 1630.8 758.028 1701.43 721.816C1717.4 713.629 1716.34 710.252 1713.99 693.075C1727.63 700.065 1741.41 706.867 1755.07 713.813C1759.15 715.889 1762.92 717.724 1763.45 722.522C1760.67 728.536 1722.08 746.633 1713.2 751.179L1466.22 878.787L1381.69 922.644C1367.19 930.179 1352.79 938.661 1337.87 945.269C1334.33 946.834 1330.47 947.956 1326.57 947.392C1317.82 946.126 1187.23 875.392 1168.71 865.727C1105.98 832.98 1042.49 801.56 980.039 768.298C976.982 766.67 972.588 764.672 970.43 761.959L971.013 759.629C972.653 757.496 974.931 755.482 977.315 754.244C1006.62 739.019 1035.88 723.37 1065.12 708.009L1230.88 621.296C1244.03 625.08 1251.44 625.064 1264.05 620.543Z" fill="white"></path>
  <path d="M172.177 692.385L293.583 754.423C284.429 759.219 246.62 774.583 270.695 787.837C315.947 812.568 362.083 835.724 407.733 859.718C411.988 861.955 426.232 868.831 430.418 867.213C455.643 857.46 479.733 843.052 504.267 831.163C530.647 844.004 555.724 856.975 581.859 870.239C555.787 882.67 525.911 898.744 500 912.038C487.899 918.518 475.139 924.755 462.882 930.992C455.973 934.507 435.729 946.679 428.776 943.629C408.636 934.795 388.827 923.717 369.273 913.54L243.11 847.797C255.378 822.876 221.561 822.701 205.885 826.572L116.979 781.202C102.954 774.019 73.1065 759.167 60.6621 750.736C67.4572 745.486 88.4573 735.225 96.7065 730.978L172.177 692.385Z" fill="white"></path>
  <path d="M586.893 789.222C588.029 789.348 700.862 848.239 714.38 854.126C717.994 852.779 721.541 851.153 724.977 849.402C758.563 832.284 791.939 814.772 825.76 798.115C869.19 818.716 912.188 843.268 955.427 864.546C957.527 865.58 958.104 867.198 958.525 869.238C954.393 874.408 897.867 902.417 888.296 907.317L819.287 943.156C809.409 948.285 791.858 957.771 782.019 961.709C775.446 964.339 738.852 943.362 731.456 939.483L666.449 905.514C615.423 878.972 563.563 853.493 512.22 827.492C536.894 814.406 561.975 801.855 586.893 789.222Z" fill="white"></path>
  <path d="M1320.76 154.869C1327.46 156.991 1337.73 161.674 1344.49 164.532C1344.46 172.2 1344.64 179.951 1344.76 187.626C1362.18 191.581 1369 195.839 1382.61 206.931C1386.21 203.07 1391.23 196.215 1394.59 191.851L1418.04 213.877C1412.85 218.063 1408.67 222.423 1403.98 227.144C1415.16 244.001 1420.35 254.19 1423.91 273.838C1432.47 277.752 1440 281.302 1448.37 285.718C1448.49 293.574 1449.06 302.03 1449.44 309.925C1443.21 307.958 1436.6 305.302 1430.44 302.962C1428.64 319.552 1428.83 326.633 1420.78 341.793C1427.43 349.887 1433.9 358.133 1440.4 366.352L1422.19 379.323L1405.74 359.771C1390.17 367.004 1385.1 368.516 1368.27 367.001L1367.51 394.551L1360.25 391.351L1343.76 383.416L1343.61 359.816C1327 351.246 1319.99 344.974 1306.38 332.345C1301.45 338.828 1296.92 345.375 1292.84 352.419C1284.76 343.544 1277.2 335.224 1269.58 325.948C1276.86 320.076 1282.48 315.705 1290.2 310.497C1282.46 296.448 1279.51 290.554 1274.54 275.434L1249.58 267.009L1247.62 240.573C1254.93 242.78 1263.47 246.831 1271.49 249.473C1271.1 231.321 1271.53 224.599 1279.24 207.711C1271.7 199.123 1265.3 191.478 1258.22 182.501C1263.29 178.319 1268.31 174.298 1273.46 170.234C1280.32 177.237 1287.31 184.987 1294.03 192.187C1305.24 186.179 1308.74 184.21 1321.25 182.502C1321.4 173.526 1320.99 163.893 1320.76 154.869Z" fill="white"></path>
  <path d="M1327.43 204.791C1343.12 204.976 1355.25 208.877 1369.08 218.545C1400.65 240.62 1425.74 292.333 1403.24 328.408C1397.31 337.921 1384.32 342.914 1373.22 344.648C1303.26 347.839 1249.15 215.374 1327.43 204.791Z" fill="#0F172A"></path>
  <path d="M1335.45 212.368C1350.78 211.244 1371.92 226.502 1381.56 237.687C1398.33 257.169 1406.83 279.065 1405.4 304.794C1398.64 310.23 1392.73 314.422 1385.58 319.364C1383.4 320.613 1380.25 321.845 1377.87 322.867C1354.68 315.74 1339.65 302.576 1327.89 281.471C1315.92 259.984 1309.75 226.27 1335.45 212.368Z" fill="white"></path>
  <path d="M1323.96 211.791L1323.83 212.651C1290.75 250.649 1330.79 315.721 1372.05 328.381C1382.1 331.465 1396.24 319.442 1404.19 313.868C1401.15 320.737 1399.33 324.144 1394.1 329.496C1333.81 374.536 1250.09 231.985 1323.96 211.791Z" fill="white"></path>
  <path d="M292.174 318.215C307.059 319.615 302.646 335.341 302.629 345.859C302.525 379.895 303.244 413.976 302.917 448.006C302.835 460.973 295.25 469.788 283.824 475.196C241.65 495.161 199.055 520.628 156.548 539.232C154.803 539.073 152.916 538.937 151.306 538.19C148.771 537.012 146.769 534.513 145.839 531.914C143.888 526.459 143.953 422.947 144.976 411.327C145.306 407.582 146.27 404.224 147.943 400.863C150.285 396.16 153.599 391.669 157.91 388.601C172.929 377.911 201.663 364.824 218.796 355.778L263.882 332.003C271.424 328.035 284.451 320.731 292.174 318.215Z" fill="white"></path>
  <path d="M242.605 374.478C295.754 371.309 273.236 466.648 213.389 480.073C158.489 482.751 181.672 385.884 242.605 374.478Z" fill="#0F172A"></path>
  <path d="M245.233 446.734C246.852 447.596 247.002 447.951 248.09 449.361C247.01 462.907 205.679 484.932 194.223 467.42C178.536 443.44 196.568 409.264 216.124 393.434C244.385 370.558 271.058 377.462 265.634 417.244C258.721 421.924 247.636 427.7 240.062 431.99L241.909 434.27L244.347 435.647C245.115 439.32 243.886 439.095 243.563 442.253L243.45 444.85L245.233 446.734Z" fill="white"></path>
  <path d="M227.025 394.411L229.939 393.154C225.99 403.207 226.589 419.609 227.527 430.398C231.583 431.644 235.985 433.48 240.062 431.99L241.909 434.27L244.347 435.647C245.115 439.32 243.886 439.095 243.563 442.253L243.45 444.85L245.233 446.734C236.991 461.146 206.415 479.217 196.996 459.35C185.716 435.557 206.791 404.866 227.025 394.411Z" fill="#0F172A"></path>
  <path d="M227.025 394.411L229.939 393.154C225.99 403.207 226.589 419.609 227.527 430.398C231.583 431.644 235.985 433.48 240.062 431.99L241.909 434.27L244.347 435.647L242.707 437.514C237.573 439.57 230.137 436.5 224.73 434.888C224.563 424.9 223.063 402.209 227.025 394.411Z" fill="#0F172A"></path>
  <path d="M247.125 391.066C268.773 390.507 252.29 412.044 242.622 418.457C238.244 419.451 236.873 419.735 233.5 416.505C229.908 407.578 240.035 395.675 247.125 391.066Z" fill="#0F172A"></path>
  <path d="M241.909 434.27C246.226 431.827 256.822 427.342 261.639 426.666L262.872 427.107C262.832 430.895 256.782 443.126 253.71 445.448C251.838 443.754 251.309 443.315 249.928 441.216C247.035 441.262 246.365 441.469 243.563 442.253C243.886 439.095 245.115 439.32 244.347 435.647L241.909 434.27Z" fill="white"></path>
  <path d="M1171.05 123.581C1173.01 125.611 1172.05 260.844 1171.98 276.642C1158.95 284.21 1142.35 292.37 1128.82 299.415L1049.01 340.76C1048.2 338.062 1048.43 330.555 1048.44 327.501C1048.68 280.95 1047.85 234.372 1048.38 187.825L1171.05 123.581Z" fill="white"></path>
  <path d="M1108.83 202.747C1145.07 200.755 1131.85 255.776 1097.12 266.44C1058.78 268.793 1074.62 212.01 1108.83 202.747Z" fill="#0F172A"></path>
  <path d="M1110.67 208.082C1137.71 208.034 1124.51 255.324 1095.16 261.288C1065.93 258.465 1083.46 214.362 1110.67 208.082Z" fill="#0F172A"></path>
  <path d="M1106.94 226.414C1107.27 226.729 1107.9 227.904 1108.17 228.367C1104.05 235.332 1102.06 236.695 1097.67 245.251C1092.38 239.041 1102.17 229.814 1106.94 226.414Z" fill="#0F172A"></path>
  <path d="M1076.17 262.714C1077.87 263.581 1077.26 262.927 1077.94 264.836C1076.6 268.52 1073.03 271.972 1070.34 274.969C1068.99 274.024 1069.12 274.037 1068.55 272.463C1069.67 269.286 1073.76 265.354 1076.17 262.714Z" fill="#0F172A"></path>
  <path d="M1137.26 197.938C1139.04 199.395 1138.49 198.482 1138.91 200.811C1137.59 203.814 1133.79 206.583 1131.18 208.807L1129.8 207.967C1130.21 203.21 1133.55 201.116 1137.26 197.938Z" fill="#0F172A"></path>
  <path d="M1128.19 189.065L1129.54 190.743C1129.58 195.063 1125.82 199.36 1123.23 202.691L1122.12 200.798C1122.32 196.015 1125.32 192.732 1128.19 189.065Z" fill="#0F172A"></path>
  <path d="M1141.47 211.417C1143.04 212.733 1142.51 211.893 1142.81 214.18C1141.2 216.954 1138.12 218.247 1135.25 219.864C1133.79 218.769 1134.43 219.462 1133.73 217.338C1135.1 214.852 1138.88 212.995 1141.47 211.417Z" fill="#0F172A"></path>
  <path d="M1085.53 268.179C1086.4 269.051 1086.41 269.47 1086.9 270.653C1086.24 274.496 1083.62 278.326 1081.6 281.757L1080.09 279.458C1080.69 275.394 1083.36 271.727 1085.53 268.179Z" fill="#0F172A"></path>
  <path d="M1113.98 187.774C1115.46 188.365 1115.05 188.219 1116.32 189.29C1116.78 192.638 1115.08 196.432 1113.93 199.724C1111.63 198.752 1112.48 199.521 1111.28 197.36C1110.97 193.951 1112.62 190.982 1113.98 187.774Z" fill="#0F172A"></path>
  <path d="M1070.29 254.041L1071.22 254.253L1071.95 255.545C1070.58 258.208 1067.61 259.985 1065.11 261.864L1063.4 261.184L1063.05 259.624C1064.74 257.053 1067.58 255.708 1070.29 254.041Z" fill="#0F172A"></path>
  <path d="M894.99 100.581C899.266 100.598 908.05 106.052 912.159 108.293C894.083 115.098 857.829 135.14 839.518 144.769L710.067 212.736L527.41 308.149L456.942 344.739C436.025 355.482 410.222 364.378 397.858 384.598C387.396 401.708 389.957 424.705 389.974 444.073L389.955 503.172L390.015 689.306C390.02 695.645 389.752 800.796 390.534 799.023L388.76 798.181C383.335 794.747 369.167 789.37 368.623 783.028C367.457 769.423 367.898 755.193 367.891 741.493L367.876 652.937L367.816 486.964L367.768 432.604C367.755 412.693 365.288 389.888 377.739 372.881C387.773 359.175 400.483 355.315 415.311 347.867L459.013 325.669L596.406 254.953L795.797 150.225C813.406 140.965 879.755 103.193 894.99 100.581Z" fill="white"></path>
  <path d="M585.708 726.154C585.814 726.228 585.944 726.277 586.026 726.377C588.863 729.854 587.201 773.313 587.176 780.85C557.996 797.992 526.346 812.216 496.139 827.606C477.127 837.292 453.075 851.535 433.996 859.272C431.136 860.432 428.271 860.781 425.208 860.348C416.938 859.178 287.99 790.56 274.425 782.546C272.067 781.153 270.219 779.664 268.552 777.49C269.968 775.574 271.921 773.315 274.05 772.185C302.703 756.975 331.897 741.465 360.998 727.171C361.428 745.312 359.037 772.692 363.888 789.308C365.805 795.876 406.911 816.202 415.731 812.32C432.736 804.836 449.849 795.573 466.535 787.085L585.708 726.154Z" fill="white"></path>
  <path d="M359.746 595.558C361.619 598.374 360.914 707.834 360.916 719.932C340.528 730.03 320.252 740.871 299.712 751.068C291.694 745.99 278.631 739.657 269.915 735.218L222.612 711.117C208.208 703.535 193.863 695.827 179.096 688.98C239.062 657.698 300.163 627.282 359.746 595.558Z" fill="white"></path>
  <path d="M719.218 719.779C721.385 720.525 723.389 721.56 725.42 722.611C758.709 739.841 791.816 757.403 825.572 773.715C789.407 793.9 751.596 812.058 714.99 831.608C712.295 831.467 617.287 781.518 608.264 776.653C619.43 771.554 632.234 764.439 643.349 758.775L719.218 719.779Z" fill="white"></path>
  <path d="M715.891 658.631L717.183 658.804C718.494 661.34 717.945 706.207 717.935 712.845L609.087 768.766L607.7 768.409C606.944 764.209 607.603 721.686 607.641 714.639C619.418 707.725 635.441 699.865 647.843 693.483L715.891 658.631Z" fill="white"></path>
  <path d="M1707.36 702.168L1708.53 702.537C1709.02 705.092 1708.93 705.346 1708.6 707.97C1704.97 713.755 1697.03 715.413 1691.16 718.474L1600.01 765.663L1420.38 858.218L1371.99 883.701C1324.72 908.917 1334.22 907.418 1287.39 882.518L1227.44 850.738C1179.68 825.554 1128.65 800.77 1081.64 775C1081.09 774.585 1080.47 773.517 1080.04 772.883C1079.84 770.209 1079.48 768.606 1080.38 766.077C1085.17 765.462 1094.44 772.59 1098.99 774.824C1112.04 781.22 1124.93 788.047 1137.82 794.77L1279.48 869.102C1284.65 871.779 1289.79 874.874 1294.99 877.453C1309.89 884.84 1326.33 898.267 1343.65 890.107C1357.92 883.379 1371.55 875.727 1385.41 868.417L1467.61 825.475L1639.45 737.124C1661.64 725.599 1685.78 714.306 1707.36 702.168Z" fill="#0F172A"></path>
  <path d="M275.292 308.407C280.81 308.269 284.318 310.358 289.243 312.633C279.613 316.124 269.566 321.849 260.389 326.669L217.078 349.605C197.21 360.145 176.905 370.215 157.32 381.247C148.489 386.561 139.756 398.273 139.138 408.815C137.314 439.934 138.823 471.512 138.395 502.724C138.264 512.216 138.039 523.484 139.072 532.776L138.605 532.882C134.456 532.133 130.609 527.405 127.941 524.348C126.771 519.405 126.267 514.345 126.318 509.268C126.656 476.183 126.041 442.927 126.335 409.869C126.48 393.499 135.519 381.315 149.763 374.265C161.288 368.561 173.047 361.68 184.596 355.88C214.861 340.267 244.71 323.325 275.292 308.407Z" fill="white"></path>
  <path d="M599.54 719.036C601.646 721.317 600.625 772.93 600.636 780.376C618.199 791.126 703.812 830.993 710.706 838.97C710.832 841.925 711.404 842.886 710.069 845.021L707.906 844.215C693.329 835.844 676.818 827.759 661.782 820.013L593.388 784.977C593.425 767.405 592.203 740.052 593.255 723.671C594.502 721.304 597.047 720.379 599.54 719.036Z" fill="#0F172A"></path>
  <path d="M1033.89 185.135C1036.33 186.006 1039.18 187.965 1041.45 189.37L1041.49 339.892L1033.63 335.723L1033.89 185.135Z" fill="white"></path>
  <path d="M829.776 779.593C830.263 781.362 830.727 784.468 830.198 786.221C829.221 789.463 730.46 839.138 717.271 846.292C716.804 843.73 717.009 841.985 717.13 839.411C719.024 835.537 817.058 786.347 829.776 779.593Z" fill="#0F172A"></path>
  <path d="M1160.2 115.378C1162.52 115.305 1163.42 115.755 1164.9 117.244L1164.54 118.735C1159.58 123.068 1133.04 136.303 1125.94 140.001L1044.61 182.239C1042.02 182.292 1040.02 182.332 1039.04 179.776C1042.35 174.689 1147.61 121.728 1160.2 115.378Z" fill="white"></path>
  <path d="M1436.37 311.728L1447.18 315.666C1445.97 319.354 1444.89 324.381 1443.94 328.24C1449.69 336.808 1454.56 344.348 1459.89 353.241L1451.38 359.284L1445.64 363.042L1428.33 340.631C1433.96 329.057 1434.28 324.561 1436.37 311.728Z" fill="white"></path>
  <path d="M1105.56 884.636C1110.98 884.39 1116.56 884.596 1121.53 887.031C1123.99 888.237 1127.15 890.507 1127.81 893.302C1128.31 895.398 1127.72 897.29 1126.47 899.007C1123.49 903.107 1116.58 903.879 1111.94 904.747C1104.02 905.053 1094.17 904.477 1089.97 896.661C1089.32 887.44 1098.3 886.155 1105.56 884.636Z" fill="#0F172A"></path>
  <path d="M1240.48 599.356C1247.94 598.764 1268.86 599.079 1266.52 611.005C1263.36 615.516 1259.26 616.342 1254.06 617.695C1246.37 618.265 1224.55 618.023 1227.46 605.594C1231.01 601.104 1234.99 600.611 1240.48 599.356Z" fill="#0F172A"></path>
  <path d="M1413.49 179.429C1416.26 179.979 1438 199.766 1441.75 203.07C1436.97 205.498 1431.42 208.902 1426.7 211.633C1423.78 211.388 1403.53 191.947 1399.4 188.168L1413.49 179.429Z" fill="white"></path>
  <path d="M1424.13 217.545C1428.5 222.865 1438.02 244.846 1441.18 252.023C1437.22 254.495 1432.17 257.257 1428.06 259.633C1428.36 259.86 1413.92 231.679 1411.34 227.731L1424.13 217.545Z" fill="white"></path>
  <path d="M218.785 829.614C238.132 828.672 251.183 842.749 224.161 848.338C216.372 848.319 206.371 847.914 202.156 840.148C201.467 831.131 212.054 830.505 218.785 829.614Z" fill="#0F172A"></path>
  <path d="M1291.44 158.06C1295.06 159.423 1311.58 173.827 1315.29 176.953C1308.91 177.921 1307.03 178.16 1301.14 180.894L1297.37 183.024C1291.25 182.491 1283.21 171.558 1279.02 166.763C1283.14 164.04 1287.39 160.924 1291.44 158.06Z" fill="white"></path>
  <path d="M1441.79 259.578C1450.08 262.732 1459.13 266.904 1467.34 270.474C1462.41 273.479 1457.32 277.164 1452.54 280.474C1444.19 276.347 1435.63 272.431 1427.22 268.3C1430.8 265.655 1437.73 261.923 1441.79 259.578Z" fill="white"></path>
  <path d="M1339.68 140.274C1343.03 140.123 1358.72 147.03 1362.86 148.73C1357.88 151.825 1353.41 155.001 1348.62 158.369C1346.08 158.968 1328.54 150.955 1324.74 149.348C1329.52 146.687 1334.95 143.184 1339.68 140.274Z" fill="white"></path>
  <path d="M1468.98 277.165L1470.02 277.351C1471.05 279.628 1470.62 296.262 1470.61 299.977C1466.99 302.554 1460.65 306.063 1456.64 308.442C1454.71 306.136 1454.84 290.752 1454.74 287.005C1459.15 283.728 1464.39 280.304 1468.98 277.165Z" fill="white"></path>
  <path d="M1371.13 175.823C1378.34 179.727 1383.37 182.581 1390.14 187.148C1388.03 190.023 1384.23 196.166 1381.42 197.477L1379.62 196.703C1372.22 191.326 1365.44 187.871 1357.22 183.994L1371.13 175.823Z" fill="white"></path>
  <path d="M1365.63 154.657C1367.09 156.565 1366.52 169.355 1366.5 172.548L1352.33 181.262L1351.83 180.799C1350.81 177.511 1351.21 168.566 1351.24 164.67L1365.63 154.657Z" fill="white"></path>
  <path d="M1374.98 373.858L1385.31 373.374C1385.51 381.147 1387.48 385.665 1380.86 390.425L1373.69 394.271C1374.3 387.666 1374.6 380.522 1374.98 373.858Z" fill="white"></path>
  <path d="M1264.19 226.508L1264.94 227.267C1265.94 230.371 1265.28 236.277 1265.09 239.79L1254.2 236.496L1252.41 235.979L1251.97 234.844C1254.5 231.965 1260.69 228.62 1264.19 226.508Z" fill="white"></path>
  <path d="M1307.59 341.826C1309.76 343.512 1310.45 343.781 1311.55 346.182C1309.93 349.303 1306.64 350.377 1303.17 352.377L1301.32 353.169L1300.68 352.678C1301.64 349.364 1305.42 344.778 1307.59 341.826Z" fill="white"></path>
  <path d="M510.334 42.0154C524.554 41.0137 544.908 52.5331 558.086 58.7525C566.295 55.7075 578.958 48.7116 588.001 52.5876C618.843 65.8323 642.196 71.6238 629.984 112.29C619.006 148.844 593.212 158.751 562.66 174.923L503.392 206.414C488.833 213.822 456.33 234.701 442.82 230.394C431.852 225.691 417.975 218.657 408.089 212.307C396.311 204.74 396.735 184.168 400.168 172.606C407.733 147.125 421.627 139.466 443.525 127.468C443.036 89.3148 472.061 49.1745 510.334 42.0154Z" fill="#0F172A"></path>
  <path d="M539.443 61.57C558.604 60.6246 568.145 67.9733 575.779 84.2821C588.16 79.1557 611.884 58.2617 623.678 80.1347C633.541 98.4262 618.765 130.841 603.844 143.507C592.605 153.046 574.561 161.486 560.82 168.809L507.213 197.395C494.72 203.876 456.101 227.778 443.216 224.162C440.214 223.319 437.878 221.501 436.399 218.734C432.142 210.772 434.365 198.095 437.004 189.957C444.121 168.007 455.245 159.118 475.389 148.923C473.75 113.762 503.162 67.7187 539.443 61.57Z" fill="white"></path>
  <path d="M538.007 128.02C560.769 126.923 548.11 153.52 532.68 160.492C512.635 161.54 521.703 140.104 530.603 132.826C533.051 130.824 535.274 129.535 538.007 128.02Z" fill="#0F172A"></path>
  <path d="M540.821 132.273C551.19 138.625 539.272 152.738 530.626 155.592C518.696 148.905 532.461 135.583 540.821 132.273Z" fill="#0F172A"></path>
  <path d="M572.672 110.228C595.261 109.348 583.403 134.25 568.665 142.224C545.65 143.66 557.556 118.137 572.672 110.228Z" fill="#0F172A"></path>
  <path d="M571.688 115.383C575.47 115.364 576.112 115.677 578.523 117.788C581.719 124.698 574.213 132.819 569.087 136.645C565.452 137.024 564.711 136.516 562.203 134.802C558.518 128.135 566.907 119.23 571.688 115.383Z" fill="#0F172A"></path>
  <path d="M505.05 144.884C526.418 146.24 513.494 171.35 498.011 177.608C477.257 177.292 489.503 151.471 505.05 144.884Z" fill="#0F172A"></path>
  <path d="M505.436 149.943C517.437 155.722 505.59 168.292 498.392 172.54C485.065 168.11 497.749 154.032 505.436 149.943Z" fill="#0F172A"></path>
  <path d="M510.074 48.2324C519.823 47.4417 532.909 54.118 542.215 58.0579C504.229 62.7612 482.174 100.052 472.767 133.711C472.209 137.079 471.822 141.061 471.402 144.499C463.988 140.544 456.988 136.571 449.713 132.36C449.539 95.1138 471.559 56.0103 510.074 48.2324Z" fill="white"></path>
  <path d="M443.693 134.934C446.328 135.868 465.682 146.279 469.395 148.213C444.001 162.035 425.232 189.403 433.481 219.022C426.253 215.426 410.13 208.588 407.016 201.441C400.51 186.511 406.282 166.461 416.256 154.323C424.375 144.444 432.799 140.503 443.693 134.934Z" fill="white"></path>
  <path d="M576.257 57.888C587.569 56.5994 593.216 61.022 603.357 66.405C596.156 68.7303 593.475 70.2218 586.96 73.7927L577.772 79.1431C572.727 70.724 570.98 69.0465 563.374 63.4205C567.662 61.29 571.829 59.6652 576.257 57.888Z" fill="white"></path>
  <path d="M1554.67 339.379C1560.14 340.16 1565.77 341.796 1571.14 343.198C1572.44 350.563 1573.89 357.844 1575.34 365.181C1581.47 368.684 1587.39 371.906 1593.63 375.201C1599.34 371.774 1603.95 369.171 1609.89 366.179C1615.68 372.283 1636.97 388.922 1637.53 394.73C1635.41 397.479 1629.67 400.773 1626.52 402.812C1628.96 413.554 1631.42 422.785 1634.42 433.35C1641.49 437.737 1650.38 442.246 1658.01 445.542L1659.65 474.658C1654.7 478.558 1643.25 485.717 1637.89 488.666C1638.4 491.368 1639.27 496.548 1640.35 498.888C1642.54 503.655 1649.64 507.274 1649.51 512.728C1645.44 519.165 1619.73 535.353 1612.03 539.733C1607.35 536.12 1604.48 531.129 1599.16 526.775C1594.29 527.192 1594.57 535.992 1592.55 537.902C1589.09 541.177 1575.63 547.878 1570.98 547.688C1544.96 540.475 1548.6 542.866 1544.32 517.59C1538.31 514.188 1534.18 510.813 1528.74 506.58C1524.25 510.392 1520.4 513.701 1515.58 517.128C1507.97 509.686 1498.14 494.916 1492.96 485.588C1495.96 482.969 1501.13 479.563 1504.52 477.176C1500.49 470.178 1498.15 463.773 1495.81 456.126C1488.8 452.632 1481.63 449.962 1474.35 447.129C1472.52 439.825 1470.73 425.534 1469.5 417.632C1477.65 412.785 1484.85 407.952 1494.22 406.093C1488.41 398.586 1483.69 392.794 1477.34 385.758C1478.19 378.779 1479.25 372.205 1480.4 365.268C1486.43 361.429 1493.6 356.589 1499.92 353.587C1507.92 357.479 1516.12 362.751 1524.87 367.007C1523.46 361.756 1522.67 357.905 1521.7 352.608L1528.31 346.456C1532.33 347.389 1536.67 347.553 1540.81 347.845C1545.64 345.606 1550.22 342.342 1554.67 339.379Z" fill="#0F172A"></path>
  <path d="M1529.25 354.811L1541.71 354.592C1542.21 358.552 1543.73 376.865 1547.19 378.485C1558.75 383.905 1571.07 387.476 1580.63 396.551C1582.09 397.943 1583.54 397.616 1585.14 397.192C1588.11 394.44 1591.02 388.741 1593.14 385.068L1611.9 403.9C1606.71 407.423 1603.47 409.443 1598.99 413.894C1606.64 426.675 1611.81 438.684 1615.99 452.913C1621.96 456.452 1626.01 458.031 1632.42 460.647C1632.94 467.726 1633.27 474.298 1633.49 481.393C1623.81 477.453 1618.19 475.701 1616.75 488.896C1615.94 496.382 1613.87 500.903 1610.46 507.383C1615.67 513.151 1618.99 516.686 1623.18 523.176C1619.48 526.264 1615.84 528.843 1611.94 531.645C1606.31 525.176 1601.51 519.776 1595.44 513.744C1592.53 514.772 1587.74 516.5 1584.89 517.095C1580.35 518.04 1574.37 516.95 1570.47 520.213C1567.38 525.257 1570.06 532.475 1571.37 538.502C1571.01 539.995 1571.38 539.331 1569.86 540.296C1565.28 539.905 1558.55 537.513 1553.98 536.085C1552.59 529.838 1551.78 521.031 1550.44 514.048L1549.93 513.751C1541.09 508.452 1536.16 504.572 1528.04 498.275C1524.3 501.093 1519.42 505.788 1515.84 509.035C1510.35 501.932 1505.61 495.519 1500.5 488.142C1505.12 485.101 1507.62 483.295 1511.91 479.739C1507.23 469.989 1503.73 463.006 1501.15 452.519C1495.13 449.021 1486.42 445.122 1479.98 442.028C1478.5 434.701 1478.06 430.533 1477.48 423.043C1484.58 426.349 1489.11 428.499 1496.55 430.778C1497.55 420.114 1498.24 413.675 1500.82 403.282L1484.03 383.789L1486.4 369.523C1494.8 375.685 1502.18 383.337 1510.82 389.38C1519.34 381.926 1521.97 381.709 1532.7 378.109C1532.17 371.393 1530.2 362.001 1529.25 354.811Z" fill="white"></path>
  <path d="M1539.93 395.693C1594.6 392.808 1633.2 488.851 1577.59 503.99C1521.75 507.981 1482.45 408.698 1539.93 395.693Z" fill="#0F172A"></path>
  <path d="M1544.7 401.619C1569.59 405.113 1588.54 426.182 1596.01 449.495C1598.77 458.098 1601.12 470.268 1596.52 478.541C1595.04 481.205 1593.05 481.192 1590.29 482.029C1554.12 486.005 1518.76 427.678 1544.7 401.619Z" fill="white"></path>
  <path d="M1532.8 404.459C1533.19 404.872 1529.17 420.638 1529.41 424.304C1531.64 458.767 1556.57 488.938 1592.71 488.712C1588.12 492.519 1586.67 493.725 1581.24 496.497C1540.9 507.499 1493.16 433.763 1532.8 404.459Z" fill="white"></path>
  <path d="M1624.57 484.719C1631.36 487.607 1630.85 487.671 1632.94 495.447C1635.06 503.349 1636.27 505.875 1641.68 511.877L1634.68 516.327C1631.49 518.542 1632.34 518.701 1629.16 518.478C1625.68 516.268 1622.04 510.161 1618.91 506.334C1621.79 501.081 1623.25 491.039 1624.57 484.719Z" fill="white"></path>
  <path d="M1607.96 374.1C1610.11 374.647 1626.53 390.888 1629.33 393.581C1626.13 395.635 1621.98 397.832 1618.62 399.738C1615.88 399.707 1600.63 383.676 1597.62 380.707L1607.96 374.1Z" fill="white"></path>
  <path d="M1619.99 406.308C1620.23 406.621 1626.7 429.119 1627.66 431.791C1625.12 433.713 1620.83 437.754 1618.28 437.635C1614.44 429.094 1611.49 423.269 1606.88 415.115L1619.99 406.308Z" fill="white"></path>
  <path d="M1567.57 369.638C1571.3 369.627 1584.12 377.448 1588.06 379.703L1583.01 388.746L1581.44 388.963C1572.77 382.64 1567.15 379.467 1557.33 375.226L1567.57 369.638Z" fill="white"></path>
  <path d="M1499.22 360.882C1507.55 365.427 1515.98 369.56 1524.48 373.775L1515.09 377.767L1510.1 380.799C1503.99 375.276 1498.52 370.545 1492.12 365.367L1499.22 360.882Z" fill="white"></path>
  <path d="M1651.8 453.142C1652.5 456.79 1652.77 467.214 1652.97 471.454C1649.14 474.019 1644.76 476.623 1640.82 479.084C1639.68 472.336 1639.63 467.841 1639.46 461.014L1651.8 453.142Z" fill="white"></path>
  <path d="M1629.43 439.017C1631.21 438.927 1644.91 446.573 1647.82 448.05L1638.23 454.012L1636.11 454.731C1630.55 452.791 1622.13 451.374 1621.77 444.862C1622.99 441.907 1626.5 440.581 1629.43 439.017Z" fill="white"></path>
  <path d="M1563.78 351.067L1564.81 351.199C1566.36 352.699 1567.47 360.089 1568.01 362.68C1561.16 365.557 1558.37 366.949 1552.07 370.862L1550.51 370.923C1549.14 367.8 1548.84 361.765 1548.48 358.162C1553.71 356.176 1558.75 353.547 1563.78 351.067Z" fill="white"></path>
  <path d="M1591.78 521.912C1592.47 522.01 1592.06 521.871 1592.78 522.699C1586.56 531.869 1587.56 534.12 1578.2 537.75C1575.98 535.507 1575.8 529.414 1575.24 525.661C1581.37 524.638 1585.79 523.502 1591.78 521.912Z" fill="white"></path>
  <path d="M1491.45 412.446L1492.03 412.951C1492.96 416.805 1493.4 419.44 1489.6 421.464L1485.68 419.848C1484.46 419.263 1484.17 418.937 1483.12 418.117C1484.81 415.412 1488.33 414.144 1491.45 412.446Z" fill="white"></path>
</svg>
