<?xml version="1.0" encoding="UTF-8"?>
<svg xmlns="http://www.w3.org/2000/svg" width="1820" height="1024" viewBox="0 0 1820 1024" fill="none">
  <g clip-path="url(#clip0_625_3328)">
    <path d="M497.22 625.037L497.335 435.056C497.532 414.036 496.481 390.625 498.132 369.742C498.601 363.805 504.941 352.373 509.238 348.287C511.029 346.584 513.514 343.955 515.858 342.76C532.689 334.174 549.908 325.979 566.777 317.501L694.759 253.673L947.777 126.876C986.142 107.733 1024.4 88.3175 1062.88 69.4133C1067.29 67.244 1069.45 66.6033 1074.24 66.3865C1082.71 66.0041 1091.78 70.9659 1092.32 80.2022C1092.87 91.4162 1092.69 102.866 1092.62 114.175L1092.4 170.387L1092.29 351.104C1099.6 363.846 1111.4 357.467 1116.36 376.329C1121.68 380.638 1158.95 399.588 1167.6 404.131L1258.88 452.003C1275.66 460.821 1293.75 469.773 1310.01 479.218L1313.84 478.731L1312.98 476.898C1308.24 473.288 1300.01 466.115 1299.92 459.736C1299.75 449.327 1300.34 437.247 1298.61 426.583C1299.19 419.954 1307.22 415.659 1312.38 415.258C1333.76 413.591 1349.99 420.073 1352.35 442.969C1373.3 425.996 1400.1 410.463 1423.84 397.63C1497.59 357.766 1586.29 328.725 1671 337.509C1687.2 339.189 1718.2 343.051 1729.22 356.679C1733.83 362.374 1733.79 374.32 1732.55 381.313C1721.65 443.119 1669.57 498.338 1620.83 534.361C1576.02 567.485 1525.64 592.985 1472.53 609.284C1463.86 611.946 1457.45 613.755 1448.88 615.67C1443.52 616.868 1425.14 619.33 1421.74 620.924C1468.78 647.662 1517.42 672.372 1564.71 698.802C1582.6 690.061 1605.87 677.083 1623.33 669.468C1617.55 665.947 1600.73 658.121 1598.91 653.987C1601.63 650.58 1606.74 650.501 1610.89 650.036C1619.91 649.025 1666.54 643.606 1671.61 645.745C1674.56 650.701 1664.94 661.376 1662.77 666.79C1652.47 692.443 1647.57 681.035 1629.48 673.062L1288.21 852.043L1175.02 910.911C1160.47 918.332 1145.39 927.968 1130.27 933.741C1109.95 941.501 1078.17 936.739 1072.05 912.355L992.307 952.918C975.679 945.13 957.374 933.673 940.781 925.116C898.718 903.427 855.739 877.898 813.617 856.701C779.178 875.402 724.175 811.737 691.389 815.385C687.261 815.845 640.845 840.508 635.85 843.703C632.091 850.736 624.733 870.802 619.552 873.015C613.166 873.547 600.375 864.816 593.946 861.221C576.537 872.524 550.444 884.42 530.468 895.151C514.531 903.713 463.428 932.434 449.517 935.394C439.601 937.503 397.718 912.363 385.756 905.896L297.762 858.444L199.836 805.58C183.838 797.028 160.652 786.6 145.797 775.303C143.194 773.324 142.803 769.109 142.913 765.858C146.387 757.128 178.805 742.262 187.866 737.595L243.151 708.457C250.387 704.789 257.139 701.201 264.235 697.267L266.248 696.492C268.342 694.961 283.777 687.542 286.942 685.972C290.724 684.207 294.821 682.058 298.473 680.032C321.296 667.374 344.955 656.303 368.107 644.384C369.989 631.008 369.697 621.791 370.015 608.483C347.419 604.312 355.084 583.251 361.926 568.606C366.684 555.402 362.512 552.71 374.229 543.782C380.967 519.307 387.85 506.333 420.071 511.538C430.25 513.182 431.86 520.947 426.38 529.51C426.759 540.869 427.921 550.627 423.908 561.424L416.184 565.556C421.791 573.256 435.902 581.474 438.296 586.695C442.601 590.628 458.293 607.735 460.787 612.366C463.481 617.47 464.643 618.93 468.39 623.365C478.256 624.123 487.298 624.684 497.22 625.037Z" fill="white"></path>
    <path d="M497.22 625.037L497.335 435.056C497.532 414.036 496.481 390.625 498.132 369.742C498.601 363.805 504.941 352.373 509.238 348.287C511.029 346.584 513.514 343.955 515.858 342.76C532.689 334.174 549.908 325.979 566.777 317.501L694.759 253.673L947.777 126.876C986.142 107.733 1024.4 88.3175 1062.88 69.4133C1067.29 67.244 1069.45 66.6033 1074.24 66.3865C1082.71 66.0041 1091.78 70.9659 1092.32 80.2022C1092.87 91.4162 1092.69 102.866 1092.62 114.175L1092.4 170.387L1092.29 351.104C1099.6 363.846 1111.4 357.467 1116.36 376.329L1115.76 384.382C1113.2 394.348 1109.56 400.153 1106.35 409.081L1107.08 409.196C1110.91 409.775 1129.35 409.817 1130.95 414.648C1136.64 431.871 1142.65 449.613 1148.35 466.766C1154.15 484.256 1126.29 518.221 1127.49 533.848C1129.09 536.296 1129.41 536.665 1129.24 539.547C1127.92 542.503 1126.82 543.282 1124.5 545.419C1123.84 564.095 1119.63 590.052 1119.78 606.726C1119.98 628.368 1123.56 659.23 1125.23 681.625L1124.99 686.647C1125.05 690.835 1124.93 692.331 1126.33 696.242L1125.82 699.011C1123.61 701.966 1120.45 702.948 1117.04 704.447C1106.89 700.764 1097.72 692.01 1088.01 686.727L1087.12 687.153C1086.85 692.086 1087.54 697.142 1081.36 698.605C1076.59 699.735 1069.03 696.423 1064.51 694.763L1063.55 691.708L1064.33 690.644C1064.74 687.037 1063.11 678.492 1062.5 674.533C1058.72 652.748 1055.55 629.185 1053.53 607.217C1052.18 592.539 1057 574.208 1054.24 559.215C1051.5 544.32 1053.83 528.847 1054.97 513.8C987.477 547.639 918.295 579.576 850.796 613.329C850.035 619.314 846.868 634.538 847.567 639.542L846.479 641.726C867.878 653.531 888.909 664.417 910.566 675.661C918.366 679.71 935.399 688.402 941.935 693.044L946.709 692.701C946.276 702.696 940.437 705.147 932.014 709.071C902.41 722.948 873.673 738.654 844.281 753C828.496 760.705 809.547 746.636 795.261 739.026L730.273 704.679C723.183 700.974 705.187 691.11 698.504 688.606L697.805 688.35C656.472 708.014 615.455 729.1 574.138 748.87C555.622 757.73 536.007 768.078 517.348 776.103C502.819 770.869 497.228 768.498 497.393 752.154C497.5 741.466 497.383 730.305 497.399 719.586L497.108 645.27C490.055 645.133 482.495 645.049 475.484 644.963C458.63 644.756 453.265 645.895 441.103 634.041C439.286 635.415 434.493 639.211 432.734 640.007C436.758 677.52 440.69 717.451 443.652 755.17C445.108 773.704 440.834 800.087 440.692 819.633L439.591 839.856C444.624 839.899 455.868 840.093 458.982 844.82L458.586 846.615C452.435 853.03 427.619 855.783 420.065 850.344C416.541 845.965 415.962 823.098 415.208 815.604C408.088 813.818 400.862 813.307 393.56 813.932C393.368 817.013 392.691 818.356 394.114 820.459C399.757 820.386 404.867 820.427 409.687 823.808C414.01 833.487 379.485 837.381 373.68 833.217C368.97 829.838 370.373 824.949 370.464 820.319C370.563 793.07 372.02 762.8 371.346 736.102C370.532 703.902 362.036 686.171 367.261 652.198L368.107 644.384C369.989 631.008 369.697 621.791 370.015 608.483C347.419 604.312 355.084 583.251 361.926 568.606C366.684 555.402 362.512 552.71 374.229 543.782C380.967 519.307 387.85 506.333 420.071 511.538C430.25 513.182 431.86 520.947 426.38 529.51C426.759 540.869 427.921 550.627 423.908 561.424L416.184 565.556C421.791 573.256 435.902 581.474 438.296 586.695C442.601 590.628 458.293 607.735 460.787 612.366C463.481 617.47 464.643 618.93 468.39 623.365C478.256 624.123 487.298 624.684 497.22 625.037Z" fill="#0F172A"></path>
    <path d="M513.05 429.224C524.345 425.257 560.714 405.85 573.446 399.493L703.757 334.395L940.021 215.676C985.724 192.87 1035.8 169.4 1080.53 145.571C1081.85 211.698 1080.62 279.926 1080.57 346.175C1075.76 347.155 1070.54 348.903 1067.3 352.83C1065.49 357.031 1069.16 361.33 1069.08 365.01C1068.95 371.177 1067.29 374.859 1067.97 381.428C1070.78 379.053 1071.33 366.331 1071.91 362.486C1075.13 372.095 1086.39 397.863 1076.71 405.472C1073.09 406.382 1074.4 406.527 1071.32 405.506C1067.76 401.395 1067.18 393.466 1066.34 387.957L1066.43 388.308C1063.34 392.55 1063.69 404.771 1069 407.616C1072.15 409.308 1076.21 410.362 1077.13 413.668C1075.48 419.463 1064.19 428.26 1059.07 432.861C1055.98 435.689 1052.49 439.049 1049.23 441.604C1043.27 446.235 1039.02 449.203 1032.64 453.249L1014.53 440.014L1013.73 440.136L1012.25 440.25C1009.68 438.676 1008.89 438.039 1005.81 437.55C1000.47 437.846 997.904 441.294 993.918 445.224C1001.52 454.041 1020.64 478.721 1031.47 479.248C1026.98 480.914 1029.71 478.61 1026.65 480.903C1030.34 480.405 1032 480.117 1035.69 480.846L1036.2 481.388C1043.04 480.119 1048.7 478.29 1055.35 476.251C1055.84 482.997 1055.65 491.835 1055.68 498.752C1046.11 504.765 1024.96 514.502 1014.46 519.584L952.677 549.711L771.608 637.851L594.151 725.22L544.753 749.437C537.421 752.991 521.94 760.933 514.846 762.618L514.036 761.879C512.06 752.385 512.741 729.026 512.748 718.378L512.839 643.758C526.548 643.018 531.88 644.822 535.674 629.651C536.328 627.035 535.679 626.522 534.496 624.419C527.152 620.984 523.031 627.568 512.891 625.594L512.753 496.198C512.738 477.3 511.826 446.986 513.05 429.224Z" fill="white"></path>
    <path d="M1059.06 228.392C1058.89 296.504 1058.33 364.788 1059.07 432.861C1055.98 435.689 1052.49 439.049 1049.23 441.604L1048.96 234.015L1059.06 228.392Z" fill="#0F172A"></path>
    <path d="M999.814 457.237L1006.71 464.872C998.051 468.272 982.156 476.795 973.428 481.171L914.599 510.231L914.402 499.902C938.126 488.925 977 469.797 999.814 457.237Z" fill="#0F172A"></path>
    <path d="M987.228 443.097L993.969 450.874C988.584 452.527 971.812 461.519 966.081 464.416L914.496 490.189L914.43 479.388C937.01 469.334 965.165 454.668 987.228 443.097Z" fill="#0F172A"></path>
    <path d="M987.228 443.097C984.132 440.455 974.573 431.751 976.403 429.351C981.341 422.877 974.072 424.857 973.741 417.925L974.98 416.766C983.841 417.015 998.802 428.661 1005.47 434.226C1007.58 435.698 1011.98 438.579 1013.73 440.136L1012.25 440.25C1009.68 438.676 1008.89 438.039 1005.81 437.55C1000.47 437.846 997.904 441.294 993.918 445.224C1001.52 454.041 1020.64 478.721 1031.47 479.248C1026.98 480.914 1029.71 478.61 1026.65 480.903C1030.34 480.405 1032 480.117 1035.69 480.846L1036.2 481.388C1022.67 486.068 1014.98 473.877 1006.71 464.872L999.814 457.237L993.969 450.874L987.228 443.097Z" fill="#0F172A"></path>
    <path d="M986.09 424.695C993.081 426.086 995.579 429.906 1000.58 435.037C998.056 436.92 994.824 439.767 992.328 441.832C990.17 441.944 982.41 434.256 979.671 431.922C981.419 429.306 983.882 426.979 986.09 424.695Z" fill="white"></path>
    <path d="M1005.47 434.226C1014.42 429.056 1027.04 422.382 1036.67 418.19L1036.71 428.355C1032.65 430.259 1016.56 437.365 1014.53 440.014L1013.73 440.136C1011.98 438.579 1007.58 435.698 1005.47 434.226Z" fill="#0F172A"></path>
    <path d="M699.946 353.743C702.122 356.639 701.244 383.147 701.225 388.658L560.309 459.621C557.993 456.541 558.981 429.097 559.01 423.413C605.31 400.252 654.234 377.62 699.946 353.743Z" fill="#0F172A"></path>
    <path d="M871.776 268.473C873.64 271.184 872.728 298.683 872.679 303.717C828.183 325.302 782.037 349.302 737.962 371.865C736.157 369.842 736.799 340.856 736.801 336.049L871.776 268.473Z" fill="#0F172A"></path>
    <path d="M1037.02 198.14C1037.86 198.269 1037.75 198.429 1038.61 199.126C1039.3 208.252 1038.79 221.943 1038.72 231.397C1027.04 238.121 1013.25 244.335 1001.2 250.57C970.284 266.556 937.641 281.276 907.136 297.881L905.829 297.296C905.055 291.261 905.446 270.332 905.451 263.2C948.651 241.18 993.444 219.844 1037.02 198.14Z" fill="#0F172A"></path>
    <path d="M698.858 455.011L700.168 455.54L698.965 499.937L685.337 493.152C670.971 513.65 648.836 548.182 636.049 569.857C621.923 565.689 605.871 559.834 591.766 555.057C585.055 565.173 576.076 576.851 568.805 586.799L562.007 581.121L559.379 578.761C558.755 574.462 584.737 540.191 589.442 533.71C600.963 538.531 619.479 544.339 631.749 548.63C644.944 528.957 658.987 506.4 671.571 486.276C667.536 484.837 663.408 482.751 659.515 480.899C667.885 474.062 688.838 461.382 698.858 455.011Z" fill="#0F172A"></path>
    <path d="M722.918 394.585L723.723 395.142C725.823 399.483 724.746 597.906 724.693 619.416L715.567 624.005C714.742 622.829 714.281 418.989 714.133 399.329L722.918 394.585Z" fill="#0F172A"></path>
    <path d="M896.446 312.912C897.392 313.994 897.88 523.805 896.936 538.158C895.159 540.772 892.273 541.538 889.229 542.845L888.17 542.19C887.388 536.09 887.764 523.393 887.772 516.865L887.769 471.504L887.689 317.163L896.446 312.912Z" fill="#0F172A"></path>
    <path d="M550.158 474.538C550.972 474.704 550.997 474.937 551.759 475.577C552.439 481.83 551.899 491.822 551.882 498.578L551.887 543.337L552.073 695.418C550.202 696.585 546.642 698.333 544.596 699.419C542.397 696.867 542.716 499.619 543.236 479.191C545.076 476.383 546.69 476.296 550.158 474.538Z" fill="#0F172A"></path>
    <path d="M865.687 330.651C867.718 332.408 867.037 338.196 866.993 340.909C853.534 348.223 838.643 354.797 824.86 361.725C797.357 375.55 769.786 389.526 742.004 402.767C740.008 401.203 740.489 395.061 740.406 392.395C755.731 385.969 772.2 376.892 787.201 369.431L865.687 330.651Z" fill="#0F172A"></path>
    <path d="M694.871 410.896C696.206 412.784 695.663 418.776 695.612 421.492L569.02 484.104C568.593 481.871 568.279 476.427 568.064 473.925C608.555 452.758 653.849 431.074 694.871 410.896Z" fill="#0F172A"></path>
    <path d="M866.382 414.271C867.904 416.181 867.349 421.454 866.628 423.727C862.249 428.667 754.175 480.48 741.365 486.622C740.822 485.02 740.598 478.815 740.476 476.752C781.199 455.742 825.074 434.641 866.382 414.271Z" fill="#0F172A"></path>
    <path d="M866.344 434.669C867.9 436.308 867.341 441.465 867.069 443.66C864.586 447.795 756.677 500.068 742.293 507.073C740.691 505.242 740.038 498.401 741.614 497.561C782.642 475.684 824.762 455.561 866.344 434.669Z" fill="#0F172A"></path>
    <path d="M866.166 351.112C867.875 353.903 867.275 357.054 867.303 360.762C856.352 367.525 833.575 377.837 821.147 383.975L742.315 423.162L741.777 422.763C740.463 420.563 740.976 415.987 741.053 413.144C781.123 394.751 825.905 370.801 866.166 351.112Z" fill="#0F172A"></path>
    <path d="M866.488 497.117C867.748 498.995 867.287 504.283 867.254 506.849C825.782 528.1 784.186 548.955 742.1 568.976L741.133 568.101C740.712 565.76 739.926 559.51 742.572 558.278C753.513 553.183 764.277 547.733 775.082 542.359L866.488 497.117Z" fill="#0F172A"></path>
    <path d="M866.261 517.36L866.897 517.983C868.247 522.597 868.152 526.978 863.199 529.387C822.477 549.191 782.289 570.136 741.477 589.749C739.792 587.232 740.302 583.277 740.356 580.046C744.26 578.27 748.101 576.329 751.936 574.409C790.021 555.345 827.847 535.759 866.261 517.36Z" fill="#0F172A"></path>
    <path d="M694.009 431.896L694.931 432.78C695.351 435.056 696.028 441.298 693.543 442.621C681.345 449.116 668.823 455.081 656.423 461.186L569.912 504.415L569.102 503.474C568.396 500.032 568.494 499.352 568.785 495.922C570.659 492.142 682.63 437.626 694.009 431.896Z" fill="#0F172A"></path>
    <path d="M692.011 569.727L693.251 571.503C693.727 574.87 694.041 578.875 690.221 580.765C677.967 586.603 665.885 593.059 653.623 598.849C625.482 612.136 597.534 627.026 569.156 639.704C567.687 636.942 568.177 632.934 568.259 629.639C582.432 623.499 598.82 615.037 612.942 608.168L692.011 569.727Z" fill="#0F172A"></path>
    <path d="M1031.74 339.585C1033.34 341.337 1032.76 347.555 1032.7 350.204C994.374 367.985 953.963 389.828 915.575 408.353L914.53 407.248C913.93 403.735 913.8 403.135 914.318 399.523C917.894 394.916 1018.52 347.075 1031.74 339.585Z" fill="#0F172A"></path>
    <path d="M1030.64 360.803L1032.29 361.459C1032.86 365.348 1032.92 365.939 1032.24 369.831C1024.16 375.108 1006.4 383.395 997.059 388.18L915.968 428.853L915.48 428.835C913.76 426.754 914.34 423.834 914.239 420.516C917.431 416.226 1017.6 367.377 1030.64 360.803Z" fill="#0F172A"></path>
    <path d="M690.951 590.19L692.251 590.512C693.526 592.793 692.953 596.594 692.836 599.432C654.446 619.631 609.445 639.783 570.048 659.015L569.18 659.164C565.139 654.03 570.377 648.562 575.027 646.321C613.633 627.717 652.723 609.572 690.951 590.19Z" fill="#0F172A"></path>
    <path d="M1031.95 256.001C1033.7 257.645 1033.26 263.523 1033.28 266.006C994.401 284.313 954.571 304.95 915.8 323.974L915.213 324.037C913.885 321.918 914.439 317.299 914.465 314.356C951.463 295.015 994.104 274.671 1031.95 256.001Z" fill="#0F172A"></path>
    <path d="M1031.23 277.31L1031.7 277.44C1033.26 279.417 1032.49 282.183 1032.36 285.36C1030.69 288.937 927.413 338.667 916.151 344.087L915.115 343.91C913.881 341.932 914.378 336.869 914.436 334.254C950.707 315.336 993.909 295.554 1031.23 277.31Z" fill="#0F172A"></path>
    <path d="M1080.59 99.0291C1080.62 109.666 1081.24 131.05 1080.3 140.806C1080.34 141.764 1080.4 144.796 1080.53 145.571C1035.8 169.4 985.724 192.87 940.021 215.676L703.757 334.395L573.446 399.493C560.714 405.85 524.345 425.257 513.05 429.224C511.128 421.542 511.625 405.452 512.067 397.277C512.055 392.531 511.846 387.681 512.775 383.04C559.774 358.213 612.161 333.764 660.178 309.787L915.758 181.716C968.352 155.678 1029.39 126.93 1080.59 99.0291Z" fill="#0F172A"></path>
    <path d="M1080.3 140.806C1080.34 141.764 1080.4 144.796 1080.53 145.571C1035.8 169.4 985.724 192.87 940.021 215.676L703.757 334.395L573.446 399.493C560.714 405.85 524.345 425.257 513.05 429.224C511.128 421.542 511.625 405.452 512.067 397.277C512.767 404.35 512.518 417.544 512.607 425.073C540.05 412.312 567.245 397.977 594.445 384.489L808.285 277.212L985.059 188.188C1015.53 172.94 1050.9 156.9 1080.3 140.806Z" fill="#0F172A"></path>
    <path d="M594.64 353.621C608.75 355.399 602.267 367.66 595.305 373.871C580.901 373.092 587.582 359.675 594.64 353.621Z" fill="white"></path>
    <path d="M562.816 368.761C565.977 368.521 566.595 368.39 569.404 370.039C574.663 376.043 569.058 383.854 564.383 388.21C561.32 388.651 560.971 388.583 558.244 387.119C552.911 381.129 558.038 373.19 562.816 368.761Z" fill="white"></path>
    <path d="M533.428 383.805C547.648 383.825 540.097 397.217 533.442 402.734C530.449 402.864 529.993 402.929 527.554 401.249C522.59 394.767 528.36 387.889 533.428 383.805Z" fill="white"></path>
    <path d="M512.619 378.587C510.479 372.517 513.782 364.682 517.34 359.734C519.952 356.026 523.948 353.482 527.942 351.457C556.582 336.932 585.501 322.993 614.278 308.751L751.158 240.27C764.867 233.415 778.462 226.354 792.135 219.427C880.727 174.546 970.068 131.04 1058.65 86.2138C1071.74 79.5928 1081.19 74.0635 1080.56 94.2629L1080.59 99.0289C1029.39 126.93 968.352 155.678 915.758 181.716L660.178 309.787C612.161 333.764 559.774 358.213 512.775 383.04L512.619 378.587Z" fill="white"></path>
    <path d="M512.619 378.587C548.389 360.123 585.534 342.382 621.599 324.249L926.455 171.285L1030.59 119.67C1046.77 111.585 1064.82 102.979 1080.56 94.2629L1080.59 99.0289C1029.39 126.93 968.352 155.678 915.758 181.716L660.178 309.787C612.161 333.764 559.774 358.213 512.775 383.04L512.619 378.587Z" fill="#0F172A"></path>
    <path d="M1106.35 409.081L1107.08 409.196C1110.91 409.775 1129.35 409.817 1130.95 414.648C1136.64 431.871 1142.65 449.613 1148.35 466.766C1154.15 484.256 1126.29 518.221 1127.49 533.848L1126.97 534.237L1126.42 532.991L1125.33 534.279L1125.43 538.052C1121.53 547.57 1102.42 553.315 1092.97 555.509C1080.11 558.495 1068.2 557.413 1055.64 553.744C1056.44 524.653 1060.06 506.556 1058.99 474.945C1062.24 473.647 1064.77 472.981 1066.96 470.272L1066.13 469.684C1057.85 471.147 1041.57 476.873 1031.47 479.248C1020.64 478.721 1001.52 454.041 993.918 445.224C997.904 441.294 1000.47 437.846 1005.81 437.55C1007.16 439.761 1028.59 454.853 1031.97 457.384C1049.3 449.028 1059.66 436.035 1074.16 424.395L1073.43 423.686C1075.72 422.206 1075.96 421.922 1078.56 421.333C1084.29 423.739 1096.95 422.098 1101.62 417.562C1104.35 414.913 1103.73 412.808 1104 409.277L1106.35 409.081Z" fill="#0F172A"></path>
    <path d="M1106.35 409.081L1107.08 409.196C1110.91 409.775 1129.35 409.817 1130.95 414.648C1136.64 431.871 1142.65 449.613 1148.35 466.766C1154.15 484.256 1126.29 518.221 1127.49 533.848L1126.97 534.237L1126.42 532.991L1125.33 534.279C1122.38 530.569 1120.58 515.281 1119.81 510.33C1117.28 493.979 1118.25 480.45 1120.6 464.151C1122.64 468.905 1124.38 474.495 1126.05 479.444C1119.21 495.413 1122.74 507.104 1125.33 524.36C1128.62 518.113 1146.12 480.26 1145.52 473.882C1144.03 458.071 1133.18 434.431 1128.87 418.385C1127.36 412.742 1110.56 411.698 1106.71 413.628C1106.42 415.521 1106.47 415.741 1106.7 417.682L1106.76 418.195C1099.69 426.985 1084.16 426.94 1074.16 424.395L1073.43 423.686C1075.72 422.206 1075.96 421.922 1078.56 421.333C1084.29 423.739 1096.95 422.098 1101.62 417.562C1104.35 414.913 1103.73 412.808 1104 409.277L1106.35 409.081Z" fill="#0F172A"></path>
    <path d="M846.479 641.726C867.878 653.531 888.908 664.417 910.565 675.661C918.365 679.71 935.399 688.402 941.935 693.044C936.741 696.44 927.909 700.324 922.102 703.114C894.829 716.22 868.172 730.476 841.067 743.887C838.202 745.305 833.332 747.572 830.151 746.182C815.061 739.586 800.493 731.32 785.893 723.605L708.688 682.724C729.826 672.212 767.042 652.18 788.224 643.839C784.45 662.721 778.941 682.087 774.588 701.069C795.359 689.41 823.331 676.359 845.112 665.718C844.961 657.41 844.886 649.906 846.479 641.726Z" fill="white"></path>
    <path d="M440.857 629.796C432.32 620.046 413.884 614.065 411.82 599.325C410.64 590.899 414.726 582.901 423.901 582.372C429.635 582.041 435.617 588.731 439.501 592.424L440.049 591.787L438.296 586.695C442.601 590.628 458.293 607.735 460.787 612.366L458.388 614.581C453.673 620.387 448.059 627.056 440.857 629.796Z" fill="#0F172A"></path>
    <path d="M438.296 586.695C442.601 590.628 458.293 607.735 460.787 612.366L458.388 614.581C452.411 607.186 445.645 599.933 439.501 592.424L440.049 591.787L438.296 586.695Z" fill="#0F172A"></path>
    <path d="M401.236 726.137C404.414 735.226 409.214 747.448 410.17 756.867C412.116 776.046 414.203 796.364 415.208 815.604C408.088 813.818 400.862 813.307 393.56 813.932C395.326 788.335 397.637 762.764 399.864 737.202C400.187 733.494 400.552 729.799 401.236 726.137Z" fill="white"></path>
    <path d="M1088.96 602.184C1092.01 625.956 1099.43 654.862 1101.67 676.536C1096.06 676.544 1092.53 677.659 1087.55 679.966C1087.35 669.117 1087.67 658.431 1087.04 647.552C1087.46 628.868 1083.02 619.665 1088.96 602.184Z" fill="white"></path>
    <path d="M1087.04 647.552C1087.67 658.431 1087.35 669.117 1087.55 679.966C1092.53 677.659 1096.06 676.544 1101.67 676.536L1101.92 679.158C1107.04 690.316 1114.61 690.222 1124.99 686.647C1125.05 690.835 1124.93 692.331 1126.33 696.242L1125.82 699.011C1123.61 701.966 1120.45 702.948 1117.04 704.447C1106.89 700.764 1097.72 692.01 1088.01 686.727L1087.12 687.153C1086.25 680.215 1086.47 654.793 1087.04 647.552Z" fill="#0F172A"></path>
    <path d="M1087.04 647.552C1087.67 658.431 1087.35 669.117 1087.55 679.966C1092.53 677.659 1096.06 676.544 1101.67 676.536L1101.92 679.158C1098.56 679.34 1095.12 679.13 1092.38 680.929C1088.52 687.814 1108.75 696.268 1113.41 699.439C1117.22 702.028 1122.41 697.44 1126.33 696.242L1125.82 699.011C1123.61 701.966 1120.45 702.948 1117.04 704.447C1106.89 700.764 1097.72 692.01 1088.01 686.727L1087.12 687.153C1086.25 680.215 1086.47 654.793 1087.04 647.552Z" fill="#0F172A"></path>
    <path d="M1078.56 421.333L1080.77 418.932C1080.78 416.531 1081.14 412.013 1081.67 409.64C1083.24 402.556 1080.58 386.351 1087.92 382.399L1089.18 383.251C1089.87 385.956 1089.51 388.581 1088.47 391.195C1084.79 400.469 1095.06 410.134 1104 409.277C1103.73 412.808 1104.35 414.913 1101.62 417.562C1096.95 422.098 1084.29 423.739 1078.56 421.333Z" fill="white"></path>
    <path d="M370.015 608.483C347.419 604.312 355.084 583.251 361.926 568.606L364.996 570.683C366.823 573.834 369.042 600.626 369.504 605.673C369.7 606.516 370.052 607.673 370.015 608.483Z" fill="#0F172A"></path>
    <path d="M370.015 608.483C347.419 604.312 355.084 583.251 361.926 568.606L364.996 570.683C358.565 582.492 352.799 599.723 369.504 605.673C369.7 606.516 370.052 607.673 370.015 608.483Z" fill="#0F172A"></path>
    <path d="M430.444 625.391C433.486 627.95 435.818 630.058 439.254 632.061L441.103 634.041C439.286 635.415 434.493 639.211 432.734 640.007L430.444 625.391Z" fill="#0F172A"></path>
    <path d="M368.62 567.609C380.388 573.684 387.41 582.082 404.315 581.908C413.472 581.814 418.709 575.681 424.844 576.867L425.57 578.411C423.509 580.079 419.581 580.161 417.311 581.399C394.952 593.592 417.569 615.377 427.223 623.548C428.674 639.057 430.276 654.1 432.41 669.547C432.939 673.425 435.104 683.435 431.944 685.398C416.441 695.031 379.768 686.049 368.328 675.181C370.045 656.93 373.111 637.658 373.335 619.539C373.538 603.184 370.688 584.118 368.62 567.609Z" fill="#0F172A"></path>
    <path d="M459.393 619.347C462.651 621.906 463.854 623.727 466.376 627.038C485.093 628.314 503.862 629.237 522.598 630.225C525.144 628.292 526.567 626.699 529.638 626.8C531.744 628.448 531.114 627.553 531.78 630.379C530.028 637.904 527.319 639.229 520.094 639.681C494.164 642.209 481.434 641.56 455.451 640.531C450.901 637.871 448.97 635.971 445.144 632.479C450.908 628.567 454.942 624.592 459.393 619.347Z" fill="white"></path>
    <path d="M421.225 531.265L422.732 532.453C424.37 540.492 425.26 557.67 416.04 561.02C412.804 560.009 413.996 560.737 411.609 557.714C409.282 553.387 405.526 551.346 404.945 546.246C404.379 541.276 412.026 540.094 415.285 537.376C417.362 535.644 419.369 533.357 421.225 531.265Z" fill="white"></path>
    <path d="M1107.67 564.206L1108.31 564.87C1108.77 567.769 1093.43 595.974 1090.73 601.193C1086.57 597.254 1104.27 568.536 1107.67 564.206Z" fill="#0F172A"></path>
    <path d="M1352.35 442.969C1373.3 425.996 1400.1 410.463 1423.84 397.63C1497.59 357.766 1586.29 328.725 1671 337.509C1687.2 339.189 1718.2 343.051 1729.22 356.679C1733.83 362.374 1733.79 374.32 1732.55 381.313C1721.65 443.119 1669.57 498.338 1620.83 534.361C1576.02 567.485 1525.64 592.985 1472.53 609.284C1463.86 611.946 1457.45 613.755 1448.88 615.67C1443.52 616.868 1425.14 619.33 1421.74 620.924C1419.4 620.027 1417.12 618.845 1414.89 617.684C1396.64 608.173 1378.94 597.613 1360.49 588.477C1357.64 587.018 1354.22 584.905 1351.39 583.256L1349.43 571.588C1357.66 570.679 1363.63 570.887 1370.38 566.199C1376.31 563.531 1392.53 546.189 1400.38 540.441C1394.23 537.171 1375.4 526.865 1370.2 525.448L1368.06 516.82C1363.91 496.255 1355.89 491.134 1340.92 479.546C1350.48 478.136 1366.95 475.16 1366.38 460.457C1366.02 451.174 1358.84 448.482 1352.79 443.347L1352.35 442.969Z" fill="white"></path>
    <path d="M1404.08 535.233C1473.82 481.124 1578.21 415.158 1667.9 393.241C1668.16 393.177 1669.35 393.543 1669.63 393.621L1670.49 394.812L1669.96 396.474C1649.83 406.172 1623.8 412.142 1602.14 421.882C1533.44 452.775 1469.4 490.99 1410.86 538.507L1404.08 535.233Z" fill="white"></path>
    <path d="M1368.06 516.82C1377.63 521.585 1395.51 531.639 1404.08 535.233L1410.86 538.507C1423.28 545.087 1491.27 578.892 1496.63 585.821L1496.82 587.688C1495.71 588.392 1494.4 589.548 1493.24 588.872C1471.01 575.897 1424.49 555.088 1404.84 542.748L1400.38 540.441C1394.23 537.171 1375.4 526.865 1370.2 525.448L1368.06 516.82Z" fill="#0F172A"></path>
    <path d="M1400.38 540.441L1404.84 542.748C1395.89 550.711 1388 557.768 1379.67 566.459C1373.04 573.375 1366.83 581.819 1360.49 588.477C1357.64 587.018 1354.22 584.905 1351.39 583.256L1349.43 571.588C1357.66 570.679 1363.63 570.887 1370.38 566.199C1376.31 563.531 1392.53 546.189 1400.38 540.441Z" fill="white"></path>
    <path d="M985.977 752.017C996.451 758.106 1014.54 767.765 1025.87 773.733C1026.71 774.176 1027.94 771.191 1032.87 772.484C1031.5 773.401 1030.69 773.557 1030.26 774.784C1050.56 785.846 1070.25 796.82 1090.28 808.33L1092.31 806.118C1110.03 815.11 1134.34 830.029 1152.01 840.237C1149.13 842.14 1145.61 843.912 1144.45 846.984C1144.23 850.167 1144.36 850.723 1145.02 853.821C1149.22 854.734 1160.11 861.893 1164.65 864.373C1160.92 866.85 1157.43 868.739 1153.42 870.694C1127.76 883.196 1102.72 897.133 1077.13 909.735L1072.05 912.355L992.307 952.918C975.679 945.13 957.374 933.673 940.781 925.116C898.718 903.427 855.739 877.898 813.617 856.701L806.207 852.894C808.802 847.801 825.177 840.816 831.169 837.713C828.714 835.929 827.722 835.361 825.933 832.794L826.234 831.303C837.903 824.06 866.149 811.197 879.881 804.432L985.977 752.017Z" fill="#0F172A"></path>
    <path d="M831.169 837.713C833.677 838.206 833.114 837.696 834.318 839.313C834.75 841.187 835.674 845.729 836.212 847.36C881.471 873.784 929.877 897.343 975.718 923.021C981.005 925.982 987.094 929.216 992.536 931.777C1028.07 915.352 1063.87 894.74 1099.1 877.314C1107.13 873.344 1134.58 858.16 1141.15 856.519L1141.92 854.137C1143.41 854.696 1143.08 854.45 1145.02 853.821C1149.22 854.734 1160.11 861.893 1164.65 864.373C1160.92 866.85 1157.43 868.739 1153.42 870.694C1127.76 883.196 1102.72 897.133 1077.13 909.735L1072.05 912.355L992.307 952.918C975.679 945.13 957.374 933.673 940.781 925.116C898.718 903.427 855.739 877.898 813.617 856.701L806.207 852.894C808.802 847.801 825.177 840.816 831.169 837.713Z" fill="#0F172A"></path>
    <path d="M836.212 847.36C881.471 873.784 929.877 897.343 975.718 923.021C981.005 925.982 987.094 929.216 992.536 931.777C1028.07 915.352 1063.87 894.74 1099.1 877.314C1107.13 873.344 1134.58 858.16 1141.15 856.519L1142.71 858.195L1140.66 859.682L1143.1 862.661C1139.84 866.317 1007.57 933.011 992.586 940.679C978.666 933.581 831.007 853.946 830.153 851.758C831.887 850.106 833.483 850.004 835.849 849.445L836.212 847.36Z" fill="white"></path>
    <path d="M836.212 847.36C881.471 873.784 929.877 897.343 975.718 923.021C981.005 925.982 987.094 929.216 992.536 931.777C1028.07 915.352 1063.87 894.74 1099.1 877.314C1107.13 873.344 1134.58 858.16 1141.15 856.519L1142.71 858.195L1140.66 859.682C1135.72 859.679 1009.55 927.009 992.31 934.651C956.494 914.576 919.27 895.556 883.394 875.424C869.322 867.528 848.8 858.253 835.849 849.445L836.212 847.36Z" fill="#0F172A"></path>
    <path d="M834.318 839.313C838.843 840.046 862.95 854.252 868.606 857.307L939.074 895.415C955.798 904.574 975.783 916.03 992.866 924.181C1027.88 907.514 1064.02 886.457 1098.98 869.187C1110.5 863.494 1130.84 851.394 1141.74 847.034C1141.86 849.563 1141.86 850.124 1141.36 852.601L1141.92 854.137L1141.15 856.519C1134.58 858.16 1107.13 873.344 1099.1 877.314C1063.87 894.74 1028.07 915.352 992.536 931.777C987.094 929.216 981.005 925.982 975.718 923.021C929.877 897.343 881.471 873.784 836.212 847.36C835.674 845.729 834.75 841.187 834.318 839.313Z" fill="#0F172A"></path>
    <path d="M1030.26 774.784C1050.56 785.846 1070.25 796.82 1090.28 808.33L1113.78 821.53L1095.09 831.524C1067.09 815.676 1038.47 800.86 1010.27 785.126C1016.43 781.642 1023.88 777.839 1030.26 774.784Z" fill="#0F172A"></path>
    <path d="M985.598 755.668C997.461 762.371 1010.11 768.845 1022.21 775.227C1018.37 777.051 1006.15 782.185 1004.45 785.344C1006.02 787.929 1020.83 794.967 1024.73 797.069L1094.4 835.115C1101.86 830.973 1109.42 827.428 1117.1 823.747C1126.88 829.22 1136.54 834.85 1146.23 840.474C1136.94 846.667 1115.2 857.299 1104.32 863.034L1010.9 911.97C1004.74 915.276 999.037 917.949 992.681 920.885C985.189 917.331 978.089 913.531 970.808 909.583C923.528 883.947 876.453 857.913 828.739 833.086L985.598 755.668Z" fill="white"></path>
    <path d="M1049.95 875.322C1050.48 870.402 1052.28 863.15 1048.53 859.565C1039.58 850.995 1025.36 845.688 1013.33 849.159L1012.12 848.61C1020.6 838.553 1047.13 853.375 1053.37 862.385C1052.86 867.002 1052.5 870.832 1052.3 875.488C1041 884.709 1020.02 894.993 1005.28 892.841C1003.13 892.528 1001.63 892.147 999.471 892.427L999.396 891.538C1020.78 892.949 1031.88 887.086 1049.95 875.322Z" fill="#0F172A"></path>
    <path d="M999.471 892.427C988.608 890.928 955.978 868.084 944.301 863.119C939.871 861.234 937.578 853.939 941.76 849.179L942.966 849.533C942.052 852.89 941.457 854.435 941.737 857.921C944.888 862.77 990.824 886.837 999.396 891.538L999.471 892.427Z" fill="#0F172A"></path>
    <path d="M969.455 778.672C973.467 781.064 988.811 802.44 993.07 807.971C988.19 811.243 982.558 813.638 977.213 816.126L976.302 815.776L976.347 814.574C980.376 812.002 985.93 810.316 990.516 808.695C985.831 802.039 971.037 785.228 969.455 778.672Z" fill="#0F172A"></path>
    <path d="M960.79 842.067C964.173 841.268 972.178 841.165 975.5 842.27L976.057 842.459C982.131 844.457 990.009 849.7 995.661 853.193C998.747 851.551 1004.42 849.027 1007.86 849.323L1005.62 850.585C1002.9 851.703 998.79 853.947 996.046 855.341C988.711 851.161 979.546 845.614 971.981 842.306C968.045 842.708 960.946 843.713 957.295 843.148L960.79 842.067Z" fill="#0F172A"></path>
    <path d="M883.847 828.342C887.215 827.939 894.374 829.972 897.312 831.998L897.284 832.806C893.669 833.291 888.809 831.396 885.171 830.286C881.912 831.454 878.371 832.938 875.119 834.219C869.747 836.645 865.789 838.711 859.953 839.783C861.45 837.187 879.811 830.006 883.847 828.342Z" fill="#0F172A"></path>
    <path d="M919.464 839.379C927.198 837.209 936.609 829.635 942.925 830.509C938.533 834.121 925.024 841.06 919.464 839.379Z" fill="#0F172A"></path>
    <path d="M942.925 830.509C944.716 826.801 955.637 822.699 959.644 822.059C957.79 825.17 945.938 830.823 942.925 830.509Z" fill="#0F172A"></path>
    <path d="M901.846 833.922C906.264 833.643 914.139 835.084 916.807 838.938C911.214 838.43 906.704 836.589 901.846 833.922Z" fill="#0F172A"></path>
    <path d="M970.19 816.881L971.726 817.5C969.993 819.575 965.594 821.017 962.9 822.133C962.574 822.079 961.794 821.533 961.457 821.326C962.678 819.576 967.902 817.816 970.19 816.881Z" fill="#0F172A"></path>
    <path d="M953.047 843.321L954.924 843.747L954.676 844.464L948.586 847.165C947.221 847.596 947.922 847.497 946.459 847.165C948.457 845.053 950.375 844.481 953.047 843.321Z" fill="#0F172A"></path>
    <path d="M1312.98 476.898C1308.24 473.288 1300.01 466.115 1299.92 459.736C1299.75 449.327 1300.34 437.247 1298.61 426.583C1299.19 419.954 1307.22 415.659 1312.38 415.258C1333.76 413.591 1349.99 420.073 1352.35 442.969L1352.79 443.347C1358.84 448.482 1366.02 451.174 1366.38 460.457C1366.95 475.16 1350.48 478.136 1340.92 479.546C1355.89 491.134 1363.91 496.255 1368.06 516.82L1370.2 525.448C1375.4 526.865 1394.23 537.171 1400.38 540.441C1392.53 546.189 1376.31 563.531 1370.38 566.199C1363.63 570.887 1357.66 570.679 1349.43 571.588L1351.39 583.256C1351.64 584.498 1352.8 590.938 1353.09 591.742C1355.35 613.049 1353.11 617.74 1352.37 637.447C1348.67 676.306 1354.6 698.35 1354.32 735.644C1354.48 740.268 1355.7 756.551 1354.11 759.834L1354.83 760.857C1359.08 770.539 1350.84 775.018 1343.36 779.567C1338.6 782.463 1324.83 789.228 1321.35 782.478C1321.96 773.56 1340.85 768.293 1338.47 759.094L1336.47 757.978C1334.26 755.235 1333.92 751.304 1333.27 747.765C1325.62 753.992 1306.25 767.025 1296.26 762.785C1290.58 755.631 1313.81 747.469 1314.71 737.769C1313.13 735.67 1313.14 736.27 1309.88 735.799C1307.35 733.932 1304.49 727.94 1302.83 724.918C1297.61 716.001 1272.22 677.471 1272.94 670.602C1275.53 646.093 1276.58 594.527 1283.38 571.887L1283.55 572.527C1286.32 570.88 1288.33 570.957 1291.46 570.764C1294.9 571.994 1300.62 574.759 1303.58 574.271C1304.25 570.991 1303.43 570.623 1302.08 566.923L1303.66 564.145L1302.66 560.204C1298.89 551.615 1297.37 541.647 1292.27 533.812C1292.27 533.812 1289.13 532.101 1288.87 531.959C1284.69 530.414 1283.47 529.947 1279.1 529.439C1278.58 529.413 1276.66 528.907 1276.03 528.755L1276.17 527.916C1279.9 516.395 1286.53 495.966 1293.86 486.464C1295.33 484.565 1299.05 482.568 1301.24 481.411L1310.01 479.218L1313.84 478.731L1312.98 476.898Z" fill="#0F172A"></path>
    <path d="M1296.23 487.447C1300.26 485.194 1305.7 482.365 1310.44 482.645L1311.4 483.808C1308.86 489.563 1304.52 497.69 1306.08 503.815C1313.08 511.811 1338.76 492.221 1346.03 487.395C1359.33 496.377 1363.95 509.848 1366.7 524.603C1368.18 532.52 1372.46 558.018 1367.39 563.383C1360.66 570.511 1326.19 569.582 1315.98 571.136C1315.79 570.625 1315.62 568.865 1315.54 568.215L1314.25 564.329C1310.54 561.399 1308.95 563.796 1304.45 561.25L1302.66 560.204C1298.89 551.615 1297.37 541.647 1292.27 533.812C1292.27 533.812 1289.13 532.101 1288.87 531.959C1284.69 530.414 1283.47 529.947 1279.1 529.439C1283.53 516.823 1289.31 498.48 1296.23 487.447Z" fill="white"></path>
    <path d="M1349.01 549.354C1347.34 545.019 1340.96 529.615 1342.11 525.893C1345.81 529.913 1352.37 547.592 1353.09 552.761L1352.39 553.736C1351.42 553.484 1350.25 553.181 1348.9 552.828C1341.76 555.835 1323.7 559.339 1317.99 562.573C1317.67 565.074 1317.54 566.483 1315.54 568.215L1314.25 564.329C1310.54 561.399 1308.95 563.796 1304.45 561.25C1318.43 559.164 1335.39 553.69 1349.01 549.354Z" fill="#0F172A"></path>
    <path d="M1304.15 436.228L1312.44 433.564C1317.78 437.955 1327.48 447.143 1332.35 450.154C1333.12 449.869 1339.85 439.645 1341.73 449.498C1339.68 457.014 1335.04 459.347 1330.2 464.184C1330.54 467.883 1330.6 473.887 1332.52 476.711C1336.71 478.58 1337.27 477.356 1340.74 480.999C1343.35 490.523 1321.77 498.287 1315.06 501.663C1314.37 502.01 1311.95 501.602 1311.09 501.394C1307 497.518 1309.46 490.073 1312.8 487.629L1313.9 485.37C1313.39 482.788 1313.64 482.171 1314.76 479.808L1313.84 478.731L1312.98 476.898L1312.38 473.74C1298.57 456.533 1302.23 457.076 1304.15 436.228Z" fill="white"></path>
    <path d="M1312.38 473.74C1318.63 476.417 1322.46 473.465 1328.43 470.935L1329.07 471.88L1328.6 473.238C1325.83 481.095 1323.77 492.303 1312.8 487.629L1313.9 485.37C1313.39 482.788 1313.64 482.171 1314.76 479.808L1313.84 478.731L1312.98 476.898L1312.38 473.74Z" fill="#0F172A"></path>
    <path d="M1312.38 473.74C1318.63 476.417 1322.46 473.465 1328.43 470.935L1329.07 471.88L1328.6 473.238L1327.79 473.8C1318.57 480.103 1317.97 475.543 1313.9 485.37C1313.39 482.788 1313.64 482.171 1314.76 479.808L1313.84 478.731L1312.98 476.898L1312.38 473.74Z" fill="#0F172A"></path>
    <path d="M1370.2 525.448C1375.4 526.865 1394.23 537.171 1400.38 540.441C1392.53 546.189 1376.31 563.531 1370.38 566.199C1374.96 555.663 1371.78 536.747 1370.2 525.448Z" fill="white"></path>
    <path d="M1302.66 560.204L1304.45 561.25C1308.95 563.796 1310.54 561.399 1314.25 564.329L1315.54 568.215C1315.62 568.865 1315.79 570.625 1315.98 571.136L1307.43 574.693L1303.66 564.145L1302.66 560.204Z" fill="#0F172A"></path>
    <path d="M1354.11 759.834L1354.83 760.857C1351.43 764.05 1347.35 767.386 1342.6 765.786C1341.1 762.741 1341.65 763.322 1342.41 759.306C1347.11 760.717 1349.23 760.349 1354.11 759.834Z" fill="#0F172A"></path>
    <path d="M1306.66 580.069C1314.94 578.199 1317.78 576.237 1325.3 573.794C1329.54 572.415 1341.46 572.353 1346.49 572.235C1348.42 586.326 1350.82 598.838 1351.83 613.199C1334.25 623.621 1319.73 616.598 1303.9 609.066C1293.14 603.946 1293.65 606.745 1283.89 597.824C1284.31 588.974 1285.27 580.883 1286.29 572.11L1306.66 580.069Z" fill="white"></path>
    <path d="M1299.25 666.343C1304.19 653.995 1310.02 642.146 1315.35 629.985C1319.78 658.875 1326.96 705.105 1331.6 735.58C1331.35 735.992 1331.09 736.405 1330.84 736.817L1328.72 736.82C1327.18 734.181 1326.98 732.704 1326.3 729.798C1328.37 722.616 1303.76 675.884 1299.25 666.343Z" fill="white"></path>
    <path d="M1326.3 729.798C1326.98 732.704 1327.18 734.181 1328.72 736.82C1324.73 739.582 1323.55 745.07 1316.15 742.771C1315.12 736.603 1321.85 732.338 1326.3 729.798Z" fill="#0F172A"></path>
    <path d="M1351.39 583.256C1354.22 584.905 1357.64 587.018 1360.49 588.477C1378.94 597.613 1396.64 608.173 1414.89 617.684C1417.12 618.845 1419.4 620.027 1421.74 620.924C1468.78 647.662 1517.42 672.372 1564.71 698.802C1582.6 690.061 1605.87 677.083 1623.33 669.468C1617.55 665.947 1600.73 658.121 1598.91 653.987C1601.63 650.58 1606.74 650.501 1610.89 650.036C1619.91 649.025 1666.54 643.606 1671.61 645.745C1674.56 650.701 1664.94 661.376 1662.77 666.79C1652.47 692.443 1647.57 681.035 1629.48 673.062L1288.21 852.043L1175.02 910.911C1160.47 918.332 1145.39 927.968 1130.27 933.741C1109.95 941.501 1078.17 936.739 1072.05 912.355L1077.13 909.735C1082.05 927.751 1107.62 935.814 1123.75 929.078C1141.02 921.859 1157.83 912.636 1174.5 904.064L1273.16 852.665L1558.63 702.256C1545.77 696.05 1532.71 688.121 1519.96 681.4C1483.79 662.331 1447.8 641.837 1411.31 623.422C1389.35 626.391 1372.14 633.948 1352.37 637.447C1353.11 617.74 1355.35 613.049 1353.09 591.742C1352.8 590.938 1351.64 584.498 1351.39 583.256Z" fill="#0F172A"></path>
    <path d="M1353.09 591.742C1356.88 593.112 1373.91 602.783 1378.09 605.29C1387.85 611.148 1402.17 617.572 1411.31 623.422C1389.35 626.391 1372.14 633.948 1352.37 637.447C1353.11 617.74 1355.35 613.049 1353.09 591.742Z" fill="white"></path>
    <path d="M1653.23 651.913C1655.1 651.538 1662.14 651.162 1664.41 650.987C1660.13 659.277 1655.12 667.896 1650.7 676.368C1644.43 673.383 1638.1 670.178 1631.86 667.105C1626.1 664.593 1616.82 659.01 1611.06 655.762C1625.15 654.644 1639.17 653.27 1653.23 651.913Z" fill="white"></path>
    <path d="M368.107 644.384L367.261 652.198C316.673 677.615 266.204 703.821 216.07 730.132C205.514 735.672 156.045 760.387 150.004 766.314C150.605 774.757 175.211 785.374 182.688 789.346L240.899 820.24L369.369 889.512C391.706 901.651 413.885 915.255 436.8 926.212C441.083 928.26 444.892 929.246 449.651 928.897C458.797 928.227 571.229 866.075 587.773 857.691C583.103 854.788 568.129 846.282 564.986 843.31L564.633 841.516C570.128 834.556 625.652 837.894 635.539 835.221C657.354 829.322 678.401 806.35 702.46 808.808C721.526 812.196 788.892 863.136 805.852 853.671L806.207 852.894L813.617 856.701C779.178 875.402 724.175 811.737 691.389 815.385C687.261 815.845 640.845 840.508 635.85 843.703C632.091 850.736 624.733 870.802 619.552 873.015C613.166 873.547 600.375 864.816 593.946 861.221C576.537 872.524 550.444 884.42 530.468 895.151C514.531 903.713 463.428 932.434 449.517 935.394C439.601 937.503 397.718 912.363 385.756 905.896L297.762 858.444L199.836 805.58C183.838 797.028 160.652 786.6 145.797 775.303C143.194 773.324 142.803 769.109 142.913 765.858C146.387 757.128 178.805 742.262 187.866 737.595L243.151 708.457C250.387 704.789 257.139 701.201 264.235 697.267L266.248 696.492C268.342 694.961 283.777 687.542 286.942 685.972C290.724 684.207 294.821 682.058 298.473 680.032C321.296 667.374 344.955 656.303 368.107 644.384Z" fill="#0F172A"></path>
    <path d="M620.378 841.258C622.613 840.977 627.199 840.933 629.628 840.834C626.042 848.986 620.877 858.804 616.885 866.947C611.396 864.052 605.043 860.036 599.625 856.782C593.349 853.474 584.689 847.899 578.404 844.128C592.606 843.439 606.203 842.425 620.378 841.258Z" fill="white"></path>
    <path d="M1302.83 724.918C1304.49 727.94 1307.35 733.932 1309.88 735.799C1313.14 736.27 1313.13 735.67 1314.71 737.769C1313.81 747.469 1290.58 755.631 1296.26 762.785C1306.25 767.025 1325.62 753.992 1333.27 747.765C1333.92 751.304 1334.26 755.235 1336.47 757.978L1338.47 759.094C1340.85 768.293 1321.96 773.56 1321.35 782.478C1324.83 789.228 1338.6 782.463 1343.36 779.567C1350.84 775.018 1359.08 770.539 1354.83 760.857L1354.11 759.834C1355.7 756.551 1354.48 740.268 1354.32 735.644C1354.77 736.177 1355.3 736.819 1355.92 737.57C1364.29 739.041 1373.07 740.44 1380.59 744.499C1389.25 749.171 1392.46 760.655 1386.92 768.865C1379.22 780.271 1360.66 788.253 1347.24 790.97C1320.59 796.363 1285.63 793.907 1261.23 781.404C1255.08 777.98 1249.27 770.256 1248.03 763.375C1247.08 758.13 1247.54 751.63 1251 747.383C1261.6 734.386 1287.64 727.713 1302.83 724.918Z" fill="white"></path>
    <path d="M1062.5 674.533C1063.11 678.492 1064.74 687.037 1064.33 690.644L1063.55 691.708L1064.51 694.763C1069.03 696.423 1076.59 699.735 1081.36 698.605C1087.54 697.142 1086.85 692.086 1087.12 687.153L1088.01 686.727C1097.72 692.01 1106.89 700.764 1117.04 704.447C1120.45 702.948 1123.61 701.966 1125.82 699.011L1126.33 696.242C1124.93 692.331 1125.05 690.835 1124.99 686.647L1125.23 681.625L1126.86 682.201C1157.47 693.304 1159.53 713.052 1128.32 725.726C1100 737.028 1062.66 738.184 1034.51 726.884C1003.86 714.582 1011.56 690.009 1039.37 682.857C1045.45 681.292 1056.69 678.992 1061.52 677.152L1062.5 674.533Z" fill="white"></path>
    <path d="M1087.12 687.153L1088.01 686.727C1087.26 691.26 1086.63 702.716 1089 706.551C1086.07 707.56 1081.11 711.079 1078.31 712.904C1072.72 710.359 1055.24 703.431 1052.98 698.696L1053.78 696.996C1056.74 695.082 1060.92 695.082 1064.51 694.763C1069.03 696.423 1076.59 699.735 1081.36 698.605C1087.54 697.142 1086.85 692.086 1087.12 687.153Z" fill="#0F172A"></path>
    <path d="M1079.27 716.284C1072.36 713.713 1047.5 704.169 1050.46 695.056C1054.2 691.961 1058.82 691.935 1063.55 691.708L1064.51 694.763C1060.92 695.082 1056.74 695.082 1053.78 696.996L1052.98 698.696C1055.24 703.431 1072.72 710.359 1078.31 712.904C1081.11 711.079 1086.07 707.56 1089 706.551C1088.9 708.014 1088.68 708.758 1088.36 710.171C1086.22 713.242 1082.66 714.603 1079.27 716.284Z" fill="#0F172A"></path>
    <path d="M393.56 813.932C400.862 813.307 408.088 813.818 415.208 815.604C415.962 823.098 416.541 845.965 420.065 850.344C427.619 855.783 452.435 853.03 458.586 846.615L458.982 844.82C455.868 840.093 444.624 839.899 439.591 839.856L440.692 819.633C453.769 822.102 467.659 826.187 475.845 837.37C482.91 847.482 473.143 859.001 464.538 863.744C439.899 877.321 407.333 879.792 380.219 873.47C364.619 869.833 351.41 862.248 345.872 846.551C350.127 830.868 356.37 827.473 370.464 820.319C370.373 824.949 368.97 829.838 373.68 833.217C379.485 837.381 414.01 833.487 409.687 823.808C404.867 820.427 399.757 820.386 394.114 820.459C392.691 818.356 393.368 817.013 393.56 813.932Z" fill="white"></path>
    <path d="M1239.44 516.1C1245.32 516.207 1269.5 525.004 1276.17 527.916L1276.03 528.755C1276.66 528.907 1278.58 529.413 1279.1 529.439C1283.47 529.947 1284.69 530.414 1288.87 531.959C1289.13 532.101 1292.27 533.812 1292.27 533.812C1297.37 541.647 1298.89 551.615 1302.66 560.204L1303.66 564.145L1302.08 566.923C1303.43 570.623 1304.25 570.991 1303.58 574.271C1300.62 574.759 1294.9 571.994 1291.46 570.764C1288.33 570.957 1286.32 570.88 1283.55 572.527L1283.38 571.887C1279.64 569.488 1256.36 561.334 1250.81 559.235C1247.52 550.225 1239.08 529.537 1238.05 519.116C1238.6 517.929 1239.06 516.924 1239.44 516.1Z" fill="#0F172A"></path>
    <path d="M1239.44 516.1C1242.87 528.866 1248.4 544.406 1252.97 557.006C1265.89 562.048 1278.76 565.95 1291.46 570.764C1288.33 570.957 1286.32 570.88 1283.55 572.527L1283.38 571.887C1279.64 569.488 1256.36 561.334 1250.81 559.235C1247.52 550.225 1239.08 529.537 1238.05 519.116C1238.6 517.929 1239.06 516.924 1239.44 516.1Z" fill="#0F172A"></path>
    <path d="M1288.87 531.959C1289.13 532.101 1292.27 533.812 1292.27 533.812C1297.37 541.647 1298.89 551.615 1302.66 560.204L1303.66 564.145L1302.08 566.923C1297.11 555.786 1294.17 542.797 1288.87 531.959Z" fill="#0F172A"></path>
    <path d="M1116.36 376.329C1121.68 380.638 1158.95 399.588 1167.6 404.131L1258.88 452.003C1275.66 460.821 1293.75 469.773 1310.01 479.218L1301.24 481.411C1290.08 474.836 1275.58 467.684 1263.98 461.566L1194.22 424.832C1181.47 418.106 1123.67 385.914 1115.76 384.382L1116.36 376.329Z" fill="#0F172A"></path>
    <path d="M1032.87 772.484C1038.49 775.772 1043.56 778.812 1049.46 781.602C1064.39 775.416 1079.82 772.954 1095.49 778.575C1102.67 781.152 1106.58 788.103 1103.66 795.524C1102.22 799.196 1093.17 803.351 1092.31 806.118L1090.28 808.33C1070.25 796.82 1050.56 785.846 1030.26 774.784C1030.69 773.557 1031.5 773.401 1032.87 772.484Z" fill="#0F172A"></path>
    <path d="M1070.92 784.199L1074.37 784.028C1080.82 783.762 1085.22 783.733 1090.16 788.287C1092.43 794.894 1086.94 796.831 1081.87 799.678C1077.18 797.626 1063.09 792.083 1062.69 787.082C1064.94 784.9 1067.71 784.809 1070.92 784.199Z" fill="white"></path>
    <path d="M847.567 639.542C855.318 641.923 942.42 688.254 946.708 692.701L941.935 693.044C935.399 688.402 918.365 679.71 910.565 675.661C888.908 664.417 867.878 653.531 846.479 641.726L847.567 639.542Z" fill="#0F172A"></path>
    <path d="M243.151 708.457C231.212 693.529 215.787 678.491 202.915 663.621C157.571 611.236 114.63 555.83 92.4227 489.274C88.9231 478.786 83.3737 459.625 88.6622 449.21C90.4279 445.733 95.1427 442.242 98.83 441.713C132.471 436.881 176.281 455.664 202.94 471.811C273.102 514.304 291.094 569.316 288.968 648.165C288.668 659.273 287.255 673.73 286.632 685.078C286.735 685.376 286.839 685.674 286.942 685.972C283.777 687.542 268.342 694.961 266.248 696.492L264.235 697.267C257.139 701.201 250.387 704.789 243.151 708.457Z" fill="white"></path>
    <path d="M264.235 697.267C260.249 691.226 251.222 659.593 247.607 650.372C223.478 588.806 191.486 527.416 138.573 485.722C136.627 484.189 129.822 479.226 129.516 477.231C131.179 477.562 134.036 478.763 135.391 479.699C201.294 525.212 245.142 624.263 266.248 696.492L264.235 697.267Z" fill="white"></path>
    <path d="M1441.06 168.015C1443.01 167.899 1445.49 167.593 1447.38 168.141C1450.13 168.942 1452.18 170.805 1453.41 173.375C1454.32 175.293 1454.69 177.637 1454.84 179.736C1455.88 194.007 1455.88 305.379 1453.59 311.647C1452.31 315.126 1449.95 318.102 1446.92 320.212C1440.71 324.536 1433.29 327.753 1426.56 331.216C1412.06 338.672 1397.44 345.878 1382.81 353.091C1352.92 367.84 1323.47 383.623 1293.29 397.766C1285.22 399.005 1280.78 395.83 1280.74 387.301C1280.65 353.95 1280.77 320.077 1280.72 286.783C1280.7 272.767 1278.21 252.105 1292.06 244.269C1306.92 235.863 1323.28 228.252 1338.54 220.529L1441.06 168.015Z" fill="#0F172A"></path>
    <path d="M1443.76 172.357L1446.41 172.879C1447.48 173.639 1448.53 174.469 1449.15 175.659C1450.3 177.87 1450.53 180.82 1450.66 183.261C1450.97 189.236 1450.28 195.353 1450.31 201.357C1450.41 218.148 1452.5 301.783 1448.99 311.336C1447.83 314.471 1443.22 317.206 1440.49 318.864C1424.21 328.733 1405.77 336.634 1388.71 345.179L1291.26 393.753C1290.39 393.63 1289.33 393.527 1288.53 393.155C1287.7 392.774 1286.59 391.861 1286.2 391.026C1285.12 388.642 1284.84 386.188 1284.73 383.592C1284.47 377.596 1285.26 371.547 1285.24 365.536C1285.17 347.124 1282.75 268.683 1287.02 256.919C1288.26 253.509 1290.83 250.653 1293.82 248.663C1309.51 238.224 1336.8 226.566 1354.78 217.492C1384.36 202.573 1413.65 186.065 1443.76 172.357Z" fill="white"></path>
    <path d="M1424.76 211.359L1426.02 211.867C1427.05 214.561 1426.97 215.484 1427.05 218.317C1424.5 223.218 1328.04 270.652 1315.64 276.456L1314.11 276.894C1312.41 274.916 1313.03 273.472 1313 270.222C1315.45 265.547 1346.74 250.894 1353.86 247.285L1424.76 211.359Z" fill="#0F172A"></path>
    <path d="M1396.98 250.636L1397.87 251.667C1398.39 255.307 1398.55 255.962 1397.69 259.613C1394.61 263.551 1324.74 297.696 1313.85 303.288C1312.57 300.501 1313.01 296.958 1313.07 293.755C1337.91 279.734 1370.82 264.197 1396.98 250.636Z" fill="#0F172A"></path>
    <path d="M1329.53 323.511C1351.82 321.915 1341.45 349.73 1326.87 357.981C1308.01 360.038 1315.31 336.921 1322.77 329.245C1324.98 326.973 1327.01 325.382 1329.53 323.511Z" fill="#0F172A"></path>
    <path d="M1385.55 299.421C1404.32 299.408 1393.62 321.008 1382.12 328.045C1364.27 327.952 1376.18 306.057 1385.55 299.421Z" fill="#0F172A"></path>
    <path d="M421.887 268.496C432.482 267.236 435.97 272.811 435.779 282.588C434.826 331.553 437.977 381.325 435.034 430.056C434.548 438.103 399.739 453.864 392.127 457.783L321.065 494.203C318.819 494.475 316.557 494.787 314.323 494.27C312.166 493.771 310.033 492.55 308.914 490.568C307.619 488.273 307.397 485.017 307.242 482.447C306.242 465.948 305.366 340.651 308.528 331.58C309.571 328.586 311.817 324.804 314.302 322.833C322.98 315.952 335.444 311.445 345.387 306.455L421.887 268.496Z" fill="#0F172A"></path>
    <path d="M423.903 272.75C425.244 272.755 426.463 272.999 427.795 273.193C428.78 273.913 429.793 274.712 430.358 275.822C431.539 278.142 431.757 281.588 431.885 284.136C432.196 290.283 431.489 296.598 431.536 302.786C431.676 320.981 433.795 420.184 430.417 429.733C429.202 433.17 425.516 435.363 422.577 437.231C411.203 444.459 398.251 450.057 386.232 456.2L320.252 490.161C318.973 490.568 317.624 490.253 316.253 490.092C315.492 489.565 314.233 488.956 313.8 488.149C312.422 485.582 312.396 482.459 312.301 479.61C311.9 467.616 311.528 337.532 313.399 332.605C314.959 328.494 320.287 324.805 323.831 322.568C334.476 315.846 346.8 310.797 358.09 305.19C379.995 294.314 401.839 283.298 423.903 272.75Z" fill="white"></path>
    <path d="M403.095 342.187C404.975 343.94 404.36 351.859 404.35 354.618L340.748 387.76C338.842 385.834 339.546 378.372 339.581 375.482C359.988 364.088 382.214 353.632 403.095 342.187Z" fill="#0F172A"></path>
    <path d="M403.079 317.293C404.78 319.108 404.089 326.474 404.022 329.365L340.589 362.673C339.006 359.946 339.566 353.913 339.604 350.426C360.458 339.3 382.615 329.112 403.079 317.293Z" fill="#0F172A"></path>
    <path d="M353.995 415.772C371.854 416.867 358.543 437.192 348.983 442.956C332.025 441.154 343.754 421.371 353.995 415.772Z" fill="#0F172A"></path>
    <path d="M397.39 393.641C401.841 393.714 401.545 393.575 404.887 395.798C410.247 404.148 400.348 415.331 393.443 419.665C389.155 419.964 388.593 419.711 385.668 417.396C381.081 409.104 390.586 397.933 397.39 393.641Z" fill="#0F172A"></path>
    <path d="M1238.48 118.12C1247.55 117.642 1250.66 123.748 1250.62 132.057C1250.34 162.407 1250.19 193.243 1250.59 223.548C1250.78 237.732 1252.23 250.373 1238.85 258.643C1228.66 264.942 1217.07 270.151 1206.34 275.448L1147.88 304.577C1138.84 305.802 1136.34 298.336 1136.39 290.768C1136.56 259.45 1137.01 228.177 1136.46 196.849C1136.23 183.982 1135.05 172.868 1147.64 165.409C1156.94 159.653 1167.37 154.684 1177.04 149.672L1238.48 118.12Z" fill="#0F172A"></path>
    <path d="M1239.61 122.452C1244.53 122.702 1246.65 126.476 1246.41 131.524C1244.66 168.371 1247.98 208.721 1245.04 245.065C1244.37 253.285 1219.4 263.829 1211.3 268.068C1190.68 278.866 1168.27 288.704 1147.59 300.01C1142.09 299.701 1140.61 296.456 1140.82 291.196C1141.15 283.165 1141.28 275.405 1141.23 267.362L1141.01 211.291C1140.99 196.625 1137.02 176.339 1151.38 168.364C1180.32 152.305 1210.59 138.355 1239.61 122.452Z" fill="white"></path>
    <path d="M1219.97 159.102C1221.25 161.762 1220.79 166.551 1220.72 169.731C1201.16 179.473 1181.18 190.307 1161.8 200.56C1159.98 198.294 1160.59 193.259 1160.65 190.129C1180.29 179.931 1200.62 169.725 1219.97 159.102Z" fill="#0F172A"></path>
    <path d="M1219.01 183.914C1219.42 186.472 1219.95 189.554 1219.37 192.119C1218.33 196.728 1169.43 220.481 1160.72 225.024C1160.26 223.253 1160.54 216.477 1160.58 214.236C1180.07 204.676 1199.23 193.597 1219.01 183.914Z" fill="#0F172A"></path>
    <path d="M1215.99 221.117C1233.06 226.002 1221.85 247.439 1208.3 252.783C1193.75 250.931 1201.83 231.479 1208.56 225.716C1211.13 223.513 1212.96 222.561 1215.99 221.117Z" fill="white"></path>
    <path d="M1174.23 241.722C1189.8 243.406 1181.69 260.69 1175.49 267.646C1173.59 269.769 1170.76 271.375 1168.34 272.793C1151.45 271.329 1159.63 247.284 1174.23 241.722Z" fill="white"></path>
    <path d="M737.651 80.0981C759.413 76.9327 779.645 91.9419 782.933 113.691C786.221 135.44 771.331 155.762 749.606 159.174C727.706 162.614 707.19 147.574 703.875 125.649C700.561 103.725 715.714 83.289 737.651 80.0981Z" fill="#0F172A"></path>
    <path d="M737.273 84.5107C749.894 82.2677 762.744 86.9957 770.903 96.8842C779.062 106.773 781.266 120.289 776.67 132.258C772.075 144.227 761.392 152.794 748.713 154.678C729.492 157.533 711.54 144.419 708.413 125.235C705.285 106.051 718.141 87.9112 737.273 84.5107Z" fill="white"></path>
    <path d="M760.63 102.689C764.279 103.482 767.967 107.026 768.379 110.853C766.75 116.179 743.964 137.902 738.645 143.008C733.01 138.976 731.212 137.14 726.427 132.157C723.428 129.315 720.482 126.42 717.527 123.532C719.748 120.307 721.478 117.183 725.331 116.279C730.037 116.801 734.326 122.76 737.675 126.467L760.63 102.689Z" fill="#0F172A"></path>
    <path d="M760.952 107.967C763.603 108.922 762.898 108.237 764.161 110.337C761.797 115.758 744.076 132.554 739.03 137.589C733.852 134.204 732.478 133.002 728.075 128.74C725.106 125.986 724.272 125.454 723.055 121.63C727.873 121.294 734.708 128.346 738.115 131.561C745.343 123.684 753.386 115.476 760.952 107.967Z" fill="#0F172A"></path>
    <path d="M492.728 187.095C513.714 185.274 532.289 200.607 534.484 221.563C536.678 242.519 521.683 261.369 500.775 263.938C486.914 265.641 473.213 259.728 464.942 248.473C456.67 237.219 455.116 222.375 460.876 209.65C466.637 196.926 478.815 188.301 492.728 187.095Z" fill="#0F172A"></path>
    <path d="M489.56 192.309C508.075 188.686 526.015 200.781 529.604 219.308C533.193 237.834 521.069 255.757 502.541 259.314C484.059 262.862 466.196 250.771 462.616 232.292C459.036 213.812 471.091 195.923 489.56 192.309Z" fill="white"></path>
    <path d="M512.603 206.672C517.953 207.076 520.032 210.732 523.143 214.654C513.032 225.898 501.918 238.232 491.348 248.961C488.679 247.18 484.835 243.427 482.333 241.116L472.414 231.399C474.832 228.126 477.592 225.259 480.351 222.276C483.483 225.265 486.772 228.839 489.803 231.987C497.027 223.639 505.18 214.965 512.603 206.672Z" fill="#0F172A"></path>
    <path d="M513.929 211.307C516.159 212.173 515.261 211.501 516.725 213.384C515.934 218.026 496.466 237.522 491.314 244.443L481.342 234.837C479.087 232.692 478.876 232.381 477.778 229.469L479.505 229.203C484.201 230.926 486.294 233.444 489.824 236.909C498.27 228.325 505.856 220.242 513.929 211.307Z" fill="#0F172A"></path>
    <path d="M551.318 114.795C556.446 114.046 560.182 115.606 563.778 119.101C558.857 119.639 554.592 118.643 551.318 114.795Z" fill="#0F172A"></path>
    <path d="M569.123 120.884C573.507 121.374 577.152 123.005 578.821 127.165C574.678 126.864 569.461 125.549 569.123 120.884Z" fill="#0F172A"></path>
    <path d="M535.915 109.416C540.676 109.877 543.557 109.994 546.654 113.575C542.402 114.274 537.213 114.121 535.915 109.416Z" fill="#0F172A"></path>
    <path d="M457.806 112.939C458.832 113.838 458.523 113.657 459.15 115.02C457.609 117.138 454.387 117.623 451.652 118.439L449.943 117.867L449.82 116.581C451.985 114.703 455.026 113.925 457.806 112.939Z" fill="#0F172A"></path>
    <path d="M473.7 108.549L475.476 109.278L475.572 110.643C473.281 112.271 470.326 112.664 467.511 113.318C467.146 112.94 466.585 111.949 466.276 111.455C468.581 109.157 470.099 109.434 473.7 108.549Z" fill="#0F172A"></path>
    <path d="M638.209 175.544L641.019 176.146C644.352 178.463 645.105 180.348 647.114 183.926L644.889 183.714C641.553 181.537 640.309 178.936 638.209 175.544Z" fill="#0F172A"></path>
    <path d="M501.208 106.126C505.938 105.698 509.49 104.079 510.778 108.978C507.503 109.124 504.645 109.652 501.848 108.19L501.208 106.126Z" fill="#0F172A"></path>
    <path d="M626.652 162.357C631.153 163.223 633.665 166.863 634.962 170.943C630.888 170.394 628.082 165.862 626.652 162.357Z" fill="#0F172A"></path>
    <path d="M410.422 137.582C411.058 138.172 411.222 138.72 411.668 139.548C410.511 142.362 408.237 143.373 405.589 145.116L404.383 143.088C405.368 140.358 407.843 139.268 410.422 137.582Z" fill="#0F172A"></path>
    <path d="M425.07 127.713C426.745 128.236 425.946 127.837 427.335 129.344C426.228 131.592 423.101 132.702 420.663 133.952C419.29 134.107 419.987 134.173 418.621 133.338C419.936 130.888 422.689 129.381 425.07 127.713Z" fill="#0F172A"></path>
    <path d="M599.146 139.384C603.946 139.704 606.553 142.076 608.146 146.494C604.185 146.655 601.071 142.37 599.146 139.384Z" fill="#0F172A"></path>
    <path d="M649.777 189.67C654.302 190.499 655.867 194.882 657.831 198.639L655.01 198.047C652.167 195.851 651.249 192.969 649.777 189.67Z" fill="#0F172A"></path>
    <path d="M345.752 219.928C346.208 220.314 346.873 221.289 347.266 221.812C347.134 225.143 345.428 227.674 343.839 230.633L342.644 228.972C342.446 225.925 344.381 222.759 345.752 219.928Z" fill="#0F172A"></path>
    <path d="M613.738 150.142C617.523 150.881 621.27 154.37 621.477 158.342C617.979 156.772 614.311 154.032 613.738 150.142Z" fill="#0F172A"></path>
    <path d="M396.314 148.231C397.177 148.83 397.458 149.391 398.105 150.252C397.605 152.668 395.445 154.052 393.466 155.803L391.599 154.441C392.336 151.454 393.872 150.73 396.314 148.231Z" fill="#0F172A"></path>
    <path d="M484.007 107.077C487.944 106.557 489.421 105.682 492.569 107.004L492.838 109.181C489.851 109.432 486.029 110.172 483.694 108.797L484.007 107.077Z" fill="#0F172A"></path>
    <path d="M658.995 203.893C663.655 204.824 664.703 209.528 665.672 213.539L663.773 212.905C661.283 210.471 660.304 207.164 658.995 203.893Z" fill="#0F172A"></path>
    <path d="M384.518 160.681L385.682 162.68C385.039 165.51 382.835 167.046 380.628 169.146L379.38 167.515C379.827 164.526 382.194 162.91 384.518 160.681Z" fill="#0F172A"></path>
    <path d="M440.611 119.884C441.755 120.33 441.398 120.244 442.319 121.292C441.007 123.563 438.371 124.312 435.823 125.469C434.354 125.034 435.006 125.417 433.943 124.091C435.09 122.092 438.329 120.98 440.611 119.884Z" fill="#0F172A"></path>
    <path d="M584.476 129.507C589.069 129.801 591.265 132.165 594.348 135.216C589.108 135.597 587.046 133.536 584.476 129.507Z" fill="#0F172A"></path>
    <path d="M353.875 203.971L355.112 205.189C355.378 208.261 353.516 210.824 351.983 213.552L350.564 211.777C350.491 208.752 352.233 206.671 353.875 203.971Z" fill="#0F172A"></path>
    <path d="M339.616 236.989L340.68 238.267C341.052 241.566 339.564 244.38 338.323 247.51L336.84 245.74C336.764 242.228 338.086 240.157 339.616 236.989Z" fill="#0F172A"></path>
    <path d="M363.113 188.17L364.315 189.802C364.033 193.236 362.483 194.834 360.443 197.629L359.29 196.215C359.42 193.175 361.393 190.848 363.113 188.17Z" fill="#0F172A"></path>
    <path d="M330.839 271.638L332.199 273.014C332.933 276.117 331.788 278.748 330.851 281.83L329.691 280.378C328.768 277.233 329.874 274.802 330.839 271.638Z" fill="#0F172A"></path>
  </g>
  <defs>
    <clipPath id="clip0_625_3328">
      <rect width="1820" height="1024" fill="white"></rect>
    </clipPath>
  </defs>
</svg>
