<?xml version="1.0" encoding="UTF-8"?>
<svg xmlns="http://www.w3.org/2000/svg" width="1820" height="1024" viewBox="0 0 1820 1024" fill="none">
  <path d="M531.552 223.062C538.921 226.207 556.24 231.875 559.578 239.441C562.596 246.284 561.229 435.766 561.641 456.442C581.809 485.957 593.405 490.317 561.391 515.088L561.65 548.29C616.294 517.501 674.456 490.085 729.639 460.301C722.335 452.066 717.559 441 728.18 432.688C741.338 422.391 759.613 420.853 775.618 421.825C796.341 423.084 829.208 440.87 801.981 461.429C828.165 474.779 857.004 492.188 882.84 504.46C909.743 496.781 947.625 496.705 971.385 511.116C1005.85 532.023 980.008 558.923 951.168 564.711C921.595 570.645 906.152 569.809 878.344 561.106L830.192 586.116C822.197 590.259 798.971 600.852 795.582 607.872C796.359 611.72 807.833 616.838 811.518 618.837C829.974 628.849 848.958 638.166 867.279 648.407C926.812 639.193 916.61 687.626 864.402 674.206C857.449 677.693 824.646 693.345 821.465 697.461L822.133 698.204C823.979 700.277 827.035 704.231 826.437 707.101C822.997 723.616 795.1 721.381 783.87 718.245C765.099 727.23 743.51 738.142 725.283 748.188C729.938 751.423 734.144 755.608 735.043 761.249C737.084 774.059 714.217 780.345 706.067 781.425C693.503 783.089 683.584 781.588 672.085 778.238C659.254 785.58 643.862 792.947 630.582 799.869L552.815 840.819C495.639 871.126 436.475 904.08 379.004 933.406C327.341 907.656 276.712 879.505 225.174 853.477C222.871 852.314 220.381 851.081 217.982 850.153C214.278 853.412 196.133 862.309 190.98 864.67C172.375 873.194 152.318 887.34 132.374 891.454C112.505 894.652 94.535 887.217 77.3407 878.924C45.8838 863.752 66.347 854.923 85.5912 846.253L85.286 587.262L85.2793 512.185C85.2887 476.931 78.7881 461.292 115.658 444.903C127.513 439.634 143.717 430.105 155.715 423.763L275.162 360.482L430.753 276.744L491.875 243.807C504.293 237.139 518.953 228.843 531.552 223.062Z" fill="#0F172A"></path>
  <path d="M733.918 463.157C756.343 474.265 774.735 473.464 797.31 464.21C824.623 477.342 851.138 493.646 878.01 507.016C864.641 513.328 857.115 518.182 853.744 533.298C856.741 546.975 861.567 551.569 873.51 558.596L822.603 585.144C813.857 589.719 804.013 593.902 796.045 599.691C794.081 601.118 792.506 602.548 791.738 604.945C791.054 607.078 791.218 609.526 792.336 611.489C796.024 617.957 853.221 645.634 863.747 651.296C850.838 657.266 849.347 660.917 858.766 671.858C848.226 677.428 826.003 689.977 815.639 694.263C804.398 692.077 797.177 691.316 785.61 694.635C775.964 697.403 769.687 704.344 777.46 713.498L778.076 714.212C776.721 718.052 732.678 739.157 726.851 741.95L720.277 745.026C702.779 739.088 686.254 738.375 669.04 746.233C652.553 753.759 654.768 766.03 667.222 776.026C570.248 825.194 475.226 878.247 378.917 928.416L269.364 871.432C254.973 863.922 238.309 854.447 223.942 847.495C232.954 838.452 287.244 812.847 302.151 804.56C341.924 782.451 384.012 761.473 424.771 741.037C431.497 737.665 439.011 730.886 446.335 730.987C447.617 731.051 448.194 733.069 448.847 734.315L448.85 740.852C448.764 747.097 451.218 775.623 448.986 779.604C444.51 787.589 421.103 776.399 415.468 786.338C414.869 790.106 415.984 791.607 417.731 794.684C424.224 806.113 439.316 804.045 450.114 806.239C455.532 807.614 461.09 809.788 466.559 810.852C489.798 815.373 483.821 794.457 484.151 780.136C484.233 776.553 484.858 771.857 485.396 768.138C499.164 773.725 511.986 783.946 525.959 786.161C530.886 786.763 536.708 783.427 536.253 778.016C535.082 764.089 534.158 752.091 534.431 738.015L533.991 691.709C533.006 686.794 532.656 648.877 534 646.4C544.792 640.404 557.275 635.526 559.809 621.56C563.326 602.176 561.509 572.946 561.592 552.834L677.113 492.412C689.383 486.026 722.568 467.7 733.918 463.157Z" fill="white"></path>
  <path d="M534.431 738.015C535.655 740.165 535.504 740.485 535.456 743.067C543.975 752.876 566.726 755.741 565.077 780.194C564.55 788.404 559.05 796.657 552.643 801.655C527.012 821.576 489.396 826.759 457.932 824.195C433.842 822.232 388.914 810.442 392.364 779.052C394.935 755.662 429.736 745.532 448.85 740.852C448.764 747.097 451.218 775.623 448.986 779.604C444.51 787.589 421.103 776.399 415.468 786.338C414.869 790.106 415.984 791.607 417.731 794.684C424.224 806.113 439.316 804.045 450.114 806.239C455.532 807.614 461.09 809.788 466.559 810.852C489.798 815.373 483.821 794.457 484.151 780.136C484.233 776.553 484.858 771.857 485.396 768.138C499.164 773.725 511.986 783.946 525.959 786.161C530.886 786.763 536.708 783.427 536.253 778.016C535.082 764.089 534.158 752.091 534.431 738.015Z" fill="white"></path>
  <path d="M533.991 691.709C533.006 686.794 532.656 648.877 534 646.4C546.242 653.845 554.387 657.56 567.78 662.754C551.187 663.523 549.067 664.58 534.45 672.742C534.446 677.496 534.656 687.403 533.991 691.709Z" fill="white"></path>
  <path d="M727.847 637.04C732.443 635.708 737.399 636.975 740.793 640.35C744.186 643.724 745.481 648.674 744.177 653.279C742.872 657.884 739.172 661.417 734.513 662.509C727.564 664.137 720.583 659.93 718.775 653.023C716.967 646.116 720.991 639.027 727.847 637.04Z" fill="white"></path>
  <path d="M728.425 640.328C733.618 638.682 739.161 641.557 740.808 646.75C742.456 651.943 739.583 657.489 734.392 659.138C729.198 660.788 723.651 657.913 722.003 652.718C720.355 647.523 723.231 641.975 728.425 640.328Z" fill="white"></path>
  <path d="M615.951 699.201C619.752 697.62 624.109 698.212 627.35 700.751C630.59 703.29 632.209 707.38 631.584 711.449C630.959 715.519 628.188 718.934 624.335 720.383C618.519 722.571 612.024 719.692 609.736 713.913C607.449 708.135 610.214 701.589 615.951 699.201Z" fill="white"></path>
  <path d="M620.426 701.827C624.682 701.92 628.108 705.356 628.19 709.614C628.272 713.872 624.981 717.436 620.731 717.693C617.822 717.869 615.05 716.437 613.51 713.962C611.971 711.486 611.911 708.366 613.354 705.834C614.797 703.301 617.512 701.763 620.426 701.827Z" fill="white"></path>
  <path d="M113.151 874.511C122.714 870.865 145.719 857.927 155.481 852.716L237.596 808.742L388.976 727.748C407.308 717.78 430.576 706.493 447.683 696.099C447.62 708.196 448.375 722.151 448.847 734.315C448.194 733.069 447.617 731.051 446.335 730.987C439.011 730.886 431.497 737.665 424.771 741.037C384.012 761.473 341.924 782.451 302.151 804.56C287.244 812.847 232.954 838.452 223.942 847.495C220.811 846.265 221.304 845.954 218.293 846.338C217.293 848.511 217.478 847.579 217.982 850.153C214.278 853.412 196.133 862.309 190.98 864.67C172.375 873.194 152.318 887.34 132.374 891.454C112.505 894.652 94.535 887.217 77.3407 878.924C45.8838 863.752 66.347 854.923 85.5912 846.253C85.683 865.264 88.6378 864.005 105.73 871.24C108.065 872.228 110.789 873.466 113.151 874.511Z" fill="white"></path>
  <path d="M122.75 483.45C131.125 477.66 155.736 465.457 165.595 460.255L244.243 418.248L541.501 258.482C542.506 301.828 540.706 345.899 541.692 389.316C541.97 401.583 542.228 416.02 541.148 428.085C532.77 420.071 528.77 421.249 517.766 422.306C523.989 411.214 534.994 407.236 534.136 386.82C534.377 377.955 527.051 372.818 522.042 367.866C502.294 348.347 496.081 350.478 471.553 358.194C464.325 360.468 463.152 351.19 455.286 360.793C428.014 396.024 385.86 428.135 355.196 461.263C353.786 462.786 343.245 466.462 338.426 470.346C328.589 476.504 294.965 508.036 325.174 516.065C326.869 516.516 330.949 514.314 332.717 513.422C354.736 528.232 377.036 542.504 399.345 556.87C408.022 551.991 422.487 542.85 430.136 538.825C437.681 537.333 440.969 534.034 445.02 528.008C445.453 532.992 445.252 540.092 445.259 545.237C437.623 550.742 419.521 560.092 410.624 564.959L352.918 597.025C353.237 608.005 352.206 683.676 354.382 689.157C355.002 689.278 355.622 689.398 356.242 689.519C382.43 676.44 421.31 654.297 446.016 641.664C446.088 652.54 446.605 664.069 447.008 674.961L123.14 848.494C122.475 832.208 122.563 815.147 122.725 798.814C123.768 693.851 121.254 588.35 122.75 483.45Z" fill="white"></path>
  <path d="M302.992 411.415C305.416 411.701 304.411 411.216 306.144 412.85C307.035 427.969 306.432 448.152 306.492 463.758L306.498 571.67C294.35 579.319 271.535 590.857 258.232 598.099L147.476 657.971L145.7 657.536C145.318 657.092 144.852 656.551 144.302 655.911C143.819 644.231 143.977 628.248 143.975 616.901L144.039 496.467L302.992 411.415Z" fill="#0F172A"></path>
  <path d="M300.225 417.685L301.724 418.048C302.924 422.195 302.138 451.135 302.146 457.89L302.327 569.26C291.147 575.088 280.242 581.142 269.215 587.247L269.202 514.301C258.841 518.696 241.233 528.712 230.92 534.325C229.329 554.838 230.358 587.455 230.396 608.654C223.496 612.091 216.519 615.838 209.671 619.415L209.763 497.344L197.014 504.309L171.523 517.819C172.466 557.522 171.728 599.894 171.728 639.8L148.44 652.773L148.473 498.836C163.347 491.638 180.584 481.744 195.389 473.84L300.225 417.685Z" fill="white"></path>
  <path d="M204.506 504.953C206.174 506.825 205.627 609.134 205.939 621.232C200.232 625.071 184.413 633.322 177.405 637.386L176.73 637.243C175.501 635.374 175.918 532.431 175.902 520.584C185.16 515.103 194.994 510.025 204.506 504.953Z" fill="#0F172A"></path>
  <path d="M263.281 521.606L264.375 522.134C266.125 528.15 264.987 579.834 264.965 589.534C255.297 595.008 245.801 600.159 236.005 605.386C235.368 605.299 235.237 605.004 234.571 604.485C234.006 583.04 234.569 558.836 234.622 537.19C244.243 532.142 253.761 526.846 263.281 521.606Z" fill="#0F172A"></path>
  <path d="M310.566 614.976C311.943 615.089 312.238 615.557 313.334 616.445C315.93 623.853 314.542 698.458 314.537 711.437C302.303 719.103 277.051 731.607 263.167 738.986C224.979 759.284 186.169 781.132 147.851 800.746C146.911 800.638 145.75 799.986 144.827 799.563C143.104 795.87 144.014 715.984 144.042 705.413C156.469 697.716 178.052 686.806 191.51 679.422L310.566 614.976Z" fill="#0F172A"></path>
  <path d="M308.911 620.421C310.996 622.877 310.241 698.79 310.244 708.734C294.135 718.267 275.536 727.607 258.904 736.565L149.385 795.454C147.627 793.214 148.488 717.359 148.518 707.671C199.637 678.08 256.728 649.169 308.911 620.421Z" fill="white"></path>
  <path d="M292.177 657.658L292.712 660.894C290.7 664.918 182.301 723.055 171.133 728.244L170.951 725.79C173.071 721.393 194.584 710.652 200.644 707.327L292.177 657.658Z" fill="#0F172A"></path>
  <path d="M290.268 686.14C291.921 686.27 291.123 685.987 292.522 687.471L292.241 689.693C290.507 691.96 183.04 749.999 172.839 755.137L171.42 754.733L171.177 752.354C174.302 748.106 276.351 693.743 290.268 686.14Z" fill="#0F172A"></path>
  <path d="M525.61 425.401C534.566 426.317 534.767 427.438 540.133 434.204C546.672 442.447 553.562 452.257 559.439 460.755C577.618 487.042 587.791 493.517 555.625 513.92C548.694 518.316 539.803 525.283 531.652 529.415C531.069 522.892 530.47 517.027 530.521 510.465L550.199 488.469C544.946 483.166 542.227 480.722 536.295 476.202C537.484 469.316 539.782 458.258 539.333 451.598L538.427 450.399C537.24 450.849 536.053 450.984 535.874 452.497C534.212 466.601 532.122 479.943 525.024 492.701C527.103 514.082 526.596 539.805 527.682 561.777C511.258 588.05 473.493 593.061 449.018 574.129C449.018 557.261 449.684 540.439 449.588 523.635C449.439 514.238 474.831 490.274 472.639 483.105C464.163 484.682 443.407 530.435 431.84 533.884C425.515 535.769 414.032 527.832 409.116 524.268C393.915 513.246 377.404 503.667 362.381 492.446C364.838 489.049 368.328 483.903 373.145 486.061C389.268 493.285 405.53 500.006 421.899 506.651C420.209 510.11 418.104 513.417 419.303 516.976C423.241 517.158 423.26 513.084 425.075 509.371C428.318 502.738 432.207 495.299 435.296 488.688C447.291 463.013 450.399 459.334 475.237 447.806C486.491 450.58 507.74 447.386 514.831 436.854C516.819 433.902 515.439 430.984 514.739 427.748C516.894 426.413 522.778 425.83 525.61 425.401Z" fill="white"></path>
  <path d="M550.57 237.171C559.516 238.035 557.119 261.747 557.136 268.516L557.175 312.078C557.173 357.591 557.815 405.02 556.832 450.398C553.411 445.834 549.728 440.102 546.489 435.297L546.496 307.486C546.494 298.785 546.9 258.851 545.522 253.513C539.067 253.706 442.358 307.095 428.947 314.316L246.506 412L162.364 456.948C152.152 462.401 126.682 474.855 119.5 481.29C117.481 487.943 118.26 533.753 118.274 542.874L118.43 657.784L118.436 780.437C118.402 802.729 117.597 832.694 119.081 854.545C131.71 850.298 169.81 828.684 183.949 821.171L331.525 742.142L447.069 679.855L447.156 691.83C427.663 703.081 403.652 714.788 383.313 725.778L216.161 815.33L145.866 852.837C137.803 857.143 129.79 861.534 121.798 865.976C117.657 868.278 114.301 869.87 109.71 867.655C107.224 862.15 108.37 772.491 108.376 760.716L108.336 586.939C108.347 552.2 107.292 515.492 109.443 481.024C110.186 469.128 157.909 447.737 169.91 441.347L276.946 384.501L550.57 237.171Z" fill="#0F172A"></path>
  <path d="M526.912 569.719L527.408 570.256C528.474 574.572 530.591 745.346 529.551 751.212C529.376 752.202 528.774 752.555 527.93 753.087C523.394 755.951 514.624 754.252 509.716 753.404C507.048 743.846 504.237 724.737 503.3 714.501C500.699 686.079 486.51 644.485 493.61 617.245C498.057 612.819 502.438 609.285 503.737 603.018L502.711 602.785C482.552 616.007 487.804 636.417 486.047 658.12C486.251 676.628 483.451 699.326 483.04 718.563C482.206 736.982 482.747 755.612 480.224 773.898C478.462 786.671 462.103 779.845 454.657 777.039C454.164 711.786 448.662 644.849 448.687 579.359C471.988 597.271 508.193 591.604 526.912 569.719Z" fill="#0F172A"></path>
  <path d="M357.225 599.517C383.338 584.655 418.047 564.446 444.583 551.18C444.401 559.811 444.399 568.18 444.466 576.815L444.452 581.856L444.529 592.535C445.396 598.74 445.147 604.467 445.067 610.713L445.725 637.159C416.698 650.656 386.286 670.039 357.366 684.673C357.843 656.883 357.717 627.297 357.225 599.517Z" fill="white"></path>
  <path d="M444.529 592.535C445.396 598.74 445.147 604.467 445.067 610.713C439.461 611.777 393.351 639.572 382.721 643.944L381.359 642.099L381.613 644.052L380.906 643.642L381.129 642.069C386.066 634.871 434.001 611.048 444.723 605.722C444.434 601.321 444.51 596.944 444.529 592.535Z" fill="#0F172A"></path>
  <path d="M444.452 581.856C425.691 594.306 401.024 604.077 381.721 616.308C381.195 616.198 380.669 616.087 380.142 615.977L379.862 614.16C382.64 608.845 435.276 581.77 444.466 576.815L444.452 581.856Z" fill="#0F172A"></path>
  <path d="M531.235 227.562L545.919 234.765C518.661 248.534 490.352 264.746 463.31 279.347L300.109 367.064L175.614 433.413C156.575 443.582 136.986 453.196 118.281 463.91C113.199 466.821 109.976 471.491 106.852 476.321L91.5054 469.294C97.4818 458.814 101.759 456.523 112.294 451.302C122.86 446.064 133.574 440.631 143.953 435.029L263.088 371.927C290.247 357.697 317.099 342.728 344.119 328.252L531.235 227.562Z" fill="white"></path>
  <path d="M911.94 503.477C929.857 501.357 979.831 508.81 982.847 532.184C985.702 554.303 949.033 561.556 932.438 563.496C906.564 564.951 867.947 563.072 857.719 534.141C864.237 510.477 890.674 505.304 911.94 503.477Z" fill="white"></path>
  <path d="M911.804 516.624C921.607 516.146 934.41 515.751 942.853 521.085C965.337 535.29 946.701 546.019 931.191 550.007C894.299 555.856 866.458 528.745 911.804 516.624Z" fill="#0F172A"></path>
  <path d="M912.757 521.02C918.976 520.578 952.55 520.114 946.828 537.325C945.234 542.12 934.077 544.949 928.917 546.33C898.251 549.157 873.649 530.451 912.757 521.02Z" fill="#0F172A"></path>
  <path d="M89.8667 473.24C95.0835 475.756 99.609 477.763 104.963 479.966C103.615 488.983 104.148 511.144 104.155 520.943L104.23 595.814L104.145 865.417C99.0886 863.202 95.3335 861.504 90.4512 858.826L89.8667 473.24Z" fill="white"></path>
  <path d="M461.59 362.492C495.075 363.343 492.451 342.515 524.828 376.521C528.904 380.803 530.23 382.812 529.969 389.472C529.568 399.719 523.514 410.389 516.001 417.174C514.561 418.475 512.852 419.635 511.018 420.267C513.696 420.634 515.066 420.599 517.185 422.367L517.744 424.394C521.55 425.336 522.171 424.887 525.61 425.401C522.778 425.83 516.894 426.413 514.739 427.748C511.896 426.559 510.57 426.734 507.051 424.911L505.834 425.884C501.921 428.696 494.9 431.703 490.293 429.679C489.002 427.597 488.692 426.815 486.833 425.294C483.105 425.663 486.579 427.514 482.411 430.414C470.22 429.312 469.156 406.759 465.914 398.009C464.572 394.385 463.155 391.144 461.573 387.607L459.731 384.099L462.38 380.575C459.073 373.445 459.094 370.343 461.59 362.492Z" fill="#0F172A"></path>
  <path d="M459.731 384.099L462.38 380.575C465.202 386.172 472.823 392.248 477.671 397.197C482.382 397.146 487.896 394.609 491.029 399.004C499.023 410.222 486.419 425.575 511.018 420.267C513.696 420.634 515.066 420.599 517.185 422.367L517.744 424.394C521.55 425.336 522.171 424.887 525.61 425.401C522.778 425.83 516.894 426.413 514.739 427.748C511.896 426.559 510.57 426.734 507.051 424.911L505.834 425.884C501.921 428.696 494.9 431.703 490.293 429.679C489.002 427.597 488.692 426.815 486.833 425.294C483.105 425.663 486.579 427.514 482.411 430.414C470.22 429.312 469.156 406.759 465.914 398.009C464.572 394.385 463.155 391.144 461.573 387.607L459.731 384.099Z" fill="white"></path>
  <path d="M459.731 384.099L462.38 380.575C465.202 386.172 472.823 392.248 477.671 397.197C482.382 397.146 487.896 394.609 491.029 399.004C499.023 410.222 486.419 425.575 511.018 420.267C513.696 420.634 515.066 420.599 517.185 422.367L517.744 424.394C521.55 425.336 522.171 424.887 525.61 425.401C522.778 425.83 516.894 426.413 514.739 427.748C511.896 426.559 510.57 426.734 507.051 424.911L505.834 425.884C473.394 425.293 499.668 401.468 483.098 400.574C479.757 402.384 480.147 405.063 476.992 408.362L475.53 407.621C473.292 404.167 472.463 400.032 471.405 396.034C467.384 392.983 465.185 391.126 461.573 387.607L459.731 384.099Z" fill="#0F172A"></path>
  <path d="M359.524 462.859C389.843 433.113 428.081 398.345 455.225 367.141L456.189 367.329L455.691 376.707C454.481 382.908 454.739 383.742 457.473 389.518C461.021 397.016 463.838 404.106 465.482 412.27C439.147 430.596 406.934 445.5 381.161 465.414C376.671 468.884 374.769 472.578 372.036 477.416C367.606 472.797 363.602 467.795 359.524 462.859Z" fill="#0F172A"></path>
  <path d="M757.61 425.992C802.861 421.631 831.666 454.02 777.604 466.083C732.918 473.053 699.27 436.285 757.61 425.992Z" fill="white"></path>
  <path d="M762.22 446.096C759.338 444.634 755.076 442.643 752.604 440.805L752.577 439.05L753.807 437.928C759.132 438.92 761.961 443.156 767.787 444.274C769.186 445.202 769.748 445.549 771.002 446.747C774.309 447.813 777.671 448.373 778.609 452.046C774.348 454.191 769.911 450.634 766.091 448.462C761.998 450.967 758.657 453.818 754.006 452.742L753.726 451.321C755.473 448.507 759.05 447.473 762.22 446.096Z" fill="#0F172A"></path>
  <path d="M767.787 444.274C771.355 440.928 774.805 439.208 779.534 438.266L780.229 439.045C777.665 443.835 774.87 443.715 771.002 446.747C769.748 445.549 769.186 445.202 767.787 444.274Z" fill="#0F172A"></path>
  <path d="M432.168 451.502C435.026 451.357 443.38 458.341 446.139 460.414C438.79 469.887 429.128 491.569 423.66 503.186C416.552 499.957 408.711 496.852 401.461 493.827C392.578 490.287 382.391 485.416 374.066 480.768C385.285 468.202 415.446 458.508 432.168 451.502Z" fill="white"></path>
  <path d="M686.301 745.078C698.452 743.855 710.947 744.394 721.729 750.87C727.036 753.916 733.153 761.464 728.394 767.456C723.342 773.817 713.05 776.202 705.503 777.544C670.074 782.391 637.076 755.948 686.301 745.078Z" fill="white"></path>
  <path d="M360.549 495.929C366.622 502.094 380.058 509.019 387.339 514.496C385.419 517.503 382.541 521.236 382.373 524.647L383.147 526.095C387.554 524.842 388.868 521.128 391.216 516.966C398.377 521.984 416.441 535.335 423.976 537.72C421.98 539.511 403.283 549.721 399.735 551.716C386.99 544.953 349.267 519.911 338.156 511.771C346.54 506.505 353.127 502.532 360.549 495.929Z" fill="white"></path>
  <path d="M465.59 417.644L466.92 418.144C470.272 429.431 471.44 431.442 483.112 434.946C475.682 445.753 461.169 448.845 448.939 457.161C443.455 453.364 440.107 450.687 435.04 446.339C428.466 448.6 421.354 451.435 414.79 453.891C406.085 457.148 399.382 460.185 390.952 464.139C405.966 451.876 447.354 428.261 465.59 417.644Z" fill="white"></path>
  <path d="M556.979 518.111C558.687 529.482 558.374 610.075 555.561 620.694C552.42 632.551 543.186 636.364 533.401 641.936C532.988 640.357 532.816 632.559 532.735 630.48C545.331 625.101 547.715 623.262 547.609 608.961C547.553 601.525 547.522 593.604 547.507 586.155L547.407 524.409L556.979 518.111Z" fill="#0F172A"></path>
  <path d="M453.021 781.197C461.056 781.948 463.388 788.872 479.611 784.135C481.767 809.852 478.907 810.642 454.774 803.127C445.05 800.432 423.103 802.732 420.186 789.24C423.236 779.781 439.564 791.97 446.298 785.965C447.464 784.925 451.489 782.34 453.021 781.197Z" fill="white"></path>
  <path d="M542.198 528.086C543.875 529.762 543.945 610.839 542.229 619.215C541.704 621.777 535.334 624.742 533.035 625.915C532.814 602.298 533.78 578.321 531.931 554.796C531.402 548.072 531.353 541.59 531.428 534.849L542.198 528.086Z" fill="white"></path>
  <path d="M489.893 664.647C491.896 666.713 493.04 675.427 493.543 678.559C497.43 702.745 501.114 726.979 504.521 751.236C504.21 751.814 503.899 752.392 503.589 752.969C496.476 751.757 493.482 750.451 486.808 747.813C486.658 725.864 488.038 686.706 489.893 664.647Z" fill="white"></path>
  <path d="M486.509 752.211C498.963 757.236 516.258 760.062 529.454 757.218C531.107 764.57 532.282 772.524 531.971 780.066C523.023 784.601 516.2 779.834 508.556 775.093C500.895 770.342 494.158 767.097 485.785 763.636L486.509 752.211Z" fill="white"></path>
  <path d="M880.254 650.915C887.808 650.627 901.346 652.236 902.873 661.404C901.44 670.634 890.497 671.689 882.953 672.683C854.9 672.155 847.51 655.061 880.254 650.915Z" fill="white"></path>
  <path d="M795.103 696.286C803.723 695.395 816.843 696.397 821.238 705.174C821.595 713.908 812.17 714.987 805.352 716.325C781.855 717.58 765.159 702.774 795.103 696.286Z" fill="white"></path>
  <path d="M336.625 477.051C340.257 478.474 341.059 479.563 344.183 478.692L344.359 477.428L341.793 475.08C344.489 475.322 345.595 475.5 348.309 475.081L349.864 473.459C348.595 471.707 347.298 471.736 344.916 470.909L345.162 469.728C357.053 463.395 361.759 471.935 367.627 480.17C366.52 484.31 359.378 484.989 359.16 492.299C359.523 492.245 351.5 490.291 350.759 490.108C345.034 488.697 333.345 488.757 330.764 482.625C331.73 479.805 334.015 478.797 336.625 477.051Z" fill="white"></path>
  <path d="M327.29 487.741C333.681 491.013 336.082 490.927 343.167 491.357C338.148 498.618 333.867 503.699 327.385 509.584C326.345 510.725 325.745 510.887 324.373 511.531C319.592 510.632 317.107 507.352 317.265 502.433C317.492 495.382 322.418 492.003 327.29 487.741Z" fill="#0F172A"></path>
  <path d="M510.229 429.347L511.711 429.813C512.122 441.437 492.411 443.407 483.426 444.795L482.252 444.127C482.608 441.752 487.004 437.062 488.8 434.895C497.772 434.604 502.056 432.602 510.229 429.347Z" fill="white"></path>
  <path d="M535.055 481.125C538.335 483.053 541.485 486.12 544.35 488.704L534.678 499.486C533.302 501.2 533.24 501.362 531.371 502.443L530.322 501.265C529.219 494.69 532.552 487.113 535.055 481.125Z" fill="white"></path>
  <path d="M347.092 493.158C349.815 493.325 350.434 493.177 352.736 494.455L353.012 495.921C351.044 499.119 345.077 502.526 341.714 504.756C340.418 505.676 339.99 505.738 338.514 506.269C338.469 503.919 345.146 495.738 347.092 493.158Z" fill="#0F172A"></path>
  <path d="M1333.11 495.844C1339.7 508.751 1346.97 505.548 1359.51 503.958C1365.06 504.689 1366.48 504.357 1372.07 503.382C1393.74 511.56 1407.29 531.407 1392.2 552.597L1566.21 644.609C1605.37 665.167 1645.61 685.937 1683.98 707.844C1699.5 716.705 1737.3 735.092 1747.7 746.646C1749.53 760.528 1745.74 763.077 1733.83 769.432C1687.78 794.01 1641.43 817.717 1595.39 842.36L1456.65 915.205C1436.79 925.427 1416.95 936.278 1396.91 946.013C1387.36 950.652 1375.85 955.595 1365.38 956.332C1352.89 957.213 1345.8 957.354 1334.11 952.24C1314.53 943.678 1295.45 932.357 1276.39 922.647C1249.91 909.149 1223.7 895.172 1197.33 881.605L1102.96 833.667C1093.5 828.77 1083.92 823.99 1074.53 818.958C1070.12 816.593 1067.64 813.738 1063.75 810.848C1067.66 808.712 1071.42 806.565 1075.27 804.322C1069.33 800.051 1052.83 792.162 1045.47 788.198C1023.04 776.123 999.785 764.831 977.6 752.297C974.482 754.279 972.33 755.366 968.994 756.983C967.16 754.745 964.152 753.171 961.679 751.817C946.491 743.504 931.413 735.126 935.708 714.883C937.02 708.696 939.459 699.851 945.681 696.464C960.197 688.561 974.977 681.049 989.665 673.451L1053.76 639.983C1118.46 606.484 1182.86 571.887 1248.59 540.454C1263.57 533.29 1307 508.243 1320.24 506.072C1324.18 501.673 1328.24 498.978 1333.11 495.844Z" fill="#0F172A"></path>
  <path d="M968.994 756.983C967.16 754.745 964.152 753.171 961.679 751.817C946.491 743.504 931.413 735.126 935.708 714.883C937.02 708.696 939.459 699.851 945.681 696.464C960.197 688.561 974.977 681.049 989.665 673.451L1053.76 639.983C1118.46 606.484 1182.86 571.887 1248.59 540.454C1263.57 533.29 1307 508.243 1320.24 506.072C1318.44 510.743 1318.37 513.823 1318.12 518.676C1318.09 519.384 1318.19 522.672 1317.89 523.136C1315.85 526.243 1049.3 660.427 1017.38 676.793C1006.37 682.439 955.826 706.304 950.78 712.909C948.174 716.318 947.727 719.679 949.475 723.639C950.675 726.357 958.016 729.734 960.645 731.15C1053.14 780.999 1146.9 828.795 1240.01 877.494L1305.85 912.266C1362.2 942.503 1356.64 940.444 1412.07 911.051L1479 876.413L1610.84 807.506C1642.38 791.124 1673.75 774.199 1705.24 758.009C1712.92 754.059 1716.15 743.44 1711.65 739.739C1698.84 729.219 1664.05 712.19 1650.46 704.971L1516.83 635.315L1435.76 592.936C1420.12 584.68 1397.25 571.774 1381.28 565.332C1385.9 560.534 1388.25 557.99 1392.2 552.597L1566.21 644.609C1605.37 665.167 1645.61 685.937 1683.98 707.844C1699.5 716.705 1737.3 735.092 1747.7 746.646C1749.53 760.528 1745.74 763.077 1733.83 769.432C1687.78 794.01 1641.43 817.717 1595.39 842.36L1456.65 915.205C1436.79 925.427 1416.95 936.278 1396.91 946.013C1387.36 950.652 1375.85 955.595 1365.38 956.332C1352.89 957.213 1345.8 957.354 1334.11 952.24C1314.53 943.678 1295.45 932.357 1276.39 922.647C1249.91 909.149 1223.7 895.172 1197.33 881.605L1102.96 833.667C1093.5 828.77 1083.92 823.99 1074.53 818.958C1070.12 816.593 1067.64 813.738 1063.75 810.848C1067.66 808.712 1071.42 806.565 1075.27 804.322C1069.33 800.051 1052.83 792.162 1045.47 788.198C1023.04 776.123 999.785 764.831 977.6 752.297C974.482 754.279 972.33 755.366 968.994 756.983Z" fill="white"></path>
  <path d="M1321.6 527.32L1328.78 531.564C1326.49 541.885 1321.96 557.77 1325.57 567.563C1328.48 575.44 1334.66 575.369 1341.7 578.685C1344.05 581.941 1343.3 581.676 1343.55 586.383C1339.29 593.328 1337.56 596.981 1331.32 602.25C1322.02 597.788 1312.71 592.93 1303.51 588.237C1303.54 582.06 1304.77 567.488 1301.12 563.642C1292.11 563.816 1182.9 622.329 1165.2 629.998C1164.99 633.204 1165.03 637.271 1164.97 640.554C1149.79 648.171 1129.84 657.643 1115.51 666.308C1115.07 672.216 1115.12 679.905 1115 685.958C1106.57 689.645 1063.47 710.303 1060.36 716.054C1062.55 719.923 1104.44 740.36 1110.88 743.38C1121.4 739.787 1140.74 727.691 1151.75 722.947C1155.5 721.331 1160.05 718.255 1164.06 717.023C1164.7 721.458 1164.63 722.324 1167.64 724.757C1173.36 725.921 1220.91 700.651 1230.71 695.783C1247.03 704.616 1267.5 713.851 1284.59 722.541C1292.9 717.988 1311.01 710.019 1317.6 704.744C1319.65 706.347 1319.86 707.247 1320.03 710.536C1321.08 730.991 1320 751.534 1321.12 772.039C1294.67 758.2 1266.9 745.204 1239.98 732.118C1230.25 737.006 1166.24 767.969 1164.03 771.926C1164.94 777.707 1189.02 788.146 1194.9 791.105L1251.27 819.229C1274.45 806.885 1298.48 795.433 1321.42 783.02C1322.96 797.547 1322.9 816.448 1325.11 829.926C1316.85 834.245 1307.81 838.788 1300.21 844.081C1308.89 849.644 1317.81 853.67 1326.63 858.724L1326.38 853.124L1325.84 853.5C1322.9 852.998 1311.43 845.926 1308.08 843.976C1311.66 841.82 1322.33 834.929 1325.81 835.594L1326.68 834.364C1326.71 836.909 1326.82 838.604 1327.11 841.133L1327.98 840.916C1328.13 837.799 1328.47 836.41 1329.15 833.451C1329.54 830.216 1326.7 802.048 1326.52 796.377C1325.69 769.294 1322.74 734.964 1324.62 708.187L1326.06 707.379C1337.29 714.204 1356.87 711.722 1369.28 708.969C1375.61 707.565 1388.35 698.252 1391.65 698.017C1394.42 703.043 1392.71 714.383 1392.27 720.305C1389.69 754.912 1391.31 789.681 1391.04 824.346C1391 829.293 1390.66 835.12 1390.95 839.978L1393.03 839.28C1395 840.809 1394.39 840.579 1395.06 843.772L1414.96 854.829C1428.26 847.759 1446.38 839.635 1458.69 831.788C1440.51 820.534 1415.4 808.293 1396.02 797.491C1395.68 772.091 1395.13 735.6 1396.8 710.956C1403.63 714.333 1410.35 718.168 1417.02 721.877C1442.54 707.644 1471.76 693.152 1497.97 679.445C1472.7 665.032 1443.84 650.546 1417.85 636.971L1410.68 641C1410.11 627.372 1407.23 600.11 1397.69 589.624C1393.64 585.169 1378.22 580.362 1377.32 572.658C1378.61 570.058 1377.82 570.772 1380.17 569.491C1388.45 572.084 1410.12 584.144 1418.42 588.526L1479.25 620.202L1622.08 694.613C1648.82 708.652 1675.65 722.674 1702.04 737.338C1704.15 738.511 1707.58 740.5 1708.74 742.665C1710.14 745.293 1709.75 746.801 1709 749.53C1701.42 756.313 1678.66 767.202 1668.22 772.719L1579.62 818.95L1435.63 894.15C1416.66 904.001 1397.83 914.009 1378.8 923.839C1365.28 930.825 1353.67 931.989 1339.57 925.247C1329.53 920.444 1319.78 914.94 1309.96 909.69L1261.01 883.771L1090.42 794.273L993.168 743.682C985.821 739.796 953.563 725.283 952.663 717.328C961.42 708.496 1014.62 682.785 1028.71 675.66L1111.32 633.536L1241.63 567.146C1267.03 554.22 1295.78 538.899 1321.6 527.32Z" fill="white"></path>
  <path d="M1326.06 707.379C1337.29 714.204 1356.87 711.722 1369.28 708.969C1375.61 707.565 1388.35 698.252 1391.65 698.017C1394.42 703.043 1392.71 714.383 1392.27 720.305C1389.69 754.912 1391.31 789.681 1391.04 824.346C1391 829.293 1390.66 835.12 1390.95 839.978L1393.03 839.28C1395 840.809 1394.39 840.579 1395.06 843.772L1395.1 844.66C1395.31 849.265 1396.09 853.837 1396.84 858.381C1402.83 894.402 1367.56 866.076 1355.82 864.065C1354.04 868.25 1356.42 874.688 1357.63 879.379C1356.96 880.165 1355.28 882.015 1354.84 882.791C1344.76 885.3 1340.55 882.616 1330.83 881.263C1321.47 879.961 1312.69 878.992 1303.4 876.822L1299.28 878.142C1298.98 882.064 1301.66 879.383 1299.22 882.49C1295.61 879.976 1292.95 878.057 1292.67 873.258C1295.18 864.422 1309.28 866.065 1316.05 866.722C1319.54 864.975 1324.58 862.871 1326.9 860.001L1326.63 858.724L1326.38 853.124L1325.84 853.5C1322.9 852.998 1311.43 845.926 1308.08 843.976C1311.66 841.82 1322.33 834.929 1325.81 835.594L1326.68 834.364C1326.71 836.909 1326.82 838.604 1327.11 841.133L1327.98 840.916C1328.13 837.799 1328.47 836.41 1329.15 833.451C1329.54 830.216 1326.7 802.048 1326.52 796.377C1325.69 769.294 1322.74 734.964 1324.62 708.187L1326.06 707.379Z" fill="#0F172A"></path>
  <path d="M1350.16 866.881C1352.55 823.955 1355.42 782.161 1364.45 740.135C1365.89 733.419 1367.68 720.361 1370.14 714.667C1372.28 714.511 1371.42 714.313 1373.44 715.945C1374.16 727.639 1367.78 741.519 1367 753.679C1366.2 765.98 1366.55 776.94 1367.06 790.829C1367.54 803.871 1364.76 834.184 1371.68 845.365C1374.25 849.527 1385.84 851.324 1390.36 845.733C1391.08 843.263 1390.96 842.599 1390.95 839.978L1393.03 839.28C1395 840.809 1394.39 840.579 1395.06 843.772L1395.1 844.66C1395.31 849.265 1396.09 853.837 1396.84 858.381C1402.83 894.402 1367.56 866.076 1355.82 864.065C1354.04 868.25 1356.42 874.688 1357.63 879.379C1356.96 880.165 1355.28 882.015 1354.84 882.791C1344.76 885.3 1340.55 882.616 1330.83 881.263C1321.47 879.961 1312.69 878.992 1303.4 876.822L1299.28 878.142C1298.98 882.064 1301.66 879.383 1299.22 882.49C1295.61 879.976 1292.95 878.057 1292.67 873.258C1295.18 864.422 1309.28 866.065 1316.05 866.722C1319.54 864.975 1324.58 862.871 1326.9 860.001L1326.63 858.724L1326.38 853.124L1325.84 853.5C1322.9 852.998 1311.43 845.926 1308.08 843.976C1311.66 841.82 1322.33 834.929 1325.81 835.594L1326.68 834.364C1326.71 836.909 1326.82 838.604 1327.11 841.133L1327.98 840.916C1328.13 837.799 1328.47 836.41 1329.15 833.451C1331.86 852.745 1325.31 866.843 1350.16 866.881Z" fill="#0F172A"></path>
  <path d="M1329.7 865.232C1337.31 871.278 1341.06 871.848 1350.84 871.164L1354.84 882.791C1344.76 885.3 1340.55 882.616 1330.83 881.263C1321.47 879.961 1312.69 878.992 1303.4 876.822C1300.18 875.526 1299.96 876.101 1298.72 873.545C1299.83 871.965 1300.17 871.672 1302.67 871.394C1316.49 869.855 1317.36 871.058 1329.7 865.232Z" fill="#0F172A"></path>
  <path d="M1308.08 843.976C1311.66 841.82 1322.33 834.929 1325.81 835.594C1325.84 841.445 1325.74 847.312 1326.38 853.124L1325.84 853.5C1322.9 852.998 1311.43 845.926 1308.08 843.976Z" fill="white"></path>
  <path d="M1363.37 843.763L1364.03 843.909C1377.02 859.546 1384.04 850.289 1391.17 853.121C1394.7 858.348 1391.78 860.636 1387.81 863.667C1380.13 863.677 1360.44 858.028 1355.37 852.284C1353.5 845.956 1358.39 845.125 1363.37 843.763Z" fill="#0F172A"></path>
  <path d="M1360.22 787.015L1362.02 789.012C1362.65 793.894 1363.14 824.611 1362.62 829.597L1360.77 830.665L1357.97 828.334C1355.94 823.271 1359.44 795.006 1360.22 787.015Z" fill="white"></path>
  <path d="M1392.01 866.978L1392.59 866.917L1393.41 867.884L1392.66 869.667C1388.25 872.921 1386.83 872.843 1381.69 872.242C1379.46 870.298 1379.54 870.996 1379.16 868.715C1380.76 867.87 1388.47 867.644 1392.01 866.978Z" fill="#0F172A"></path>
  <path d="M1303.4 876.822C1312.69 878.992 1321.47 879.961 1330.83 881.263C1340.55 882.616 1344.76 885.3 1354.84 882.791C1355.28 882.015 1356.96 880.165 1357.63 879.379C1361.16 909.418 1347.52 896.956 1330.8 890.563C1321.68 887.074 1309 889.451 1299.22 882.49C1301.66 879.383 1298.98 882.064 1299.28 878.142L1303.4 876.822Z" fill="#0F172A"></path>
  <path d="M1354.25 887.432C1355.43 889.843 1354.94 890.886 1353.68 892.709C1349.46 894.324 1345.53 893.286 1341.45 891.861C1340.38 890.65 1340.36 890.761 1340.02 889.202C1342.8 888.018 1348.27 888.891 1354.25 887.432Z" fill="#0F172A"></path>
  <path d="M1535.39 699.469C1557.62 711.583 1580.66 722.736 1603.08 734.51C1610.94 738.638 1619.29 742.76 1627.51 746.05C1620.87 750.824 1603.75 758.865 1595.86 762.87L1543.56 790.022C1540.34 788.079 1537.19 786.512 1533.88 784.768C1506.37 770.305 1478.08 757.021 1450.82 742.133C1482.09 728.045 1505.24 714.999 1535.39 699.469Z" fill="#0F172A"></path>
  <path d="M1574.49 724.427C1589.26 731.847 1603.83 739.224 1618.45 746.929C1596.3 759.293 1567.23 773.099 1544.22 785.022C1539.98 784.619 1506.6 766.665 1501.21 763.463C1523.83 750.174 1550.8 737.67 1574.49 724.427Z" fill="white"></path>
  <path d="M1533.93 704.659C1538.68 704.602 1564.66 719.308 1570.37 722.377C1558.97 728.639 1547.54 734.504 1535.98 740.456C1532.25 739.916 1505.86 725.806 1500.17 722.863C1510.22 716.817 1523.36 710.253 1533.93 704.659Z" fill="#0F172A"></path>
  <path d="M1495.78 725.263C1499.43 726.013 1525.69 740.437 1530.83 743.137C1519.6 749.361 1508.58 754.634 1497.36 761.289C1485.12 755.57 1472.26 748.776 1460.39 742.355C1472.34 736.885 1483.99 731.085 1495.78 725.263Z" fill="white"></path>
  <path d="M1169.29 633.132L1247.43 593.478C1263.22 585.474 1283.26 574.701 1299.11 567.747L1298.98 618.541C1299.01 628.325 1299.51 640.711 1298.79 650.26C1296.88 652.06 1296.02 652.446 1293.69 653.698C1293.34 653.793 1292.98 653.888 1292.63 653.983C1283.54 659.701 1263.42 638.706 1256.57 645.516C1256.15 648.592 1256.74 649.538 1257.88 652.331L1258.83 653.425C1251.07 654.521 1246.69 648.884 1239.19 654.042C1235.53 662.919 1262.87 669.441 1269.26 671.261C1254.44 680.505 1232.69 690.066 1216.66 697.9C1201.57 705.269 1184.6 714.198 1169.47 720.734C1169.46 692.055 1169.96 661.671 1169.29 633.132Z" fill="white"></path>
  <path d="M1247.97 608.047C1248.92 608.488 1248.98 609.067 1249.63 610.174C1248.92 612.212 1248.6 612.532 1246.6 613.547C1225.07 624.516 1202.7 634.362 1181.64 646.256L1180.61 645.614L1180.13 643.184C1182.64 638.441 1239.72 612.043 1247.97 608.047Z" fill="#0F172A"></path>
  <path d="M1250.18 641.675C1252.25 643.44 1251.86 642.582 1252.24 644.895C1250.74 646.724 1206.55 667.262 1199.99 670.748C1198.26 669.098 1198.7 670.072 1198.49 667.791C1202.41 662.818 1242.44 644.973 1250.18 641.675Z" fill="#0F172A"></path>
  <path d="M1247.9 623.995C1249.18 624.997 1248.77 624.646 1249.12 626.756C1246.28 630.93 1208.08 648.62 1200 652.948C1198.18 652.071 1198.88 652.74 1198.01 650.704C1199.65 646.56 1240.68 627.538 1247.9 623.995Z" fill="#0F172A"></path>
  <path d="M1233.44 665.702L1234.99 667.166L1234.76 668.897C1230.48 673.338 1206.55 683.616 1199.92 686.66L1198.24 685.663L1198.32 683.979C1202.33 679.468 1226.78 668.825 1233.44 665.702Z" fill="#0F172A"></path>
  <path d="M1190.88 683.755C1191.17 684.102 1191.49 684.418 1191.61 684.917C1193.46 692.869 1189.57 694.493 1182.24 697.218C1181.87 696.829 1181.47 696.479 1181.3 695.895C1178.93 687.621 1183.31 686.603 1190.88 683.755Z" fill="#0F172A"></path>
  <path d="M1189.22 668.258C1190.4 668.506 1190.54 668.766 1191.64 669.461C1194.11 675.408 1187.55 677.989 1183.17 680.029C1181.38 679.864 1180.88 679.06 1180.26 677.655C1181.05 671.748 1184.02 670.276 1189.22 668.258Z" fill="#0F172A"></path>
  <path d="M1190.86 651.44L1191.66 652.046C1193.73 658.455 1187.23 660.629 1182.34 663.421L1180.99 662.374C1179.18 655.644 1185.51 654.077 1190.86 651.44Z" fill="#0F172A"></path>
  <path d="M1381.08 584.187C1391.47 589.837 1397.18 591.677 1400.41 603.978C1405.12 621.884 1407.49 640.819 1406.22 659.327C1405.63 667.876 1399.88 675.488 1395.31 682.429C1395.58 672.794 1399.93 633.768 1398.35 628.693L1397.09 629.016C1392.63 639.909 1391.13 678.826 1391.34 692.009C1371.73 705.927 1344.71 714.63 1322.55 700.634L1321.62 686.16C1333.21 682.048 1342.33 676.585 1347.35 664.836C1350.21 658.144 1356.59 641.687 1353.81 634.966C1350.61 636.074 1344.73 662.868 1339.25 669.927C1331.33 669.583 1323.73 666.118 1318.95 666.21L1318.24 663.706C1319.61 657.85 1323.2 644.93 1323.15 639.645C1322.04 638.452 1321.6 638.027 1320.35 636.985C1318.29 617.25 1330.61 608.292 1343.66 596.478C1359.2 598.332 1370.07 595.442 1381.08 584.187Z" fill="#0F172A"></path>
  <path d="M1119.83 671.747C1134.62 679.651 1150.6 688.091 1164.95 696.585L1165 710.92C1147.23 720.866 1129.53 729.843 1111.23 738.791C1097.17 732.481 1079.59 722.693 1065.64 715.423C1083.63 706.496 1101.77 696.998 1119.66 687.83C1119.64 682.546 1119.77 677.049 1119.83 671.747Z" fill="white"></path>
  <path d="M1330.88 502.271C1349.52 523.573 1383.04 485.808 1394.65 535.862C1391.12 548.969 1387.21 553.408 1378.14 562.912C1374.7 565.934 1373.75 570.862 1368.1 571.79C1366.83 571.48 1364.54 571.272 1364.4 569.313C1362.58 544.617 1348 559.062 1348.01 530.303C1329.74 529.211 1308.21 518.679 1330.88 502.271Z" fill="#0F172A"></path>
  <path d="M1268.71 677.283C1272.2 678.71 1281.34 684.211 1285.04 686.306L1314.23 702.547C1307.97 705.74 1288.87 716.491 1283.48 717.53C1268.93 709.253 1250.84 701.378 1235.43 693.521C1246.28 688.572 1257.9 682.583 1268.71 677.283Z" fill="white"></path>
  <path d="M1242.61 776.233C1253.54 780.731 1273.97 791.781 1285.03 797.331C1279.15 800.468 1255.99 813.083 1250.84 814.26C1237.44 808.272 1221.65 799.807 1207.95 793.241C1219.72 787.656 1231.05 782.259 1242.61 776.233Z" fill="#0F172A"></path>
  <path d="M1280.2 757.323C1286.37 758.034 1316.41 773.819 1322.64 777.807C1313.36 783.14 1299.42 789.709 1289.6 794.726C1284.98 793.395 1254.15 777.261 1247.24 773.912C1258.28 768.512 1269.4 763.189 1280.2 757.323Z" fill="white"></path>
  <path d="M1395.46 801.996C1413.75 811.472 1432.53 822.004 1450.76 831.774L1438.32 838.275C1431.1 842.316 1422.94 846.371 1415.56 850.23C1408.87 846.542 1402.02 842.964 1395.27 839.373L1395.46 801.996Z" fill="white"></path>
  <path d="M1257.88 652.331C1256.74 649.538 1256.15 648.592 1256.57 645.516C1263.42 638.706 1283.54 659.701 1292.63 653.983C1292.98 653.888 1293.34 653.793 1293.69 653.698C1294.76 655.903 1295.18 655.976 1297.34 657.362C1302.44 658.148 1309.55 659.778 1314.31 661.853L1318.24 663.706L1318.95 666.21C1323.73 666.118 1331.33 669.583 1339.25 669.927C1333.79 675.541 1329.32 679.299 1321.32 680.448C1311.7 681.831 1249.46 661.889 1244.09 657.11L1244.35 655.888C1249.85 653.999 1262.14 660.92 1266.06 655.968C1265.56 653.437 1262.31 651.434 1260.17 647.867C1259.36 651.224 1260.05 650.69 1257.88 652.331Z" fill="white"></path>
  <path d="M1257.88 652.331C1256.74 649.538 1256.15 648.592 1256.57 645.516C1263.42 638.706 1283.54 659.701 1292.63 653.983C1292.98 653.888 1293.34 653.793 1293.69 653.698C1294.76 655.903 1295.18 655.976 1297.34 657.362C1302.44 658.148 1309.55 659.778 1314.31 661.853L1318.24 663.706L1318.95 666.21C1313.72 667.315 1287.42 658.79 1280.54 656.795C1274.94 655.173 1265.33 647.442 1260.17 647.867C1259.36 651.224 1260.05 650.69 1257.88 652.331Z" fill="#0F172A"></path>
  <path d="M1456.17 662.243C1459.1 662.969 1485.52 677.133 1489.94 679.47C1477.73 685.071 1463.58 692.756 1451.56 698.961C1444.72 696.191 1425.78 685.557 1418.15 681.609C1430.84 675.373 1443.57 668.706 1456.17 662.243Z" fill="white"></path>
  <path d="M1201.7 756.325C1203.99 755.913 1233.52 771.312 1238.32 773.644C1226.96 779.315 1216.02 784.816 1204.42 789.969C1201.46 790.426 1173.67 775.085 1168.62 772.431C1178.07 767.248 1191.73 761.145 1201.7 756.325Z" fill="#0F172A"></path>
  <path d="M1238.62 737.709C1243.09 737.36 1270.7 751.774 1276.32 754.537C1265.65 759.911 1255.1 765.437 1244.52 770.97C1244.4 771.021 1244.28 771.092 1244.16 771.123C1239.94 772.159 1212.57 756.329 1207.27 753.569C1217.71 748.144 1228.08 742.938 1238.62 737.709Z" fill="white"></path>
  <path d="M1403.32 678.341C1414.44 685.503 1433.96 693.833 1447.11 701.687C1441.47 704.414 1435.89 707.394 1430.33 710.297C1426.77 712.465 1421.15 714.963 1417.27 716.831C1410.92 713.708 1404.05 709.88 1397.74 706.545C1396.58 699.68 1395.54 694.504 1395.54 687.517L1403.32 678.341Z" fill="white"></path>
  <path d="M1332.98 532.158C1334.59 532.576 1340.63 534.111 1341.7 534.767C1347.12 538.08 1344.9 553.4 1346.99 559.1L1348.44 559.769C1350.02 557.87 1350.27 557.043 1351.31 554.764C1353.81 555.744 1357.12 559.512 1359.17 561.576C1359.32 566.042 1358.75 572.189 1362.17 575.273C1365.3 576.846 1369.81 576.11 1373.44 575.861C1369.32 580.094 1367.77 581.65 1362.53 584.311C1358.8 585.734 1353.87 587.302 1349.93 586.604C1347.46 585.06 1348.18 585.987 1347.31 583.065C1347.96 578.221 1350.58 574.751 1353.22 570.627C1345.17 568.071 1322.27 586.411 1330.42 544.813C1331.22 540.731 1332.13 536.267 1332.98 532.158Z" fill="white"></path>
  <path d="M1163.56 646.145L1164.73 646.632C1165.62 652.384 1164.98 683.547 1164.94 691.171L1139.78 677.613L1121.39 667.645L1163.56 646.145Z" fill="white"></path>
  <path d="M1303.54 592.539C1310.64 596.24 1320.93 601.131 1327.55 605.093C1307.19 628.546 1320.7 641.91 1314.31 661.853C1309.55 659.778 1302.44 658.148 1297.34 657.362C1299.82 655.756 1302.93 654.516 1303.11 651.825C1304.34 633.019 1303.23 611.186 1303.54 592.539Z" fill="white"></path>
  <path d="M1417.53 641.772C1423 643.671 1446.51 656.765 1452.42 659.982C1446.4 662.48 1438.2 666.9 1432.2 669.921C1425.94 673.251 1419.79 676.101 1413.37 679.1L1405.57 674.635C1411.74 662.383 1408.73 659.284 1411.47 646.518C1412.05 643.809 1414.96 643.046 1417.53 641.772Z" fill="white"></path>
  <path d="M1272.75 673.781C1273.54 673.807 1311.59 683.899 1318.43 685.209C1318.15 690.868 1318.05 693.376 1318.71 699.142L1317.46 699.183C1310.05 695.548 1277.54 678.645 1272.75 673.781Z" fill="white"></path>
  <path d="M1376.23 580.339L1376.65 582.261C1373.83 590.47 1353.56 593.619 1345.97 593.303C1345.96 592.968 1345.95 592.633 1345.94 592.298C1346.26 591.915 1367.25 587.722 1376.23 580.339Z" fill="white"></path>
  <path d="M900.472 50.1617C962.105 46.161 1041.83 57.7763 1095.35 90.0827C1114.69 101.754 1136.01 128.905 1123.94 152.299C1105.39 188.251 1081.89 222.92 1060.04 257.146C1015.84 326.368 971.822 395.846 925.881 463.96L917.384 476.252C902.714 449.94 879.95 415.944 863.421 390.429L765.572 240.757C748.309 214.282 730.933 188.57 714.966 161.219C697.534 131.36 713.605 107.222 739.761 90.5474C787.175 60.3208 845.356 52.789 900.472 50.1617Z" fill="#0F172A"></path>
  <path d="M890.606 54.5949C956.609 49.7436 1048.77 60.6607 1102.92 101.058C1123.28 116.25 1130.56 145.443 1111.5 164.73C1071.83 204.873 999.5 216.451 945.272 220.235C884.27 223.157 829.803 217.6 771.749 195.386C719.277 175.308 680.885 131.334 745.842 91.6024C788.25 65.6631 841.281 57.9961 890.606 54.5949Z" fill="white"></path>
  <path d="M898.962 69.7214C951.291 66.9654 1024.12 74.0008 1067.77 105.139C1086.05 118.18 1095.67 142.37 1078.46 160.561C1045.35 195.548 982.954 202.112 937.853 206.146C886.593 208.316 804.484 200.892 762.608 167.316C754.892 160.855 747.231 150.204 746.912 139.694C746.069 111.92 781.083 95.3257 802.689 87.3124C833.949 75.7192 866.208 71.6156 898.962 69.7214Z" fill="#0F172A"></path>
  <path d="M915.522 73.2845C937.289 72.3275 976.834 77.6992 998.036 81.5943C993.999 92.5898 990.231 106.652 986.787 118.04L962.381 199.493C948.562 201.059 934.478 202.373 920.568 202.511C906.023 202.527 887.802 200.983 873.324 199.667C863.362 161.348 849.206 119.698 837.277 81.5513C866.937 75.9152 885.382 74.2247 915.522 73.2845Z" fill="white"></path>
  <path d="M832.05 82.8875C835.418 85.202 865.525 187.278 869.193 199.303C844.662 195.67 827.562 192.377 803.804 184.686C782.748 176.381 736.548 156.019 755.281 124.083C768.579 101.413 807.676 89.1794 832.05 82.8875Z" fill="white"></path>
  <path d="M1002 82.4357C1027.98 88.6533 1069.2 101.005 1080.89 127.256C1093.87 156.383 1055.26 175.005 1035.04 183.193C1011.71 191.867 991.084 195.499 966.867 199.228C978.988 160.774 990.093 121.105 1002 82.4357Z" fill="white"></path>
  <path d="M729.192 176.736C768.328 206.501 825.672 218.658 874.007 223.327C923.085 228.068 971.644 223.886 1019.87 214.284C1014.91 226.417 1009.8 236.96 1005.01 249.57C1002.88 254.846 1000.56 259.55 998.086 264.653C943.451 279.171 814.215 280.074 765.395 232.042C760.681 227.404 732.139 183.061 729.192 176.736Z" fill="white"></path>
  <path d="M771.395 242.205C773.131 242.883 782.423 248.957 784.922 250.394C838.525 281.211 937.115 284.523 995.901 269.508C991.432 281.378 984.709 295.507 979.317 307.113C976.435 313.167 973.313 321.242 970.661 327.556C936.188 336.351 897.073 335.322 862.59 327.141C848.083 323.7 829.495 318.534 817.629 309.155C810.519 303.534 778.212 253.308 771.395 242.205Z" fill="white"></path>
  <path d="M820.201 316.225C865.497 338.187 918.85 343.223 967.855 332.618C966.737 335.928 965.471 339 964.147 342.224C952.692 370.117 940.871 398.032 930.741 426.445C925.356 439.886 921.047 454.021 916.811 467.853C910.515 455.159 894.134 430.442 886.153 417.892L820.201 316.225Z" fill="white"></path>
  <path d="M1102.93 178.643L1103.54 179.941C1099.18 188.787 1092.03 197.018 1087.75 205.361C1069.75 240.463 1042.94 252.597 1005.31 263.455C1005.21 263.338 1005.08 263.245 1005.02 263.105C1003.71 260.16 1022.17 219.853 1024.69 213.302C1056.62 203.497 1075.34 198.147 1102.93 178.643Z" fill="white"></path>
  <path d="M1019.21 312.244C1018.22 315.836 1001.94 339.932 999.164 344.229L925.521 457.098C923.767 451.117 968.213 342.747 973.923 331.039C991.588 327.214 1004.11 321.783 1019.21 312.244Z" fill="white"></path>
  <path d="M1063.8 241.852L1064.29 242.885C1058.28 252.615 1049.54 263.764 1044.26 273.709C1027.7 304.847 1011.56 316.589 977.528 326.02L976.657 324.925C977.889 320.899 979.923 316.771 981.729 312.942C988.561 298.456 994.3 283.397 1001.29 268.995C1023.4 263.052 1045.09 255.338 1063.8 241.852Z" fill="white"></path>
  <path d="M1052.37 839.737C1055.47 839.817 1149.33 889.711 1152.9 892.978L1152.57 894.266C1140.43 902.075 1112.58 915.586 1098.45 923.059L992.042 979.307C988.334 980.152 965.723 967.162 960.573 964.438L889.907 927.038C898.613 921.005 926.946 906.919 937.33 901.412L990.727 872.689C1010.77 862.156 1032.9 851.024 1052.37 839.737Z" fill="#0F172A"></path>
  <path d="M1052.62 844.387C1057.59 845.873 1080.24 858.335 1085.86 861.343L1146.26 893.365C1096.16 918.02 1041.82 948.162 992.125 974.538C986.972 975.036 909.153 932.606 899.04 926.595C949.572 898.6 1001.98 872.471 1052.62 844.387Z" fill="white"></path>
  <path d="M985.231 895.234C1021.59 894.484 1065.56 899.715 1103.83 899.827L1066.68 919.699C1047.07 930.048 1025.6 942.445 1006.06 952.154C1000.06 933.012 991.446 914.538 985.231 895.234Z" fill="#0F172A"></path>
  <path d="M1035.6 906.784C1038.39 908.073 1040.64 908.655 1042.02 911.248C1041.1 913.873 1041.79 913.032 1039.47 914.45C1026.99 911.314 1023.05 922.137 1012.8 922.749C1009.74 921.215 1005.94 919.648 1004.46 916.871L1005.15 914.963C1008.02 914.257 1011.7 916.058 1014.84 917.136C1020.59 915.258 1029.94 909.84 1035.6 906.784Z" fill="white"></path>
  <path d="M977.6 752.297C999.785 764.831 1023.04 776.123 1045.47 788.198C1052.83 792.162 1069.33 800.051 1075.27 804.322C1071.42 806.565 1067.66 808.712 1063.75 810.848C1057 814.07 1050.34 817.476 1043.72 820.963C998.842 844.602 954.259 868.821 909.081 891.89C878.194 876.713 840.291 854.68 809.312 841.37C861.637 812.759 916.288 785.672 968.995 756.983C972.331 755.366 974.482 754.279 977.6 752.297Z" fill="#0F172A"></path>
  <path d="M976.291 758.047C979.638 757.577 1056.85 799.104 1066.93 803.993C1016.58 831.579 961.527 860.072 910.337 886.357C906.906 886.805 829.594 846.159 819.108 841.357L976.291 758.047Z" fill="white"></path>
  <path d="M964.178 798.273C984.22 802.426 1004.03 807.423 1023.78 812.783C1014.33 818.761 1001.22 824.84 991.014 830.091L939.694 856.865L916.677 868.554C919.454 854.527 922.185 825.974 923.552 811.659C939.662 816.175 961.472 821.594 977.761 824.962C974.131 816.065 966.963 806.067 964.178 798.273Z" fill="#0F172A"></path>
  <path d="M1216.54 229.386C1245.31 230.018 1276.06 275.672 1270.15 302.872C1265.67 323.517 1245.82 331.31 1227.22 328.064L1227.13 431.778C1227.46 438.199 1228.27 440.364 1224.7 445.706L1222.91 445.151L1223.91 446.228C1221 442.439 1222 414.384 1222 407.381V326.33C1195.71 314.044 1172.54 276.152 1186.17 247.523C1190.33 238.796 1207.42 231.605 1216.54 229.386Z" fill="#0F172A"></path>
  <path d="M1200.84 241.042C1242.48 237.881 1274.68 316.094 1240.77 324.927C1199.62 327.719 1165.5 255.243 1200.84 241.042Z" fill="white"></path>
  <path d="M1205.86 260.066C1217.64 259.659 1224.5 270.808 1215.37 280.137C1203.64 279.971 1198.79 269.781 1205.86 260.066Z" fill="#0F172A"></path>
  <path d="M1206.43 264.324C1214.05 264.664 1215.66 268.161 1215.55 274.971C1211.77 275.802 1211.12 275.45 1208.24 273.243C1206.37 269.75 1206.53 268.273 1206.43 264.324Z" fill="white"></path>
  <path d="M1228.94 288.609C1240.34 289.069 1246.68 298.844 1237.43 307.631C1226.69 307.571 1220.06 297.205 1228.94 288.609Z" fill="#0F172A"></path>
  <path d="M1229.43 293.033C1232.82 293.148 1235.03 293.562 1237.14 296.353C1238.08 299.15 1237.67 299.919 1236.81 302.708C1230.59 303.768 1227.89 298.685 1229.43 293.033Z" fill="white"></path>
  <path d="M1232.03 269.813L1233.49 271.319C1233.27 274.735 1215.6 294.876 1212.26 298.876C1211.93 298.608 1210.9 297.289 1210.56 296.874C1211.05 292.162 1227.77 273.392 1232.03 269.813Z" fill="#0F172A"></path>
  <path d="M1217.4 233.997C1232.09 237.056 1241.98 244.874 1251.06 256.389C1263.53 272.207 1275.92 302.271 1256.64 317.22C1262.81 285.96 1250.95 260.342 1224.53 242.94C1220.51 240.294 1213.66 239.569 1209.96 236.511C1211.75 234.638 1214.67 234.512 1217.4 233.997Z" fill="white"></path>
  <path d="M1531.77 455.116C1537.53 454.668 1542.11 455.296 1547.93 457.482C1576.29 468.124 1607.36 523.696 1575.99 545.974C1573.02 548.081 1562.48 552.176 1558.37 553.862C1533.37 554.639 1517.19 537.095 1506.67 516.508C1497.59 498.708 1495.3 472.534 1516.36 462.591C1521.49 460.17 1526.62 457.567 1531.77 455.116Z" fill="#0F172A"></path>
  <path d="M1520.67 465.929C1561.78 466.026 1594.61 538.462 1556.86 549.182C1535.56 551.002 1517.14 530.94 1509.62 512.726C1501.93 494.094 1499.62 475.025 1520.67 465.929Z" fill="white"></path>
  <path d="M1537.8 483.854C1539.25 484.31 1539.47 484.605 1540.67 485.505C1541.18 493.659 1544.4 490.667 1549.72 498.2C1550.08 501.009 1550.35 501.451 1549.02 503.757C1544.77 502.76 1544.09 494.517 1537.65 492.282C1534.61 492.823 1535.77 492.327 1533.2 494.816C1530.18 506.447 1552.75 507.586 1551.32 521.586C1550.53 529.272 1548.59 531.029 1541.1 530.729C1536.44 528.208 1529.4 520.346 1529.76 514.845L1531.32 513.91C1535.71 516.073 1536 524.114 1542.33 526.255C1545.7 525.64 1544.41 526.184 1547.24 523.842C1549.7 514.282 1531.5 507.895 1529.06 498.765C1526.06 487.517 1534.1 492.541 1537.8 483.854Z" fill="#0F172A"></path>
  <path d="M1530.6 459.725C1558.08 456.907 1579.95 488.402 1584.05 512.987C1585.91 524.064 1583.45 532.088 1576.84 540.962C1575.89 541.214 1576.35 541.122 1575.2 540.77C1576.29 534.271 1577.88 525.785 1576.88 519.179C1573.28 495.621 1557.63 472.437 1534.81 463.965C1532.43 463.083 1530.64 463.387 1528.46 461.826L1530.6 459.725Z" fill="white"></path>
  <path d="M1122.18 345.889C1155.74 341.482 1192.35 398.48 1176.07 427.576C1170.13 438.18 1160.32 439.97 1149.99 442.987C1115.86 446.679 1082.66 396.98 1094.63 366.124C1099.22 354.283 1111.57 350.295 1122.18 345.889Z" fill="#0F172A"></path>
  <path d="M1109.22 356.599C1151.38 353.843 1182.45 423.334 1150.44 438.025C1112.63 443.734 1076.59 375.89 1109.22 356.599Z" fill="white"></path>
  <path d="M1118.97 380.744L1121.64 381.541C1125.14 385.017 1128.1 389.275 1129.07 394.177L1126.21 393.417C1122.25 389.619 1120.37 386.028 1118.97 380.744Z" fill="#0F172A"></path>
  <path d="M1133.99 403.247C1138.79 404.192 1145.24 408.479 1146.22 413.549C1141.35 413.487 1134.94 408.336 1133.99 403.247Z" fill="#0F172A"></path>
  <path d="M1117.7 394.581C1122.9 395.987 1127.29 398.762 1128.22 404.133C1123.16 402.391 1117.09 400.556 1117.7 394.581Z" fill="#0F172A"></path>
  <path d="M1124.29 349.525C1157.09 349.695 1195.18 410.78 1163.86 434.449C1163.54 434.42 1163.15 434.066 1162.8 433.833C1176.74 405.535 1156.3 367.558 1128.74 355.731C1125.72 354.431 1123.02 353.484 1120 351.98L1120.37 350.9L1124.29 349.525Z" fill="white"></path>
  <path d="M1356.29 347.696C1389.94 344.377 1422.39 392.476 1411.57 423.072C1407.69 434.033 1395.1 439.049 1385.25 442.923C1353.1 450.552 1318.66 395.55 1330.46 367.632C1335.63 355.396 1345.36 352.594 1356.29 347.696Z" fill="#0F172A"></path>
  <path d="M1346.61 357.426C1385.31 355.441 1416.8 426.583 1383.77 438.832C1344.04 441.395 1313.08 370.073 1346.61 357.426Z" fill="white"></path>
  <path d="M1351.32 387.449C1352.21 387.588 1352.94 387.653 1353.97 388.192C1362.82 392.8 1372.32 397.497 1380.46 403.264C1380.89 404.46 1381.25 405.444 1381.53 406.217C1375.83 406.427 1359.62 396.267 1354.33 392.753C1351.49 390.868 1351.83 390.321 1351.32 387.449Z" fill="#0F172A"></path>
  <path d="M1351.64 403.319C1357.42 403.555 1379.45 414.986 1381.52 421.209C1380.79 421.288 1378.99 421.354 1378.38 420.988C1371.13 416.679 1354.95 411.112 1351.64 403.319Z" fill="#0F172A"></path>
  <path d="M1352.5 373.199C1357.72 374.483 1378.54 385.046 1380.23 390.319C1375.11 390.203 1358.8 381.465 1354.2 377.644C1352.15 375.948 1352.61 375.668 1352.5 373.199Z" fill="#0F172A"></path>
  <path d="M1355.99 352.403C1386.24 345.548 1424.31 401.048 1402.4 429.615C1401.06 430.587 1401.57 430.262 1399.85 430.643C1398.95 427.574 1401.87 418.359 1401.62 414.577C1399.71 384.915 1382.86 363.628 1355.82 353.394L1355.99 352.403Z" fill="white"></path>
  <path d="M1232.43 481.773C1246.74 483.816 1249.31 493.887 1249.65 507.301C1249.88 516.516 1250.28 525.538 1240.88 529.975C1220.62 528.609 1221.81 503.59 1224.88 488.687C1225.62 485.069 1229.39 483.202 1232.43 481.773Z" fill="white"></path>
  <path d="M1232.31 485.238C1245.46 486.724 1247.54 498.758 1245.39 509.916L1244.2 510.345L1242.87 509.068C1236.5 505.899 1233.55 506.515 1226.61 506.851C1226.68 498.547 1225.21 490.659 1232.31 485.238Z" fill="white"></path>
  <path d="M1228.74 510.425C1239.64 509.669 1251.57 513.701 1241.87 526.069C1231.98 526.932 1222.17 516.51 1228.74 510.425Z" fill="white"></path>
  <path d="M1630.14 610.604C1638.7 610.428 1646.76 615.376 1646.37 624.88C1646.18 629.661 1643.47 631.356 1640.11 634.366C1648.34 643.171 1650.85 652.297 1640.86 661.058C1631.3 661.323 1623.47 655.981 1624.06 645.51C1624.43 638.802 1627.07 636.823 1631.85 632.481C1625.35 624.32 1621.98 619.23 1630.14 610.604Z" fill="white"></path>
  <path d="M1634.07 636.121C1643.45 636.469 1645.64 649.556 1638.41 656.72C1624.61 654.743 1625.19 644.41 1634.07 636.121Z" fill="white"></path>
  <path d="M1630.4 614.998C1639.4 615.227 1647.65 619.882 1640.07 629.069C1629.12 632.671 1628 623.046 1630.4 614.998Z" fill="white"></path>
  <path d="M1065.87 549.75C1069.9 549.188 1073.91 550.839 1076.38 554.07C1078.85 557.302 1079.38 561.611 1077.78 565.346C1076.17 569.082 1072.68 571.663 1068.64 572.099C1062.53 572.76 1057.01 568.391 1056.26 562.287C1055.5 556.182 1059.78 550.6 1065.87 549.75Z" fill="white"></path>
  <path d="M1065.93 553.468C1070.07 552.507 1074.22 555.019 1075.28 559.129C1076.34 563.239 1073.94 567.449 1069.86 568.618C1067.13 569.401 1064.18 568.639 1062.17 566.629C1060.16 564.618 1059.4 561.675 1060.18 558.941C1060.96 556.207 1063.16 554.112 1065.93 553.468Z" fill="white"></path>
  <path d="M1538.31 553.839C1539.68 554.18 1540.01 554.503 1541.19 555.256C1544.23 561.301 1542.77 610.961 1542.65 621.504C1539.9 621.177 1540.63 621.633 1538.63 620.129C1537.19 607.36 1538.27 568.386 1538.31 553.839Z" fill="#0F172A"></path>
  <path d="M1359.51 503.958C1362.54 503.619 1364.07 503.557 1366.98 502.445C1370.31 493.564 1365.53 451.322 1369.1 447.236L1370.75 447.521C1374 452.86 1372.09 494.226 1372.07 503.382C1366.48 504.357 1365.06 504.689 1359.51 503.958Z" fill="#0F172A"></path>
  <path d="M1136.11 443.75L1138.53 444.717C1141.09 448.394 1141.05 479.44 1140.77 485.553L1137.73 484.134C1135.08 478.833 1135.37 450.761 1136.11 443.75Z" fill="#0F172A"></path>
  <path d="M1137.59 501.711C1139.52 502.203 1139.43 502.288 1140.7 503.719C1142.45 510.253 1142.08 514.826 1141.56 521.576C1138.91 520.719 1139.84 521.321 1137.96 519.335C1136.63 513.995 1136.32 507.076 1137.59 501.711Z" fill="#0F172A"></path>
  <path d="M1222.76 461.551C1224.94 461.907 1224.83 461.928 1226.63 463.276C1228.27 466.647 1227.51 471.378 1227.25 475.256C1224.94 475.034 1224.88 475.009 1223.19 473.522C1221.76 470.191 1222.5 465.322 1222.76 461.551Z" fill="#0F172A"></path>
</svg>
