<svg width="250" height="250" viewBox="0 0 250 250" fill="none" xmlns="http://www.w3.org/2000/svg">
<rect width="250" height="250" fill="white"/>
<path d="M123.657 42C126.759 42.3403 146.656 52.4222 151.373 54.5798C127.479 66.6687 100.989 77.7329 76.9132 89.8707C67.4715 94.6307 57.5413 98.6738 48.2156 103.814C47.869 117.663 48.0008 131.758 47.9991 145.628L124.836 182.303C147.293 172.702 175.856 159.453 197.284 148.265C182.383 140.054 165.668 132.409 150.262 125.053C158.722 121.195 167.084 117.105 175.454 113.054C181.11 115.457 187.156 118.556 192.721 121.267C203.059 126.359 214.319 132.178 224.843 136.656L224.71 160.521C213.328 166.582 200.227 172.042 188.481 177.505C167.153 187.425 145.905 197.19 124.788 207.568C112.355 202.042 99.5982 195.525 87.2496 189.602L25.1153 159.695C25.3908 136.861 25.6351 112.039 25 89.2702C57.3277 73.8176 92.1278 58.5166 123.657 42Z" fill="url(#paint0_linear_3_203)"/>
<path d="M172.809 66.4398C175.596 65.757 219.621 87.0893 225 89.5849C224.761 97.7444 224.877 106.09 224.913 114.268C223.78 113.816 222.691 113.287 221.593 112.758C206.021 105.265 190.536 97.5762 174.833 90.3621C151.512 102.065 126.224 112.602 103.388 124.778L125.533 135.683C131.113 138.32 144.01 144.043 148.734 147.071C141.138 151.214 131.86 155.502 124 159.373C110.666 152.062 86.5747 141.093 72.3605 134.642C72.5252 127.736 72.457 121.122 72.365 114.218C104.438 98.8868 141.627 82.6236 172.809 66.4398Z" fill="url(#paint1_linear_3_203)"/>
<defs>
<linearGradient id="paint0_linear_3_203" x1="69.9646" y1="68" x2="181.965" y2="180.912" gradientUnits="userSpaceOnUse">
<stop stop-color="#3B82F6"/>
<stop offset="0.7" stop-color="#987AD6"/>
<stop offset="1" stop-color="#F472B6"/>
</linearGradient>
<linearGradient id="paint1_linear_3_203" x1="106.704" y1="81.02" x2="166.569" y2="163.131" gradientUnits="userSpaceOnUse">
<stop stop-color="#3B82F6"/>
<stop offset="0.7" stop-color="#987AD6"/>
<stop offset="1" stop-color="#F472B6"/>
</linearGradient>
</defs>
</svg>
