<svg xmlns="http://www.w3.org/2000/svg" viewBox="0 0 1200 630" width="1200" height="630">
  <defs>
    <linearGradient id="bg" x1="0%" y1="0%" x2="100%" y2="100%">
      <stop offset="0%" stop-color="#F5F7FA"/>
      <stop offset="100%" stop-color="#E8ECF2"/>
    </linearGradient>
    <linearGradient id="bi" x1="0%" y1="0%" x2="100%" y2="100%">
      <stop offset="0%" stop-color="#3B82F6"/>
      <stop offset="100%" stop-color="#4F46E5"/>
    </linearGradient>
    <radialGradient id="glow" cx="50%" cy="50%" r="50%">
      <stop offset="0%" stop-color="#4F46E5" stop-opacity="0.20"/>
      <stop offset="100%" stop-color="#4F46E5" stop-opacity="0"/>
    </radialGradient>
    <filter id="soft" x="-60%" y="-60%" width="220%" height="220%"><feGaussianBlur stdDeviation="26"/></filter>
  </defs>
  <rect width="1200" height="630" fill="url(#bg)"/>

  <circle cx="970" cy="310" r="240" fill="url(#glow)" filter="url(#soft)"/>
  <line x1="706" y1="310" x2="840" y2="226" stroke="#1E3A8A" stroke-opacity="0.37" stroke-width="1.5"/>
  <line x1="706" y1="310" x2="854" y2="371" stroke="#1E3A8A" stroke-opacity="0.39" stroke-width="1.5"/>
  <line x1="840" y1="226" x2="998" y2="214" stroke="#1E3A8A" stroke-opacity="0.25" stroke-width="1.5"/>
  <line x1="840" y1="226" x2="982" y2="387" stroke="#1E3A8A" stroke-opacity="0.21" stroke-width="1.5"/>
  <line x1="854" y1="371" x2="998" y2="214" stroke="#1E3A8A" stroke-opacity="0.24" stroke-width="1.5"/>
  <line x1="854" y1="371" x2="982" y2="387" stroke="#1E3A8A" stroke-opacity="0.39" stroke-width="1.5"/>
  <line x1="998" y1="214" x2="1125" y2="318" stroke="#1E3A8A" stroke-opacity="0.29" stroke-width="1.5"/>
  <line x1="982" y1="387" x2="1125" y2="318" stroke="#1E3A8A" stroke-opacity="0.22" stroke-width="1.5"/>
  <circle cx="706" cy="310" r="9" fill="url(#bi)"/>
  <circle cx="840" cy="226" r="9" fill="url(#bi)"/>
  <circle cx="854" cy="371" r="9" fill="url(#bi)"/>
  <circle cx="998" cy="214" r="6.5" fill="#F5F7FA" stroke="#1E3A8A" stroke-width="2"/>
  <circle cx="982" cy="387" r="9" fill="url(#bi)"/>
  <circle cx="1125" cy="318" r="9" fill="url(#bi)"/>
  

  <rect x="96" y="60" width="4" height="30" fill="#1E3A8A"/>
  <text x="116" y="82" font-family="'Helvetica Neue',Helvetica,Arial,sans-serif" font-size="20" font-weight="600" fill="#1E3A8A" letter-spacing="0.28em">INSIGHTS</text>
  <line x1="96" y1="116" x2="1104" y2="116" stroke="#1E3A8A" stroke-opacity="0.12" stroke-width="1"/>

  <text x="96" y="201" font-family="'Hiragino Sans','Hiragino Kaku Gothic ProN',system-ui,sans-serif" font-size="54" font-weight="600" fill="#1E3A8A" letter-spacing="0.01em">Revenue </text>
  <text x="96" y="278" font-family="'Hiragino Sans','Hiragino Kaku Gothic ProN',system-ui,sans-serif" font-size="54" font-weight="600" fill="#1E3A8A" letter-spacing="0.01em">Visibilityとは</text>
  <text x="96" y="355" font-family="'Hiragino Sans','Hiragino Kaku Gothic ProN',system-ui,sans-serif" font-size="54" font-weight="600" fill="#1E3A8A" letter-spacing="0.01em">何か</text>
  <rect x="96" y="379" width="64" height="3" fill="#1E3A8A"/>
  <text x="96" y="416" font-family="'Hiragino Sans','Hiragino Kaku Gothic ProN',system-ui,sans-serif" font-size="22" font-weight="400" fill="#64748B" letter-spacing="0.02em">「売上が見える状態」の正体</text>

  <rect x="0" y="546" width="1200" height="84" fill="#1E3A8A" fill-opacity="0.035"/>
  <line x1="0" y1="546" x2="1200" y2="546" stroke="#1E3A8A" stroke-opacity="0.12" stroke-width="1"/>
  <text x="96" y="598" font-family="'Helvetica Neue',Helvetica,Arial,sans-serif" font-size="22" font-weight="600" fill="#1E3A8A" letter-spacing="0.18em">CONSILEGY</text>
  <text x="1104" y="598" text-anchor="end" font-family="'Helvetica Neue',Helvetica,Arial,sans-serif" font-size="18" font-weight="400" fill="#94A3B8" letter-spacing="0.06em">consilegy.com</text>
</svg>
