<svg xmlns="http://www.w3.org/2000/svg" viewBox="0 0 1200 630" width="1200" height="630">
  <defs>
    <linearGradient id="bg" x1="0%" y1="0%" x2="100%" y2="100%">
      <stop offset="0%" stop-color="#1a1744"/>
      <stop offset="100%" stop-color="#3730a3"/>
    </linearGradient>
  </defs>
  <rect width="1200" height="630" fill="url(#bg)"/>
  <circle cx="50" cy="50" r="1.5" fill="white" opacity="0.1"/>
  <circle cx="112" cy="50" r="2.5" fill="white" opacity="0.06"/>
  <circle cx="174" cy="50" r="1.5" fill="white" opacity="0.1"/>
  <circle cx="236" cy="50" r="1.5" fill="white" opacity="0.06"/>
  <circle cx="298" cy="50" r="2.5" fill="white" opacity="0.1"/>
  <circle cx="360" cy="50" r="1.5" fill="white" opacity="0.06"/>
  <circle cx="422" cy="50" r="1.5" fill="white" opacity="0.1"/>
  <circle cx="484" cy="50" r="2.5" fill="white" opacity="0.06"/>
  <circle cx="546" cy="50" r="1.5" fill="white" opacity="0.1"/>
  <circle cx="608" cy="50" r="1.5" fill="white" opacity="0.06"/>
  <circle cx="670" cy="50" r="2.5" fill="white" opacity="0.1"/>
  <circle cx="732" cy="50" r="1.5" fill="white" opacity="0.06"/>
  <circle cx="794" cy="50" r="1.5" fill="white" opacity="0.1"/>
  <circle cx="856" cy="50" r="2.5" fill="white" opacity="0.06"/>
  <circle cx="918" cy="50" r="1.5" fill="white" opacity="0.1"/>
  <circle cx="980" cy="50" r="1.5" fill="white" opacity="0.06"/>
  <circle cx="1042" cy="50" r="2.5" fill="white" opacity="0.1"/>
  <circle cx="1104" cy="50" r="1.5" fill="white" opacity="0.06"/>
  <circle cx="50" cy="125" r="2.5" fill="white" opacity="0.06"/>
  <circle cx="112" cy="125" r="1.5" fill="white" opacity="0.1"/>
  <circle cx="174" cy="125" r="1.5" fill="white" opacity="0.06"/>
  <circle cx="236" cy="125" r="2.5" fill="white" opacity="0.1"/>
  <circle cx="298" cy="125" r="1.5" fill="white" opacity="0.06"/>
  <circle cx="360" cy="125" r="1.5" fill="white" opacity="0.1"/>
  <circle cx="422" cy="125" r="2.5" fill="white" opacity="0.06"/>
  <circle cx="484" cy="125" r="1.5" fill="white" opacity="0.1"/>
  <circle cx="546" cy="125" r="1.5" fill="white" opacity="0.06"/>
  <circle cx="608" cy="125" r="2.5" fill="white" opacity="0.1"/>
  <circle cx="670" cy="125" r="1.5" fill="white" opacity="0.06"/>
  <circle cx="732" cy="125" r="1.5" fill="white" opacity="0.1"/>
  <circle cx="794" cy="125" r="2.5" fill="white" opacity="0.06"/>
  <circle cx="856" cy="125" r="1.5" fill="white" opacity="0.1"/>
  <circle cx="918" cy="125" r="1.5" fill="white" opacity="0.06"/>
  <circle cx="980" cy="125" r="2.5" fill="white" opacity="0.1"/>
  <circle cx="1042" cy="125" r="1.5" fill="white" opacity="0.06"/>
  <circle cx="1104" cy="125" r="1.5" fill="white" opacity="0.1"/>
  <circle cx="50" cy="200" r="1.5" fill="white" opacity="0.1"/>
  <circle cx="112" cy="200" r="1.5" fill="white" opacity="0.06"/>
  <circle cx="174" cy="200" r="2.5" fill="white" opacity="0.1"/>
  <circle cx="236" cy="200" r="1.5" fill="white" opacity="0.06"/>
  <circle cx="298" cy="200" r="1.5" fill="white" opacity="0.1"/>
  <circle cx="360" cy="200" r="2.5" fill="white" opacity="0.06"/>
  <circle cx="422" cy="200" r="1.5" fill="white" opacity="0.1"/>
  <circle cx="484" cy="200" r="1.5" fill="white" opacity="0.06"/>
  <circle cx="546" cy="200" r="2.5" fill="white" opacity="0.1"/>
  <circle cx="608" cy="200" r="1.5" fill="white" opacity="0.06"/>
  <circle cx="670" cy="200" r="1.5" fill="white" opacity="0.1"/>
  <circle cx="732" cy="200" r="2.5" fill="white" opacity="0.06"/>
  <circle cx="794" cy="200" r="1.5" fill="white" opacity="0.1"/>
  <circle cx="856" cy="200" r="1.5" fill="white" opacity="0.06"/>
  <circle cx="918" cy="200" r="2.5" fill="white" opacity="0.1"/>
  <circle cx="980" cy="200" r="1.5" fill="white" opacity="0.06"/>
  <circle cx="1042" cy="200" r="1.5" fill="white" opacity="0.1"/>
  <circle cx="1104" cy="200" r="2.5" fill="white" opacity="0.06"/>
  <circle cx="50" cy="275" r="1.5" fill="white" opacity="0.06"/>
  <circle cx="112" cy="275" r="2.5" fill="white" opacity="0.1"/>
  <circle cx="174" cy="275" r="1.5" fill="white" opacity="0.06"/>
  <circle cx="236" cy="275" r="1.5" fill="white" opacity="0.1"/>
  <circle cx="298" cy="275" r="2.5" fill="white" opacity="0.06"/>
  <circle cx="360" cy="275" r="1.5" fill="white" opacity="0.1"/>
  <circle cx="422" cy="275" r="1.5" fill="white" opacity="0.06"/>
  <circle cx="484" cy="275" r="2.5" fill="white" opacity="0.1"/>
  <circle cx="546" cy="275" r="1.5" fill="white" opacity="0.06"/>
  <circle cx="608" cy="275" r="1.5" fill="white" opacity="0.1"/>
  <circle cx="670" cy="275" r="2.5" fill="white" opacity="0.06"/>
  <circle cx="732" cy="275" r="1.5" fill="white" opacity="0.1"/>
  <circle cx="794" cy="275" r="1.5" fill="white" opacity="0.06"/>
  <circle cx="856" cy="275" r="2.5" fill="white" opacity="0.1"/>
  <circle cx="918" cy="275" r="1.5" fill="white" opacity="0.06"/>
  <circle cx="980" cy="275" r="1.5" fill="white" opacity="0.1"/>
  <circle cx="1042" cy="275" r="2.5" fill="white" opacity="0.06"/>
  <circle cx="1104" cy="275" r="1.5" fill="white" opacity="0.1"/>
  <circle cx="50" cy="350" r="2.5" fill="white" opacity="0.1"/>
  <circle cx="112" cy="350" r="1.5" fill="white" opacity="0.06"/>
  <circle cx="174" cy="350" r="1.5" fill="white" opacity="0.1"/>
  <circle cx="236" cy="350" r="2.5" fill="white" opacity="0.06"/>
  <circle cx="298" cy="350" r="1.5" fill="white" opacity="0.1"/>
  <circle cx="360" cy="350" r="1.5" fill="white" opacity="0.06"/>
  <circle cx="422" cy="350" r="2.5" fill="white" opacity="0.1"/>
  <circle cx="484" cy="350" r="1.5" fill="white" opacity="0.06"/>
  <circle cx="546" cy="350" r="1.5" fill="white" opacity="0.1"/>
  <circle cx="608" cy="350" r="2.5" fill="white" opacity="0.06"/>
  <circle cx="670" cy="350" r="1.5" fill="white" opacity="0.1"/>
  <circle cx="732" cy="350" r="1.5" fill="white" opacity="0.06"/>
  <circle cx="794" cy="350" r="2.5" fill="white" opacity="0.1"/>
  <circle cx="856" cy="350" r="1.5" fill="white" opacity="0.06"/>
  <circle cx="918" cy="350" r="1.5" fill="white" opacity="0.1"/>
  <circle cx="980" cy="350" r="2.5" fill="white" opacity="0.06"/>
  <circle cx="1042" cy="350" r="1.5" fill="white" opacity="0.1"/>
  <circle cx="1104" cy="350" r="1.5" fill="white" opacity="0.06"/>
  <circle cx="50" cy="425" r="1.5" fill="white" opacity="0.06"/>
  <circle cx="112" cy="425" r="1.5" fill="white" opacity="0.1"/>
  <circle cx="174" cy="425" r="2.5" fill="white" opacity="0.06"/>
  <circle cx="236" cy="425" r="1.5" fill="white" opacity="0.1"/>
  <circle cx="298" cy="425" r="1.5" fill="white" opacity="0.06"/>
  <circle cx="360" cy="425" r="2.5" fill="white" opacity="0.1"/>
  <circle cx="422" cy="425" r="1.5" fill="white" opacity="0.06"/>
  <circle cx="484" cy="425" r="1.5" fill="white" opacity="0.1"/>
  <circle cx="546" cy="425" r="2.5" fill="white" opacity="0.06"/>
  <circle cx="608" cy="425" r="1.5" fill="white" opacity="0.1"/>
  <circle cx="670" cy="425" r="1.5" fill="white" opacity="0.06"/>
  <circle cx="732" cy="425" r="2.5" fill="white" opacity="0.1"/>
  <circle cx="794" cy="425" r="1.5" fill="white" opacity="0.06"/>
  <circle cx="856" cy="425" r="1.5" fill="white" opacity="0.1"/>
  <circle cx="918" cy="425" r="2.5" fill="white" opacity="0.06"/>
  <circle cx="980" cy="425" r="1.5" fill="white" opacity="0.1"/>
  <circle cx="1042" cy="425" r="1.5" fill="white" opacity="0.06"/>
  <circle cx="1104" cy="425" r="2.5" fill="white" opacity="0.1"/>
  <circle cx="50" cy="500" r="1.5" fill="white" opacity="0.1"/>
  <circle cx="112" cy="500" r="2.5" fill="white" opacity="0.06"/>
  <circle cx="174" cy="500" r="1.5" fill="white" opacity="0.1"/>
  <circle cx="236" cy="500" r="1.5" fill="white" opacity="0.06"/>
  <circle cx="298" cy="500" r="2.5" fill="white" opacity="0.1"/>
  <circle cx="360" cy="500" r="1.5" fill="white" opacity="0.06"/>
  <circle cx="422" cy="500" r="1.5" fill="white" opacity="0.1"/>
  <circle cx="484" cy="500" r="2.5" fill="white" opacity="0.06"/>
  <circle cx="546" cy="500" r="1.5" fill="white" opacity="0.1"/>
  <circle cx="608" cy="500" r="1.5" fill="white" opacity="0.06"/>
  <circle cx="670" cy="500" r="2.5" fill="white" opacity="0.1"/>
  <circle cx="732" cy="500" r="1.5" fill="white" opacity="0.06"/>
  <circle cx="794" cy="500" r="1.5" fill="white" opacity="0.1"/>
  <circle cx="856" cy="500" r="2.5" fill="white" opacity="0.06"/>
  <circle cx="918" cy="500" r="1.5" fill="white" opacity="0.1"/>
  <circle cx="980" cy="500" r="1.5" fill="white" opacity="0.06"/>
  <circle cx="1042" cy="500" r="2.5" fill="white" opacity="0.1"/>
  <circle cx="1104" cy="500" r="1.5" fill="white" opacity="0.06"/>
  <circle cx="50" cy="575" r="2.5" fill="white" opacity="0.06"/>
  <circle cx="112" cy="575" r="1.5" fill="white" opacity="0.1"/>
  <circle cx="174" cy="575" r="1.5" fill="white" opacity="0.06"/>
  <circle cx="236" cy="575" r="2.5" fill="white" opacity="0.1"/>
  <circle cx="298" cy="575" r="1.5" fill="white" opacity="0.06"/>
  <circle cx="360" cy="575" r="1.5" fill="white" opacity="0.1"/>
  <circle cx="422" cy="575" r="2.5" fill="white" opacity="0.06"/>
  <circle cx="484" cy="575" r="1.5" fill="white" opacity="0.1"/>
  <circle cx="546" cy="575" r="1.5" fill="white" opacity="0.06"/>
  <circle cx="608" cy="575" r="2.5" fill="white" opacity="0.1"/>
  <circle cx="670" cy="575" r="1.5" fill="white" opacity="0.06"/>
  <circle cx="732" cy="575" r="1.5" fill="white" opacity="0.1"/>
  <circle cx="794" cy="575" r="2.5" fill="white" opacity="0.06"/>
  <circle cx="856" cy="575" r="1.5" fill="white" opacity="0.1"/>
  <circle cx="918" cy="575" r="1.5" fill="white" opacity="0.06"/>
  <circle cx="980" cy="575" r="2.5" fill="white" opacity="0.1"/>
  <circle cx="1042" cy="575" r="1.5" fill="white" opacity="0.06"/>
  <circle cx="1104" cy="575" r="1.5" fill="white" opacity="0.1"/>
  <rect x="756" y="348" width="55" height="200" rx="3" fill="white" opacity="0.07"/>
  <rect x="756" y="348" width="55" height="8" rx="3" fill="white" opacity="0.12"/>
  <rect x="826" y="408" width="55" height="140" rx="3" fill="white" opacity="0.07"/>
  <rect x="826" y="408" width="55" height="8" rx="3" fill="white" opacity="0.12"/>
  <rect x="896" y="258" width="55" height="290" rx="3" fill="white" opacity="0.07"/>
  <rect x="896" y="258" width="55" height="8" rx="3" fill="white" opacity="0.12"/>
  <rect x="966" y="318" width="55" height="230" rx="3" fill="white" opacity="0.07"/>
  <rect x="966" y="318" width="55" height="8" rx="3" fill="white" opacity="0.12"/>
  <rect x="1036" y="198" width="55" height="350" rx="3" fill="white" opacity="0.07"/>
  <rect x="1036" y="198" width="55" height="8" rx="3" fill="white" opacity="0.12"/>
  <rect x="1106" y="278" width="55" height="270" rx="3" fill="white" opacity="0.07"/>
  <rect x="1106" y="278" width="55" height="8" rx="3" fill="white" opacity="0.12"/>
  <polyline points="783,348 853,408 923,258 993,318 1063,198 1133,278" fill="none" stroke="white" stroke-width="2.5" opacity="0.12" stroke-linecap="round" stroke-linejoin="round"/>
  <text x="1185" y="608" font-family="ui-monospace,monospace" font-size="300" font-weight="900" fill="white" opacity="0.04" text-anchor="end">02</text>
  <rect x="48" y="42" width="131" height="36" rx="7" fill="#a5b4fc" opacity="0.18"/>
  <text x="64" y="66" font-family="ui-sans-serif,system-ui,sans-serif" font-size="14" font-weight="700" fill="#a5b4fc">BI / RevOps</text>
  <rect x="0" y="614" width="1200" height="16" fill="#a5b4fc" opacity="0.45"/>
</svg>