<svg xmlns="http://www.w3.org/2000/svg" viewBox="0 0 1200 630" width="1200" height="630">
  <defs>
    <linearGradient id="bg" x1="0%" y1="0%" x2="100%" y2="100%">
      <stop offset="0%" stop-color="#042b2a"/>
      <stop offset="100%" stop-color="#0d6b63"/>
    </linearGradient>
  </defs>
  <rect width="1200" height="630" fill="url(#bg)"/>
  <circle cx="50" cy="50" r="1.5" fill="white" opacity="0.1"/>
  <circle cx="112" cy="50" r="1.5" fill="white" opacity="0.06"/>
  <circle cx="174" cy="50" r="2.5" fill="white" opacity="0.1"/>
  <circle cx="236" cy="50" r="1.5" fill="white" opacity="0.06"/>
  <circle cx="298" cy="50" r="1.5" fill="white" opacity="0.1"/>
  <circle cx="360" cy="50" r="2.5" fill="white" opacity="0.06"/>
  <circle cx="422" cy="50" r="1.5" fill="white" opacity="0.1"/>
  <circle cx="484" cy="50" r="1.5" fill="white" opacity="0.06"/>
  <circle cx="546" cy="50" r="2.5" fill="white" opacity="0.1"/>
  <circle cx="608" cy="50" r="1.5" fill="white" opacity="0.06"/>
  <circle cx="670" cy="50" r="1.5" fill="white" opacity="0.1"/>
  <circle cx="732" cy="50" r="2.5" fill="white" opacity="0.06"/>
  <circle cx="794" cy="50" r="1.5" fill="white" opacity="0.1"/>
  <circle cx="856" cy="50" r="1.5" fill="white" opacity="0.06"/>
  <circle cx="918" cy="50" r="2.5" fill="white" opacity="0.1"/>
  <circle cx="980" cy="50" r="1.5" fill="white" opacity="0.06"/>
  <circle cx="1042" cy="50" r="1.5" fill="white" opacity="0.1"/>
  <circle cx="1104" cy="50" r="2.5" fill="white" opacity="0.06"/>
  <circle cx="50" cy="125" r="1.5" fill="white" opacity="0.06"/>
  <circle cx="112" cy="125" r="2.5" fill="white" opacity="0.1"/>
  <circle cx="174" cy="125" r="1.5" fill="white" opacity="0.06"/>
  <circle cx="236" cy="125" r="1.5" fill="white" opacity="0.1"/>
  <circle cx="298" cy="125" r="2.5" fill="white" opacity="0.06"/>
  <circle cx="360" cy="125" r="1.5" fill="white" opacity="0.1"/>
  <circle cx="422" cy="125" r="1.5" fill="white" opacity="0.06"/>
  <circle cx="484" cy="125" r="2.5" fill="white" opacity="0.1"/>
  <circle cx="546" cy="125" r="1.5" fill="white" opacity="0.06"/>
  <circle cx="608" cy="125" r="1.5" fill="white" opacity="0.1"/>
  <circle cx="670" cy="125" r="2.5" fill="white" opacity="0.06"/>
  <circle cx="732" cy="125" r="1.5" fill="white" opacity="0.1"/>
  <circle cx="794" cy="125" r="1.5" fill="white" opacity="0.06"/>
  <circle cx="856" cy="125" r="2.5" fill="white" opacity="0.1"/>
  <circle cx="918" cy="125" r="1.5" fill="white" opacity="0.06"/>
  <circle cx="980" cy="125" r="1.5" fill="white" opacity="0.1"/>
  <circle cx="1042" cy="125" r="2.5" fill="white" opacity="0.06"/>
  <circle cx="1104" cy="125" r="1.5" fill="white" opacity="0.1"/>
  <circle cx="50" cy="200" r="2.5" fill="white" opacity="0.1"/>
  <circle cx="112" cy="200" r="1.5" fill="white" opacity="0.06"/>
  <circle cx="174" cy="200" r="1.5" fill="white" opacity="0.1"/>
  <circle cx="236" cy="200" r="2.5" fill="white" opacity="0.06"/>
  <circle cx="298" cy="200" r="1.5" fill="white" opacity="0.1"/>
  <circle cx="360" cy="200" r="1.5" fill="white" opacity="0.06"/>
  <circle cx="422" cy="200" r="2.5" fill="white" opacity="0.1"/>
  <circle cx="484" cy="200" r="1.5" fill="white" opacity="0.06"/>
  <circle cx="546" cy="200" r="1.5" fill="white" opacity="0.1"/>
  <circle cx="608" cy="200" r="2.5" fill="white" opacity="0.06"/>
  <circle cx="670" cy="200" r="1.5" fill="white" opacity="0.1"/>
  <circle cx="732" cy="200" r="1.5" fill="white" opacity="0.06"/>
  <circle cx="794" cy="200" r="2.5" fill="white" opacity="0.1"/>
  <circle cx="856" cy="200" r="1.5" fill="white" opacity="0.06"/>
  <circle cx="918" cy="200" r="1.5" fill="white" opacity="0.1"/>
  <circle cx="980" cy="200" r="2.5" fill="white" opacity="0.06"/>
  <circle cx="1042" cy="200" r="1.5" fill="white" opacity="0.1"/>
  <circle cx="1104" cy="200" r="1.5" fill="white" opacity="0.06"/>
  <circle cx="50" cy="275" r="1.5" fill="white" opacity="0.06"/>
  <circle cx="112" cy="275" r="1.5" fill="white" opacity="0.1"/>
  <circle cx="174" cy="275" r="2.5" fill="white" opacity="0.06"/>
  <circle cx="236" cy="275" r="1.5" fill="white" opacity="0.1"/>
  <circle cx="298" cy="275" r="1.5" fill="white" opacity="0.06"/>
  <circle cx="360" cy="275" r="2.5" fill="white" opacity="0.1"/>
  <circle cx="422" cy="275" r="1.5" fill="white" opacity="0.06"/>
  <circle cx="484" cy="275" r="1.5" fill="white" opacity="0.1"/>
  <circle cx="546" cy="275" r="2.5" fill="white" opacity="0.06"/>
  <circle cx="608" cy="275" r="1.5" fill="white" opacity="0.1"/>
  <circle cx="670" cy="275" r="1.5" fill="white" opacity="0.06"/>
  <circle cx="732" cy="275" r="2.5" fill="white" opacity="0.1"/>
  <circle cx="794" cy="275" r="1.5" fill="white" opacity="0.06"/>
  <circle cx="856" cy="275" r="1.5" fill="white" opacity="0.1"/>
  <circle cx="918" cy="275" r="2.5" fill="white" opacity="0.06"/>
  <circle cx="980" cy="275" r="1.5" fill="white" opacity="0.1"/>
  <circle cx="1042" cy="275" r="1.5" fill="white" opacity="0.06"/>
  <circle cx="1104" cy="275" r="2.5" fill="white" opacity="0.1"/>
  <circle cx="50" cy="350" r="1.5" fill="white" opacity="0.1"/>
  <circle cx="112" cy="350" r="2.5" fill="white" opacity="0.06"/>
  <circle cx="174" cy="350" r="1.5" fill="white" opacity="0.1"/>
  <circle cx="236" cy="350" r="1.5" fill="white" opacity="0.06"/>
  <circle cx="298" cy="350" r="2.5" fill="white" opacity="0.1"/>
  <circle cx="360" cy="350" r="1.5" fill="white" opacity="0.06"/>
  <circle cx="422" cy="350" r="1.5" fill="white" opacity="0.1"/>
  <circle cx="484" cy="350" r="2.5" fill="white" opacity="0.06"/>
  <circle cx="546" cy="350" r="1.5" fill="white" opacity="0.1"/>
  <circle cx="608" cy="350" r="1.5" fill="white" opacity="0.06"/>
  <circle cx="670" cy="350" r="2.5" fill="white" opacity="0.1"/>
  <circle cx="732" cy="350" r="1.5" fill="white" opacity="0.06"/>
  <circle cx="794" cy="350" r="1.5" fill="white" opacity="0.1"/>
  <circle cx="856" cy="350" r="2.5" fill="white" opacity="0.06"/>
  <circle cx="918" cy="350" r="1.5" fill="white" opacity="0.1"/>
  <circle cx="980" cy="350" r="1.5" fill="white" opacity="0.06"/>
  <circle cx="1042" cy="350" r="2.5" fill="white" opacity="0.1"/>
  <circle cx="1104" cy="350" r="1.5" fill="white" opacity="0.06"/>
  <circle cx="50" cy="425" r="2.5" fill="white" opacity="0.06"/>
  <circle cx="112" cy="425" r="1.5" fill="white" opacity="0.1"/>
  <circle cx="174" cy="425" r="1.5" fill="white" opacity="0.06"/>
  <circle cx="236" cy="425" r="2.5" fill="white" opacity="0.1"/>
  <circle cx="298" cy="425" r="1.5" fill="white" opacity="0.06"/>
  <circle cx="360" cy="425" r="1.5" fill="white" opacity="0.1"/>
  <circle cx="422" cy="425" r="2.5" fill="white" opacity="0.06"/>
  <circle cx="484" cy="425" r="1.5" fill="white" opacity="0.1"/>
  <circle cx="546" cy="425" r="1.5" fill="white" opacity="0.06"/>
  <circle cx="608" cy="425" r="2.5" fill="white" opacity="0.1"/>
  <circle cx="670" cy="425" r="1.5" fill="white" opacity="0.06"/>
  <circle cx="732" cy="425" r="1.5" fill="white" opacity="0.1"/>
  <circle cx="794" cy="425" r="2.5" fill="white" opacity="0.06"/>
  <circle cx="856" cy="425" r="1.5" fill="white" opacity="0.1"/>
  <circle cx="918" cy="425" r="1.5" fill="white" opacity="0.06"/>
  <circle cx="980" cy="425" r="2.5" fill="white" opacity="0.1"/>
  <circle cx="1042" cy="425" r="1.5" fill="white" opacity="0.06"/>
  <circle cx="1104" cy="425" r="1.5" fill="white" opacity="0.1"/>
  <circle cx="50" cy="500" r="1.5" fill="white" opacity="0.1"/>
  <circle cx="112" cy="500" r="1.5" fill="white" opacity="0.06"/>
  <circle cx="174" cy="500" r="2.5" fill="white" opacity="0.1"/>
  <circle cx="236" cy="500" r="1.5" fill="white" opacity="0.06"/>
  <circle cx="298" cy="500" r="1.5" fill="white" opacity="0.1"/>
  <circle cx="360" cy="500" r="2.5" fill="white" opacity="0.06"/>
  <circle cx="422" cy="500" r="1.5" fill="white" opacity="0.1"/>
  <circle cx="484" cy="500" r="1.5" fill="white" opacity="0.06"/>
  <circle cx="546" cy="500" r="2.5" fill="white" opacity="0.1"/>
  <circle cx="608" cy="500" r="1.5" fill="white" opacity="0.06"/>
  <circle cx="670" cy="500" r="1.5" fill="white" opacity="0.1"/>
  <circle cx="732" cy="500" r="2.5" fill="white" opacity="0.06"/>
  <circle cx="794" cy="500" r="1.5" fill="white" opacity="0.1"/>
  <circle cx="856" cy="500" r="1.5" fill="white" opacity="0.06"/>
  <circle cx="918" cy="500" r="2.5" fill="white" opacity="0.1"/>
  <circle cx="980" cy="500" r="1.5" fill="white" opacity="0.06"/>
  <circle cx="1042" cy="500" r="1.5" fill="white" opacity="0.1"/>
  <circle cx="1104" cy="500" r="2.5" fill="white" opacity="0.06"/>
  <circle cx="50" cy="575" r="1.5" fill="white" opacity="0.06"/>
  <circle cx="112" cy="575" r="2.5" fill="white" opacity="0.1"/>
  <circle cx="174" cy="575" r="1.5" fill="white" opacity="0.06"/>
  <circle cx="236" cy="575" r="1.5" fill="white" opacity="0.1"/>
  <circle cx="298" cy="575" r="2.5" fill="white" opacity="0.06"/>
  <circle cx="360" cy="575" r="1.5" fill="white" opacity="0.1"/>
  <circle cx="422" cy="575" r="1.5" fill="white" opacity="0.06"/>
  <circle cx="484" cy="575" r="2.5" fill="white" opacity="0.1"/>
  <circle cx="546" cy="575" r="1.5" fill="white" opacity="0.06"/>
  <circle cx="608" cy="575" r="1.5" fill="white" opacity="0.1"/>
  <circle cx="670" cy="575" r="2.5" fill="white" opacity="0.06"/>
  <circle cx="732" cy="575" r="1.5" fill="white" opacity="0.1"/>
  <circle cx="794" cy="575" r="1.5" fill="white" opacity="0.06"/>
  <circle cx="856" cy="575" r="2.5" fill="white" opacity="0.1"/>
  <circle cx="918" cy="575" r="1.5" fill="white" opacity="0.06"/>
  <circle cx="980" cy="575" r="1.5" fill="white" opacity="0.1"/>
  <circle cx="1042" cy="575" r="2.5" fill="white" opacity="0.06"/>
  <circle cx="1104" cy="575" r="1.5" fill="white" opacity="0.1"/>
  <path d="M 792 336 A 240 240 0 0 1 1272 336" fill="none" stroke="white" stroke-width="2" opacity="0.08"/>
  <path d="M 852 336 A 180 180 0 0 1 1212 336" fill="none" stroke="white" stroke-width="8" opacity="0.06"/>
  <path d="M 852 336 A 180 180 0 0 1 1092 165" fill="none" stroke="white" stroke-width="8" opacity="0.14"/>
  <line x1="1032" y1="336" x2="1162" y2="206" stroke="white" stroke-width="3" opacity="0.2" stroke-linecap="round"/>
  <circle cx="1032" cy="336" r="14" fill="white" opacity="0.15"/>
  <line x1="853.8" y1="245.2" x2="836.0" y2="236.1" stroke="white" stroke-width="2" opacity="0.10"/>
  <line x1="885.1" y1="200.2" x2="870.4" y2="186.7" stroke="white" stroke-width="2" opacity="0.10"/>
  <line x1="927.5" y1="165.5" x2="917.1" y2="148.4" stroke="white" stroke-width="2" opacity="0.10"/>
  <line x1="977.7" y1="143.5" x2="972.3" y2="124.3" stroke="white" stroke-width="2" opacity="0.10"/>
  <line x1="1032.0" y1="136.0" x2="1032.0" y2="116.0" stroke="white" stroke-width="2" opacity="0.10"/>
  <line x1="1086.3" y1="143.5" x2="1091.7" y2="124.3" stroke="white" stroke-width="2" opacity="0.10"/>
  <line x1="1136.5" y1="165.5" x2="1146.9" y2="148.4" stroke="white" stroke-width="2" opacity="0.10"/>
  <line x1="1178.9" y1="200.2" x2="1193.6" y2="186.7" stroke="white" stroke-width="2" opacity="0.10"/>
  <line x1="1210.2" y1="245.2" x2="1228.0" y2="236.1" stroke="white" stroke-width="2" opacity="0.10"/>
  <text x="1185" y="608" font-family="ui-monospace,monospace" font-size="300" font-weight="900" fill="white" opacity="0.04" text-anchor="end">04</text>
  <rect x="48" y="42" width="140" height="36" rx="7" fill="#5eead4" opacity="0.18"/>
  <text x="64" y="66" font-family="ui-sans-serif,system-ui,sans-serif" font-size="14" font-weight="700" fill="#5eead4">RevOps / KPI</text>
  <rect x="0" y="614" width="1200" height="16" fill="#5eead4" opacity="0.45"/>
</svg>