<svg xmlns="http://www.w3.org/2000/svg" viewBox="0 0 1200 630" width="1200" height="630">
  <defs>
    <linearGradient id="bg" x1="0%" y1="0%" x2="100%" y2="100%">
      <stop offset="0%" stop-color="#071d30"/>
      <stop offset="100%" stop-color="#024f80"/>
    </linearGradient>
  </defs>
  <rect width="1200" height="630" fill="url(#bg)"/>
  <circle cx="50" cy="50" r="2.5" fill="white" opacity="0.1"/>
  <circle cx="112" cy="50" r="1.5" fill="white" opacity="0.06"/>
  <circle cx="174" cy="50" r="1.5" fill="white" opacity="0.1"/>
  <circle cx="236" cy="50" r="2.5" fill="white" opacity="0.06"/>
  <circle cx="298" cy="50" r="1.5" fill="white" opacity="0.1"/>
  <circle cx="360" cy="50" r="1.5" fill="white" opacity="0.06"/>
  <circle cx="422" cy="50" r="2.5" fill="white" opacity="0.1"/>
  <circle cx="484" cy="50" r="1.5" fill="white" opacity="0.06"/>
  <circle cx="546" cy="50" r="1.5" fill="white" opacity="0.1"/>
  <circle cx="608" cy="50" r="2.5" fill="white" opacity="0.06"/>
  <circle cx="670" cy="50" r="1.5" fill="white" opacity="0.1"/>
  <circle cx="732" cy="50" r="1.5" fill="white" opacity="0.06"/>
  <circle cx="794" cy="50" r="2.5" fill="white" opacity="0.1"/>
  <circle cx="856" cy="50" r="1.5" fill="white" opacity="0.06"/>
  <circle cx="918" cy="50" r="1.5" fill="white" opacity="0.1"/>
  <circle cx="980" cy="50" r="2.5" fill="white" opacity="0.06"/>
  <circle cx="1042" cy="50" r="1.5" fill="white" opacity="0.1"/>
  <circle cx="1104" cy="50" r="1.5" fill="white" opacity="0.06"/>
  <circle cx="50" cy="125" r="1.5" fill="white" opacity="0.06"/>
  <circle cx="112" cy="125" r="1.5" fill="white" opacity="0.1"/>
  <circle cx="174" cy="125" r="2.5" fill="white" opacity="0.06"/>
  <circle cx="236" cy="125" r="1.5" fill="white" opacity="0.1"/>
  <circle cx="298" cy="125" r="1.5" fill="white" opacity="0.06"/>
  <circle cx="360" cy="125" r="2.5" fill="white" opacity="0.1"/>
  <circle cx="422" cy="125" r="1.5" fill="white" opacity="0.06"/>
  <circle cx="484" cy="125" r="1.5" fill="white" opacity="0.1"/>
  <circle cx="546" cy="125" r="2.5" fill="white" opacity="0.06"/>
  <circle cx="608" cy="125" r="1.5" fill="white" opacity="0.1"/>
  <circle cx="670" cy="125" r="1.5" fill="white" opacity="0.06"/>
  <circle cx="732" cy="125" r="2.5" fill="white" opacity="0.1"/>
  <circle cx="794" cy="125" r="1.5" fill="white" opacity="0.06"/>
  <circle cx="856" cy="125" r="1.5" fill="white" opacity="0.1"/>
  <circle cx="918" cy="125" r="2.5" fill="white" opacity="0.06"/>
  <circle cx="980" cy="125" r="1.5" fill="white" opacity="0.1"/>
  <circle cx="1042" cy="125" r="1.5" fill="white" opacity="0.06"/>
  <circle cx="1104" cy="125" r="2.5" fill="white" opacity="0.1"/>
  <circle cx="50" cy="200" r="1.5" fill="white" opacity="0.1"/>
  <circle cx="112" cy="200" r="2.5" fill="white" opacity="0.06"/>
  <circle cx="174" cy="200" r="1.5" fill="white" opacity="0.1"/>
  <circle cx="236" cy="200" r="1.5" fill="white" opacity="0.06"/>
  <circle cx="298" cy="200" r="2.5" fill="white" opacity="0.1"/>
  <circle cx="360" cy="200" r="1.5" fill="white" opacity="0.06"/>
  <circle cx="422" cy="200" r="1.5" fill="white" opacity="0.1"/>
  <circle cx="484" cy="200" r="2.5" fill="white" opacity="0.06"/>
  <circle cx="546" cy="200" r="1.5" fill="white" opacity="0.1"/>
  <circle cx="608" cy="200" r="1.5" fill="white" opacity="0.06"/>
  <circle cx="670" cy="200" r="2.5" fill="white" opacity="0.1"/>
  <circle cx="732" cy="200" r="1.5" fill="white" opacity="0.06"/>
  <circle cx="794" cy="200" r="1.5" fill="white" opacity="0.1"/>
  <circle cx="856" cy="200" r="2.5" fill="white" opacity="0.06"/>
  <circle cx="918" cy="200" r="1.5" fill="white" opacity="0.1"/>
  <circle cx="980" cy="200" r="1.5" fill="white" opacity="0.06"/>
  <circle cx="1042" cy="200" r="2.5" fill="white" opacity="0.1"/>
  <circle cx="1104" cy="200" r="1.5" fill="white" opacity="0.06"/>
  <circle cx="50" cy="275" r="2.5" fill="white" opacity="0.06"/>
  <circle cx="112" cy="275" r="1.5" fill="white" opacity="0.1"/>
  <circle cx="174" cy="275" r="1.5" fill="white" opacity="0.06"/>
  <circle cx="236" cy="275" r="2.5" fill="white" opacity="0.1"/>
  <circle cx="298" cy="275" r="1.5" fill="white" opacity="0.06"/>
  <circle cx="360" cy="275" r="1.5" fill="white" opacity="0.1"/>
  <circle cx="422" cy="275" r="2.5" fill="white" opacity="0.06"/>
  <circle cx="484" cy="275" r="1.5" fill="white" opacity="0.1"/>
  <circle cx="546" cy="275" r="1.5" fill="white" opacity="0.06"/>
  <circle cx="608" cy="275" r="2.5" fill="white" opacity="0.1"/>
  <circle cx="670" cy="275" r="1.5" fill="white" opacity="0.06"/>
  <circle cx="732" cy="275" r="1.5" fill="white" opacity="0.1"/>
  <circle cx="794" cy="275" r="2.5" fill="white" opacity="0.06"/>
  <circle cx="856" cy="275" r="1.5" fill="white" opacity="0.1"/>
  <circle cx="918" cy="275" r="1.5" fill="white" opacity="0.06"/>
  <circle cx="980" cy="275" r="2.5" fill="white" opacity="0.1"/>
  <circle cx="1042" cy="275" r="1.5" fill="white" opacity="0.06"/>
  <circle cx="1104" cy="275" r="1.5" fill="white" opacity="0.1"/>
  <circle cx="50" cy="350" r="1.5" fill="white" opacity="0.1"/>
  <circle cx="112" cy="350" r="1.5" fill="white" opacity="0.06"/>
  <circle cx="174" cy="350" r="2.5" fill="white" opacity="0.1"/>
  <circle cx="236" cy="350" r="1.5" fill="white" opacity="0.06"/>
  <circle cx="298" cy="350" r="1.5" fill="white" opacity="0.1"/>
  <circle cx="360" cy="350" r="2.5" fill="white" opacity="0.06"/>
  <circle cx="422" cy="350" r="1.5" fill="white" opacity="0.1"/>
  <circle cx="484" cy="350" r="1.5" fill="white" opacity="0.06"/>
  <circle cx="546" cy="350" r="2.5" fill="white" opacity="0.1"/>
  <circle cx="608" cy="350" r="1.5" fill="white" opacity="0.06"/>
  <circle cx="670" cy="350" r="1.5" fill="white" opacity="0.1"/>
  <circle cx="732" cy="350" r="2.5" fill="white" opacity="0.06"/>
  <circle cx="794" cy="350" r="1.5" fill="white" opacity="0.1"/>
  <circle cx="856" cy="350" r="1.5" fill="white" opacity="0.06"/>
  <circle cx="918" cy="350" r="2.5" fill="white" opacity="0.1"/>
  <circle cx="980" cy="350" r="1.5" fill="white" opacity="0.06"/>
  <circle cx="1042" cy="350" r="1.5" fill="white" opacity="0.1"/>
  <circle cx="1104" cy="350" r="2.5" fill="white" opacity="0.06"/>
  <circle cx="50" cy="425" r="1.5" fill="white" opacity="0.06"/>
  <circle cx="112" cy="425" r="2.5" fill="white" opacity="0.1"/>
  <circle cx="174" cy="425" r="1.5" fill="white" opacity="0.06"/>
  <circle cx="236" cy="425" r="1.5" fill="white" opacity="0.1"/>
  <circle cx="298" cy="425" r="2.5" fill="white" opacity="0.06"/>
  <circle cx="360" cy="425" r="1.5" fill="white" opacity="0.1"/>
  <circle cx="422" cy="425" r="1.5" fill="white" opacity="0.06"/>
  <circle cx="484" cy="425" r="2.5" fill="white" opacity="0.1"/>
  <circle cx="546" cy="425" r="1.5" fill="white" opacity="0.06"/>
  <circle cx="608" cy="425" r="1.5" fill="white" opacity="0.1"/>
  <circle cx="670" cy="425" r="2.5" fill="white" opacity="0.06"/>
  <circle cx="732" cy="425" r="1.5" fill="white" opacity="0.1"/>
  <circle cx="794" cy="425" r="1.5" fill="white" opacity="0.06"/>
  <circle cx="856" cy="425" r="2.5" fill="white" opacity="0.1"/>
  <circle cx="918" cy="425" r="1.5" fill="white" opacity="0.06"/>
  <circle cx="980" cy="425" r="1.5" fill="white" opacity="0.1"/>
  <circle cx="1042" cy="425" r="2.5" fill="white" opacity="0.06"/>
  <circle cx="1104" cy="425" r="1.5" fill="white" opacity="0.1"/>
  <circle cx="50" cy="500" r="2.5" fill="white" opacity="0.1"/>
  <circle cx="112" cy="500" r="1.5" fill="white" opacity="0.06"/>
  <circle cx="174" cy="500" r="1.5" fill="white" opacity="0.1"/>
  <circle cx="236" cy="500" r="2.5" fill="white" opacity="0.06"/>
  <circle cx="298" cy="500" r="1.5" fill="white" opacity="0.1"/>
  <circle cx="360" cy="500" r="1.5" fill="white" opacity="0.06"/>
  <circle cx="422" cy="500" r="2.5" fill="white" opacity="0.1"/>
  <circle cx="484" cy="500" r="1.5" fill="white" opacity="0.06"/>
  <circle cx="546" cy="500" r="1.5" fill="white" opacity="0.1"/>
  <circle cx="608" cy="500" r="2.5" fill="white" opacity="0.06"/>
  <circle cx="670" cy="500" r="1.5" fill="white" opacity="0.1"/>
  <circle cx="732" cy="500" r="1.5" fill="white" opacity="0.06"/>
  <circle cx="794" cy="500" r="2.5" fill="white" opacity="0.1"/>
  <circle cx="856" cy="500" r="1.5" fill="white" opacity="0.06"/>
  <circle cx="918" cy="500" r="1.5" fill="white" opacity="0.1"/>
  <circle cx="980" cy="500" r="2.5" fill="white" opacity="0.06"/>
  <circle cx="1042" cy="500" r="1.5" fill="white" opacity="0.1"/>
  <circle cx="1104" cy="500" r="1.5" fill="white" opacity="0.06"/>
  <circle cx="50" cy="575" r="1.5" fill="white" opacity="0.06"/>
  <circle cx="112" cy="575" r="1.5" fill="white" opacity="0.1"/>
  <circle cx="174" cy="575" r="2.5" fill="white" opacity="0.06"/>
  <circle cx="236" cy="575" r="1.5" fill="white" opacity="0.1"/>
  <circle cx="298" cy="575" r="1.5" fill="white" opacity="0.06"/>
  <circle cx="360" cy="575" r="2.5" fill="white" opacity="0.1"/>
  <circle cx="422" cy="575" r="1.5" fill="white" opacity="0.06"/>
  <circle cx="484" cy="575" r="1.5" fill="white" opacity="0.1"/>
  <circle cx="546" cy="575" r="2.5" fill="white" opacity="0.06"/>
  <circle cx="608" cy="575" r="1.5" fill="white" opacity="0.1"/>
  <circle cx="670" cy="575" r="1.5" fill="white" opacity="0.06"/>
  <circle cx="732" cy="575" r="2.5" fill="white" opacity="0.1"/>
  <circle cx="794" cy="575" r="1.5" fill="white" opacity="0.06"/>
  <circle cx="856" cy="575" r="1.5" fill="white" opacity="0.1"/>
  <circle cx="918" cy="575" r="2.5" fill="white" opacity="0.06"/>
  <circle cx="980" cy="575" r="1.5" fill="white" opacity="0.1"/>
  <circle cx="1042" cy="575" r="1.5" fill="white" opacity="0.06"/>
  <circle cx="1104" cy="575" r="2.5" fill="white" opacity="0.1"/>
  <ellipse cx="934" cy="257" rx="240" ry="140" fill="white" opacity="0.05"/>
  <circle cx="774" cy="317" r="90" fill="white" opacity="0.04"/>
  <circle cx="1094" cy="317" r="100" fill="white" opacity="0.04"/>
  <circle cx="934" cy="257" r="60" fill="white" opacity="0.07"/>
  <line x1="754" y1="380" x2="734" y2="480" stroke="white" stroke-width="1.5" opacity="0.07"/>
  <line x1="854" y1="380" x2="834" y2="480" stroke="white" stroke-width="1.5" opacity="0.07"/>
  <line x1="954" y1="380" x2="934" y2="480" stroke="white" stroke-width="1.5" opacity="0.07"/>
  <line x1="1054" y1="380" x2="1034" y2="480" stroke="white" stroke-width="1.5" opacity="0.07"/>
  <line x1="1154" y1="380" x2="1134" y2="480" stroke="white" stroke-width="1.5" opacity="0.07"/>
  <line x1="1254" y1="380" x2="1234" y2="480" stroke="white" stroke-width="1.5" opacity="0.07"/>
  <rect x="48" y="42" width="203" height="36" rx="7" fill="#7dd3fc" opacity="0.18"/>
  <text x="64" y="66" font-family="ui-sans-serif,system-ui,sans-serif" font-size="14" font-weight="700" fill="#7dd3fc">Salesforce / RevOps</text>
  <rect x="0" y="614" width="1200" height="16" fill="#7dd3fc" opacity="0.45"/>
</svg>