<svg xmlns="http://www.w3.org/2000/svg" viewBox="0 0 1200 630" width="1200" height="630">
  <defs>
    <linearGradient id="bg" x1="0%" y1="0%" x2="100%" y2="100%">
      <stop offset="0%" stop-color="#0c1d3d"/>
      <stop offset="100%" stop-color="#1e3f8a"/>
    </linearGradient>
  </defs>
  <rect width="1200" height="630" fill="url(#bg)"/>
  <circle cx="50" cy="50" r="1.5" fill="white" opacity="0.1"/>
  <circle cx="112" cy="50" r="2.5" fill="white" opacity="0.06"/>
  <circle cx="174" cy="50" r="1.5" fill="white" opacity="0.1"/>
  <circle cx="236" cy="50" r="1.5" fill="white" opacity="0.06"/>
  <circle cx="298" cy="50" r="2.5" fill="white" opacity="0.1"/>
  <circle cx="360" cy="50" r="1.5" fill="white" opacity="0.06"/>
  <circle cx="422" cy="50" r="1.5" fill="white" opacity="0.1"/>
  <circle cx="484" cy="50" r="2.5" fill="white" opacity="0.06"/>
  <circle cx="546" cy="50" r="1.5" fill="white" opacity="0.1"/>
  <circle cx="608" cy="50" r="1.5" fill="white" opacity="0.06"/>
  <circle cx="670" cy="50" r="2.5" fill="white" opacity="0.1"/>
  <circle cx="732" cy="50" r="1.5" fill="white" opacity="0.06"/>
  <circle cx="794" cy="50" r="1.5" fill="white" opacity="0.1"/>
  <circle cx="856" cy="50" r="2.5" fill="white" opacity="0.06"/>
  <circle cx="918" cy="50" r="1.5" fill="white" opacity="0.1"/>
  <circle cx="980" cy="50" r="1.5" fill="white" opacity="0.06"/>
  <circle cx="1042" cy="50" r="2.5" fill="white" opacity="0.1"/>
  <circle cx="1104" cy="50" r="1.5" fill="white" opacity="0.06"/>
  <circle cx="50" cy="125" r="2.5" fill="white" opacity="0.06"/>
  <circle cx="112" cy="125" r="1.5" fill="white" opacity="0.1"/>
  <circle cx="174" cy="125" r="1.5" fill="white" opacity="0.06"/>
  <circle cx="236" cy="125" r="2.5" fill="white" opacity="0.1"/>
  <circle cx="298" cy="125" r="1.5" fill="white" opacity="0.06"/>
  <circle cx="360" cy="125" r="1.5" fill="white" opacity="0.1"/>
  <circle cx="422" cy="125" r="2.5" fill="white" opacity="0.06"/>
  <circle cx="484" cy="125" r="1.5" fill="white" opacity="0.1"/>
  <circle cx="546" cy="125" r="1.5" fill="white" opacity="0.06"/>
  <circle cx="608" cy="125" r="2.5" fill="white" opacity="0.1"/>
  <circle cx="670" cy="125" r="1.5" fill="white" opacity="0.06"/>
  <circle cx="732" cy="125" r="1.5" fill="white" opacity="0.1"/>
  <circle cx="794" cy="125" r="2.5" fill="white" opacity="0.06"/>
  <circle cx="856" cy="125" r="1.5" fill="white" opacity="0.1"/>
  <circle cx="918" cy="125" r="1.5" fill="white" opacity="0.06"/>
  <circle cx="980" cy="125" r="2.5" fill="white" opacity="0.1"/>
  <circle cx="1042" cy="125" r="1.5" fill="white" opacity="0.06"/>
  <circle cx="1104" cy="125" r="1.5" fill="white" opacity="0.1"/>
  <circle cx="50" cy="200" r="1.5" fill="white" opacity="0.1"/>
  <circle cx="112" cy="200" r="1.5" fill="white" opacity="0.06"/>
  <circle cx="174" cy="200" r="2.5" fill="white" opacity="0.1"/>
  <circle cx="236" cy="200" r="1.5" fill="white" opacity="0.06"/>
  <circle cx="298" cy="200" r="1.5" fill="white" opacity="0.1"/>
  <circle cx="360" cy="200" r="2.5" fill="white" opacity="0.06"/>
  <circle cx="422" cy="200" r="1.5" fill="white" opacity="0.1"/>
  <circle cx="484" cy="200" r="1.5" fill="white" opacity="0.06"/>
  <circle cx="546" cy="200" r="2.5" fill="white" opacity="0.1"/>
  <circle cx="608" cy="200" r="1.5" fill="white" opacity="0.06"/>
  <circle cx="670" cy="200" r="1.5" fill="white" opacity="0.1"/>
  <circle cx="732" cy="200" r="2.5" fill="white" opacity="0.06"/>
  <circle cx="794" cy="200" r="1.5" fill="white" opacity="0.1"/>
  <circle cx="856" cy="200" r="1.5" fill="white" opacity="0.06"/>
  <circle cx="918" cy="200" r="2.5" fill="white" opacity="0.1"/>
  <circle cx="980" cy="200" r="1.5" fill="white" opacity="0.06"/>
  <circle cx="1042" cy="200" r="1.5" fill="white" opacity="0.1"/>
  <circle cx="1104" cy="200" r="2.5" fill="white" opacity="0.06"/>
  <circle cx="50" cy="275" r="1.5" fill="white" opacity="0.06"/>
  <circle cx="112" cy="275" r="2.5" fill="white" opacity="0.1"/>
  <circle cx="174" cy="275" r="1.5" fill="white" opacity="0.06"/>
  <circle cx="236" cy="275" r="1.5" fill="white" opacity="0.1"/>
  <circle cx="298" cy="275" r="2.5" fill="white" opacity="0.06"/>
  <circle cx="360" cy="275" r="1.5" fill="white" opacity="0.1"/>
  <circle cx="422" cy="275" r="1.5" fill="white" opacity="0.06"/>
  <circle cx="484" cy="275" r="2.5" fill="white" opacity="0.1"/>
  <circle cx="546" cy="275" r="1.5" fill="white" opacity="0.06"/>
  <circle cx="608" cy="275" r="1.5" fill="white" opacity="0.1"/>
  <circle cx="670" cy="275" r="2.5" fill="white" opacity="0.06"/>
  <circle cx="732" cy="275" r="1.5" fill="white" opacity="0.1"/>
  <circle cx="794" cy="275" r="1.5" fill="white" opacity="0.06"/>
  <circle cx="856" cy="275" r="2.5" fill="white" opacity="0.1"/>
  <circle cx="918" cy="275" r="1.5" fill="white" opacity="0.06"/>
  <circle cx="980" cy="275" r="1.5" fill="white" opacity="0.1"/>
  <circle cx="1042" cy="275" r="2.5" fill="white" opacity="0.06"/>
  <circle cx="1104" cy="275" r="1.5" fill="white" opacity="0.1"/>
  <circle cx="50" cy="350" r="2.5" fill="white" opacity="0.1"/>
  <circle cx="112" cy="350" r="1.5" fill="white" opacity="0.06"/>
  <circle cx="174" cy="350" r="1.5" fill="white" opacity="0.1"/>
  <circle cx="236" cy="350" r="2.5" fill="white" opacity="0.06"/>
  <circle cx="298" cy="350" r="1.5" fill="white" opacity="0.1"/>
  <circle cx="360" cy="350" r="1.5" fill="white" opacity="0.06"/>
  <circle cx="422" cy="350" r="2.5" fill="white" opacity="0.1"/>
  <circle cx="484" cy="350" r="1.5" fill="white" opacity="0.06"/>
  <circle cx="546" cy="350" r="1.5" fill="white" opacity="0.1"/>
  <circle cx="608" cy="350" r="2.5" fill="white" opacity="0.06"/>
  <circle cx="670" cy="350" r="1.5" fill="white" opacity="0.1"/>
  <circle cx="732" cy="350" r="1.5" fill="white" opacity="0.06"/>
  <circle cx="794" cy="350" r="2.5" fill="white" opacity="0.1"/>
  <circle cx="856" cy="350" r="1.5" fill="white" opacity="0.06"/>
  <circle cx="918" cy="350" r="1.5" fill="white" opacity="0.1"/>
  <circle cx="980" cy="350" r="2.5" fill="white" opacity="0.06"/>
  <circle cx="1042" cy="350" r="1.5" fill="white" opacity="0.1"/>
  <circle cx="1104" cy="350" r="1.5" fill="white" opacity="0.06"/>
  <circle cx="50" cy="425" r="1.5" fill="white" opacity="0.06"/>
  <circle cx="112" cy="425" r="1.5" fill="white" opacity="0.1"/>
  <circle cx="174" cy="425" r="2.5" fill="white" opacity="0.06"/>
  <circle cx="236" cy="425" r="1.5" fill="white" opacity="0.1"/>
  <circle cx="298" cy="425" r="1.5" fill="white" opacity="0.06"/>
  <circle cx="360" cy="425" r="2.5" fill="white" opacity="0.1"/>
  <circle cx="422" cy="425" r="1.5" fill="white" opacity="0.06"/>
  <circle cx="484" cy="425" r="1.5" fill="white" opacity="0.1"/>
  <circle cx="546" cy="425" r="2.5" fill="white" opacity="0.06"/>
  <circle cx="608" cy="425" r="1.5" fill="white" opacity="0.1"/>
  <circle cx="670" cy="425" r="1.5" fill="white" opacity="0.06"/>
  <circle cx="732" cy="425" r="2.5" fill="white" opacity="0.1"/>
  <circle cx="794" cy="425" r="1.5" fill="white" opacity="0.06"/>
  <circle cx="856" cy="425" r="1.5" fill="white" opacity="0.1"/>
  <circle cx="918" cy="425" r="2.5" fill="white" opacity="0.06"/>
  <circle cx="980" cy="425" r="1.5" fill="white" opacity="0.1"/>
  <circle cx="1042" cy="425" r="1.5" fill="white" opacity="0.06"/>
  <circle cx="1104" cy="425" r="2.5" fill="white" opacity="0.1"/>
  <circle cx="50" cy="500" r="1.5" fill="white" opacity="0.1"/>
  <circle cx="112" cy="500" r="2.5" fill="white" opacity="0.06"/>
  <circle cx="174" cy="500" r="1.5" fill="white" opacity="0.1"/>
  <circle cx="236" cy="500" r="1.5" fill="white" opacity="0.06"/>
  <circle cx="298" cy="500" r="2.5" fill="white" opacity="0.1"/>
  <circle cx="360" cy="500" r="1.5" fill="white" opacity="0.06"/>
  <circle cx="422" cy="500" r="1.5" fill="white" opacity="0.1"/>
  <circle cx="484" cy="500" r="2.5" fill="white" opacity="0.06"/>
  <circle cx="546" cy="500" r="1.5" fill="white" opacity="0.1"/>
  <circle cx="608" cy="500" r="1.5" fill="white" opacity="0.06"/>
  <circle cx="670" cy="500" r="2.5" fill="white" opacity="0.1"/>
  <circle cx="732" cy="500" r="1.5" fill="white" opacity="0.06"/>
  <circle cx="794" cy="500" r="1.5" fill="white" opacity="0.1"/>
  <circle cx="856" cy="500" r="2.5" fill="white" opacity="0.06"/>
  <circle cx="918" cy="500" r="1.5" fill="white" opacity="0.1"/>
  <circle cx="980" cy="500" r="1.5" fill="white" opacity="0.06"/>
  <circle cx="1042" cy="500" r="2.5" fill="white" opacity="0.1"/>
  <circle cx="1104" cy="500" r="1.5" fill="white" opacity="0.06"/>
  <circle cx="50" cy="575" r="2.5" fill="white" opacity="0.06"/>
  <circle cx="112" cy="575" r="1.5" fill="white" opacity="0.1"/>
  <circle cx="174" cy="575" r="1.5" fill="white" opacity="0.06"/>
  <circle cx="236" cy="575" r="2.5" fill="white" opacity="0.1"/>
  <circle cx="298" cy="575" r="1.5" fill="white" opacity="0.06"/>
  <circle cx="360" cy="575" r="1.5" fill="white" opacity="0.1"/>
  <circle cx="422" cy="575" r="2.5" fill="white" opacity="0.06"/>
  <circle cx="484" cy="575" r="1.5" fill="white" opacity="0.1"/>
  <circle cx="546" cy="575" r="1.5" fill="white" opacity="0.06"/>
  <circle cx="608" cy="575" r="2.5" fill="white" opacity="0.1"/>
  <circle cx="670" cy="575" r="1.5" fill="white" opacity="0.06"/>
  <circle cx="732" cy="575" r="1.5" fill="white" opacity="0.1"/>
  <circle cx="794" cy="575" r="2.5" fill="white" opacity="0.06"/>
  <circle cx="856" cy="575" r="1.5" fill="white" opacity="0.1"/>
  <circle cx="918" cy="575" r="1.5" fill="white" opacity="0.06"/>
  <circle cx="980" cy="575" r="2.5" fill="white" opacity="0.1"/>
  <circle cx="1042" cy="575" r="1.5" fill="white" opacity="0.06"/>
  <circle cx="1104" cy="575" r="1.5" fill="white" opacity="0.1"/>
  <line x1="854" y1="167" x2="1004" y2="287" stroke="white" stroke-width="1" opacity="0.07"/>
  <line x1="854" y1="167" x2="1134" y2="137" stroke="white" stroke-width="1" opacity="0.07"/>
  <line x1="854" y1="167" x2="1184" y2="387" stroke="white" stroke-width="1" opacity="0.07"/>
  <line x1="854" y1="167" x2="924" y2="427" stroke="white" stroke-width="1" opacity="0.07"/>
  <line x1="854" y1="167" x2="1074" y2="467" stroke="white" stroke-width="1" opacity="0.07"/>
  <line x1="1004" y1="287" x2="1134" y2="137" stroke="white" stroke-width="1" opacity="0.07"/>
  <line x1="1004" y1="287" x2="1184" y2="387" stroke="white" stroke-width="1" opacity="0.07"/>
  <line x1="1004" y1="287" x2="924" y2="427" stroke="white" stroke-width="1" opacity="0.07"/>
  <line x1="1004" y1="287" x2="1074" y2="467" stroke="white" stroke-width="1" opacity="0.07"/>
  <line x1="1134" y1="137" x2="1184" y2="387" stroke="white" stroke-width="1" opacity="0.07"/>
  <line x1="1134" y1="137" x2="924" y2="427" stroke="white" stroke-width="1" opacity="0.07"/>
  <line x1="1134" y1="137" x2="1074" y2="467" stroke="white" stroke-width="1" opacity="0.07"/>
  <line x1="1184" y1="387" x2="924" y2="427" stroke="white" stroke-width="1" opacity="0.07"/>
  <line x1="1184" y1="387" x2="1074" y2="467" stroke="white" stroke-width="1" opacity="0.07"/>
  <line x1="924" y1="427" x2="1074" y2="467" stroke="white" stroke-width="1" opacity="0.07"/>
  <circle cx="854" cy="167" r="10" fill="white" opacity="0.14"/>
  <circle cx="854" cy="167" r="5" fill="white" opacity="0.18"/>
  <circle cx="1004" cy="287" r="10" fill="white" opacity="0.14"/>
  <circle cx="1004" cy="287" r="5" fill="white" opacity="0.18"/>
  <circle cx="1134" cy="137" r="10" fill="white" opacity="0.14"/>
  <circle cx="1134" cy="137" r="5" fill="white" opacity="0.18"/>
  <circle cx="1184" cy="387" r="10" fill="white" opacity="0.14"/>
  <circle cx="1184" cy="387" r="5" fill="white" opacity="0.18"/>
  <circle cx="924" cy="427" r="10" fill="white" opacity="0.14"/>
  <circle cx="924" cy="427" r="5" fill="white" opacity="0.18"/>
  <circle cx="1074" cy="467" r="10" fill="white" opacity="0.14"/>
  <circle cx="1074" cy="467" r="5" fill="white" opacity="0.18"/>
  <circle cx="980" cy="280" r="300" fill="white" opacity="0.03"/>
  <rect x="48" y="42" width="140" height="36" rx="7" fill="#93c5fd" opacity="0.18"/>
  <text x="64" y="66" font-family="ui-sans-serif,system-ui,sans-serif" font-size="14" font-weight="700" fill="#93c5fd">CRM / RevOps</text>
  <rect x="0" y="614" width="1200" height="16" fill="#93c5fd" opacity="0.45"/>
</svg>