<svg xmlns="http://www.w3.org/2000/svg" viewBox="0 0 1200 630" width="1200" height="630">
  <defs>
    <linearGradient id="bg" x1="0%" y1="0%" x2="100%" y2="100%">
      <stop offset="0%" stop-color="#F5F7FA"/>
      <stop offset="100%" stop-color="#E8ECF2"/>
    </linearGradient>
    <linearGradient id="bi" x1="0%" y1="0%" x2="100%" y2="100%">
      <stop offset="0%" stop-color="#3B82F6"/>
      <stop offset="100%" stop-color="#765FC4"/>
    </linearGradient>
    <radialGradient id="glow" cx="50%" cy="50%" r="50%">
      <stop offset="0%" stop-color="#765FC4" stop-opacity="0.20"/>
      <stop offset="100%" stop-color="#765FC4" stop-opacity="0"/>
    </radialGradient>
    <filter id="soft" x="-60%" y="-60%" width="220%" height="220%"><feGaussianBlur stdDeviation="26"/></filter>
  </defs>
  <rect width="1200" height="630" fill="url(#bg)"/>

  <circle cx="970" cy="310" r="240" fill="url(#glow)" filter="url(#soft)"/>
  <line x1="717" y1="330" x2="842" y2="223" stroke="#1E3A8A" stroke-opacity="0.30" stroke-width="1.5"/>
  <line x1="717" y1="330" x2="860" y2="380" stroke="#1E3A8A" stroke-opacity="0.31" stroke-width="1.5"/>
  <line x1="842" y1="223" x2="982" y2="249" stroke="#1E3A8A" stroke-opacity="0.34" stroke-width="1.5"/>
  <line x1="842" y1="223" x2="980" y2="374" stroke="#1E3A8A" stroke-opacity="0.28" stroke-width="1.5"/>
  <line x1="860" y1="380" x2="982" y2="249" stroke="#1E3A8A" stroke-opacity="0.21" stroke-width="1.5"/>
  <line x1="860" y1="380" x2="980" y2="374" stroke="#1E3A8A" stroke-opacity="0.24" stroke-width="1.5"/>
  <line x1="982" y1="249" x2="1119" y2="293" stroke="#1E3A8A" stroke-opacity="0.19" stroke-width="1.5"/>
  <line x1="980" y1="374" x2="1119" y2="293" stroke="#1E3A8A" stroke-opacity="0.36" stroke-width="1.5"/>
  <circle cx="717" cy="330" r="9" fill="url(#bi)"/>
  <circle cx="842" cy="223" r="6.5" fill="#F5F7FA" stroke="#1E3A8A" stroke-width="2"/>
  <circle cx="860" cy="380" r="6.5" fill="#F5F7FA" stroke="#1E3A8A" stroke-width="2"/>
  <circle cx="982" cy="249" r="9" fill="url(#bi)"/>
  <circle cx="980" cy="374" r="6.5" fill="#F5F7FA" stroke="#1E3A8A" stroke-width="2"/>
  <circle cx="1119" cy="293" r="9" fill="url(#bi)"/>
  

  <rect x="96" y="60" width="4" height="30" fill="#E62E45"/>
  <text x="116" y="82" font-family="'Helvetica Neue',Helvetica,Arial,sans-serif" font-size="20" font-weight="600" fill="#1E3A8A" letter-spacing="0.28em">REVENUE CRM</text>
  <line x1="96" y1="116" x2="1104" y2="116" stroke="#1E3A8A" stroke-opacity="0.12" stroke-width="1"/>

  <text x="96" y="211" font-family="'Hiragino Sans','Hiragino Kaku Gothic ProN',system-ui,sans-serif" font-size="48" font-weight="600" fill="#1E3A8A" letter-spacing="0.01em">名刺の束が引き出しに</text>
  <text x="96" y="279" font-family="'Hiragino Sans','Hiragino Kaku Gothic ProN',system-ui,sans-serif" font-size="48" font-weight="600" fill="#1E3A8A" letter-spacing="0.01em">残ったまま、担当が</text>
  <text x="96" y="347" font-family="'Hiragino Sans','Hiragino Kaku Gothic ProN',system-ui,sans-serif" font-size="48" font-weight="600" fill="#1E3A8A" letter-spacing="0.01em">辞める</text>
  <rect x="96" y="371" width="64" height="3" fill="#E62E45"/>
  <text x="96" y="408" font-family="'Hiragino Sans','Hiragino Kaku Gothic ProN',system-ui,sans-serif" font-size="22" font-weight="400" fill="#64748B" letter-spacing="0.02em">名刺を撮る</text>

  <rect x="0" y="546" width="1200" height="84" fill="#1E3A8A" fill-opacity="0.035"/>
  <line x1="0" y1="546" x2="1200" y2="546" stroke="#1E3A8A" stroke-opacity="0.12" stroke-width="1"/>
  <text x="96" y="598" font-family="'Helvetica Neue',Helvetica,Arial,sans-serif" font-size="22" font-weight="600" fill="#1E3A8A" letter-spacing="0.18em">CONSILEGY</text>
  <text x="1104" y="598" text-anchor="end" font-family="'Helvetica Neue',Helvetica,Arial,sans-serif" font-size="18" font-weight="400" fill="#94A3B8" letter-spacing="0.06em">consilegy.com</text>
</svg>
