<svg width="816" height="140" viewBox="0 0 816 140" fill="none" xmlns="http://www.w3.org/2000/svg">
<path d="M324.249 26.1475C348.204 23.3235 369.967 40.3121 373.043 64.2361C376.118 88.1601 359.36 110.1 335.47 113.428C319.791 115.611 304.147 109.204 294.504 96.649C284.861 84.094 282.705 67.3269 288.859 52.7415C295.013 38.1561 308.528 28.0003 324.249 26.1475ZM335.394 101.008C373.387 87.9994 360.291 34.0697 323.168 38.194C282.927 53.0664 301.252 107.963 335.394 101.008Z" fill="#0F172A"/>
<path d="M443.595 27.3479L457.502 27.3857C457.05 55.3488 457.428 84.3326 457.448 112.367L443.635 112.36C434.672 100.107 426.391 87.295 418.124 74.5664C412.741 66.2795 407.709 57.4204 401.826 49.5239C402.035 70.5097 401.866 91.401 401.731 112.387L388.52 112.368C388.268 84.3035 388.625 55.5866 388.665 27.4675C393.119 27.3918 397.881 27.5154 402.359 27.5546C416.807 48.1149 429.782 69.0859 443.764 89.1774C443.385 68.4922 443.487 48.0399 443.595 27.3479Z" fill="#0F172A"/>
<path d="M712.358 25.439C729.271 24.0713 739.356 31.4315 748.487 44.6404C745.401 46.9017 740.862 51.463 737.937 54.2566C730.872 41.913 719.788 33.3288 705.624 39.5901C673.359 53.8574 687.455 112.965 725.8 99.8601C732.959 97.4123 736.573 88.0197 738.998 81.2822L718.545 81.22C718.147 79.0857 718.275 72.0895 718.275 69.5661L750.973 69.8072C751.27 81.0093 750.872 90.972 744.293 100.473C731.987 118.258 707.184 118.375 690.873 106.579C670.468 91.821 668.063 60.8043 682.369 41.0903C689.812 30.829 700.464 27.1405 712.358 25.439Z" fill="#0F172A"/>
<path d="M238.448 25.4107C255.488 23.1865 265.794 30.1942 276.935 41.6219C273.75 45.4976 270.883 49.4381 267.91 53.4752C264.103 47.6043 259.829 41.5692 252.818 39.5031C237.781 35.0729 223.894 41.7273 219.131 56.8544C211.23 81.9523 230.375 113.094 258.828 97.7048C263.109 94.5674 265.402 91.0795 268.314 86.7979C271.062 89.6948 275.034 95.0909 277.193 98.4445C234.856 143.387 182.696 87.4267 210.931 42.2649C217.018 32.5278 227.431 27.5411 238.448 25.4107Z" fill="#0F172A"/>
<path d="M493.814 26.0643C509.781 24.9687 515.738 29.2537 523.391 42.8091L511.301 48.0241C507.552 43.4791 503.486 37.592 496.752 38.2269C493.024 37.617 487.458 45.5723 488.897 48.7678C495.847 64.2468 522.074 65.6726 523.601 85.8777C524.918 103.398 515.441 112.299 498.934 114.285C487.971 113.659 478.772 111.423 473.902 100.161C472.95 97.9592 471.45 93.9208 472.355 91.6642C475.307 89.9857 480.548 88.9786 484 88.1431C485.682 92.4456 486.796 96.5064 490.713 99.4574C494.867 102.585 504.553 102.318 506.978 97.0467C517.204 74.2676 478.934 73.707 475.78 53.9876C473.274 38.3134 478.421 29.7319 493.814 26.0643Z" fill="#0F172A"/>
<path d="M620.81 27.8529C632.643 27.32 649.739 27.8151 661.937 27.8293L661.863 40.7031C652.488 40.7504 643.241 40.6714 633.866 40.5397L633.886 60.2314L661.687 60.3131L661.633 73.1903L633.751 73.2092L633.873 85.0713L634.095 99.7674C643.248 99.7465 652.488 99.9221 661.647 100.036L661.937 112.432L620.796 112.474L620.81 27.8529Z" fill="#0F172A"/>
<path d="M751.37 27.7858C755.558 27.596 761.123 27.7838 765.419 27.8027C771.099 37.6607 776.375 46.9467 782.764 56.3731C789.026 47.0183 793.983 37.163 800.832 27.8135C805.398 27.6893 810.545 27.821 815.165 27.8325C807.776 39.7161 801.055 52.0172 793.895 64.0521C792.531 66.4385 791.099 68.8227 789.701 71.1908C789.809 84.9353 789.593 98.9121 789.512 112.674L776.091 112.65C775.99 99.2127 776.307 85.4122 776.327 71.9102C767.155 58.3906 758.739 42.2801 751.37 27.7858Z" fill="#0F172A"/>
<path d="M573.218 27.5608L584.687 27.6337L584.863 100.041L609.172 100.097C609.233 102.992 609.881 110.663 608.044 112.4L572.496 112.371C572.523 105.246 572.192 29.2426 573.218 27.5608Z" fill="#0F172A"/>
<path d="M539.75 27.4917L553.212 27.5451C552.827 55.7372 552.948 84.1184 552.908 112.327L539.872 112.315C539.439 84.2879 539.757 55.5852 539.75 27.4917Z" fill="#0F172A"/>
<path d="M83.422 0C86.0448 0.287737 102.869 8.81271 106.857 10.6371C86.6534 20.8592 64.2541 30.2148 43.8964 40.4782C35.9128 44.5031 27.5161 47.9219 19.6305 52.2682C19.3374 63.9789 19.4489 75.8967 19.4474 87.6252L84.4183 118.636C103.407 110.518 127.56 99.3148 145.679 89.8546C133.078 82.9119 118.945 76.4476 105.918 70.2274C113.071 66.9653 120.143 63.5067 127.22 60.0817C132.002 62.1132 137.115 64.7336 141.82 67.0263C150.562 71.3318 160.083 76.2522 168.982 80.0389L168.869 100.218C159.245 105.343 148.168 109.96 138.235 114.579C120.201 122.967 102.234 131.225 84.3784 140C73.8652 135.327 63.0782 129.816 52.6366 124.809L0.0975148 99.5194C0.33049 80.2122 0.537044 59.2228 0 39.9704C27.3355 26.9041 56.7614 13.966 83.422 0Z" fill="url(#paint0_linear_3_252)"/>
<path d="M124.983 20.6659C127.34 20.0885 164.566 38.1266 169.114 40.2368C168.912 47.1362 169.011 54.1932 169.041 61.1085C168.083 60.7262 167.162 60.2785 166.233 59.8312C153.066 53.4958 139.973 46.9941 126.694 40.8939C106.975 50.7899 85.5921 59.6992 66.2825 69.9952L85.008 79.2158C89.7266 81.4461 100.632 86.2848 104.626 88.8451C98.203 92.3484 90.3582 95.9742 83.712 99.2473C72.4364 93.066 52.0658 83.7907 40.0466 78.3357C40.1859 72.496 40.1283 66.9041 40.0505 61.0663C67.1702 48.1023 98.6161 34.3505 124.983 20.6659Z" fill="url(#paint1_linear_3_252)"/>
<defs>
<linearGradient id="paint0_linear_3_252" x1="38.0209" y1="21.9849" x2="132.726" y2="117.46" gradientUnits="userSpaceOnUse">
<stop stop-color="#3B82F6"/>
<stop offset="0.7" stop-color="#987AD6"/>
<stop offset="1" stop-color="#F472B6"/>
</linearGradient>
<linearGradient id="paint1_linear_3_252" x1="69.0869" y1="32.9945" x2="119.707" y2="102.426" gradientUnits="userSpaceOnUse">
<stop stop-color="#3B82F6"/>
<stop offset="0.7" stop-color="#987AD6"/>
<stop offset="1" stop-color="#F472B6"/>
</linearGradient>
</defs>
</svg>
