<svg xmlns="http://www.w3.org/2000/svg" viewBox="0 0 760 310" font-family="-apple-system, BlinkMacSystemFont, 'Segoe UI', sans-serif">

  <!-- Background -->
  <rect width="760" height="310" fill="#fff"/>

  <!-- Title -->
  <text x="380" y="28" text-anchor="middle" font-size="12" font-weight="700" fill="#1e40af" letter-spacing="0.08em">EXECUTION-READY JAPAN GTM PLAN</text>

  <!-- Left column items: 1,3,5,7 at x=30 -->
  <!-- Item 1: Target Segment y=54 -->
  <rect x="30" y="44" width="320" height="50" rx="8" fill="#eff6ff" stroke="#93c5fd" stroke-width="1"/>
  <circle cx="58" cy="69" r="14" fill="#1e40af"/>
  <text x="58" y="74" text-anchor="middle" font-size="11" font-weight="700" fill="#fff">1</text>
  <text x="84" y="72" font-size="12" font-weight="600" fill="#1e293b">Target Segment</text>

  <!-- Item 3: Funnel Assumptions y=104 -->
  <rect x="30" y="104" width="320" height="50" rx="8" fill="#eff6ff" stroke="#93c5fd" stroke-width="1"/>
  <circle cx="58" cy="129" r="14" fill="#1e40af"/>
  <text x="58" y="134" text-anchor="middle" font-size="11" font-weight="700" fill="#fff">3</text>
  <text x="84" y="132" font-size="12" font-weight="600" fill="#1e293b">Funnel Assumptions</text>

  <!-- Item 5: CRM Stages y=164 -->
  <rect x="30" y="164" width="320" height="50" rx="8" fill="#eff6ff" stroke="#93c5fd" stroke-width="1"/>
  <circle cx="58" cy="189" r="14" fill="#1e40af"/>
  <text x="58" y="194" text-anchor="middle" font-size="11" font-weight="700" fill="#fff">5</text>
  <text x="84" y="192" font-size="12" font-weight="600" fill="#1e293b">CRM Stages</text>

  <!-- Item 7: Reporting y=224 -->
  <rect x="30" y="224" width="320" height="50" rx="8" fill="#eff6ff" stroke="#93c5fd" stroke-width="1"/>
  <circle cx="58" cy="249" r="14" fill="#1e40af"/>
  <text x="58" y="254" text-anchor="middle" font-size="11" font-weight="700" fill="#fff">7</text>
  <text x="84" y="252" font-size="12" font-weight="600" fill="#1e293b">Reporting</text>

  <!-- Right column items: 2,4,6,8 at x=400 -->
  <!-- Item 2: Messaging y=54 -->
  <rect x="410" y="44" width="320" height="50" rx="8" fill="#eff6ff" stroke="#93c5fd" stroke-width="1"/>
  <circle cx="438" cy="69" r="14" fill="#1e40af"/>
  <text x="438" y="74" text-anchor="middle" font-size="11" font-weight="700" fill="#fff">2</text>
  <text x="464" y="72" font-size="12" font-weight="600" fill="#1e293b">Messaging</text>

  <!-- Item 4: Lead Flow y=104 -->
  <rect x="410" y="104" width="320" height="50" rx="8" fill="#eff6ff" stroke="#93c5fd" stroke-width="1"/>
  <circle cx="438" cy="129" r="14" fill="#1e40af"/>
  <text x="438" y="134" text-anchor="middle" font-size="11" font-weight="700" fill="#fff">4</text>
  <text x="464" y="132" font-size="12" font-weight="600" fill="#1e293b">Lead Flow</text>

  <!-- Item 6: Owner Definitions y=164 -->
  <rect x="410" y="164" width="320" height="50" rx="8" fill="#eff6ff" stroke="#93c5fd" stroke-width="1"/>
  <circle cx="438" cy="189" r="14" fill="#1e40af"/>
  <text x="438" y="194" text-anchor="middle" font-size="11" font-weight="700" fill="#fff">6</text>
  <text x="464" y="192" font-size="12" font-weight="600" fill="#1e293b">Owner Definitions</text>

  <!-- Item 8: 90-Day Plan y=224 -->
  <rect x="410" y="224" width="320" height="50" rx="8" fill="#eff6ff" stroke="#93c5fd" stroke-width="1"/>
  <circle cx="438" cy="249" r="14" fill="#1e40af"/>
  <text x="438" y="254" text-anchor="middle" font-size="11" font-weight="700" fill="#fff">8</text>
  <text x="464" y="252" font-size="12" font-weight="600" fill="#1e293b">90-Day Plan</text>

  <!-- Caption bar -->
  <rect x="20" y="284" width="720" height="18" rx="4" fill="#eff6ff"/>
  <text x="380" y="297" text-anchor="middle" font-size="10" fill="#475569">A Japan GTM plan without execution design is a strategy document. Execution-readiness requires all eight elements to be defined.</text>

</svg>
