<svg xmlns="http://www.w3.org/2000/svg" viewBox="0 0 1200 630" width="1200" height="630">
  <defs>
    <linearGradient id="bg" x1="0%" y1="0%" x2="100%" y2="100%">
      <stop offset="0%" stop-color="#F5F7FA"/>
      <stop offset="100%" stop-color="#E8ECF2"/>
    </linearGradient>
    <linearGradient id="bi" x1="0%" y1="0%" x2="100%" y2="100%">
      <stop offset="0%" stop-color="#3B82F6"/>
      <stop offset="100%" stop-color="#4F46E5"/>
    </linearGradient>
    <radialGradient id="glow" cx="50%" cy="50%" r="50%">
      <stop offset="0%" stop-color="#4F46E5" stop-opacity="0.20"/>
      <stop offset="100%" stop-color="#4F46E5" stop-opacity="0"/>
    </radialGradient>
    <filter id="soft" x="-60%" y="-60%" width="220%" height="220%"><feGaussianBlur stdDeviation="26"/></filter>
  </defs>
  <rect width="1200" height="630" fill="url(#bg)"/>

  <circle cx="970" cy="310" r="240" fill="url(#glow)" filter="url(#soft)"/>
  <line x1="714" y1="291" x2="850" y2="227" stroke="#1E3A8A" stroke-opacity="0.20" stroke-width="1.5"/>
  <line x1="714" y1="291" x2="859" y2="388" stroke="#1E3A8A" stroke-opacity="0.28" stroke-width="1.5"/>
  <line x1="850" y1="227" x2="999" y2="230" stroke="#1E3A8A" stroke-opacity="0.26" stroke-width="1.5"/>
  <line x1="850" y1="227" x2="983" y2="388" stroke="#1E3A8A" stroke-opacity="0.35" stroke-width="1.5"/>
  <line x1="859" y1="388" x2="999" y2="230" stroke="#1E3A8A" stroke-opacity="0.39" stroke-width="1.5"/>
  <line x1="859" y1="388" x2="983" y2="388" stroke="#1E3A8A" stroke-opacity="0.34" stroke-width="1.5"/>
  <line x1="999" y1="230" x2="1122" y2="309" stroke="#1E3A8A" stroke-opacity="0.35" stroke-width="1.5"/>
  <line x1="983" y1="388" x2="1122" y2="309" stroke="#1E3A8A" stroke-opacity="0.36" stroke-width="1.5"/>
  <circle cx="714" cy="291" r="6.5" fill="#F5F7FA" stroke="#1E3A8A" stroke-width="2"/>
  <circle cx="850" cy="227" r="6.5" fill="#F5F7FA" stroke="#1E3A8A" stroke-width="2"/>
  <circle cx="859" cy="388" r="9" fill="url(#bi)"/>
  <circle cx="999" cy="230" r="9" fill="url(#bi)"/>
  <circle cx="983" cy="388" r="9" fill="url(#bi)"/>
  <circle cx="1122" cy="309" r="9" fill="url(#bi)"/>
  

  <rect x="96" y="60" width="4" height="30" fill="#1E3A8A"/>
  <text x="116" y="82" font-family="'Helvetica Neue',Helvetica,Arial,sans-serif" font-size="20" font-weight="600" fill="#1E3A8A" letter-spacing="0.28em">INSIGHTS</text>
  <line x1="96" y1="116" x2="1104" y2="116" stroke="#1E3A8A" stroke-opacity="0.12" stroke-width="1"/>

  <text x="96" y="235" font-family="'Hiragino Sans','Hiragino Kaku Gothic ProN',system-ui,sans-serif" font-size="46" font-weight="600" fill="#1E3A8A" letter-spacing="0.01em">How to Adapt a</text>
  <text x="96" y="300" font-family="'Hiragino Sans','Hiragino Kaku Gothic ProN',system-ui,sans-serif" font-size="46" font-weight="600" fill="#1E3A8A" letter-spacing="0.01em">Global B2B Landing</text>
  <text x="96" y="365" font-family="'Hiragino Sans','Hiragino Kaku Gothic ProN',system-ui,sans-serif" font-size="46" font-weight="600" fill="#1E3A8A" letter-spacing="0.01em">Page for Japan</text>
  <rect x="96" y="389" width="64" height="3" fill="#1E3A8A"/>
  

  <rect x="0" y="546" width="1200" height="84" fill="#1E3A8A" fill-opacity="0.035"/>
  <line x1="0" y1="546" x2="1200" y2="546" stroke="#1E3A8A" stroke-opacity="0.12" stroke-width="1"/>
  <text x="96" y="598" font-family="'Helvetica Neue',Helvetica,Arial,sans-serif" font-size="22" font-weight="600" fill="#1E3A8A" letter-spacing="0.18em">CONSILEGY</text>
  <text x="1104" y="598" text-anchor="end" font-family="'Helvetica Neue',Helvetica,Arial,sans-serif" font-size="18" font-weight="400" fill="#94A3B8" letter-spacing="0.06em">consilegy.com</text>
</svg>
