<svg xmlns="http://www.w3.org/2000/svg" viewBox="0 0 1200 630" width="1200" height="630">
  <defs>
    <linearGradient id="bg" x1="0%" y1="0%" x2="100%" y2="100%">
      <stop offset="0%" stop-color="#F5F7FA"/>
      <stop offset="100%" stop-color="#E8ECF2"/>
    </linearGradient>
    <linearGradient id="bi" x1="0%" y1="0%" x2="100%" y2="100%">
      <stop offset="0%" stop-color="#3B82F6"/>
      <stop offset="100%" stop-color="#4F46E5"/>
    </linearGradient>
    <radialGradient id="glow" cx="50%" cy="50%" r="50%">
      <stop offset="0%" stop-color="#4F46E5" stop-opacity="0.20"/>
      <stop offset="100%" stop-color="#4F46E5" stop-opacity="0"/>
    </radialGradient>
    <filter id="soft" x="-60%" y="-60%" width="220%" height="220%"><feGaussianBlur stdDeviation="26"/></filter>
  </defs>
  <rect width="1200" height="630" fill="url(#bg)"/>

  <circle cx="920" cy="330" r="230" fill="url(#glow)" filter="url(#soft)"/>
  <rect x="756" y="168" width="328" height="50" rx="6" fill="url(#bi)" fill-opacity="0.34"/>
  <rect x="790" y="238" width="260" height="50" rx="6" fill="url(#bi)" fill-opacity="0.52"/>
  <line x1="756" y1="218" x2="790" y2="238" stroke="#1E3A8A" stroke-opacity="0.18" stroke-width="1.5"/>
  <line x1="1084" y1="218" x2="1050" y2="238" stroke="#1E3A8A" stroke-opacity="0.18" stroke-width="1.5"/>
  <rect x="828" y="308" width="185" height="50" rx="6" fill="url(#bi)" fill-opacity="0.70"/>
  <line x1="790" y1="288" x2="828" y2="308" stroke="#1E3A8A" stroke-opacity="0.18" stroke-width="1.5"/>
  <line x1="1050" y1="288" x2="1012" y2="308" stroke="#1E3A8A" stroke-opacity="0.18" stroke-width="1.5"/>
  <rect x="865" y="378" width="111" height="50" rx="6" fill="url(#bi)" fill-opacity="0.88"/>
  <line x1="828" y1="358" x2="865" y2="378" stroke="#1E3A8A" stroke-opacity="0.18" stroke-width="1.5"/>
  <line x1="1012" y1="358" x2="975" y2="378" stroke="#1E3A8A" stroke-opacity="0.18" stroke-width="1.5"/>
  

  <rect x="96" y="60" width="4" height="30" fill="#1E3A8A"/>
  <text x="116" y="82" font-family="'Helvetica Neue',Helvetica,Arial,sans-serif" font-size="20" font-weight="600" fill="#1E3A8A" letter-spacing="0.28em">INSIGHTS</text>
  <line x1="96" y1="116" x2="1104" y2="116" stroke="#1E3A8A" stroke-opacity="0.12" stroke-width="1"/>

  <text x="96" y="244" font-family="'Hiragino Sans','Hiragino Kaku Gothic ProN',system-ui,sans-serif" font-size="40" font-weight="600" fill="#1E3A8A" letter-spacing="0.01em">How to Design a</text>
  <text x="96" y="301" font-family="'Hiragino Sans','Hiragino Kaku Gothic ProN',system-ui,sans-serif" font-size="40" font-weight="600" fill="#1E3A8A" letter-spacing="0.01em">Japan-Ready Revenue</text>
  <text x="96" y="358" font-family="'Hiragino Sans','Hiragino Kaku Gothic ProN',system-ui,sans-serif" font-size="40" font-weight="600" fill="#1E3A8A" letter-spacing="0.01em">Funnel Before Hiring</text>
  <rect x="96" y="382" width="64" height="3" fill="#1E3A8A"/>
  

  <rect x="0" y="546" width="1200" height="84" fill="#1E3A8A" fill-opacity="0.035"/>
  <line x1="0" y1="546" x2="1200" y2="546" stroke="#1E3A8A" stroke-opacity="0.12" stroke-width="1"/>
  <text x="96" y="598" font-family="'Helvetica Neue',Helvetica,Arial,sans-serif" font-size="22" font-weight="600" fill="#1E3A8A" letter-spacing="0.18em">CONSILEGY</text>
  <text x="1104" y="598" text-anchor="end" font-family="'Helvetica Neue',Helvetica,Arial,sans-serif" font-size="18" font-weight="400" fill="#94A3B8" letter-spacing="0.06em">consilegy.com</text>
</svg>
