<svg xmlns="http://www.w3.org/2000/svg" viewBox="0 0 1200 630" width="1200" height="630">
  <defs>
    <linearGradient id="bg" x1="0%" y1="0%" x2="100%" y2="100%">
      <stop offset="0%" stop-color="#F5F7FA"/>
      <stop offset="100%" stop-color="#E8ECF2"/>
    </linearGradient>
    <linearGradient id="bi" x1="0%" y1="0%" x2="100%" y2="100%">
      <stop offset="0%" stop-color="#3B82F6"/>
      <stop offset="100%" stop-color="#4F46E5"/>
    </linearGradient>
    <radialGradient id="glow" cx="50%" cy="50%" r="50%">
      <stop offset="0%" stop-color="#4F46E5" stop-opacity="0.20"/>
      <stop offset="100%" stop-color="#4F46E5" stop-opacity="0"/>
    </radialGradient>
    <filter id="soft" x="-60%" y="-60%" width="220%" height="220%"><feGaussianBlur stdDeviation="26"/></filter>
  </defs>
  <rect width="1200" height="630" fill="url(#bg)"/>

  <circle cx="970" cy="310" r="240" fill="url(#glow)" filter="url(#soft)"/>
  <line x1="705" y1="326" x2="861" y2="228" stroke="#1E3A8A" stroke-opacity="0.34" stroke-width="1.5"/>
  <line x1="705" y1="326" x2="844" y2="405" stroke="#1E3A8A" stroke-opacity="0.29" stroke-width="1.5"/>
  <line x1="861" y1="228" x2="993" y2="223" stroke="#1E3A8A" stroke-opacity="0.18" stroke-width="1.5"/>
  <line x1="861" y1="228" x2="993" y2="398" stroke="#1E3A8A" stroke-opacity="0.36" stroke-width="1.5"/>
  <line x1="844" y1="405" x2="993" y2="223" stroke="#1E3A8A" stroke-opacity="0.39" stroke-width="1.5"/>
  <line x1="844" y1="405" x2="993" y2="398" stroke="#1E3A8A" stroke-opacity="0.24" stroke-width="1.5"/>
  <line x1="993" y1="223" x2="1117" y2="328" stroke="#1E3A8A" stroke-opacity="0.28" stroke-width="1.5"/>
  <line x1="993" y1="398" x2="1117" y2="328" stroke="#1E3A8A" stroke-opacity="0.30" stroke-width="1.5"/>
  <circle cx="705" cy="326" r="6.5" fill="#F5F7FA" stroke="#1E3A8A" stroke-width="2"/>
  <circle cx="861" cy="228" r="9" fill="url(#bi)"/>
  <circle cx="844" cy="405" r="6.5" fill="#F5F7FA" stroke="#1E3A8A" stroke-width="2"/>
  <circle cx="993" cy="223" r="9" fill="url(#bi)"/>
  <circle cx="993" cy="398" r="6.5" fill="#F5F7FA" stroke="#1E3A8A" stroke-width="2"/>
  <circle cx="1117" cy="328" r="9" fill="url(#bi)"/>
  

  <rect x="96" y="60" width="4" height="30" fill="#1E3A8A"/>
  <text x="116" y="82" font-family="'Helvetica Neue',Helvetica,Arial,sans-serif" font-size="20" font-weight="600" fill="#1E3A8A" letter-spacing="0.28em">INSIGHTS</text>
  <line x1="96" y1="116" x2="1104" y2="116" stroke="#1E3A8A" stroke-opacity="0.12" stroke-width="1"/>

  <text x="96" y="235" font-family="'Hiragino Sans','Hiragino Kaku Gothic ProN',system-ui,sans-serif" font-size="46" font-weight="600" fill="#1E3A8A" letter-spacing="0.01em">Japan Market Entry</text>
  <text x="96" y="300" font-family="'Hiragino Sans','Hiragino Kaku Gothic ProN',system-ui,sans-serif" font-size="46" font-weight="600" fill="#1E3A8A" letter-spacing="0.01em">for B2B SaaS: Common</text>
  <text x="96" y="365" font-family="'Hiragino Sans','Hiragino Kaku Gothic ProN',system-ui,sans-serif" font-size="46" font-weight="600" fill="#1E3A8A" letter-spacing="0.01em">GTM Mistakes</text>
  <rect x="96" y="389" width="64" height="3" fill="#1E3A8A"/>
  

  <rect x="0" y="546" width="1200" height="84" fill="#1E3A8A" fill-opacity="0.035"/>
  <line x1="0" y1="546" x2="1200" y2="546" stroke="#1E3A8A" stroke-opacity="0.12" stroke-width="1"/>
  <text x="96" y="598" font-family="'Helvetica Neue',Helvetica,Arial,sans-serif" font-size="22" font-weight="600" fill="#1E3A8A" letter-spacing="0.18em">CONSILEGY</text>
  <text x="1104" y="598" text-anchor="end" font-family="'Helvetica Neue',Helvetica,Arial,sans-serif" font-size="18" font-weight="400" fill="#94A3B8" letter-spacing="0.06em">consilegy.com</text>
</svg>
