<svg xmlns="http://www.w3.org/2000/svg" viewBox="0 0 760 300" role="img" aria-label="Why Global Messaging Loses Power in Japan — three-column comparison: Global Message vs Mismatch vs Japan Buyer Evaluation">
  <title>Why Global Messaging Loses Power in Japan</title>
  <defs>
    <style>text { font-family: -apple-system, BlinkMacSystemFont, 'Segoe UI', sans-serif; }</style>
    <marker id="arr" markerWidth="8" markerHeight="8" refX="6" refY="3" orient="auto">
      <path d="M0,0 L0,6 L8,3 z" fill="#64748b"/>
    </marker>
  </defs>

  <!-- Background -->
  <rect width="760" height="300" fill="#ffffff"/>

  <!-- Title -->
  <text x="380" y="28" text-anchor="middle" font-size="12.5" font-weight="700" letter-spacing="0.07em" fill="#64748b">WHY GLOBAL MESSAGING LOSES POWER IN JAPAN</text>

  <!-- ══════════════════════════════════
       LEFT CARD: Global Message
       x=35, y=46, w=206, h=158
       ══════════════════════════════════ -->
  <rect x="35" y="46" width="206" height="158" rx="10" fill="#f8fafc" stroke="#e2e8f0" stroke-width="1.5"/>
  <!-- Header background -->
  <rect x="35" y="46" width="206" height="44" rx="10" fill="#e2e8f0"/>
  <rect x="35" y="80"  width="206" height="10"  fill="#e2e8f0"/>
  <!-- Header text -->
  <text x="138" y="72" text-anchor="middle" font-size="11" font-weight="700" letter-spacing="0.07em" fill="#334155">GLOBAL MESSAGE</text>

  <!-- Items -->
  <circle cx="58" cy="107" r="3.5" fill="#94a3b8"/>
  <text x="70" y="111" font-size="11.5" fill="#475569">Speed</text>

  <circle cx="58" cy="133" r="3.5" fill="#94a3b8"/>
  <text x="70" y="137" font-size="11.5" fill="#475569">Scale</text>

  <circle cx="58" cy="159" r="3.5" fill="#94a3b8"/>
  <text x="70" y="163" font-size="11.5" fill="#475569">Innovation</text>

  <circle cx="58" cy="185" r="3.5" fill="#94a3b8"/>
  <text x="70" y="189" font-size="11.5" fill="#475569">Feature value</text>


  <!-- ══════════════════════════════════
       ARROW 1: Left → Middle
       ══════════════════════════════════ -->
  <line x1="241" y1="125" x2="283" y2="125" stroke="#64748b" stroke-width="1.5" marker-end="url(#arr)"/>


  <!-- ══════════════════════════════════
       MIDDLE CARD: Mismatch
       x=285, y=46, w=186, h=158
       ══════════════════════════════════ -->
  <rect x="285" y="46" width="186" height="158" rx="10" fill="#fefce8" stroke="#fde68a" stroke-width="1.5"/>
  <!-- Header background -->
  <rect x="285" y="46" width="186" height="44" rx="10" fill="#fef08a"/>
  <rect x="285" y="80"  width="186" height="10"  fill="#fef08a"/>
  <!-- Header text -->
  <text x="378" y="72" text-anchor="middle" font-size="11" font-weight="700" letter-spacing="0.07em" fill="#78350f">MISMATCH</text>

  <!-- Items (diamond bullet) -->
  <rect x="302" y="103" width="6" height="6" rx="1" transform="rotate(45 305 106)" fill="#f59e0b"/>
  <text x="318" y="111" font-size="11.5" fill="#92400e">Trust gap</text>

  <rect x="302" y="129" width="6" height="6" rx="1" transform="rotate(45 305 132)" fill="#f59e0b"/>
  <text x="318" y="137" font-size="11.5" fill="#92400e">Risk gap</text>

  <rect x="302" y="155" width="6" height="6" rx="1" transform="rotate(45 305 158)" fill="#f59e0b"/>
  <text x="318" y="163" font-size="11.5" fill="#92400e">Proof gap</text>

  <rect x="302" y="181" width="6" height="6" rx="1" transform="rotate(45 305 184)" fill="#f59e0b"/>
  <text x="318" y="189" font-size="11.5" fill="#92400e">Operational fit gap</text>


  <!-- ══════════════════════════════════
       ARROW 2: Middle → Right
       ══════════════════════════════════ -->
  <line x1="471" y1="125" x2="503" y2="125" stroke="#64748b" stroke-width="1.5" marker-end="url(#arr)"/>


  <!-- ══════════════════════════════════
       RIGHT CARD: Japan Buyer Evaluation
       x=505, y=46, w=220, h=184
       ══════════════════════════════════ -->
  <rect x="505" y="46" width="220" height="184" rx="10" fill="#eff6ff" stroke="#93c5fd" stroke-width="1.5"/>
  <!-- Header background -->
  <rect x="505" y="46" width="220" height="44" rx="10" fill="#1e40af"/>
  <rect x="505" y="80"  width="220" height="10"  fill="#1e40af"/>
  <!-- Header text -->
  <text x="615" y="66" text-anchor="middle" font-size="10.5" font-weight="700" letter-spacing="0.06em" fill="#ffffff">JAPAN BUYER</text>
  <text x="615" y="79" text-anchor="middle" font-size="10.5" font-weight="700" letter-spacing="0.06em" fill="#ffffff">EVALUATION</text>

  <!-- Items -->
  <circle cx="527" cy="107" r="3.5" fill="#1e40af"/>
  <text x="539" y="111" font-size="11.5" font-weight="500" fill="#1e3a8a">Trust</text>

  <circle cx="527" cy="133" r="3.5" fill="#1e40af"/>
  <text x="539" y="137" font-size="11.5" font-weight="500" fill="#1e3a8a">Risk reduction</text>

  <circle cx="527" cy="159" r="3.5" fill="#1e40af"/>
  <text x="539" y="163" font-size="11.5" font-weight="500" fill="#1e3a8a">Internal consensus</text>

  <circle cx="527" cy="185" r="3.5" fill="#1e40af"/>
  <text x="539" y="189" font-size="11.5" font-weight="500" fill="#1e3a8a">Vendor stability</text>

  <circle cx="527" cy="211" r="3.5" fill="#1e40af"/>
  <text x="539" y="215" font-size="11.5" font-weight="500" fill="#1e3a8a">Operational fit</text>


  <!-- ══════════════════════════════════
       CAPTION BAR
       ══════════════════════════════════ -->
  <rect x="35" y="248" width="690" height="36" rx="8" fill="#eff6ff" stroke="#93c5fd" stroke-width="1.5"/>
  <text x="380" y="270" text-anchor="middle" font-size="12" fill="#334155">Japan-ready messaging must translate value into the way local buyers evaluate decisions.</text>
</svg>
