<svg xmlns="http://www.w3.org/2000/svg" viewBox="0 0 1200 630" width="1200" height="630">
  <defs>
    <linearGradient id="bg" x1="0%" y1="0%" x2="100%" y2="100%">
      <stop offset="0%" stop-color="#F5F7FA"/>
      <stop offset="100%" stop-color="#E8ECF2"/>
    </linearGradient>
    <linearGradient id="bi" x1="0%" y1="0%" x2="100%" y2="100%">
      <stop offset="0%" stop-color="#3B82F6"/>
      <stop offset="100%" stop-color="#4F46E5"/>
    </linearGradient>
    <radialGradient id="glow" cx="50%" cy="50%" r="50%">
      <stop offset="0%" stop-color="#4F46E5" stop-opacity="0.20"/>
      <stop offset="100%" stop-color="#4F46E5" stop-opacity="0"/>
    </radialGradient>
    <filter id="soft" x="-60%" y="-60%" width="220%" height="220%"><feGaussianBlur stdDeviation="26"/></filter>
  </defs>
  <rect width="1200" height="630" fill="url(#bg)"/>

  <circle cx="970" cy="310" r="240" fill="url(#glow)" filter="url(#soft)"/>
  <line x1="709" y1="295" x2="861" y2="249" stroke="#1E3A8A" stroke-opacity="0.36" stroke-width="1.5"/>
  <line x1="709" y1="295" x2="858" y2="400" stroke="#1E3A8A" stroke-opacity="0.18" stroke-width="1.5"/>
  <line x1="861" y1="249" x2="989" y2="248" stroke="#1E3A8A" stroke-opacity="0.18" stroke-width="1.5"/>
  <line x1="861" y1="249" x2="990" y2="402" stroke="#1E3A8A" stroke-opacity="0.23" stroke-width="1.5"/>
  <line x1="858" y1="400" x2="989" y2="248" stroke="#1E3A8A" stroke-opacity="0.35" stroke-width="1.5"/>
  <line x1="858" y1="400" x2="990" y2="402" stroke="#1E3A8A" stroke-opacity="0.22" stroke-width="1.5"/>
  <line x1="989" y1="248" x2="1124" y2="321" stroke="#1E3A8A" stroke-opacity="0.30" stroke-width="1.5"/>
  <line x1="990" y1="402" x2="1124" y2="321" stroke="#1E3A8A" stroke-opacity="0.19" stroke-width="1.5"/>
  <circle cx="709" cy="295" r="9" fill="url(#bi)"/>
  <circle cx="861" cy="249" r="6.5" fill="#F5F7FA" stroke="#1E3A8A" stroke-width="2"/>
  <circle cx="858" cy="400" r="6.5" fill="#F5F7FA" stroke="#1E3A8A" stroke-width="2"/>
  <circle cx="989" cy="248" r="6.5" fill="#F5F7FA" stroke="#1E3A8A" stroke-width="2"/>
  <circle cx="990" cy="402" r="9" fill="url(#bi)"/>
  <circle cx="1124" cy="321" r="6.5" fill="#F5F7FA" stroke="#1E3A8A" stroke-width="2"/>
  

  <rect x="96" y="60" width="4" height="30" fill="#1E3A8A"/>
  <text x="116" y="82" font-family="'Helvetica Neue',Helvetica,Arial,sans-serif" font-size="20" font-weight="600" fill="#1E3A8A" letter-spacing="0.28em">INSIGHTS</text>
  <line x1="96" y1="116" x2="1104" y2="116" stroke="#1E3A8A" stroke-opacity="0.12" stroke-width="1"/>

  <text x="96" y="222" font-family="'Hiragino Sans','Hiragino Kaku Gothic ProN',system-ui,sans-serif" font-size="54" font-weight="600" fill="#1E3A8A" letter-spacing="0.01em">Why Japan GTM Is</text>
  <text x="96" y="299" font-family="'Hiragino Sans','Hiragino Kaku Gothic ProN',system-ui,sans-serif" font-size="54" font-weight="600" fill="#1E3A8A" letter-spacing="0.01em">Not Just</text>
  <text x="96" y="376" font-family="'Hiragino Sans','Hiragino Kaku Gothic ProN',system-ui,sans-serif" font-size="54" font-weight="600" fill="#1E3A8A" letter-spacing="0.01em">Localization</text>
  <rect x="96" y="400" width="64" height="3" fill="#1E3A8A"/>
  

  <rect x="0" y="546" width="1200" height="84" fill="#1E3A8A" fill-opacity="0.035"/>
  <line x1="0" y1="546" x2="1200" y2="546" stroke="#1E3A8A" stroke-opacity="0.12" stroke-width="1"/>
  <text x="96" y="598" font-family="'Helvetica Neue',Helvetica,Arial,sans-serif" font-size="22" font-weight="600" fill="#1E3A8A" letter-spacing="0.18em">CONSILEGY</text>
  <text x="1104" y="598" text-anchor="end" font-family="'Helvetica Neue',Helvetica,Arial,sans-serif" font-size="18" font-weight="400" fill="#94A3B8" letter-spacing="0.06em">consilegy.com</text>
</svg>
